<svg id="Logo_Motiva" data-name="Logo Motiva" xmlns="http://www.w3.org/2000/svg" width="80.799" height="20" viewBox="0 0 80.799 20">
  <g id="Group_956" data-name="Group 956" transform="translate(19.91 3.974)">
    <path id="Path_153" data-name="Path 153" d="M686.047,1522.454c.1-.818.172-1.425.217-1.816a11.494,11.494,0,0,0,.065-1.249l.551-8.959.036-2.44v-.966l2.15,0,5.086,11.659,4.915-11.655h2.147v.393c0,.365.008.8.025,1.322s.039,1.083.069,1.694l.532,8.956.113,1.356.12,1.272.09.788h-2.139v-.459q0-.679-.036-1.545t-.065-1.412l-.631-10.118-5.01,11.792h-1.139l-5.125-11.711-.6,10.037-.054,3.02v.4H686Z" transform="translate(-686.002 -1507.019)" fill="#6e0072"/>
    <path id="Path_154" data-name="Path 154" d="M932.953,1568.069a4.173,4.173,0,0,1,3.411,1.556,6.412,6.412,0,0,1,1.27,4.184,6.513,6.513,0,0,1-1.27,4.206,4.5,4.5,0,0,1-6.828.009,6.5,6.5,0,0,1-1.267-4.215,6.412,6.412,0,0,1,1.267-4.184,4.18,4.18,0,0,1,3.417-1.556m-2.876,5.74a10.19,10.19,0,0,0,.2,2.222,4.558,4.558,0,0,0,.856,1.71,2.161,2.161,0,0,0,1.821.866,2.275,2.275,0,0,0,1.095-.3,2.839,2.839,0,0,0,.952-.854,3.975,3.975,0,0,0,.614-1.435,9.212,9.212,0,0,0,.208-2.105,10.668,10.668,0,0,0-.2-2.3,3.775,3.775,0,0,0-.625-1.425,3.051,3.051,0,0,0-.952-.856,2.292,2.292,0,0,0-1.095-.284,2.147,2.147,0,0,0-1.843.866,4.78,4.78,0,0,0-.834,1.7,9.933,9.933,0,0,0-.2,2.193" transform="translate(-910.389 -1563.563)" fill="#6e0072"/>
    <path id="Path_155" data-name="Path 155" d="M1064.434,1524.273h1.846v-1.619l-.1-2.039h1.786v3.658h2.309v.861h-2.309v7.461a3.067,3.067,0,0,0,.253,1.476.948.948,0,0,0,.89.429,2.047,2.047,0,0,0,1.341-.571v1.225a4.272,4.272,0,0,1-.852.292,4.137,4.137,0,0,1-.875.088,2.2,2.2,0,0,1-2.448-2.519v-7.882h-1.846Z" transform="translate(-1036.503 -1519.612)" fill="#6e0072"/>
    <path id="Path_156" data-name="Path 156" d="M1160.952,1518.057a.94.94,0,0,1,1.052,1.078q0,1.094-1.16,1.094-1.185,0-1.185-1.094t1.293-1.078m-1.138,14.593q.093-.591.144-1.432c.03-.561.048-1.09.048-1.585v-5.854a6.766,6.766,0,0,0-.039-.833c-.023-.171-.075-.514-.153-1.025h1.9v9.008l.086,1.721v.377h-2.006Z" transform="translate(-1124.699 -1517.242)" fill="#6e0072"/>
    <path id="Path_157" data-name="Path 157" d="M1211.371,1570.179c.307,1.151.484,1.826.537,2.022s.306,1.026.768,2.483,1.049,3.109,1.767,4.945q.61-1.423,1.044-2.548c.292-.753.549-1.473.773-2.168s.445-1.421.664-2.186.442-1.617.672-2.548h1.208q-.567,2.123-.805,2.923t-.775,2.375c-.355,1.051-.677,1.947-.959,2.683s-.7,1.785-1.254,3.142h-1.553c-.528-1.21-.963-2.245-1.309-3.1s-.719-1.863-1.13-3.022-.934-2.829-1.579-5Z" transform="translate(-1170.805 -1565.517)" fill="#6e0072"/>
    <path id="Path_158" data-name="Path 158" d="M1354.912,1570.041a1.856,1.856,0,0,0-.858-1.574,3.687,3.687,0,0,0-2.2-.615,5.844,5.844,0,0,0-2.749.779v-1.483a16.519,16.519,0,0,1,2.719-.241,6.647,6.647,0,0,1,3.518.787,2.479,2.479,0,0,1,1.26,2.213v6.022a9.807,9.807,0,0,0,.087,1.468l.238.874h-1.861a2.773,2.773,0,0,1-.155-.872v-.284a7.772,7.772,0,0,1-1.736,1.024,4.382,4.382,0,0,1-1.628.305,3.531,3.531,0,0,1-2.494-.886,2.982,2.982,0,0,1-.955-2.287,2.927,2.927,0,0,1,.909-2.178,9.032,9.032,0,0,1,3.056-1.7l2.848-.942Zm0,1.266-2.394.865q-2.71,1.164-2.712,2.92a2.039,2.039,0,0,0,.669,1.592,2.5,2.5,0,0,0,1.742.6,4.016,4.016,0,0,0,2.695-1.094Z" transform="translate(-1299.232 -1562.487)" fill="#6e0072"/>
    <path id="Path_159" data-name="Path 159" d="M1468.108,1519.639a1.514,1.514,0,0,1,.125-.614,1.606,1.606,0,0,1,.842-.842,1.567,1.567,0,0,1,1.229,0,1.6,1.6,0,0,1,.842.842,1.565,1.565,0,0,1,0,1.229,1.607,1.607,0,0,1-.842.842,1.567,1.567,0,0,1-1.229,0,1.609,1.609,0,0,1-.842-.842,1.516,1.516,0,0,1-.125-.615m.23,0a1.316,1.316,0,0,0,.106.527,1.352,1.352,0,0,0,.719.719,1.362,1.362,0,0,0,1.055,0,1.353,1.353,0,0,0,.718-.719,1.361,1.361,0,0,0,0-1.055,1.352,1.352,0,0,0-.718-.718,1.359,1.359,0,0,0-1.055,0,1.35,1.35,0,0,0-.719.718,1.316,1.316,0,0,0-.106.527m1.008.906h-.229v-1.824h.7a.617.617,0,0,1,.442.13.5.5,0,0,1,.132.376.585.585,0,0,1-.036.217.435.435,0,0,1-.1.151.489.489,0,0,1-.147.1.808.808,0,0,1-.176.053l.544.8h-.259l-.544-.8h-.327Zm0-1h.293c.062,0,.125,0,.187-.006a.514.514,0,0,0,.168-.038.294.294,0,0,0,.121-.094.287.287,0,0,0,.047-.176.257.257,0,0,0-.13-.238.425.425,0,0,0-.132-.049.761.761,0,0,0-.147-.015h-.408Z" transform="translate(-1410.382 -1517.242)" fill="#6e0072"/>
  </g>
  <g id="Group_957" data-name="Group 957">
    <path id="Path_160" data-name="Path 160" d="M512.953,1528.309a41.884,41.884,0,0,1-2.923,5.244,23.174,23.174,0,0,1,4.532.17,17.1,17.1,0,0,0,4.513-4.954v0a9.71,9.71,0,0,0-6.121-.459" transform="translate(-502.55 -1522.276)" fill="#6e0072"/>
    <path id="Path_161" data-name="Path 161" d="M466.84,1607.557a23.2,23.2,0,0,0-4.386-.1c-1.182,1.8-2.42,3.463-3.524,4.862a41.145,41.145,0,0,0,7.909-4.758" transform="translate(-455.222 -1595.931)" fill="#6e0072"/>
    <path id="Path_162" data-name="Path 162" d="M419.477,1474.118c1.99-2.375,6.036-5.545,9.348-6.258a13.98,13.98,0,0,0,1.448-4.721c-6.216-.808-9.9,8.075-10.8,10.979" transform="translate(-418.68 -1461.985)" fill="#6e0072"/>
    <path id="Path_163" data-name="Path 163" d="M421.439,1539.779a31.055,31.055,0,0,1,6.09-1.063,42.4,42.4,0,0,0,2.917-5.155c-4.382,1.225-7.845,4.872-9.006,6.219" transform="translate(-420.497 -1527.426)" fill="#6e0072"/>
    <path id="Path_164" data-name="Path 164" d="M466.291,1610.509a41.344,41.344,0,0,1-8.493,5.13,38.131,38.131,0,0,0,13.326-.365c0-.553,0-2.61,0-3.2a14.571,14.571,0,0,0-4.833-1.567" transform="translate(-454.173 -1598.897)" fill="#6e0072"/>
    <path id="Path_165" data-name="Path 165" d="M415.752,1609.813a10.01,10.01,0,0,0,2.451,3.982c1.521-1.893,2.773-3.615,3.8-5.167a29.909,29.909,0,0,0-6.256,1.185" transform="translate(-415.23 -1597.079)" fill="#6e0072"/>
    <path id="Path_166" data-name="Path 166" d="M461.27,1685.066a39.811,39.811,0,0,1-5.944-.454,10.221,10.221,0,0,0,6.666,2.588v-2.141c-.24,0-.481.008-.722.008" transform="translate(-451.883 -1667.53)" fill="#6e0072"/>
    <path id="Path_167" data-name="Path 167" d="M411.4,1455.024a14.574,14.574,0,0,1,3.858-4.624,11.185,11.185,0,0,0-6.546-2.243c.093,1.929-.264,10.672.309,12.378a29.193,29.193,0,0,1,2.379-5.51" transform="translate(-408.681 -1448.156)" fill="#6e0072"/>
    <path id="Path_168" data-name="Path 168" d="M551.054,1680.894a10.244,10.244,0,0,0,6.443,2.152v-2.921a35.071,35.071,0,0,1-6.443.769" transform="translate(-540.546 -1663.374)" fill="#6e0072"/>
    <path id="Path_169" data-name="Path 169" d="M552.356,1470.059c-.069.168-.141.335-.215.5a10.068,10.068,0,0,1,5.788.422,8.734,8.734,0,0,0-4.431-4.868,14.393,14.393,0,0,1-1.142,3.943" transform="translate(-541.553 -1464.79)" fill="#6e0072"/>
    <path id="Path_170" data-name="Path 170" d="M505.261,1448.911a12.058,12.058,0,0,0-3.777-.754v2.048a7.09,7.09,0,0,1,3.777-1.294" transform="translate(-494.634 -1448.157)" fill="#6e0072"/>
    <path id="Path_171" data-name="Path 171" d="M579.531,1548.112q-.73.709-1.567,1.4a14.829,14.829,0,0,1,4.456,1.461c-.028-1.588.133-4.528-.291-5.99a16.411,16.411,0,0,1-2.6,3.126" transform="translate(-565.469 -1538.028)" fill="#6e0072"/>
  </g>
</svg>
