<svg xmlns="http://www.w3.org/2000/svg" xmlns:xlink="http://www.w3.org/1999/xlink" width="356" height="195.487" viewBox="0 0 356 195.487">
  <defs>
    <filter id="Rectangle_1930" x="0" y="68.487" width="356" height="127" filterUnits="userSpaceOnUse">
      <feOffset dx="8" dy="5" input="SourceAlpha"/>
      <feGaussianBlur stdDeviation="4" result="blur"/>
      <feFlood flood-opacity="0.059"/>
      <feComposite operator="in" in2="blur"/>
      <feComposite in="SourceGraphic"/>
    </filter>
  </defs>
  <g id="Group_5196" data-name="Group 5196" transform="translate(-18 -207.829)">
    <g transform="matrix(1, 0, 0, 1, 18, 207.83)" filter="url(#Rectangle_1930)">
      <rect id="Rectangle_1930-2" data-name="Rectangle 1930" width="332" height="103" rx="8" transform="translate(4 75.49)" fill="#fff"/>
    </g>
    <g id="Group_5144" data-name="Group 5144" transform="translate(45.699 15)">
      <g id="Group_5143" data-name="Group 5143" transform="translate(-288.219 93.381)">
        <g id="Group_5141" data-name="Group 5141" transform="translate(351.52 107.862)">
          <g id="Group_5140" data-name="Group 5140">
            <g id="Group_5139" data-name="Group 5139">
              <g id="Group_5138" data-name="Group 5138">
                <g id="Group_5137" data-name="Group 5137">
                  <text id="CORSÉ" transform="translate(0 21)" fill="#b18959" font-size="21" font-family="Avenir-Medium, Avenir" font-weight="500" letter-spacing="0.02em"><tspan x="0" y="0">CORSÉ</tspan></text>
                </g>
              </g>
            </g>
          </g>
        </g>
        <g id="Group_5142" data-name="Group 5142" transform="translate(442.118 100.091)">
          <path id="Path_18175" data-name="Path 18175" d="M403.394,128.848c.967-.935,26.2-20.327,40.293-20.327,21.094,0,25.945,19.419,25.945,21.944,0,0,.1,2.191-1.493,2.191H404.4C403.732,132.656,401.557,130.612,403.394,128.848Z" transform="translate(-402.673 -93.59)" fill="none" stroke="#dcdcdc" stroke-miterlimit="10" stroke-width="1.285"/>
          <path id="Path_18176" data-name="Path 18176" d="M403.394,132.015c.967-.935,26.2-27.6,40.293-27.6,21.094,0,25.945,26.692,25.945,29.218,0,0,.1,2.191-1.493,2.191H404.4C403.732,135.823,401.557,133.779,403.394,132.015Z" transform="translate(-402.673 -96.757)" fill="none" stroke="#dcdcdc" stroke-miterlimit="10" stroke-width="1.285"/>
          <path id="Path_18177" data-name="Path 18177" d="M403.394,135.657c.967-.935,26.2-35.566,40.293-35.566,21.094,0,25.945,34.657,25.945,37.183,0,0,.1,2.189-1.493,2.189H404.4C403.732,139.463,401.557,137.421,403.394,135.657Z" transform="translate(-402.673 -100.091)" fill="none" stroke="#b18959" stroke-miterlimit="10" stroke-width="1.285"/>
        </g>
      </g>
    </g>
    <g id="Group_5145" data-name="Group 5145" transform="translate(-4410.864 -20560.238)">
      <path id="Rectangle_2426" data-name="Rectangle 2426" d="M8,0H324.761a8,8,0,0,1,8,8V28.464a0,0,0,0,1,0,0H0a0,0,0,0,1,0,0V8A8,8,0,0,1,8,0Z" transform="translate(4432.864 20843.555)" fill="#e8e8e8"/>
      <rect id="Rectangle_2427" data-name="Rectangle 2427" width="70.479" height="74.537" transform="translate(4555.3 20872.018)" fill="#bc925a"/>
      <rect id="Rectangle_2428" data-name="Rectangle 2428" width="76.686" height="74.537" transform="translate(4625.779 20872.018)" fill="#bc925a"/>
      <path id="Rectangle_2432" data-name="Rectangle 2432" d="M0,0H63.16a0,0,0,0,1,0,0V66.537a8,8,0,0,1-8,8H0a0,0,0,0,1,0,0V0A0,0,0,0,1,0,0Z" transform="translate(4702.465 20872.018)" fill="#bc925a"/>
      <path id="Rectangle_2429" data-name="Rectangle 2429" d="M0,0H56.23a0,0,0,0,1,0,0V74.537a0,0,0,0,1,0,0H8a8,8,0,0,1-8-8V0A0,0,0,0,1,0,0Z" transform="translate(4432.864 20872.018)" fill="#bc925a"/>
      <rect id="Rectangle_2430" data-name="Rectangle 2430" width="66.205" height="74.537" transform="translate(4489.095 20872.018)" fill="#bc925a"/>
      <line id="Line_2302" data-name="Line 2302" y1="103" transform="translate(4489.095 20843.555)" fill="none" stroke="#fff" stroke-miterlimit="10" stroke-width="0.806"/>
      <line id="Line_2303" data-name="Line 2303" y1="103" transform="translate(4555.3 20843.555)" fill="none" stroke="#fff" stroke-miterlimit="10" stroke-width="0.806"/>
      <line id="Line_2304" data-name="Line 2304" y1="103" transform="translate(4625.779 20843.555)" fill="none" stroke="#fff" stroke-miterlimit="10" stroke-width="0.806"/>
      <line id="Line_2305" data-name="Line 2305" y1="103" transform="translate(4702.465 20843.555)" fill="none" stroke="#fff" stroke-miterlimit="10" stroke-width="0.806"/>
      <path id="Path_18182" data-name="Path 18182" d="M220.91,183.053l-2.064-2.993h.937l1.657,2.475,1.639-2.475h.911l-2.064,2.993,2.264,3.333h-.963l-1.822-2.806-1.83,2.806h-.9Z" transform="translate(4231.953 20698.063)" fill="#fff"/>
      <path id="Path_18183" data-name="Path 18183" d="M227.539,180.06h1.085l2.081,4.959h.017l2.1-4.959h1.059v6.327h-.729v-5.308h-.018l-2.2,5.308h-.443l-2.2-5.308h-.018v5.308h-.729Z" transform="translate(4229.34 20698.063)" fill="#fff"/>
      <path id="Path_18184" data-name="Path 18184" d="M238.693,180.06h.729v5.63h2.81v.7h-3.539Z" transform="translate(4226.053 20698.063)" fill="#fff"/>
      <path id="Path_18185" data-name="Path 18185" d="M244.3,185.533h2.125v.643H244.3Z" transform="translate(4224.4 20696.449)" fill="#fff"/>
      <path id="Path_18186" data-name="Path 18186" d="M252.137,180.757H249.63l-.026,1.707a1.24,1.24,0,0,1,.387-.121,2.818,2.818,0,0,1,.4-.031,1.994,1.994,0,0,1,.8.157,1.816,1.816,0,0,1,.62.437,1.944,1.944,0,0,1,.4.662,2.392,2.392,0,0,1,.139.827,2.234,2.234,0,0,1-.161.862,1.946,1.946,0,0,1-.442.662,2,2,0,0,1-.668.424,2.262,2.262,0,0,1-.837.152,1.878,1.878,0,0,1-1.132-.313,2.172,2.172,0,0,1-.681-.84l.729-.286a1.387,1.387,0,0,0,.456.576,1.131,1.131,0,0,0,.689.219,1.293,1.293,0,0,0,.516-.1,1.215,1.215,0,0,0,.416-.295,1.442,1.442,0,0,0,.282-.461,1.646,1.646,0,0,0,.1-.6,1.521,1.521,0,0,0-.117-.616,1.289,1.289,0,0,0-.321-.452,1.375,1.375,0,0,0-.481-.276,1.849,1.849,0,0,0-.6-.094,2.008,2.008,0,0,0-.643.111,3.045,3.045,0,0,0-.607.281l.061-3.288h3.218Z" transform="translate(4223.183 20698.063)" fill="#fff"/>
      <path id="Path_18187" data-name="Path 18187" d="M258.454,184.242h.885v.7h-.885v1.447h-.729v-1.447h-2.6v-.832l2.438-4.048h.893Zm-.729-3.306h-.017l-1.961,3.306h1.978Z" transform="translate(4221.211 20698.063)" fill="#fff"/>
      <path id="Path_18188" data-name="Path 18188" d="M220.91,205.857l-2.064-2.993h.937l1.657,2.476,1.639-2.476h.911l-2.064,2.993,2.264,3.333h-.963l-1.822-2.806-1.83,2.806h-.9Z" transform="translate(4231.953 20691.342)" fill="#fff"/>
      <path id="Path_18189" data-name="Path 18189" d="M227.539,202.864h1.085l2.081,4.96h.017l2.1-4.96h1.059v6.327h-.729v-5.308h-.018l-2.2,5.308h-.443l-2.2-5.308h-.018v5.308h-.729Z" transform="translate(4229.34 20691.342)" fill="#fff"/>
      <path id="Path_18190" data-name="Path 18190" d="M238.693,202.864h.729v5.63h2.81v.7h-3.539Z" transform="translate(4226.053 20691.342)" fill="#fff"/>
      <path id="Path_18191" data-name="Path 18191" d="M244.3,208.337h2.125v.644H244.3Z" transform="translate(4224.4 20689.729)" fill="#fff"/>
      <path id="Path_18192" data-name="Path 18192" d="M252.137,203.562H249.63l-.026,1.706a1.24,1.24,0,0,1,.387-.121,2.818,2.818,0,0,1,.4-.031,2,2,0,0,1,.8.157,1.816,1.816,0,0,1,.62.437,1.951,1.951,0,0,1,.4.662,2.392,2.392,0,0,1,.139.827,2.231,2.231,0,0,1-.161.862,1.94,1.94,0,0,1-.442.662,2.009,2.009,0,0,1-.668.425,2.276,2.276,0,0,1-.837.152,1.878,1.878,0,0,1-1.132-.313,2.175,2.175,0,0,1-.681-.839l.729-.286a1.39,1.39,0,0,0,.456.577,1.135,1.135,0,0,0,.689.219,1.293,1.293,0,0,0,.516-.1,1.215,1.215,0,0,0,.416-.295,1.435,1.435,0,0,0,.282-.461,1.646,1.646,0,0,0,.1-.6,1.521,1.521,0,0,0-.117-.616,1.28,1.28,0,0,0-.321-.451,1.366,1.366,0,0,0-.481-.277,1.868,1.868,0,0,0-.6-.094,2.007,2.007,0,0,0-.643.111,3.045,3.045,0,0,0-.607.281l.061-3.288h3.218Z" transform="translate(4223.183 20691.342)" fill="#fff"/>
      <path id="Path_18193" data-name="Path 18193" d="M255.54,204.365a1.661,1.661,0,0,1,.134-.679,1.554,1.554,0,0,1,.369-.518,1.722,1.722,0,0,1,.555-.335,2.057,2.057,0,0,1,1.388,0,1.715,1.715,0,0,1,.555.335,1.543,1.543,0,0,1,.369.518,1.661,1.661,0,0,1,.134.679,1.529,1.529,0,0,1-.269.858,1.465,1.465,0,0,1-.317.331,1.174,1.174,0,0,1-.42.205v.018a1.525,1.525,0,0,1,.5.209,1.459,1.459,0,0,1,.382.363,1.683,1.683,0,0,1,.243.487,1.976,1.976,0,0,1-.066,1.34,1.712,1.712,0,0,1-.416.585,1.793,1.793,0,0,1-.624.367,2.423,2.423,0,0,1-1.535,0,1.8,1.8,0,0,1-.625-.367,1.712,1.712,0,0,1-.416-.585,1.887,1.887,0,0,1-.152-.772,1.862,1.862,0,0,1,.087-.568,1.682,1.682,0,0,1,.243-.487,1.459,1.459,0,0,1,.382-.363,1.523,1.523,0,0,1,.5-.209v-.018a1.172,1.172,0,0,1-.421-.205,1.467,1.467,0,0,1-.516-.742A1.485,1.485,0,0,1,255.54,204.365Zm.521,2.985a1.333,1.333,0,0,0,.1.509,1.167,1.167,0,0,0,.264.4,1.253,1.253,0,0,0,.391.26,1.28,1.28,0,0,0,.962,0,1.244,1.244,0,0,0,.391-.26,1.167,1.167,0,0,0,.264-.4,1.411,1.411,0,0,0,0-1.019,1.176,1.176,0,0,0-.264-.4,1.254,1.254,0,0,0-.391-.259,1.28,1.28,0,0,0-.962,0,1.263,1.263,0,0,0-.391.259,1.176,1.176,0,0,0-.264.4A1.334,1.334,0,0,0,256.061,207.35Zm.208-2.949a1.04,1.04,0,0,0,.282.75,1.08,1.08,0,0,0,1.483,0,1.142,1.142,0,0,0,0-1.5,1.082,1.082,0,0,0-1.483,0A1.042,1.042,0,0,0,256.269,204.4Z" transform="translate(4221.15 20691.387)" fill="#fff"/>
      <path id="Path_18194" data-name="Path 18194" d="M220.91,228.662l-2.064-2.994h.937l1.657,2.476,1.639-2.476h.911l-2.064,2.994,2.264,3.333h-.963l-1.822-2.806-1.83,2.806h-.9Z" transform="translate(4231.953 20684.621)" fill="#fff"/>
      <path id="Path_18195" data-name="Path 18195" d="M227.539,225.668h1.085l2.081,4.96h.017l2.1-4.96h1.059v6.327h-.729v-5.308h-.018l-2.2,5.308h-.443l-2.2-5.308h-.018v5.308h-.729Z" transform="translate(4229.34 20684.621)" fill="#fff"/>
      <path id="Path_18196" data-name="Path 18196" d="M238.693,225.668h.729v5.63h2.81v.7h-3.539Z" transform="translate(4226.053 20684.621)" fill="#fff"/>
      <path id="Path_18197" data-name="Path 18197" d="M244.3,231.142h2.125v.643H244.3Z" transform="translate(4224.4 20683.01)" fill="#fff"/>
      <path id="Path_18198" data-name="Path 18198" d="M249.773,228.3l.017.018a1.322,1.322,0,0,1,.4-.142,2.234,2.234,0,0,1,.421-.045,1.907,1.907,0,0,1,.741.143,1.691,1.691,0,0,1,.59.406,1.892,1.892,0,0,1,.387.63,2.26,2.26,0,0,1,.138.8,2.108,2.108,0,0,1-.156.831,1.787,1.787,0,0,1-.434.621,1.963,1.963,0,0,1-.655.393,2.447,2.447,0,0,1-1.622,0,1.963,1.963,0,0,1-.655-.393,1.776,1.776,0,0,1-.433-.621,2.1,2.1,0,0,1-.157-.831,2.555,2.555,0,0,1,.165-.956,5.489,5.489,0,0,1,.416-.822l1.631-2.672h.85Zm.642.473a1.439,1.439,0,0,0-.521.094,1.232,1.232,0,0,0-.421.268,1.269,1.269,0,0,0-.281.425,1.536,1.536,0,0,0,0,1.113,1.277,1.277,0,0,0,.281.42,1.222,1.222,0,0,0,.421.268,1.491,1.491,0,0,0,1.041,0,1.225,1.225,0,0,0,.42-.268,1.289,1.289,0,0,0,.282-.42,1.545,1.545,0,0,0,0-1.113,1.282,1.282,0,0,0-.282-.425,1.236,1.236,0,0,0-.42-.268A1.444,1.444,0,0,0,250.415,228.778Z" transform="translate(4223.205 20684.621)" fill="#fff"/>
      <path id="Path_18199" data-name="Path 18199" d="M255.307,231.093l2.316-2.323c.144-.143.272-.276.382-.4a2.55,2.55,0,0,0,.273-.357,1.368,1.368,0,0,0,.161-.363,1.577,1.577,0,0,0,.051-.42,1.109,1.109,0,0,0-.086-.447,1.006,1.006,0,0,0-.239-.335,1.077,1.077,0,0,0-.355-.214,1.253,1.253,0,0,0-.438-.075,1.1,1.1,0,0,0-.772.276,1.287,1.287,0,0,0-.391.733l-.789-.071a2.01,2.01,0,0,1,.23-.683,1.627,1.627,0,0,1,.425-.5,1.881,1.881,0,0,1,.576-.3,2.394,2.394,0,0,1,1.414.009,1.809,1.809,0,0,1,.595.326,1.557,1.557,0,0,1,.407.536,1.717,1.717,0,0,1,.152.742,2.175,2.175,0,0,1-.1.679,2.3,2.3,0,0,1-.269.559,3.808,3.808,0,0,1-.382.482q-.213.227-.447.451l-1.89,1.832v.018h3.131v.7h-3.955Z" transform="translate(4221.157 20684.666)" fill="#fff"/>
      <path id="Path_18200" data-name="Path 18200" d="M220.91,251.466l-2.064-2.993h.937l1.657,2.475,1.639-2.475h.911l-2.064,2.993,2.264,3.333h-.963l-1.822-2.806-1.83,2.806h-.9Z" transform="translate(4231.953 20677.902)" fill="#fff"/>
      <path id="Path_18201" data-name="Path 18201" d="M227.539,248.473h1.085l2.081,4.959h.017l2.1-4.959h1.059V254.8h-.729v-5.308h-.018l-2.2,5.308h-.443l-2.2-5.308h-.018V254.8h-.729Z" transform="translate(4229.34 20677.902)" fill="#fff"/>
      <path id="Path_18202" data-name="Path 18202" d="M238.693,248.473h.729V254.1h2.81v.7h-3.539Z" transform="translate(4226.053 20677.902)" fill="#fff"/>
      <path id="Path_18203" data-name="Path 18203" d="M244.3,253.946h2.125v.643H244.3Z" transform="translate(4224.4 20676.289)" fill="#fff"/>
      <path id="Path_18204" data-name="Path 18204" d="M249.773,251.109l.017.018a1.342,1.342,0,0,1,.4-.142,2.235,2.235,0,0,1,.421-.045,1.907,1.907,0,0,1,.741.143,1.693,1.693,0,0,1,.59.407,1.885,1.885,0,0,1,.387.63,2.254,2.254,0,0,1,.138.8,2.105,2.105,0,0,1-.156.831,1.781,1.781,0,0,1-.434.621,1.952,1.952,0,0,1-.655.393,2.435,2.435,0,0,1-1.622,0,1.952,1.952,0,0,1-.655-.393,1.77,1.77,0,0,1-.433-.621,2.093,2.093,0,0,1-.157-.831,2.557,2.557,0,0,1,.165-.956,5.488,5.488,0,0,1,.416-.822l1.631-2.672h.85Zm.642.473a1.424,1.424,0,0,0-.521.095,1.211,1.211,0,0,0-.421.268,1.262,1.262,0,0,0-.281.425,1.532,1.532,0,0,0,0,1.112,1.265,1.265,0,0,0,.281.42,1.211,1.211,0,0,0,.421.268,1.481,1.481,0,0,0,1.041,0,1.215,1.215,0,0,0,.42-.268,1.277,1.277,0,0,0,.282-.42,1.541,1.541,0,0,0,0-1.112,1.274,1.274,0,0,0-.282-.425,1.215,1.215,0,0,0-.42-.268A1.43,1.43,0,0,0,250.415,251.582Z" transform="translate(4223.205 20677.902)" fill="#fff"/>
      <path id="Path_18205" data-name="Path 18205" d="M256.61,251.109l.018.018a1.337,1.337,0,0,1,.4-.142,2.241,2.241,0,0,1,.421-.045,1.9,1.9,0,0,1,.741.143,1.7,1.7,0,0,1,.59.407,1.884,1.884,0,0,1,.386.63,2.254,2.254,0,0,1,.139.8,2.092,2.092,0,0,1-.157.831,1.762,1.762,0,0,1-.434.621,1.941,1.941,0,0,1-.655.393,2.437,2.437,0,0,1-1.622,0,1.942,1.942,0,0,1-.655-.393,1.772,1.772,0,0,1-.434-.621,2.105,2.105,0,0,1-.156-.831,2.558,2.558,0,0,1,.164-.956,5.494,5.494,0,0,1,.417-.822l1.631-2.672h.85Zm.642.473a1.43,1.43,0,0,0-.521.095,1.215,1.215,0,0,0-.42.268,1.275,1.275,0,0,0-.282.425,1.532,1.532,0,0,0,0,1.112,1.278,1.278,0,0,0,.282.42,1.215,1.215,0,0,0,.42.268,1.481,1.481,0,0,0,1.041,0,1.208,1.208,0,0,0,.42-.268,1.266,1.266,0,0,0,.282-.42,1.532,1.532,0,0,0,0-1.112,1.264,1.264,0,0,0-.282-.425,1.208,1.208,0,0,0-.42-.268A1.427,1.427,0,0,0,257.252,251.582Z" transform="translate(4221.189 20677.902)" fill="#fff"/>
      <path id="Path_18206" data-name="Path 18206" d="M311.655,186.387h-.729v-5.362h-.017l-1.1.956-.434-.545,1.648-1.376h.633Z" transform="translate(4205.225 20698.063)" fill="#fff"/>
      <path id="Path_18207" data-name="Path 18207" d="M318.493,186.387h-.729v-5.362h-.018l-1.1.956-.434-.545,1.648-1.376h.633Z" transform="translate(4203.21 20698.063)" fill="#fff"/>
      <path id="Path_18208" data-name="Path 18208" d="M323.348,187.585a.5.5,0,0,1,.369.157.528.528,0,0,1,.152.38.512.512,0,0,1-.16.379.52.52,0,0,1-.88-.379.527.527,0,0,1,.151-.38A.5.5,0,0,1,323.348,187.585Z" transform="translate(4201.26 20695.844)" fill="#fff"/>
      <path id="Path_18209" data-name="Path 18209" d="M325.742,183.179a7.566,7.566,0,0,1,.087-1.117A3.615,3.615,0,0,1,326.15,181a2.189,2.189,0,0,1,.638-.786,1.9,1.9,0,0,1,2.073,0,2.182,2.182,0,0,1,.638.786,3.591,3.591,0,0,1,.321,1.059,7.232,7.232,0,0,1,0,2.234,3.583,3.583,0,0,1-.321,1.059,2.182,2.182,0,0,1-.638.786,1.9,1.9,0,0,1-2.073,0,2.189,2.189,0,0,1-.638-.786,3.607,3.607,0,0,1-.321-1.059A7.55,7.55,0,0,1,325.742,183.179Zm.729,0q0,.233.018.518a5.607,5.607,0,0,0,.065.576,3.741,3.741,0,0,0,.139.567,1.838,1.838,0,0,0,.243.492,1.215,1.215,0,0,0,.369.344,1.109,1.109,0,0,0,1.041,0,1.213,1.213,0,0,0,.368-.344,1.818,1.818,0,0,0,.243-.492,3.655,3.655,0,0,0,.139-.567,5.59,5.59,0,0,0,.065-.576q.018-.286.018-.518c0-.155-.006-.327-.018-.518a5.612,5.612,0,0,0-.065-.576,3.7,3.7,0,0,0-.139-.568,1.824,1.824,0,0,0-.243-.491,1.2,1.2,0,0,0-.368-.344,1.109,1.109,0,0,0-1.041,0,1.206,1.206,0,0,0-.369.344,1.844,1.844,0,0,0-.243.491,3.791,3.791,0,0,0-.139.568,5.629,5.629,0,0,0-.065.576C326.476,182.851,326.471,183.023,326.471,183.179Z" transform="translate(4200.401 20698.107)" fill="#fff"/>
      <path id="Path_18210" data-name="Path 18210" d="M311.655,209.191h-.729v-5.362h-.017l-1.1.956-.434-.545,1.648-1.376h.633Z" transform="translate(4205.225 20691.342)" fill="#fff"/>
      <path id="Path_18211" data-name="Path 18211" d="M315.633,208.288l2.316-2.323q.217-.215.382-.4a2.514,2.514,0,0,0,.273-.358,1.375,1.375,0,0,0,.161-.362,1.575,1.575,0,0,0,.051-.42,1.109,1.109,0,0,0-.086-.447,1.006,1.006,0,0,0-.238-.335,1.087,1.087,0,0,0-.356-.214,1.253,1.253,0,0,0-.438-.075,1.1,1.1,0,0,0-.772.276,1.28,1.28,0,0,0-.39.733l-.79-.071a2.035,2.035,0,0,1,.23-.684,1.633,1.633,0,0,1,.425-.5,1.878,1.878,0,0,1,.577-.3,2.377,2.377,0,0,1,1.413.009,1.789,1.789,0,0,1,.595.326,1.557,1.557,0,0,1,.407.536,1.715,1.715,0,0,1,.152.742,2.167,2.167,0,0,1-.1.679,2.272,2.272,0,0,1-.269.559,3.707,3.707,0,0,1-.382.482q-.213.229-.447.451l-1.89,1.832v.018h3.131v.7h-3.955Z" transform="translate(4203.38 20691.387)" fill="#fff"/>
      <path id="Path_18212" data-name="Path 18212" d="M323.348,210.39a.5.5,0,0,1,.369.156.528.528,0,0,1,.152.38.511.511,0,0,1-.16.379.52.52,0,0,1-.88-.379.527.527,0,0,1,.151-.38A.5.5,0,0,1,323.348,210.39Z" transform="translate(4201.26 20689.125)" fill="#fff"/>
      <path id="Path_18213" data-name="Path 18213" d="M325.742,205.983a7.55,7.55,0,0,1,.087-1.117,3.613,3.613,0,0,1,.321-1.059,2.2,2.2,0,0,1,.638-.786,1.9,1.9,0,0,1,2.073,0,2.188,2.188,0,0,1,.638.786,3.589,3.589,0,0,1,.321,1.059,7.232,7.232,0,0,1,0,2.234,3.585,3.585,0,0,1-.321,1.059,2.182,2.182,0,0,1-.638.786,1.9,1.9,0,0,1-2.073,0,2.189,2.189,0,0,1-.638-.786,3.608,3.608,0,0,1-.321-1.059A7.567,7.567,0,0,1,325.742,205.983Zm.729,0q0,.233.018.518a5.607,5.607,0,0,0,.065.576,3.771,3.771,0,0,0,.139.568,1.844,1.844,0,0,0,.243.491,1.206,1.206,0,0,0,.369.344,1.109,1.109,0,0,0,1.041,0,1.2,1.2,0,0,0,.368-.344,1.824,1.824,0,0,0,.243-.491,3.684,3.684,0,0,0,.139-.568,5.591,5.591,0,0,0,.065-.576q.018-.286.018-.518c0-.155-.006-.327-.018-.518a5.612,5.612,0,0,0-.065-.576,3.675,3.675,0,0,0-.139-.567,1.829,1.829,0,0,0-.243-.492,1.213,1.213,0,0,0-.368-.344,1.114,1.114,0,0,0-1.041,0,1.215,1.215,0,0,0-.369.344,1.849,1.849,0,0,0-.243.492,3.762,3.762,0,0,0-.139.567,5.629,5.629,0,0,0-.065.576C326.476,205.655,326.471,205.827,326.471,205.983Z" transform="translate(4200.401 20691.387)" fill="#fff"/>
      <path id="Path_18214" data-name="Path 18214" d="M311.655,231.995h-.729v-5.361h-.017l-1.1.956-.434-.545,1.648-1.377h.633Z" transform="translate(4205.225 20684.621)" fill="#fff"/>
      <path id="Path_18215" data-name="Path 18215" d="M316.922,228.3h.226a3.183,3.183,0,0,0,.473-.036,1.256,1.256,0,0,0,.451-.152.942.942,0,0,0,.338-.335,1.09,1.09,0,0,0,.135-.576,1.016,1.016,0,0,0-.291-.764,1.045,1.045,0,0,0-.759-.281,1.249,1.249,0,0,0-.676.178,1.211,1.211,0,0,0-.451.528l-.7-.277a1.6,1.6,0,0,1,.707-.8,2.163,2.163,0,0,1,1.071-.267,2.279,2.279,0,0,1,.7.107,1.782,1.782,0,0,1,.585.313,1.478,1.478,0,0,1,.4.513,1.656,1.656,0,0,1,.147.719,1.517,1.517,0,0,1-1.049,1.448v.018a1.477,1.477,0,0,1,.919.549,1.535,1.535,0,0,1,.252.478,1.944,1.944,0,0,1-.078,1.358,1.688,1.688,0,0,1-.442.571,1.85,1.85,0,0,1-.646.348,2.565,2.565,0,0,1-.777.116,2.326,2.326,0,0,1-1.223-.312,1.786,1.786,0,0,1-.754-1.019l.737-.25a1.378,1.378,0,0,0,.442.724,1.5,1.5,0,0,0,1.284.125,1.171,1.171,0,0,0,.395-.255,1.23,1.23,0,0,0,.368-.9,1.173,1.173,0,0,0-.134-.585,1.05,1.05,0,0,0-.355-.375,1.6,1.6,0,0,0-.5-.2,2.555,2.555,0,0,0-.564-.063h-.226Z" transform="translate(4203.427 20684.666)" fill="#fff"/>
      <path id="Path_18216" data-name="Path 18216" d="M323.348,233.194a.5.5,0,0,1,.369.157.525.525,0,0,1,.152.379.513.513,0,0,1-.16.38.52.52,0,0,1-.88-.38.524.524,0,0,1,.151-.379A.5.5,0,0,1,323.348,233.194Z" transform="translate(4201.26 20682.404)" fill="#fff"/>
      <path id="Path_18217" data-name="Path 18217" d="M325.742,228.787a7.557,7.557,0,0,1,.087-1.117,3.619,3.619,0,0,1,.321-1.059,2.187,2.187,0,0,1,.638-.786,1.9,1.9,0,0,1,2.073,0,2.18,2.18,0,0,1,.638.786,3.6,3.6,0,0,1,.321,1.059,7.232,7.232,0,0,1,0,2.234,3.578,3.578,0,0,1-.321,1.059,2.176,2.176,0,0,1-.638.786,1.9,1.9,0,0,1-2.073,0,2.183,2.183,0,0,1-.638-.786,3.6,3.6,0,0,1-.321-1.059A7.567,7.567,0,0,1,325.742,228.787Zm.729,0q0,.233.018.518a5.585,5.585,0,0,0,.065.576,3.771,3.771,0,0,0,.139.568,1.859,1.859,0,0,0,.243.492,1.212,1.212,0,0,0,.369.343,1.109,1.109,0,0,0,1.041,0,1.211,1.211,0,0,0,.368-.343,1.839,1.839,0,0,0,.243-.492,3.684,3.684,0,0,0,.139-.568,5.568,5.568,0,0,0,.065-.576q.018-.286.018-.518t-.018-.518a5.577,5.577,0,0,0-.065-.576,3.684,3.684,0,0,0-.139-.568,1.828,1.828,0,0,0-.243-.492,1.213,1.213,0,0,0-.368-.344,1.114,1.114,0,0,0-1.041,0,1.215,1.215,0,0,0-.369.344,1.849,1.849,0,0,0-.243.492,3.771,3.771,0,0,0-.139.568,5.594,5.594,0,0,0-.065.576Q326.47,228.555,326.471,228.787Z" transform="translate(4200.401 20684.666)" fill="#fff"/>
      <path id="Path_18218" data-name="Path 18218" d="M311.655,254.8h-.729v-5.361h-.017l-1.1.956-.434-.545,1.648-1.376h.633Z" transform="translate(4205.225 20677.902)" fill="#fff"/>
      <path id="Path_18219" data-name="Path 18219" d="M318.78,252.655h.885v.7h-.885V254.8h-.729v-1.447h-2.6v-.831l2.438-4.048h.893Zm-.729-3.307h-.017l-1.961,3.307h1.978Z" transform="translate(4203.435 20677.902)" fill="#fff"/>
      <path id="Path_18220" data-name="Path 18220" d="M323.348,256a.5.5,0,0,1,.369.157.526.526,0,0,1,.152.379.541.541,0,0,1-.521.537.541.541,0,0,1-.52-.537.525.525,0,0,1,.151-.379A.5.5,0,0,1,323.348,256Z" transform="translate(4201.26 20675.684)" fill="#fff"/>
      <path id="Path_18221" data-name="Path 18221" d="M325.742,251.592a7.567,7.567,0,0,1,.087-1.117,3.609,3.609,0,0,1,.321-1.059,2.184,2.184,0,0,1,.638-.786,1.9,1.9,0,0,1,2.073,0,2.176,2.176,0,0,1,.638.786,3.585,3.585,0,0,1,.321,1.059,7.232,7.232,0,0,1,0,2.234,3.572,3.572,0,0,1-.321,1.059,2.176,2.176,0,0,1-.638.786,1.893,1.893,0,0,1-2.073,0,2.183,2.183,0,0,1-.638-.786,3.6,3.6,0,0,1-.321-1.059A7.565,7.565,0,0,1,325.742,251.592Zm.729,0q0,.232.018.518a5.586,5.586,0,0,0,.065.576,3.741,3.741,0,0,0,.139.567,1.843,1.843,0,0,0,.243.492,1.215,1.215,0,0,0,.369.344,1.109,1.109,0,0,0,1.041,0,1.213,1.213,0,0,0,.368-.344,1.823,1.823,0,0,0,.243-.492,3.655,3.655,0,0,0,.139-.567,5.569,5.569,0,0,0,.065-.576q.018-.286.018-.518t-.018-.518a5.59,5.59,0,0,0-.065-.576,3.684,3.684,0,0,0-.139-.568,1.828,1.828,0,0,0-.243-.492,1.211,1.211,0,0,0-.368-.344,1.109,1.109,0,0,0-1.041,0,1.212,1.212,0,0,0-.369.344,1.848,1.848,0,0,0-.243.492,3.77,3.77,0,0,0-.139.568,5.607,5.607,0,0,0-.065.576Q326.47,251.359,326.471,251.592Z" transform="translate(4200.401 20677.947)" fill="#fff"/>
      <path id="Path_18222" data-name="Path 18222" d="M411.469,183.705l-.018-.018a1.318,1.318,0,0,1-.4.143,2.236,2.236,0,0,1-.421.044,1.907,1.907,0,0,1-.741-.142,1.7,1.7,0,0,1-.59-.407,1.888,1.888,0,0,1-.386-.626,2.229,2.229,0,0,1-.139-.808,2.114,2.114,0,0,1,.156-.832,1.784,1.784,0,0,1,.434-.621,1.95,1.95,0,0,1,.655-.394,2.449,2.449,0,0,1,1.622,0,1.96,1.96,0,0,1,.655.394,1.785,1.785,0,0,1,.434.621,2.114,2.114,0,0,1,.156.832,2.715,2.715,0,0,1-.165.956,3.228,3.228,0,0,1-.186.416c-.073.133-.149.269-.23.406l-1.631,2.672h-.85Zm-.642-.473a1.429,1.429,0,0,0,.52-.094,1.238,1.238,0,0,0,.421-.268,1.282,1.282,0,0,0,.281-.42,1.407,1.407,0,0,0,.1-.558,1.424,1.424,0,0,0-.1-.554,1.279,1.279,0,0,0-.281-.425,1.228,1.228,0,0,0-.421-.268,1.491,1.491,0,0,0-1.041,0,1.225,1.225,0,0,0-.42.268,1.282,1.282,0,0,0-.282.425,1.437,1.437,0,0,0-.1.554,1.42,1.42,0,0,0,.1.558,1.285,1.285,0,0,0,.282.42,1.236,1.236,0,0,0,.42.268A1.431,1.431,0,0,0,410.827,183.232Z" transform="translate(4175.934 20698.107)" fill="#fff"/>
      <path id="Path_18223" data-name="Path 18223" d="M416.6,187.585a.5.5,0,0,1,.37.157.53.53,0,0,1,.152.38.51.51,0,0,1-.161.379.521.521,0,0,1-.88-.379.525.525,0,0,1,.152-.38A.5.5,0,0,1,416.6,187.585Z" transform="translate(4173.782 20695.844)" fill="#fff"/>
      <path id="Path_18224" data-name="Path 18224" d="M418.991,183.179a7.559,7.559,0,0,1,.086-1.117A3.636,3.636,0,0,1,419.4,181a2.191,2.191,0,0,1,.638-.786,1.9,1.9,0,0,1,2.073,0,2.173,2.173,0,0,1,.637.786,3.615,3.615,0,0,1,.322,1.059,7.23,7.23,0,0,1,0,2.234,3.607,3.607,0,0,1-.322,1.059,2.173,2.173,0,0,1-.637.786,1.9,1.9,0,0,1-2.073,0,2.191,2.191,0,0,1-.638-.786,3.628,3.628,0,0,1-.321-1.059A7.543,7.543,0,0,1,418.991,183.179Zm.728,0q0,.233.018.518a5.426,5.426,0,0,0,.065.576,3.739,3.739,0,0,0,.138.567,1.839,1.839,0,0,0,.243.492,1.2,1.2,0,0,0,.368.344,1.109,1.109,0,0,0,1.041,0,1.207,1.207,0,0,0,.369-.344,1.838,1.838,0,0,0,.243-.492,3.826,3.826,0,0,0,.139-.567c.032-.193.053-.386.065-.576s.017-.363.017-.518,0-.327-.017-.518-.033-.382-.065-.576a3.878,3.878,0,0,0-.139-.568,1.844,1.844,0,0,0-.243-.491,1.2,1.2,0,0,0-.369-.344,1.109,1.109,0,0,0-1.041,0,1.2,1.2,0,0,0-.368.344,1.844,1.844,0,0,0-.243.491,3.789,3.789,0,0,0-.138.568,5.447,5.447,0,0,0-.065.576C419.725,182.851,419.719,183.023,419.719,183.179Z" transform="translate(4172.922 20698.107)" fill="#fff"/>
      <path id="Path_18225" data-name="Path 18225" d="M408.321,209.191h-.728v-5.362h-.018l-1.1.956-.433-.545,1.648-1.376h.633Z" transform="translate(4176.739 20691.342)" fill="#fff"/>
      <path id="Path_18226" data-name="Path 18226" d="M412.153,205.983a7.547,7.547,0,0,1,.086-1.117,3.634,3.634,0,0,1,.321-1.059,2.2,2.2,0,0,1,.638-.786,1.9,1.9,0,0,1,2.073,0,2.188,2.188,0,0,1,.638.786,3.612,3.612,0,0,1,.321,1.059,7.235,7.235,0,0,1,0,2.234,3.608,3.608,0,0,1-.321,1.059,2.182,2.182,0,0,1-.638.786,1.9,1.9,0,0,1-2.073,0,2.191,2.191,0,0,1-.638-.786,3.63,3.63,0,0,1-.321-1.059A7.563,7.563,0,0,1,412.153,205.983Zm.729,0q0,.233.018.518a5.6,5.6,0,0,0,.065.576,3.765,3.765,0,0,0,.138.568,1.845,1.845,0,0,0,.243.491,1.2,1.2,0,0,0,.368.344,1.109,1.109,0,0,0,1.041,0,1.2,1.2,0,0,0,.369-.344,1.844,1.844,0,0,0,.243-.491,3.862,3.862,0,0,0,.139-.568c.032-.193.053-.386.065-.576s.017-.363.017-.518,0-.327-.017-.518-.033-.382-.065-.576a3.852,3.852,0,0,0-.139-.567,1.849,1.849,0,0,0-.243-.492,1.207,1.207,0,0,0-.369-.344,1.114,1.114,0,0,0-1.041,0,1.2,1.2,0,0,0-.368.344,1.85,1.85,0,0,0-.243.492,3.756,3.756,0,0,0-.138.567,5.621,5.621,0,0,0-.065.576C412.887,205.655,412.882,205.827,412.882,205.983Z" transform="translate(4174.938 20691.387)" fill="#fff"/>
      <path id="Path_18227" data-name="Path 18227" d="M420.015,210.39a.5.5,0,0,1,.37.156.531.531,0,0,1,.152.38.509.509,0,0,1-.161.379.521.521,0,0,1-.88-.379.525.525,0,0,1,.152-.38A.5.5,0,0,1,420.015,210.39Z" transform="translate(4172.774 20689.125)" fill="#fff"/>
      <path id="Path_18228" data-name="Path 18228" d="M422.41,205.983a7.551,7.551,0,0,1,.086-1.117,3.635,3.635,0,0,1,.321-1.059,2.2,2.2,0,0,1,.638-.786,1.9,1.9,0,0,1,2.073,0,2.178,2.178,0,0,1,.637.786,3.589,3.589,0,0,1,.321,1.059,7.23,7.23,0,0,1,0,2.234,3.585,3.585,0,0,1-.321,1.059,2.173,2.173,0,0,1-.637.786,1.9,1.9,0,0,1-2.073,0,2.191,2.191,0,0,1-.638-.786,3.631,3.631,0,0,1-.321-1.059A7.567,7.567,0,0,1,422.41,205.983Zm.728,0q0,.233.018.518a5.427,5.427,0,0,0,.065.576,3.679,3.679,0,0,0,.138.568,1.843,1.843,0,0,0,.243.491,1.2,1.2,0,0,0,.368.344,1.109,1.109,0,0,0,1.041,0,1.2,1.2,0,0,0,.369-.344,1.841,1.841,0,0,0,.243-.491,3.858,3.858,0,0,0,.139-.568c.032-.193.053-.386.065-.576s.017-.363.017-.518-.006-.327-.017-.518-.033-.382-.065-.576a3.848,3.848,0,0,0-.139-.567,1.846,1.846,0,0,0-.243-.492,1.207,1.207,0,0,0-.369-.344,1.114,1.114,0,0,0-1.041,0,1.2,1.2,0,0,0-.368.344,1.847,1.847,0,0,0-.243.492,3.67,3.67,0,0,0-.138.567,5.447,5.447,0,0,0-.065.576C423.144,205.655,423.138,205.827,423.138,205.983Z" transform="translate(4171.915 20691.387)" fill="#fff"/>
      <path id="Path_18229" data-name="Path 18229" d="M408.321,231.995h-.728v-5.361h-.018l-1.1.956-.433-.545,1.648-1.377h.633Z" transform="translate(4176.739 20684.621)" fill="#fff"/>
      <path id="Path_18230" data-name="Path 18230" d="M415.159,231.995h-.728v-5.361h-.018l-1.1.956-.433-.545,1.648-1.377h.633Z" transform="translate(4174.724 20684.621)" fill="#fff"/>
      <path id="Path_18231" data-name="Path 18231" d="M420.015,233.194a.5.5,0,0,1,.37.157.528.528,0,0,1,.152.379.511.511,0,0,1-.161.38.521.521,0,0,1-.88-.38.522.522,0,0,1,.152-.379A.494.494,0,0,1,420.015,233.194Z" transform="translate(4172.774 20682.404)" fill="#fff"/>
      <path id="Path_18232" data-name="Path 18232" d="M422.41,228.787a7.558,7.558,0,0,1,.086-1.117,3.642,3.642,0,0,1,.321-1.059,2.189,2.189,0,0,1,.638-.786,1.9,1.9,0,0,1,2.073,0,2.17,2.17,0,0,1,.637.786,3.6,3.6,0,0,1,.321,1.059,7.229,7.229,0,0,1,0,2.234,3.578,3.578,0,0,1-.321,1.059,2.167,2.167,0,0,1-.637.786,1.9,1.9,0,0,1-2.073,0,2.185,2.185,0,0,1-.638-.786,3.624,3.624,0,0,1-.321-1.059A7.567,7.567,0,0,1,422.41,228.787Zm.728,0q0,.233.018.518a5.406,5.406,0,0,0,.065.576,3.679,3.679,0,0,0,.138.568,1.858,1.858,0,0,0,.243.492,1.2,1.2,0,0,0,.368.343,1.109,1.109,0,0,0,1.041,0,1.2,1.2,0,0,0,.369-.343,1.856,1.856,0,0,0,.243-.492,3.857,3.857,0,0,0,.139-.568,5.777,5.777,0,0,0,.065-.576q.017-.286.017-.518t-.017-.518a5.787,5.787,0,0,0-.065-.576,3.857,3.857,0,0,0-.139-.568,1.846,1.846,0,0,0-.243-.492,1.206,1.206,0,0,0-.369-.344,1.114,1.114,0,0,0-1.041,0,1.2,1.2,0,0,0-.368.344,1.847,1.847,0,0,0-.243.492,3.679,3.679,0,0,0-.138.568,5.414,5.414,0,0,0-.065.576Q423.138,228.555,423.138,228.787Z" transform="translate(4171.915 20684.666)" fill="#fff"/>
      <path id="Path_18233" data-name="Path 18233" d="M408.321,254.8h-.728v-5.361h-.018l-1.1.956-.433-.545,1.648-1.376h.633Z" transform="translate(4176.739 20677.902)" fill="#fff"/>
      <path id="Path_18234" data-name="Path 18234" d="M412.3,253.9l2.316-2.324c.145-.143.272-.275.382-.4a2.724,2.724,0,0,0,.274-.358,1.42,1.42,0,0,0,.16-.362,1.582,1.582,0,0,0,.051-.42,1.1,1.1,0,0,0-.087-.446.988.988,0,0,0-.238-.335,1.106,1.106,0,0,0-.355-.215,1.265,1.265,0,0,0-.438-.075,1.1,1.1,0,0,0-.772.276,1.289,1.289,0,0,0-.391.734l-.789-.072a2.026,2.026,0,0,1,.23-.683,1.615,1.615,0,0,1,.425-.5,1.872,1.872,0,0,1,.577-.3,2.391,2.391,0,0,1,1.413.009,1.8,1.8,0,0,1,.595.326,1.563,1.563,0,0,1,.408.537,1.733,1.733,0,0,1,.152.741,2.155,2.155,0,0,1-.1.679,2.3,2.3,0,0,1-.269.559,3.769,3.769,0,0,1-.382.482q-.213.227-.447.451l-1.89,1.832v.018h3.131v.7H412.3Z" transform="translate(4174.894 20677.947)" fill="#fff"/>
      <path id="Path_18235" data-name="Path 18235" d="M420.015,256a.5.5,0,0,1,.37.157.529.529,0,0,1,.152.379.543.543,0,0,1-.521.537.543.543,0,0,1-.52-.537.523.523,0,0,1,.152-.379A.494.494,0,0,1,420.015,256Z" transform="translate(4172.774 20675.684)" fill="#fff"/>
      <path id="Path_18236" data-name="Path 18236" d="M422.41,251.592a7.568,7.568,0,0,1,.086-1.117,3.631,3.631,0,0,1,.321-1.059,2.186,2.186,0,0,1,.638-.786,1.9,1.9,0,0,1,2.073,0,2.167,2.167,0,0,1,.637.786,3.585,3.585,0,0,1,.321,1.059,7.23,7.23,0,0,1,0,2.234,3.572,3.572,0,0,1-.321,1.059,2.167,2.167,0,0,1-.637.786,1.893,1.893,0,0,1-2.073,0,2.185,2.185,0,0,1-.638-.786,3.617,3.617,0,0,1-.321-1.059A7.566,7.566,0,0,1,422.41,251.592Zm.728,0q0,.232.018.518a5.407,5.407,0,0,0,.065.576,3.65,3.65,0,0,0,.138.567,1.842,1.842,0,0,0,.243.492,1.2,1.2,0,0,0,.368.344,1.109,1.109,0,0,0,1.041,0,1.206,1.206,0,0,0,.369-.344,1.84,1.84,0,0,0,.243-.492,3.826,3.826,0,0,0,.139-.567,5.777,5.777,0,0,0,.065-.576q.017-.286.017-.518t-.017-.518c-.012-.19-.033-.383-.065-.576a3.857,3.857,0,0,0-.139-.568,1.845,1.845,0,0,0-.243-.492,1.2,1.2,0,0,0-.369-.344,1.109,1.109,0,0,0-1.041,0,1.2,1.2,0,0,0-.368.344,1.847,1.847,0,0,0-.243.492,3.678,3.678,0,0,0-.138.568,5.426,5.426,0,0,0-.065.576Q423.138,251.359,423.138,251.592Z" transform="translate(4171.915 20677.947)" fill="#fff"/>
      <path id="Path_18237" data-name="Path 18237" d="M517.1,180.757H514.6l-.026,1.707a1.238,1.238,0,0,1,.385-.121,2.846,2.846,0,0,1,.4-.031,1.988,1.988,0,0,1,.8.157,1.816,1.816,0,0,1,.62.437,1.945,1.945,0,0,1,.4.662,2.376,2.376,0,0,1,.139.827,2.234,2.234,0,0,1-.161.862,1.956,1.956,0,0,1-.442.662,2,2,0,0,1-.669.424,2.258,2.258,0,0,1-.837.152,1.882,1.882,0,0,1-1.133-.313,2.173,2.173,0,0,1-.681-.84l.729-.286a1.38,1.38,0,0,0,.455.576,1.132,1.132,0,0,0,.69.219,1.292,1.292,0,0,0,.516-.1,1.218,1.218,0,0,0,.417-.295,1.426,1.426,0,0,0,.281-.461,1.63,1.63,0,0,0,.1-.6,1.533,1.533,0,0,0-.117-.616,1.308,1.308,0,0,0-.321-.452,1.378,1.378,0,0,0-.482-.276,1.853,1.853,0,0,0-.6-.094,2.01,2.01,0,0,0-.642.111,3.046,3.046,0,0,0-.607.281l.061-3.288H517.1Z" transform="translate(4145.103 20698.063)" fill="#fff"/>
      <path id="Path_18238" data-name="Path 18238" d="M521.151,187.585a.5.5,0,0,1,.37.157.53.53,0,0,1,.151.38.512.512,0,0,1-.16.379.492.492,0,0,1-.72,0,.509.509,0,0,1-.16-.379.525.525,0,0,1,.152-.38A.5.5,0,0,1,521.151,187.585Z" transform="translate(4142.971 20695.844)" fill="#fff"/>
      <path id="Path_18239" data-name="Path 18239" d="M526.839,184.242h.885v.7h-.885v1.447h-.728v-1.447h-2.6v-.832l2.437-4.048h.893Zm-.728-3.306h-.018l-1.96,3.306h1.978Z" transform="translate(4142.123 20698.063)" fill="#fff"/>
      <path id="Path_18240" data-name="Path 18240" d="M517.1,203.562H514.6l-.026,1.706a1.238,1.238,0,0,1,.385-.121,2.845,2.845,0,0,1,.4-.031,1.988,1.988,0,0,1,.8.157,1.816,1.816,0,0,1,.62.437,1.952,1.952,0,0,1,.4.662,2.376,2.376,0,0,1,.139.827,2.232,2.232,0,0,1-.161.862,1.949,1.949,0,0,1-.442.662,2.013,2.013,0,0,1-.669.425,2.272,2.272,0,0,1-.837.152,1.882,1.882,0,0,1-1.133-.313,2.175,2.175,0,0,1-.681-.839l.729-.286a1.383,1.383,0,0,0,.455.577,1.136,1.136,0,0,0,.69.219,1.291,1.291,0,0,0,.516-.1,1.218,1.218,0,0,0,.417-.295,1.419,1.419,0,0,0,.281-.461,1.63,1.63,0,0,0,.1-.6,1.533,1.533,0,0,0-.117-.616,1.3,1.3,0,0,0-.321-.451,1.369,1.369,0,0,0-.482-.277,1.873,1.873,0,0,0-.6-.094,2.01,2.01,0,0,0-.642.111,3.046,3.046,0,0,0-.607.281l.061-3.288H517.1Z" transform="translate(4145.103 20691.342)" fill="#fff"/>
      <path id="Path_18241" data-name="Path 18241" d="M521.151,210.39a.5.5,0,0,1,.37.156.53.53,0,0,1,.151.38.51.51,0,0,1-.16.379.52.52,0,0,1-.88-.379.525.525,0,0,1,.152-.38A.5.5,0,0,1,521.151,210.39Z" transform="translate(4142.971 20689.125)" fill="#fff"/>
      <path id="Path_18242" data-name="Path 18242" d="M523.926,204.365a1.66,1.66,0,0,1,.134-.679,1.543,1.543,0,0,1,.369-.518,1.715,1.715,0,0,1,.555-.335,2.055,2.055,0,0,1,1.387,0,1.718,1.718,0,0,1,.556.335,1.541,1.541,0,0,1,.368.518,1.661,1.661,0,0,1,.135.679,1.507,1.507,0,0,1-.069.446,1.49,1.49,0,0,1-.2.411,1.466,1.466,0,0,1-.317.331,1.18,1.18,0,0,1-.42.205v.018a1.531,1.531,0,0,1,.5.209,1.47,1.47,0,0,1,.382.363,1.7,1.7,0,0,1,.243.487,1.863,1.863,0,0,1,.087.568,1.9,1.9,0,0,1-.152.772,1.721,1.721,0,0,1-.416.585,1.789,1.789,0,0,1-.625.367,2.423,2.423,0,0,1-1.535,0,1.793,1.793,0,0,1-.624-.367,1.7,1.7,0,0,1-.416-.585,1.887,1.887,0,0,1-.152-.772,1.861,1.861,0,0,1,.087-.568,1.683,1.683,0,0,1,.243-.487,1.449,1.449,0,0,1,.382-.363,1.526,1.526,0,0,1,.5-.209v-.018a1.175,1.175,0,0,1-.42-.205,1.452,1.452,0,0,1-.317-.331,1.53,1.53,0,0,1-.269-.858Zm.521,2.985a1.333,1.333,0,0,0,.1.509,1.176,1.176,0,0,0,.265.4,1.249,1.249,0,0,0,.39.26,1.242,1.242,0,0,0,1.353-.26,1.147,1.147,0,0,0,.265-.4,1.4,1.4,0,0,0,0-1.019,1.156,1.156,0,0,0-.265-.4,1.248,1.248,0,0,0-.389-.259,1.284,1.284,0,0,0-.963,0,1.26,1.26,0,0,0-.39.259,1.186,1.186,0,0,0-.265.4A1.334,1.334,0,0,0,524.447,207.35Zm.208-2.949a1.043,1.043,0,0,0,.281.75,1.08,1.08,0,0,0,1.483,0,1.14,1.14,0,0,0,0-1.5,1.082,1.082,0,0,0-1.483,0A1.044,1.044,0,0,0,524.655,204.4Z" transform="translate(4142.062 20691.387)" fill="#fff"/>
      <path id="Path_18243" data-name="Path 18243" d="M514.739,228.3l.017.018a1.326,1.326,0,0,1,.4-.142,2.232,2.232,0,0,1,.42-.045,1.911,1.911,0,0,1,.742.143,1.685,1.685,0,0,1,.59.406,1.881,1.881,0,0,1,.387.63,2.261,2.261,0,0,1,.138.8,2.107,2.107,0,0,1-.155.831,1.78,1.78,0,0,1-.434.621,1.961,1.961,0,0,1-.655.393,2.449,2.449,0,0,1-1.622,0,1.953,1.953,0,0,1-.655-.393,1.769,1.769,0,0,1-.434-.621,2.1,2.1,0,0,1-.157-.831,2.541,2.541,0,0,1,.166-.956,5.424,5.424,0,0,1,.415-.822l1.631-2.672h.851Zm.642.473a1.442,1.442,0,0,0-.521.094,1.231,1.231,0,0,0-.421.268,1.269,1.269,0,0,0-.281.425,1.536,1.536,0,0,0,0,1.113,1.277,1.277,0,0,0,.281.42,1.221,1.221,0,0,0,.421.268,1.491,1.491,0,0,0,1.041,0,1.225,1.225,0,0,0,.42-.268,1.277,1.277,0,0,0,.282-.42,1.545,1.545,0,0,0,0-1.113,1.27,1.27,0,0,0-.282-.425,1.235,1.235,0,0,0-.42-.268A1.445,1.445,0,0,0,515.381,228.778Z" transform="translate(4145.124 20684.621)" fill="#fff"/>
      <path id="Path_18244" data-name="Path 18244" d="M521.151,233.194a.5.5,0,0,1,.37.157.527.527,0,0,1,.151.379.513.513,0,0,1-.16.38.494.494,0,0,1-.72,0,.511.511,0,0,1-.16-.38.522.522,0,0,1,.152-.379A.493.493,0,0,1,521.151,233.194Z" transform="translate(4142.971 20682.404)" fill="#fff"/>
      <path id="Path_18245" data-name="Path 18245" d="M523.693,231.093l2.316-2.323c.145-.143.271-.276.382-.4a2.612,2.612,0,0,0,.273-.357,1.39,1.39,0,0,0,.161-.363,1.574,1.574,0,0,0,.052-.42,1.1,1.1,0,0,0-.087-.447,1,1,0,0,0-.238-.335,1.077,1.077,0,0,0-.355-.214,1.259,1.259,0,0,0-.438-.075,1.1,1.1,0,0,0-.772.276,1.286,1.286,0,0,0-.39.733l-.789-.071a2.009,2.009,0,0,1,.23-.683,1.625,1.625,0,0,1,.425-.5,1.888,1.888,0,0,1,.578-.3,2.391,2.391,0,0,1,1.413.009,1.8,1.8,0,0,1,.594.326,1.559,1.559,0,0,1,.408.536,1.728,1.728,0,0,1,.152.742,2.176,2.176,0,0,1-.1.679,2.3,2.3,0,0,1-.269.559,3.877,3.877,0,0,1-.382.482q-.213.227-.447.451l-1.891,1.832v.018h3.132v.7h-3.955Z" transform="translate(4142.069 20684.666)" fill="#fff"/>
      <path id="Path_18246" data-name="Path 18246" d="M514.739,251.109l.017.018a1.346,1.346,0,0,1,.4-.142,2.233,2.233,0,0,1,.42-.045,1.911,1.911,0,0,1,.742.143,1.687,1.687,0,0,1,.59.407,1.874,1.874,0,0,1,.387.63,2.255,2.255,0,0,1,.138.8,2.1,2.1,0,0,1-.155.831,1.773,1.773,0,0,1-.434.621,1.949,1.949,0,0,1-.655.393,2.437,2.437,0,0,1-1.622,0,1.941,1.941,0,0,1-.655-.393,1.763,1.763,0,0,1-.434-.621,2.093,2.093,0,0,1-.157-.831,2.544,2.544,0,0,1,.166-.956,5.423,5.423,0,0,1,.415-.822l1.631-2.672h.851Zm.642.473a1.427,1.427,0,0,0-.521.095,1.211,1.211,0,0,0-.421.268,1.262,1.262,0,0,0-.281.425,1.532,1.532,0,0,0,0,1.112,1.265,1.265,0,0,0,.281.42,1.211,1.211,0,0,0,.421.268,1.481,1.481,0,0,0,1.041,0,1.215,1.215,0,0,0,.42-.268,1.265,1.265,0,0,0,.282-.42,1.541,1.541,0,0,0,0-1.112,1.263,1.263,0,0,0-.282-.425,1.215,1.215,0,0,0-.42-.268A1.43,1.43,0,0,0,515.381,251.582Z" transform="translate(4145.124 20677.902)" fill="#fff"/>
      <path id="Path_18247" data-name="Path 18247" d="M521.151,256a.5.5,0,0,1,.37.157.528.528,0,0,1,.151.379.512.512,0,0,1-.16.38.52.52,0,0,1-.88-.38.523.523,0,0,1,.152-.379A.493.493,0,0,1,521.151,256Z" transform="translate(4142.971 20675.684)" fill="#fff"/>
      <path id="Path_18248" data-name="Path 18248" d="M525,251.109l.017.018a1.339,1.339,0,0,1,.4-.142,2.227,2.227,0,0,1,.42-.045,1.911,1.911,0,0,1,.742.143,1.686,1.686,0,0,1,.59.407,1.885,1.885,0,0,1,.387.63,2.254,2.254,0,0,1,.138.8,2.093,2.093,0,0,1-.156.831,1.762,1.762,0,0,1-.434.621,1.952,1.952,0,0,1-.655.393,2.435,2.435,0,0,1-1.622,0,1.942,1.942,0,0,1-.654-.393,1.761,1.761,0,0,1-.434-.621,2.092,2.092,0,0,1-.157-.831,2.557,2.557,0,0,1,.165-.956,5.491,5.491,0,0,1,.416-.822l1.631-2.672h.851Zm.642.473a1.425,1.425,0,0,0-.521.095,1.212,1.212,0,0,0-.421.268,1.263,1.263,0,0,0-.281.425,1.531,1.531,0,0,0,0,1.112,1.266,1.266,0,0,0,.281.42,1.212,1.212,0,0,0,.421.268,1.479,1.479,0,0,0,1.04,0,1.211,1.211,0,0,0,.421-.268,1.254,1.254,0,0,0,.281-.42,1.532,1.532,0,0,0,0-1.112,1.251,1.251,0,0,0-.281-.425,1.211,1.211,0,0,0-.421-.268A1.424,1.424,0,0,0,525.638,251.582Z" transform="translate(4142.102 20677.902)" fill="#fff"/>
      <path id="Path_18249" data-name="Path 18249" d="M610.108,185.484l2.316-2.323c.145-.143.271-.276.381-.4a2.563,2.563,0,0,0,.273-.358,1.4,1.4,0,0,0,.161-.362,1.578,1.578,0,0,0,.051-.42,1.1,1.1,0,0,0-.087-.446.981.981,0,0,0-.238-.335,1.077,1.077,0,0,0-.355-.214,1.243,1.243,0,0,0-.438-.076,1.1,1.1,0,0,0-.772.277,1.284,1.284,0,0,0-.39.733l-.789-.072a2.016,2.016,0,0,1,.23-.683,1.623,1.623,0,0,1,.425-.5,1.874,1.874,0,0,1,.578-.3,2.26,2.26,0,0,1,.693-.1,2.3,2.3,0,0,1,.72.111,1.787,1.787,0,0,1,.594.327,1.542,1.542,0,0,1,.408.536,1.725,1.725,0,0,1,.152.741,2.172,2.172,0,0,1-.1.679,2.284,2.284,0,0,1-.269.559,3.763,3.763,0,0,1-.382.482q-.213.229-.447.451l-1.891,1.832v.018h3.132v.7h-3.955Z" transform="translate(4116.604 20698.107)" fill="#fff"/>
      <path id="Path_18250" data-name="Path 18250" d="M618.249,182.7l.017.018a1.34,1.34,0,0,1,.4-.143,2.222,2.222,0,0,1,.42-.044,1.923,1.923,0,0,1,.742.142,1.7,1.7,0,0,1,.59.407,1.893,1.893,0,0,1,.387.63,2.26,2.26,0,0,1,.138.8,2.092,2.092,0,0,1-.156.831,1.755,1.755,0,0,1-.434.621,1.952,1.952,0,0,1-.655.393,2.435,2.435,0,0,1-1.622,0,1.942,1.942,0,0,1-.654-.393,1.756,1.756,0,0,1-.434-.621,2.093,2.093,0,0,1-.157-.831,2.552,2.552,0,0,1,.165-.956,5.5,5.5,0,0,1,.416-.822l1.631-2.672h.851Zm.642.474a1.424,1.424,0,0,0-.521.094,1.211,1.211,0,0,0-.421.268,1.27,1.27,0,0,0-.281.425,1.534,1.534,0,0,0,0,1.112,1.263,1.263,0,0,0,.281.42,1.223,1.223,0,0,0,.421.269,1.489,1.489,0,0,0,1.04,0,1.224,1.224,0,0,0,.421-.269,1.25,1.25,0,0,0,.281-.42,1.533,1.533,0,0,0,0-1.112,1.257,1.257,0,0,0-.281-.425,1.212,1.212,0,0,0-.421-.268A1.423,1.423,0,0,0,618.891,183.17Z" transform="translate(4114.622 20698.063)" fill="#fff"/>
      <path id="Path_18251" data-name="Path 18251" d="M623.637,183.179a7.567,7.567,0,0,1,.086-1.117,3.615,3.615,0,0,1,.321-1.059,2.19,2.19,0,0,1,.638-.786,1.9,1.9,0,0,1,2.074,0,2.188,2.188,0,0,1,.637.786,3.593,3.593,0,0,1,.321,1.059,7.235,7.235,0,0,1,0,2.234,3.585,3.585,0,0,1-.321,1.059,2.188,2.188,0,0,1-.637.786,1.9,1.9,0,0,1-2.074,0,2.19,2.19,0,0,1-.638-.786,3.607,3.607,0,0,1-.321-1.059A7.551,7.551,0,0,1,623.637,183.179Zm.728,0c0,.155.006.328.018.518a5.624,5.624,0,0,0,.065.576,3.735,3.735,0,0,0,.138.567,1.859,1.859,0,0,0,.243.492,1.216,1.216,0,0,0,.369.344,1.107,1.107,0,0,0,1.04,0,1.218,1.218,0,0,0,.37-.344,1.856,1.856,0,0,0,.242-.492,3.828,3.828,0,0,0,.14-.567,5.6,5.6,0,0,0,.064-.576q.018-.286.018-.518c0-.155-.006-.327-.018-.518a5.626,5.626,0,0,0-.064-.576,3.881,3.881,0,0,0-.14-.568,1.862,1.862,0,0,0-.242-.491,1.209,1.209,0,0,0-.37-.344,1.107,1.107,0,0,0-1.04,0,1.207,1.207,0,0,0-.369.344,1.864,1.864,0,0,0-.243.491,3.785,3.785,0,0,0-.138.568,5.646,5.646,0,0,0-.065.576C624.371,182.851,624.365,183.023,624.365,183.179Z" transform="translate(4112.617 20698.107)" fill="#fff"/>
      <path id="Path_18252" data-name="Path 18252" d="M611.4,205.5h.225a3.291,3.291,0,0,0,.473-.036,1.253,1.253,0,0,0,.451-.152.945.945,0,0,0,.339-.335,1.091,1.091,0,0,0,.135-.576,1.018,1.018,0,0,0-.291-.765,1.046,1.046,0,0,0-.76-.281,1.25,1.25,0,0,0-.676.178,1.21,1.21,0,0,0-.451.527l-.7-.277a1.6,1.6,0,0,1,.707-.8,2.166,2.166,0,0,1,1.071-.268,2.273,2.273,0,0,1,.7.107,1.785,1.785,0,0,1,.586.313,1.478,1.478,0,0,1,.4.513,1.654,1.654,0,0,1,.147.719,1.515,1.515,0,0,1-1.05,1.447v.018a1.487,1.487,0,0,1,.525.2,1.508,1.508,0,0,1,.646.831,1.944,1.944,0,0,1-.078,1.358,1.712,1.712,0,0,1-.442.571,1.867,1.867,0,0,1-.646.348,2.564,2.564,0,0,1-.777.116,2.323,2.323,0,0,1-1.222-.313,1.781,1.781,0,0,1-.755-1.018l.737-.25a1.383,1.383,0,0,0,.443.724,1.5,1.5,0,0,0,1.283.125,1.163,1.163,0,0,0,.395-.255,1.222,1.222,0,0,0,.368-.9,1.171,1.171,0,0,0-.134-.585,1.039,1.039,0,0,0-.355-.375,1.589,1.589,0,0,0-.5-.2,2.566,2.566,0,0,0-.564-.063H611.4Z" transform="translate(4116.651 20691.387)" fill="#fff"/>
      <path id="Path_18253" data-name="Path 18253" d="M620.092,207.046h.885v.7h-.885v1.447h-.728v-1.447h-2.6v-.831l2.437-4.049h.893Zm-.728-3.306h-.018l-1.961,3.306h1.978Z" transform="translate(4114.643 20691.342)" fill="#fff"/>
      <path id="Path_18254" data-name="Path 18254" d="M627.451,203.562h-2.507l-.026,1.706a1.241,1.241,0,0,1,.386-.121,2.838,2.838,0,0,1,.4-.031,2,2,0,0,1,.8.157,1.817,1.817,0,0,1,.62.437,1.939,1.939,0,0,1,.4.662,2.375,2.375,0,0,1,.14.827,2.245,2.245,0,0,1-.161.862,1.939,1.939,0,0,1-.442.662,2.009,2.009,0,0,1-.668.425,2.277,2.277,0,0,1-.837.152,1.878,1.878,0,0,1-1.132-.313,2.169,2.169,0,0,1-.681-.839l.729-.286a1.389,1.389,0,0,0,.456.577,1.134,1.134,0,0,0,.689.219,1.3,1.3,0,0,0,.516-.1,1.225,1.225,0,0,0,.417-.295,1.433,1.433,0,0,0,.281-.461,1.63,1.63,0,0,0,.1-.6,1.522,1.522,0,0,0-.117-.616,1.281,1.281,0,0,0-.321-.451,1.367,1.367,0,0,0-.481-.277,1.873,1.873,0,0,0-.6-.094,2,2,0,0,0-.642.111,3.009,3.009,0,0,0-.607.281l.061-3.288h3.218Z" transform="translate(4112.585 20691.342)" fill="#fff"/>
      <path id="Path_18255" data-name="Path 18255" d="M613.255,229.851h.884v.7h-.884v1.447h-.729v-1.447h-2.6v-.831l2.437-4.049h.894Zm-.729-3.307h-.018l-1.96,3.307h1.978Z" transform="translate(4116.658 20684.621)" fill="#fff"/>
      <path id="Path_18256" data-name="Path 18256" d="M620.092,229.851h.885v.7h-.885v1.447h-.728v-1.447h-2.6v-.831l2.437-4.049h.893Zm-.728-3.307h-.018l-1.961,3.307h1.978Z" transform="translate(4114.643 20684.621)" fill="#fff"/>
      <path id="Path_18257" data-name="Path 18257" d="M623.637,228.787a7.558,7.558,0,0,1,.086-1.117,3.619,3.619,0,0,1,.321-1.059,2.187,2.187,0,0,1,.638-.786,1.9,1.9,0,0,1,2.074,0,2.185,2.185,0,0,1,.637.786,3.6,3.6,0,0,1,.321,1.059,7.235,7.235,0,0,1,0,2.234,3.58,3.58,0,0,1-.321,1.059,2.182,2.182,0,0,1-.637.786,1.9,1.9,0,0,1-2.074,0,2.184,2.184,0,0,1-.638-.786,3.6,3.6,0,0,1-.321-1.059A7.567,7.567,0,0,1,623.637,228.787Zm.728,0c0,.155.006.328.018.518a5.6,5.6,0,0,0,.065.576,3.765,3.765,0,0,0,.138.568,1.88,1.88,0,0,0,.243.492,1.213,1.213,0,0,0,.369.343,1.107,1.107,0,0,0,1.04,0,1.215,1.215,0,0,0,.37-.343,1.878,1.878,0,0,0,.242-.492,3.859,3.859,0,0,0,.14-.568,5.582,5.582,0,0,0,.064-.576q.018-.286.018-.518t-.018-.518a5.591,5.591,0,0,0-.064-.576,3.859,3.859,0,0,0-.14-.568,1.867,1.867,0,0,0-.242-.492,1.218,1.218,0,0,0-.37-.344,1.113,1.113,0,0,0-1.04,0,1.216,1.216,0,0,0-.369.344,1.869,1.869,0,0,0-.243.492,3.765,3.765,0,0,0-.138.568,5.611,5.611,0,0,0-.065.576C624.371,228.46,624.365,228.632,624.365,228.787Z" transform="translate(4112.617 20684.666)" fill="#fff"/>
      <path id="Path_18258" data-name="Path 18258" d="M613.775,249.17h-2.506l-.027,1.707a1.23,1.23,0,0,1,.386-.121,2.831,2.831,0,0,1,.4-.03,1.991,1.991,0,0,1,.8.156,1.828,1.828,0,0,1,.62.438,1.942,1.942,0,0,1,.4.661,2.4,2.4,0,0,1,.139.827,2.235,2.235,0,0,1-.161.863,1.938,1.938,0,0,1-.442.661,2.01,2.01,0,0,1-.668.425,2.275,2.275,0,0,1-.836.152,1.885,1.885,0,0,1-1.133-.313,2.178,2.178,0,0,1-.681-.84l.729-.286a1.388,1.388,0,0,0,.456.576,1.135,1.135,0,0,0,.69.219,1.282,1.282,0,0,0,.516-.1,1.218,1.218,0,0,0,.417-.295,1.416,1.416,0,0,0,.281-.46,1.634,1.634,0,0,0,.1-.6,1.538,1.538,0,0,0-.117-.616,1.3,1.3,0,0,0-.321-.451,1.369,1.369,0,0,0-.482-.277,1.873,1.873,0,0,0-.6-.093,1.988,1.988,0,0,0-.642.111,3.046,3.046,0,0,0-.607.281l.061-3.288h3.218Z" transform="translate(4116.615 20677.902)" fill="#fff"/>
      <path id="Path_18259" data-name="Path 18259" d="M620.668,249.17l-2.455,5.629h-.825l2.5-5.629h-2.967v-.7h3.747Z" transform="translate(4114.596 20677.902)" fill="#fff"/>
      <path id="Path_18260" data-name="Path 18260" d="M623.637,251.592a7.567,7.567,0,0,1,.086-1.117,3.609,3.609,0,0,1,.321-1.059,2.184,2.184,0,0,1,.638-.786,1.9,1.9,0,0,1,2.074,0,2.182,2.182,0,0,1,.637.786,3.587,3.587,0,0,1,.321,1.059,7.235,7.235,0,0,1,0,2.234,3.574,3.574,0,0,1-.321,1.059,2.182,2.182,0,0,1-.637.786,1.895,1.895,0,0,1-2.074,0,2.184,2.184,0,0,1-.638-.786,3.6,3.6,0,0,1-.321-1.059A7.565,7.565,0,0,1,623.637,251.592Zm.728,0c0,.154.006.327.018.518a5.6,5.6,0,0,0,.065.576,3.735,3.735,0,0,0,.138.567,1.863,1.863,0,0,0,.243.492,1.215,1.215,0,0,0,.369.344,1.107,1.107,0,0,0,1.04,0,1.217,1.217,0,0,0,.37-.344,1.861,1.861,0,0,0,.242-.492,3.828,3.828,0,0,0,.14-.567,5.583,5.583,0,0,0,.064-.576q.018-.286.018-.518t-.018-.518a5.6,5.6,0,0,0-.064-.576,3.859,3.859,0,0,0-.14-.568,1.866,1.866,0,0,0-.242-.492,1.215,1.215,0,0,0-.37-.344,1.108,1.108,0,0,0-1.04,0,1.213,1.213,0,0,0-.369.344,1.869,1.869,0,0,0-.243.492,3.765,3.765,0,0,0-.138.568,5.624,5.624,0,0,0-.065.576C624.371,251.264,624.365,251.436,624.365,251.592Z" transform="translate(4112.617 20677.947)" fill="#fff"/>
      <path id="Path_18270" data-name="Path 18270" d="M206.707,148.589a1.656,1.656,0,0,0-.638-.5,1.891,1.891,0,0,0-.8-.176,2.14,2.14,0,0,0-.91.188,2.1,2.1,0,0,0-.7.516,2.35,2.35,0,0,0-.448.767,2.744,2.744,0,0,0-.159.943,2.6,2.6,0,0,0,.151.889,2.213,2.213,0,0,0,.436.738,2.039,2.039,0,0,0,.7.5,2.255,2.255,0,0,0,.931.184,1.853,1.853,0,0,0,.9-.209,1.927,1.927,0,0,0,.654-.587l.679.511a2.806,2.806,0,0,1-.235.264,2.31,2.31,0,0,1-.444.344,3.159,3.159,0,0,1-.667.3,2.867,2.867,0,0,1-.9.13,2.937,2.937,0,0,1-1.27-.268,3.109,3.109,0,0,1-1.782-2.8,3.474,3.474,0,0,1,.226-1.27,3,3,0,0,1,.633-1.006,2.83,2.83,0,0,1,.977-.658,3.268,3.268,0,0,1,1.258-.235,3.079,3.079,0,0,1,1.152.226,2.157,2.157,0,0,1,.927.7Z" transform="translate(4236.806 20707.758)" fill="#3a4044"/>
      <path id="Path_18271" data-name="Path 18271" d="M210.758,150.6a2.084,2.084,0,0,1,.738-.44,2.534,2.534,0,0,1,.838-.147,2.3,2.3,0,0,1,.75.109,1.452,1.452,0,0,1,.516.293,1.155,1.155,0,0,1,.3.423,1.324,1.324,0,0,1,.1.5v2.029c0,.14,0,.268.008.386s.013.229.025.335h-.671c-.017-.2-.025-.4-.025-.6h-.017a1.447,1.447,0,0,1-.6.545,1.87,1.87,0,0,1-.8.159,1.832,1.832,0,0,1-.528-.075,1.3,1.3,0,0,1-.441-.226,1.084,1.084,0,0,1-.3-.373,1.158,1.158,0,0,1-.109-.516,1.14,1.14,0,0,1,.172-.645,1.3,1.3,0,0,1,.469-.424,2.3,2.3,0,0,1,.7-.235,4.858,4.858,0,0,1,.851-.071h.553v-.168a.833.833,0,0,0-.234-.575.85.85,0,0,0-.294-.193,1.1,1.1,0,0,0-.419-.071,1.572,1.572,0,0,0-.382.042,1.673,1.673,0,0,0-.3.105,1.294,1.294,0,0,0-.243.147l-.209.159Zm2.13,1.576a5.238,5.238,0,0,0-.549.03,2.16,2.16,0,0,0-.511.113.978.978,0,0,0-.377.235.529.529,0,0,0-.147.386.547.547,0,0,0,.231.494,1.133,1.133,0,0,0,.625.151,1.214,1.214,0,0,0,.528-.105,1,1,0,0,0,.352-.272,1.075,1.075,0,0,0,.193-.373,1.485,1.485,0,0,0,.059-.406v-.252Z" transform="translate(4234.347 20706.918)" fill="#3a4044"/>
      <path id="Path_18272" data-name="Path 18272" d="M218.88,150.34H217.8v1.8c0,.111,0,.222.008.331a.861.861,0,0,0,.063.293.47.47,0,0,0,.167.209.573.573,0,0,0,.332.08,1.643,1.643,0,0,0,.276-.025.81.81,0,0,0,.26-.092v.688a.994.994,0,0,1-.348.1,2.591,2.591,0,0,1-.331.03,1.516,1.516,0,0,1-.675-.122.824.824,0,0,1-.352-.314,1.033,1.033,0,0,1-.135-.432q-.02-.238-.02-.482V150.34h-.872v-.655h.872V148.57h.755v1.115h1.081Z" transform="translate(4232.689 20707.342)" fill="#3a4044"/>
      <path id="Path_18273" data-name="Path 18273" d="M221.326,150.6a2.087,2.087,0,0,1,.738-.44,2.535,2.535,0,0,1,.839-.147,2.3,2.3,0,0,1,.75.109,1.452,1.452,0,0,1,.516.293,1.155,1.155,0,0,1,.3.423,1.323,1.323,0,0,1,.1.5v2.029c0,.14,0,.268.009.386s.013.229.025.335h-.671c-.017-.2-.025-.4-.025-.6h-.016a1.447,1.447,0,0,1-.6.545,1.872,1.872,0,0,1-.8.159,1.839,1.839,0,0,1-.528-.075,1.3,1.3,0,0,1-.44-.226,1.094,1.094,0,0,1-.3-.373,1.158,1.158,0,0,1-.109-.516,1.14,1.14,0,0,1,.172-.645,1.3,1.3,0,0,1,.469-.424,2.3,2.3,0,0,1,.7-.235,4.858,4.858,0,0,1,.851-.071h.553v-.168a.838.838,0,0,0-.059-.3.825.825,0,0,0-.176-.272.847.847,0,0,0-.293-.193,1.1,1.1,0,0,0-.419-.071,1.568,1.568,0,0,0-.382.042,1.674,1.674,0,0,0-.3.105,1.3,1.3,0,0,0-.243.147l-.209.159Zm2.13,1.576a5.229,5.229,0,0,0-.549.03,2.152,2.152,0,0,0-.511.113.978.978,0,0,0-.377.235.529.529,0,0,0-.147.386.547.547,0,0,0,.231.494,1.13,1.13,0,0,0,.624.151,1.212,1.212,0,0,0,.528-.105.982.982,0,0,0,.352-.272,1.065,1.065,0,0,0,.193-.373,1.485,1.485,0,0,0,.059-.406v-.252Z" transform="translate(4231.232 20706.918)" fill="#3a4044"/>
      <path id="Path_18274" data-name="Path 18274" d="M227.643,146.8h.755v6.339h-.755Z" transform="translate(4229.309 20707.863)" fill="#3a4044"/>
      <path id="Path_18275" data-name="Path 18275" d="M230.139,152.1a2.016,2.016,0,0,1,.164-.813,2.11,2.11,0,0,1,.449-.663,2.136,2.136,0,0,1,3,0,2.11,2.11,0,0,1,.449.663,2.016,2.016,0,0,1,.164.813,2.067,2.067,0,0,1-.612,1.48,2.126,2.126,0,0,1-.67.444,2.148,2.148,0,0,1-2.331-.444,2.067,2.067,0,0,1-.612-1.48Zm.8,0a1.632,1.632,0,0,0,.092.557,1.255,1.255,0,0,0,.26.436,1.2,1.2,0,0,0,.411.286,1.474,1.474,0,0,0,1.09,0,1.2,1.2,0,0,0,.411-.286,1.256,1.256,0,0,0,.26-.436,1.729,1.729,0,0,0,0-1.115,1.262,1.262,0,0,0-.26-.436,1.21,1.21,0,0,0-.411-.285,1.465,1.465,0,0,0-1.09,0,1.21,1.21,0,0,0-.411.285,1.262,1.262,0,0,0-.26.436A1.639,1.639,0,0,0,230.944,152.1Z" transform="translate(4228.574 20706.918)" fill="#3a4044"/>
      <path id="Path_18276" data-name="Path 18276" d="M241.375,154.05a2.14,2.14,0,0,1-.155.826,1.9,1.9,0,0,1-.44.645,2,2,0,0,1-.688.423,2.508,2.508,0,0,1-.889.151,3.27,3.27,0,0,1-1.044-.159,2.514,2.514,0,0,1-.9-.553l.511-.638a2.1,2.1,0,0,0,.638.482,1.8,1.8,0,0,0,.779.164,1.734,1.734,0,0,0,.7-.122,1.184,1.184,0,0,0,.44-.315,1.119,1.119,0,0,0,.231-.44,1.9,1.9,0,0,0,.067-.5v-.587H240.6a1.323,1.323,0,0,1-.591.533,1.854,1.854,0,0,1-.784.171,2.1,2.1,0,0,1-.81-.154,1.909,1.909,0,0,1-1.06-1.074,2.13,2.13,0,0,1-.151-.809,2.311,2.311,0,0,1,.142-.817,1.992,1.992,0,0,1,.407-.667,1.835,1.835,0,0,1,.637-.444,2.1,2.1,0,0,1,.834-.159,1.856,1.856,0,0,1,.784.176,1.44,1.44,0,0,1,.6.5h.017v-.571h.755Zm-2.062-3.338a1.364,1.364,0,0,0-.545.105,1.21,1.21,0,0,0-.411.285,1.262,1.262,0,0,0-.26.436,1.639,1.639,0,0,0-.092.558,1.338,1.338,0,0,0,.352.968,1.436,1.436,0,0,0,1.912,0,1.334,1.334,0,0,0,.352-.968,1.639,1.639,0,0,0-.092-.558,1.262,1.262,0,0,0-.26-.436,1.209,1.209,0,0,0-.411-.285A1.363,1.363,0,0,0,239.313,150.713Z" transform="translate(4226.493 20706.918)" fill="#3a4044"/>
      <path id="Path_18277" data-name="Path 18277" d="M248.258,154.125H247.5v-.612h-.016a1.11,1.11,0,0,1-.5.516,1.637,1.637,0,0,1-.813.2,1.714,1.714,0,0,1-.553-.088,1.235,1.235,0,0,1-.457-.273,1.309,1.309,0,0,1-.315-.473,1.809,1.809,0,0,1-.118-.683v-2.557h.755V152.5a1.318,1.318,0,0,0,.075.474.864.864,0,0,0,.2.319.75.75,0,0,0,.289.176,1.055,1.055,0,0,0,.339.054,1.22,1.22,0,0,0,.436-.075.907.907,0,0,0,.353-.239,1.136,1.136,0,0,0,.235-.415,1.9,1.9,0,0,0,.083-.6v-2.046h.755Z" transform="translate(4224.272 20706.875)" fill="#3a4044"/>
      <path id="Path_18278" data-name="Path 18278" d="M251.818,152.373a1,1,0,0,0,.114.474,1.175,1.175,0,0,0,.3.365,1.378,1.378,0,0,0,.427.235,1.538,1.538,0,0,0,.5.083,1.129,1.129,0,0,0,.612-.163,2,2,0,0,0,.478-.432l.57.436a2.1,2.1,0,0,1-1.76.813,2.183,2.183,0,0,1-.851-.159,1.86,1.86,0,0,1-.645-.44,1.959,1.959,0,0,1-.407-.662,2.354,2.354,0,0,1-.142-.826,2.168,2.168,0,0,1,.155-.826,2.055,2.055,0,0,1,.427-.662,1.943,1.943,0,0,1,.65-.44,2.081,2.081,0,0,1,.821-.159,1.954,1.954,0,0,1,.893.185,1.772,1.772,0,0,1,.6.482,1.908,1.908,0,0,1,.339.671,2.8,2.8,0,0,1,.1.759v.268Zm2.381-.6a1.6,1.6,0,0,0-.08-.461,1.008,1.008,0,0,0-.214-.365.989.989,0,0,0-.356-.243,1.293,1.293,0,0,0-.5-.088,1.228,1.228,0,0,0-.9.377,1.239,1.239,0,0,0-.248.373,1.027,1.027,0,0,0-.088.406Z" transform="translate(4222.422 20706.918)" fill="#3a4044"/>
      <path id="Path_18279" data-name="Path 18279" d="M261.545,151.6h-.8v-.654h.889l.168-1.208h-.8v-.654h.889l.235-1.71h.655l-.235,1.71h.98l.235-1.71h.655l-.235,1.71h.8v.654h-.889l-.168,1.208h.8v.654h-.888l-.235,1.71h-.655l.235-1.71H262.2l-.234,1.71h-.655Zm.914-1.861-.168,1.208h.981l.167-1.208Z" transform="translate(4219.553 20707.695)" fill="#3a4044"/>
      <path id="Path_18280" data-name="Path 18280" d="M295.571,147.37h2.062a2.7,2.7,0,0,1,.717.092,1.7,1.7,0,0,1,.57.273,1.273,1.273,0,0,1,.377.461,1.471,1.471,0,0,1,.138.658,1.215,1.215,0,0,1-.285.834,1.667,1.667,0,0,1-.738.474v.016a1.265,1.265,0,0,1,.5.138,1.381,1.381,0,0,1,.407.319,1.536,1.536,0,0,1,.372,1.018,1.485,1.485,0,0,1-.163.709,1.534,1.534,0,0,1-.449.516,2.093,2.093,0,0,1-.662.319,2.923,2.923,0,0,1-.814.109h-2.037Zm.8,2.465h1.1a1.884,1.884,0,0,0,.427-.047.953.953,0,0,0,.353-.154.79.79,0,0,0,.239-.277.878.878,0,0,0,.087-.411.839.839,0,0,0-.939-.871h-1.266Zm0,2.767h1.182a2.428,2.428,0,0,0,.407-.038,1.216,1.216,0,0,0,.415-.151,1.032,1.032,0,0,0,.327-.306.876.876,0,0,0,.134-.511.937.937,0,0,0-.343-.792,1.49,1.49,0,0,0-.931-.264h-1.191Z" transform="translate(4209.292 20707.695)" fill="#3a4044"/>
      <path id="Path_18281" data-name="Path 18281" d="M302.722,150.6a2.087,2.087,0,0,1,.738-.44,2.535,2.535,0,0,1,.839-.147,2.3,2.3,0,0,1,.75.109,1.451,1.451,0,0,1,.516.293,1.155,1.155,0,0,1,.3.423,1.323,1.323,0,0,1,.1.5v2.029c0,.14,0,.268.009.386s.013.229.025.335h-.671c-.017-.2-.025-.4-.025-.6h-.016a1.447,1.447,0,0,1-.6.545,1.872,1.872,0,0,1-.8.159,1.839,1.839,0,0,1-.528-.075,1.3,1.3,0,0,1-.44-.226,1.094,1.094,0,0,1-.3-.373,1.158,1.158,0,0,1-.109-.516,1.14,1.14,0,0,1,.172-.645,1.3,1.3,0,0,1,.469-.424,2.3,2.3,0,0,1,.7-.235,4.853,4.853,0,0,1,.851-.071h.553v-.168a.838.838,0,0,0-.059-.3.825.825,0,0,0-.176-.272.847.847,0,0,0-.293-.193,1.1,1.1,0,0,0-.419-.071,1.568,1.568,0,0,0-.382.042,1.673,1.673,0,0,0-.3.105,1.3,1.3,0,0,0-.243.147l-.209.159Zm2.13,1.576a5.229,5.229,0,0,0-.549.03,2.151,2.151,0,0,0-.511.113.978.978,0,0,0-.377.235.529.529,0,0,0-.147.386.547.547,0,0,0,.231.494,1.13,1.13,0,0,0,.624.151,1.212,1.212,0,0,0,.528-.105A.982.982,0,0,0,305,153.2a1.065,1.065,0,0,0,.193-.373,1.485,1.485,0,0,0,.059-.406v-.252Z" transform="translate(4207.247 20706.918)" fill="#3a4044"/>
      <path id="Path_18282" data-name="Path 18282" d="M310.928,151.107a1.154,1.154,0,0,0-.331-.281.956.956,0,0,0-.482-.114.915.915,0,0,0-.465.114.361.361,0,0,0-.2.331.378.378,0,0,0,.114.285.89.89,0,0,0,.268.176,1.6,1.6,0,0,0,.331.1l.3.059a3.579,3.579,0,0,1,.457.142,1.251,1.251,0,0,1,.369.218.944.944,0,0,1,.243.327,1.128,1.128,0,0,1,.088.47,1.1,1.1,0,0,1-.142.574,1.2,1.2,0,0,1-.369.389,1.53,1.53,0,0,1-.516.218,2.551,2.551,0,0,1-.583.068,2.314,2.314,0,0,1-.868-.151,1.566,1.566,0,0,1-.667-.554l.571-.469a2.354,2.354,0,0,0,.411.327,1.018,1.018,0,0,0,.554.142,1.457,1.457,0,0,0,.289-.029.9.9,0,0,0,.26-.092.574.574,0,0,0,.185-.159.365.365,0,0,0,.071-.222.383.383,0,0,0-.105-.276.769.769,0,0,0-.251-.172,1.835,1.835,0,0,0-.31-.1c-.109-.025-.205-.046-.289-.063-.162-.039-.316-.084-.461-.134a1.388,1.388,0,0,1-.386-.2.935.935,0,0,1-.268-.319,1.024,1.024,0,0,1-.1-.478,1.081,1.081,0,0,1,.13-.541,1.153,1.153,0,0,1,.344-.382,1.539,1.539,0,0,1,.486-.226,2.041,2.041,0,0,1,1.32.075,1.225,1.225,0,0,1,.588.5Z" transform="translate(4205.488 20706.918)" fill="#3a4044"/>
      <path id="Path_18283" data-name="Path 18283" d="M314.706,152.373a.989.989,0,0,0,.114.474,1.176,1.176,0,0,0,.3.365,1.382,1.382,0,0,0,.427.235,1.539,1.539,0,0,0,.5.083,1.129,1.129,0,0,0,.612-.163,1.993,1.993,0,0,0,.478-.432l.571.436a2.1,2.1,0,0,1-1.761.813,2.179,2.179,0,0,1-.851-.159,1.863,1.863,0,0,1-.646-.44,1.957,1.957,0,0,1-.406-.662,2.338,2.338,0,0,1-.142-.826,2.168,2.168,0,0,1,.155-.826,2.043,2.043,0,0,1,.427-.662,1.94,1.94,0,0,1,.65-.44,2.087,2.087,0,0,1,.822-.159,1.958,1.958,0,0,1,.893.185,1.763,1.763,0,0,1,.6.482,1.9,1.9,0,0,1,.34.671,2.8,2.8,0,0,1,.1.759v.268Zm2.381-.6a1.6,1.6,0,0,0-.08-.461,1.008,1.008,0,0,0-.214-.365.989.989,0,0,0-.356-.243,1.3,1.3,0,0,0-.5-.088,1.224,1.224,0,0,0-.9.377,1.239,1.239,0,0,0-.248.373,1.015,1.015,0,0,0-.088.406Z" transform="translate(4203.891 20706.918)" fill="#3a4044"/>
      <path id="Path_18284" data-name="Path 18284" d="M325.637,147.451q-.269.427-.47.822a5.633,5.633,0,0,0-.335.8,5.263,5.263,0,0,0-.2.843,6.216,6.216,0,0,0-.067.939,5.974,5.974,0,0,0,.269,1.786,5.45,5.45,0,0,0,.8,1.6l-.5.336a6.381,6.381,0,0,1-.9-1.735,6.1,6.1,0,0,1-.323-1.988,6.391,6.391,0,0,1,1.224-3.723Z" transform="translate(4200.941 20707.766)" fill="#3a4044"/>
      <path id="Path_18285" data-name="Path 18285" d="M330.214,151.169a1.581,1.581,0,0,0-.44-.331,1.235,1.235,0,0,0-.549-.113,1.219,1.219,0,0,0-.542.113,1.11,1.11,0,0,0-.385.31,1.382,1.382,0,0,0-.235.453,1.782,1.782,0,0,0-.08.533,1.486,1.486,0,0,0,.092.523,1.329,1.329,0,0,0,.26.432,1.2,1.2,0,0,0,.4.289,1.282,1.282,0,0,0,.528.1,1.209,1.209,0,0,0,.545-.113,1.4,1.4,0,0,0,.419-.331l.537.537a1.693,1.693,0,0,1-.683.47,2.4,2.4,0,0,1-.826.142,2.283,2.283,0,0,1-.843-.151,1.953,1.953,0,0,1-.658-.424,1.876,1.876,0,0,1-.427-.653,2.269,2.269,0,0,1-.151-.843,2.3,2.3,0,0,1,.151-.847,1.946,1.946,0,0,1,.423-.662,1.909,1.909,0,0,1,.654-.432,2.237,2.237,0,0,1,.851-.155,2.275,2.275,0,0,1,.834.155,1.836,1.836,0,0,1,.692.473Z" transform="translate(4199.978 20706.914)" fill="#3a4044"/>
      <path id="Path_18286" data-name="Path 18286" d="M333.182,150.109h.7v.621h.017a.652.652,0,0,1,.13-.209,1.3,1.3,0,0,1,.268-.239,1.637,1.637,0,0,1,.385-.193,1.433,1.433,0,0,1,.491-.08,1.4,1.4,0,0,1,.746.185,1.379,1.379,0,0,1,.5.553,1.27,1.27,0,0,1,.544-.553,1.515,1.515,0,0,1,.712-.185,1.649,1.649,0,0,1,.755.151,1.219,1.219,0,0,1,.461.4,1.516,1.516,0,0,1,.231.561,3.272,3.272,0,0,1,.063.65v2.314h-.754V151.87a3.222,3.222,0,0,0-.03-.436,1,1,0,0,0-.122-.369.691.691,0,0,0-.26-.256,1.073,1.073,0,0,0-1.224.239,1.473,1.473,0,0,0-.234.864v2.171h-.755V152a4.173,4.173,0,0,0-.03-.52,1.213,1.213,0,0,0-.118-.407.644.644,0,0,0-.251-.268.863.863,0,0,0-.44-.1.983.983,0,0,0-.39.08.928.928,0,0,0-.331.238,1.167,1.167,0,0,0-.226.407,1.823,1.823,0,0,0-.084.583v2.062h-.755Z" transform="translate(4198.209 20706.918)" fill="#3a4044"/>
      <path id="Path_18287" data-name="Path 18287" d="M342.787,154.259q.269-.427.47-.822a5.646,5.646,0,0,0,.335-.8,5.162,5.162,0,0,0,.2-.842,6.223,6.223,0,0,0,.067-.939,5.977,5.977,0,0,0-.268-1.786,5.466,5.466,0,0,0-.8-1.6l.5-.336a6.4,6.4,0,0,1,.9,1.736,6.12,6.12,0,0,1,.322,1.987,6.265,6.265,0,0,1-.31,1.928,6.335,6.335,0,0,1-.914,1.794Z" transform="translate(4195.378 20707.766)" fill="#3a4044"/>
      <path id="Path_18288" data-name="Path 18288" d="M386.967,147.37h.805v2.465h3.077V147.37h.8v5.936h-.8V150.59h-3.077v2.716h-.805Z" transform="translate(4182.359 20707.695)" fill="#3a4044"/>
      <path id="Path_18289" data-name="Path 18289" d="M395.975,152.373a.989.989,0,0,0,.114.474,1.166,1.166,0,0,0,.3.365,1.373,1.373,0,0,0,.427.235,1.539,1.539,0,0,0,.5.083,1.125,1.125,0,0,0,.612-.163,1.982,1.982,0,0,0,.478-.432l.57.436a2.1,2.1,0,0,1-1.76.813,2.185,2.185,0,0,1-.851-.159,1.867,1.867,0,0,1-.645-.44,1.958,1.958,0,0,1-.406-.662,2.338,2.338,0,0,1-.142-.826,2.168,2.168,0,0,1,.155-.826,2.043,2.043,0,0,1,.427-.662,1.939,1.939,0,0,1,.65-.44,2.084,2.084,0,0,1,.822-.159,1.958,1.958,0,0,1,.893.185,1.77,1.77,0,0,1,.6.482,1.91,1.91,0,0,1,.34.671,2.822,2.822,0,0,1,.1.759v.268Zm2.381-.6a1.6,1.6,0,0,0-.08-.461,1.018,1.018,0,0,0-.214-.365.989.989,0,0,0-.356-.243,1.3,1.3,0,0,0-.5-.088,1.225,1.225,0,0,0-.508.1,1.236,1.236,0,0,0-.637.646,1.028,1.028,0,0,0-.088.406Z" transform="translate(4179.942 20706.918)" fill="#3a4044"/>
      <path id="Path_18290" data-name="Path 18290" d="M401.945,147.9a.557.557,0,1,1,.164.39A.531.531,0,0,1,401.945,147.9Zm.176,1.425h.755V153.3h-.755Z" transform="translate(4177.946 20707.701)" fill="#3a4044"/>
      <path id="Path_18291" data-name="Path 18291" d="M408.866,154.05a2.14,2.14,0,0,1-.154.826,1.908,1.908,0,0,1-.441.645,2,2,0,0,1-.688.423,2.506,2.506,0,0,1-.889.151,3.263,3.263,0,0,1-1.043-.159,2.517,2.517,0,0,1-.9-.553l.512-.638a2.084,2.084,0,0,0,.637.482,1.8,1.8,0,0,0,.78.164,1.736,1.736,0,0,0,.7-.122,1.184,1.184,0,0,0,.44-.315,1.128,1.128,0,0,0,.231-.44,1.875,1.875,0,0,0,.067-.5v-.587h-.025a1.327,1.327,0,0,1-.591.533,1.862,1.862,0,0,1-.784.171,2.1,2.1,0,0,1-.809-.154,1.913,1.913,0,0,1-1.061-1.074,2.144,2.144,0,0,1-.151-.809,2.311,2.311,0,0,1,.143-.817,1.979,1.979,0,0,1,.406-.667,1.848,1.848,0,0,1,.637-.444,2.1,2.1,0,0,1,.834-.159,1.857,1.857,0,0,1,.784.176,1.445,1.445,0,0,1,.6.5h.016v-.571h.755Zm-2.062-3.338a1.364,1.364,0,0,0-.545.105,1.207,1.207,0,0,0-.41.285,1.252,1.252,0,0,0-.26.436,1.639,1.639,0,0,0-.092.558,1.335,1.335,0,0,0,.353.968,1.435,1.435,0,0,0,1.911,0,1.334,1.334,0,0,0,.352-.968,1.639,1.639,0,0,0-.092-.558,1.261,1.261,0,0,0-.26-.436,1.2,1.2,0,0,0-.411-.285A1.363,1.363,0,0,0,406.8,150.713Z" transform="translate(4177.137 20706.918)" fill="#3a4044"/>
      <path id="Path_18292" data-name="Path 18292" d="M412.228,146.8h.754v2.977H413a1.113,1.113,0,0,1,.494-.516,1.64,1.64,0,0,1,.814-.2,1.713,1.713,0,0,1,.549.088,1.234,1.234,0,0,1,.461.272,1.314,1.314,0,0,1,.315.474,1.824,1.824,0,0,1,.117.683v2.557h-.755V150.79a1.331,1.331,0,0,0-.075-.474.864.864,0,0,0-.2-.319.771.771,0,0,0-.289-.176,1.082,1.082,0,0,0-.34-.054,1.238,1.238,0,0,0-.436.075.92.92,0,0,0-.352.239,1.125,1.125,0,0,0-.235.415,1.891,1.891,0,0,0-.084.6v2.045h-.754Z" transform="translate(4174.916 20707.863)" fill="#3a4044"/>
      <path id="Path_18293" data-name="Path 18293" d="M420.725,150.34h-1.082v1.8c0,.111,0,.222.008.331a.862.862,0,0,0,.063.293.475.475,0,0,0,.167.209.572.572,0,0,0,.332.08,1.637,1.637,0,0,0,.276-.025.816.816,0,0,0,.26-.092v.688a.993.993,0,0,1-.348.1,2.581,2.581,0,0,1-.331.03,1.514,1.514,0,0,1-.675-.122.824.824,0,0,1-.352-.314,1.013,1.013,0,0,1-.135-.432q-.02-.238-.02-.482V150.34h-.872v-.655h.872V148.57h.754v1.115h1.082Z" transform="translate(4173.209 20707.342)" fill="#3a4044"/>
      <path id="Path_18294" data-name="Path 18294" d="M428.029,147.451q-.269.427-.47.822a5.72,5.72,0,0,0-.336.8,5.262,5.262,0,0,0-.2.843,6.221,6.221,0,0,0-.067.939,5.974,5.974,0,0,0,.268,1.786,5.452,5.452,0,0,0,.805,1.6l-.5.336a6.4,6.4,0,0,1-.9-1.735,6.106,6.106,0,0,1-.323-1.988,6.248,6.248,0,0,1,.31-1.928,6.342,6.342,0,0,1,.913-1.794Z" transform="translate(4170.768 20707.766)" fill="#3a4044"/>
      <path id="Path_18295" data-name="Path 18295" d="M432.606,151.169a1.581,1.581,0,0,0-.44-.331,1.235,1.235,0,0,0-.549-.113,1.215,1.215,0,0,0-.541.113,1.1,1.1,0,0,0-.386.31,1.4,1.4,0,0,0-.235.453,1.783,1.783,0,0,0-.08.533,1.486,1.486,0,0,0,.092.523,1.319,1.319,0,0,0,.26.432,1.2,1.2,0,0,0,.4.289,1.284,1.284,0,0,0,.528.1,1.209,1.209,0,0,0,.545-.113,1.4,1.4,0,0,0,.419-.331l.537.537a1.693,1.693,0,0,1-.683.47,2.4,2.4,0,0,1-.825.142,2.284,2.284,0,0,1-.844-.151,1.936,1.936,0,0,1-.657-.424,1.868,1.868,0,0,1-.428-.653,2.283,2.283,0,0,1-.151-.843,2.316,2.316,0,0,1,.151-.847,1.937,1.937,0,0,1,.424-.662,1.906,1.906,0,0,1,.653-.432,2.238,2.238,0,0,1,.852-.155,2.274,2.274,0,0,1,.834.155,1.836,1.836,0,0,1,.692.473Z" transform="translate(4169.805 20706.914)" fill="#3a4044"/>
      <path id="Path_18296" data-name="Path 18296" d="M435.574,150.109h.7v.621h.018a.656.656,0,0,1,.129-.209,1.366,1.366,0,0,1,.269-.239,1.641,1.641,0,0,1,.386-.193,1.429,1.429,0,0,1,.49-.08,1.4,1.4,0,0,1,.746.185,1.372,1.372,0,0,1,.494.553,1.276,1.276,0,0,1,.546-.553,1.51,1.51,0,0,1,.712-.185,1.649,1.649,0,0,1,.755.151,1.214,1.214,0,0,1,.461.4,1.506,1.506,0,0,1,.231.561,3.275,3.275,0,0,1,.063.65v2.314h-.754V151.87a3.107,3.107,0,0,0-.03-.436,1.011,1.011,0,0,0-.121-.369.693.693,0,0,0-.26-.256,1.073,1.073,0,0,0-1.224.239,1.478,1.478,0,0,0-.235.864v2.171H438.2V152a4.319,4.319,0,0,0-.03-.52,1.215,1.215,0,0,0-.117-.407.646.646,0,0,0-.252-.268.867.867,0,0,0-.441-.1.984.984,0,0,0-.389.08.925.925,0,0,0-.331.238,1.157,1.157,0,0,0-.226.407,1.823,1.823,0,0,0-.084.583v2.062h-.755Z" transform="translate(4168.036 20706.918)" fill="#3a4044"/>
      <path id="Path_18297" data-name="Path 18297" d="M445.179,154.259c.179-.285.335-.559.47-.822a5.649,5.649,0,0,0,.335-.8,5.239,5.239,0,0,0,.2-.842,6.133,6.133,0,0,0,.067-.939,6,6,0,0,0-.268-1.786,5.466,5.466,0,0,0-.8-1.6l.5-.336a6.415,6.415,0,0,1,.9,1.736,6.12,6.12,0,0,1,.323,1.987,6.4,6.4,0,0,1-1.224,3.723Z" transform="translate(4165.206 20707.766)" fill="#3a4044"/>
      <path id="Path_18298" data-name="Path 18298" d="M482.253,147.37h2.088a2.437,2.437,0,0,1,.939.155,1.6,1.6,0,0,1,.583.394,1.348,1.348,0,0,1,.3.537,2.007,2.007,0,0,1,0,1.149,1.343,1.343,0,0,1-.3.537,1.6,1.6,0,0,1-.583.394,2.437,2.437,0,0,1-.939.155h-1.283v2.616h-.8Zm.8,2.616h1.057a2.865,2.865,0,0,0,.466-.038,1.242,1.242,0,0,0,.411-.138.764.764,0,0,0,.289-.289,1.162,1.162,0,0,0,0-.981.764.764,0,0,0-.289-.289,1.258,1.258,0,0,0-.411-.138,2.865,2.865,0,0,0-.466-.037h-1.057Z" transform="translate(4154.28 20707.695)" fill="#3a4044"/>
      <path id="Path_18299" data-name="Path 18299" d="M489.028,150.109h.755v.613h.017a1.069,1.069,0,0,1,.2-.29,1.3,1.3,0,0,1,.281-.222,1.485,1.485,0,0,1,.339-.147,1.309,1.309,0,0,1,.369-.054,1.064,1.064,0,0,1,.335.05l-.034.813c-.061-.017-.123-.03-.183-.042a1.03,1.03,0,0,0-.185-.017,1.11,1.11,0,0,0-.847.31,1.361,1.361,0,0,0-.293.964v2h-.755Z" transform="translate(4152.284 20706.918)" fill="#3a4044"/>
      <path id="Path_18300" data-name="Path 18300" d="M493.153,152.1a2.016,2.016,0,0,1,.164-.813,2.109,2.109,0,0,1,.449-.663,2.137,2.137,0,0,1,3,0,2.109,2.109,0,0,1,.449.663,2.016,2.016,0,0,1,.164.813,2.072,2.072,0,0,1-.613,1.48,2.121,2.121,0,0,1-.671.444,2.186,2.186,0,0,1-1.66,0,2.121,2.121,0,0,1-.671-.444,2.067,2.067,0,0,1-.612-1.48Zm.8,0a1.632,1.632,0,0,0,.092.557,1.246,1.246,0,0,0,.26.436,1.192,1.192,0,0,0,.411.286,1.474,1.474,0,0,0,1.09,0,1.2,1.2,0,0,0,.411-.286,1.256,1.256,0,0,0,.26-.436,1.728,1.728,0,0,0,0-1.115,1.262,1.262,0,0,0-.26-.436,1.2,1.2,0,0,0-.411-.285,1.465,1.465,0,0,0-1.09,0,1.2,1.2,0,0,0-.411.285,1.252,1.252,0,0,0-.26.436A1.639,1.639,0,0,0,493.958,152.1Z" transform="translate(4151.068 20706.918)" fill="#3a4044"/>
      <path id="Path_18301" data-name="Path 18301" d="M500.929,149.324v4.544c0,.1-.007.233-.021.4a1.321,1.321,0,0,1-.134.478,1.029,1.029,0,0,1-.36.4,1.237,1.237,0,0,1-.7.168,1.814,1.814,0,0,1-.248-.017,1.189,1.189,0,0,1-.238-.059l.084-.7a1.334,1.334,0,0,0,.151.047.688.688,0,0,0,.159.021.465.465,0,0,0,.431-.2,1.1,1.1,0,0,0,.122-.574v-4.511ZM500,147.9a.554.554,0,0,1,1.107,0,.554.554,0,0,1-1.107,0Z" transform="translate(4149.278 20707.701)" fill="#3a4044"/>
      <path id="Path_18302" data-name="Path 18302" d="M503.812,152.373a.989.989,0,0,0,.114.474,1.173,1.173,0,0,0,.3.365,1.374,1.374,0,0,0,.428.235,1.532,1.532,0,0,0,.5.083,1.129,1.129,0,0,0,.612-.163,2.008,2.008,0,0,0,.478-.432l.569.436a2.1,2.1,0,0,1-1.76.813,2.185,2.185,0,0,1-.851-.159,1.867,1.867,0,0,1-.645-.44,1.969,1.969,0,0,1-.406-.662,2.339,2.339,0,0,1-.142-.826,2.168,2.168,0,0,1,.155-.826,2.043,2.043,0,0,1,.427-.662,1.939,1.939,0,0,1,.65-.44,2.084,2.084,0,0,1,.822-.159,1.961,1.961,0,0,1,.894.185,1.767,1.767,0,0,1,.6.482,1.91,1.91,0,0,1,.34.671,2.824,2.824,0,0,1,.1.759v.268Zm2.381-.6a1.577,1.577,0,0,0-.079-.461,1.009,1.009,0,0,0-.214-.365.98.98,0,0,0-.355-.243,1.3,1.3,0,0,0-.5-.088,1.228,1.228,0,0,0-.9.377,1.251,1.251,0,0,0-.248.373,1.027,1.027,0,0,0-.088.406Z" transform="translate(4148.165 20706.918)" fill="#3a4044"/>
      <path id="Path_18303" data-name="Path 18303" d="M512.711,151.169a1.581,1.581,0,0,0-.44-.331,1.231,1.231,0,0,0-.549-.113,1.21,1.21,0,0,0-.54.113,1.094,1.094,0,0,0-.386.31,1.383,1.383,0,0,0-.235.453,1.762,1.762,0,0,0-.08.533,1.486,1.486,0,0,0,.092.523,1.319,1.319,0,0,0,.26.432,1.2,1.2,0,0,0,.4.289,1.28,1.28,0,0,0,.528.1,1.208,1.208,0,0,0,.544-.113,1.406,1.406,0,0,0,.42-.331l.537.537a1.7,1.7,0,0,1-.683.47,2.4,2.4,0,0,1-.826.142,2.278,2.278,0,0,1-.843-.151,1.939,1.939,0,0,1-.658-.424,1.856,1.856,0,0,1-.427-.653,2.269,2.269,0,0,1-.151-.843,2.3,2.3,0,0,1,.151-.847,1.888,1.888,0,0,1,1.077-1.094,2.235,2.235,0,0,1,.851-.155,2.278,2.278,0,0,1,.834.155,1.828,1.828,0,0,1,.691.473Z" transform="translate(4146.199 20706.914)" fill="#3a4044"/>
      <path id="Path_18304" data-name="Path 18304" d="M517.567,150.34h-1.082v1.8c0,.111,0,.222.008.331a.862.862,0,0,0,.064.293.465.465,0,0,0,.167.209.571.571,0,0,0,.331.08,1.644,1.644,0,0,0,.277-.025.808.808,0,0,0,.26-.092v.688a1,1,0,0,1-.348.1,2.58,2.58,0,0,1-.331.03,1.516,1.516,0,0,1-.675-.122.832.832,0,0,1-.352-.314,1.022,1.022,0,0,1-.134-.432c-.014-.159-.02-.32-.02-.482V150.34h-.872v-.655h.872V148.57h.754v1.115h1.082Z" transform="translate(4144.672 20707.342)" fill="#3a4044"/>
      <path id="Path_18305" data-name="Path 18305" d="M519.911,147.9a.553.553,0,0,1,1.107,0,.553.553,0,0,1-1.107,0Zm.176,1.425h.754V153.3h-.754Z" transform="translate(4143.184 20707.701)" fill="#3a4044"/>
      <path id="Path_18306" data-name="Path 18306" d="M522.657,152.1a2.016,2.016,0,0,1,.164-.813,2.12,2.12,0,0,1,.448-.663,2.121,2.121,0,0,1,3.45.663,2.016,2.016,0,0,1,.164.813,2.067,2.067,0,0,1-.612,1.48,2.123,2.123,0,0,1-.671.444,2.186,2.186,0,0,1-1.66,0,2.133,2.133,0,0,1-.671-.444,2.07,2.07,0,0,1-.612-1.48Zm.8,0a1.631,1.631,0,0,0,.092.557,1.245,1.245,0,0,0,.26.436,1.193,1.193,0,0,0,.411.286,1.474,1.474,0,0,0,1.09,0,1.2,1.2,0,0,0,.411-.286,1.254,1.254,0,0,0,.26-.436,1.727,1.727,0,0,0,0-1.115,1.26,1.26,0,0,0-.26-.436,1.2,1.2,0,0,0-.411-.285,1.465,1.465,0,0,0-1.09,0,1.2,1.2,0,0,0-.411.285,1.251,1.251,0,0,0-.26.436A1.638,1.638,0,0,0,523.462,152.1Z" transform="translate(4142.374 20706.918)" fill="#3a4044"/>
      <path id="Path_18307" data-name="Path 18307" d="M529.991,150.109h.755v.613h.017a1.113,1.113,0,0,1,.494-.516,1.639,1.639,0,0,1,.813-.2,1.714,1.714,0,0,1,.549.088,1.235,1.235,0,0,1,.461.272,1.3,1.3,0,0,1,.315.474,1.81,1.81,0,0,1,.117.683v2.557h-.754v-2.347a1.332,1.332,0,0,0-.075-.474.865.865,0,0,0-.2-.319.766.766,0,0,0-.289-.176,1.076,1.076,0,0,0-.339-.054,1.235,1.235,0,0,0-.436.075.91.91,0,0,0-.352.239,1.126,1.126,0,0,0-.235.415,1.892,1.892,0,0,0-.084.6v2.045h-.755Z" transform="translate(4140.213 20706.918)" fill="#3a4044"/>
      <path id="Path_18308" data-name="Path 18308" d="M541.394,147.451q-.269.427-.47.822a5.716,5.716,0,0,0-.335.8,5.263,5.263,0,0,0-.2.843,6.216,6.216,0,0,0-.066.939,5.974,5.974,0,0,0,.268,1.786,5.45,5.45,0,0,0,.8,1.6l-.5.336a6.419,6.419,0,0,1-.9-1.735,6.1,6.1,0,0,1-.323-1.988,6.248,6.248,0,0,1,.31-1.928,6.342,6.342,0,0,1,.913-1.794Z" transform="translate(4137.362 20707.766)" fill="#3a4044"/>
      <path id="Path_18309" data-name="Path 18309" d="M545.971,151.169a1.581,1.581,0,0,0-.44-.331,1.233,1.233,0,0,0-.549-.113,1.215,1.215,0,0,0-.541.113,1.106,1.106,0,0,0-.386.31,1.409,1.409,0,0,0-.235.453,1.78,1.78,0,0,0-.08.533,1.485,1.485,0,0,0,.092.523,1.316,1.316,0,0,0,.26.432,1.2,1.2,0,0,0,.4.289,1.285,1.285,0,0,0,.528.1,1.209,1.209,0,0,0,.545-.113,1.4,1.4,0,0,0,.42-.331l.536.537a1.7,1.7,0,0,1-.683.47,2.4,2.4,0,0,1-.826.142,2.284,2.284,0,0,1-.844-.151,1.943,1.943,0,0,1-.657-.424,1.867,1.867,0,0,1-.428-.653,2.282,2.282,0,0,1-.15-.843,2.315,2.315,0,0,1,.15-.847,1.936,1.936,0,0,1,.424-.662,1.9,1.9,0,0,1,.654-.432,2.233,2.233,0,0,1,.851-.155,2.274,2.274,0,0,1,.834.155,1.831,1.831,0,0,1,.692.473Z" transform="translate(4136.398 20706.914)" fill="#3a4044"/>
      <path id="Path_18310" data-name="Path 18310" d="M548.939,150.109h.7v.621h.018a.648.648,0,0,1,.13-.209,1.341,1.341,0,0,1,.268-.239,1.657,1.657,0,0,1,.386-.193,1.434,1.434,0,0,1,.491-.08,1.4,1.4,0,0,1,.745.185,1.367,1.367,0,0,1,.494.553,1.277,1.277,0,0,1,.546-.553,1.513,1.513,0,0,1,.712-.185,1.646,1.646,0,0,1,.755.151,1.214,1.214,0,0,1,.461.4,1.5,1.5,0,0,1,.231.561,3.275,3.275,0,0,1,.063.65v2.314h-.754V151.87a3.107,3.107,0,0,0-.03-.436,1,1,0,0,0-.121-.369.693.693,0,0,0-.26-.256,1.073,1.073,0,0,0-1.224.239,1.478,1.478,0,0,0-.235.864v2.171h-.754V152a4.173,4.173,0,0,0-.03-.52,1.213,1.213,0,0,0-.117-.407.649.649,0,0,0-.251-.268.871.871,0,0,0-.441-.1.988.988,0,0,0-.39.08.925.925,0,0,0-.331.238,1.157,1.157,0,0,0-.226.407,1.825,1.825,0,0,0-.084.583v2.062h-.755Z" transform="translate(4134.629 20706.918)" fill="#3a4044"/>
      <path id="Path_18311" data-name="Path 18311" d="M558.544,154.259q.269-.427.47-.822a5.657,5.657,0,0,0,.336-.8,5.314,5.314,0,0,0,.2-.842,6.227,6.227,0,0,0,.066-.939,6.022,6.022,0,0,0-.267-1.786,5.468,5.468,0,0,0-.805-1.6l.5-.336a6.392,6.392,0,0,1,.9,1.736,6.118,6.118,0,0,1,.323,1.987,6.392,6.392,0,0,1-1.224,3.723Z" transform="translate(4131.799 20707.766)" fill="#3a4044"/>
      <path id="Path_18312" data-name="Path 18312" d="M588.616,147.37h.931l1.744,4.829h.017l1.811-4.829H594l-2.339,5.936H590.9Z" transform="translate(4122.938 20707.695)" fill="#3a4044"/>
      <path id="Path_18313" data-name="Path 18313" d="M596.712,152.1a2.028,2.028,0,0,1,.163-.813,2.135,2.135,0,0,1,.449-.663,2.137,2.137,0,0,1,3,0,2.135,2.135,0,0,1,.449.663,2.016,2.016,0,0,1,.164.813,2.067,2.067,0,0,1-.612,1.48,2.129,2.129,0,0,1-.671.444,2.188,2.188,0,0,1-1.66,0,2.137,2.137,0,0,1-.671-.444,2.062,2.062,0,0,1-.612-1.48Zm.8,0a1.632,1.632,0,0,0,.092.557,1.237,1.237,0,0,0,.261.436,1.191,1.191,0,0,0,.41.286,1.472,1.472,0,0,0,1.089,0,1.188,1.188,0,0,0,.411-.286,1.247,1.247,0,0,0,.26-.436,1.728,1.728,0,0,0,0-1.115,1.253,1.253,0,0,0-.26-.436,1.2,1.2,0,0,0-.411-.285,1.463,1.463,0,0,0-1.089,0,1.2,1.2,0,0,0-.41.285,1.243,1.243,0,0,0-.261.436A1.639,1.639,0,0,0,597.517,152.1Z" transform="translate(4120.552 20706.918)" fill="#3a4044"/>
      <path id="Path_18314" data-name="Path 18314" d="M604.129,146.8h.754v6.339h-.754Z" transform="translate(4118.366 20707.863)" fill="#3a4044"/>
      <path id="Path_18315" data-name="Path 18315" d="M610.42,154.125h-.755v-.612h-.017a1.109,1.109,0,0,1-.494.516,1.64,1.64,0,0,1-.814.2,1.714,1.714,0,0,1-.553-.088,1.227,1.227,0,0,1-.456-.273,1.311,1.311,0,0,1-.315-.473,1.808,1.808,0,0,1-.117-.683v-2.557h.755V152.5a1.334,1.334,0,0,0,.075.474.863.863,0,0,0,.2.319.758.758,0,0,0,.29.176,1.052,1.052,0,0,0,.339.054,1.219,1.219,0,0,0,.436-.075.9.9,0,0,0,.352-.239,1.118,1.118,0,0,0,.235-.415,1.9,1.9,0,0,0,.084-.6v-2.046h.755Z" transform="translate(4117.55 20706.875)" fill="#3a4044"/>
      <path id="Path_18316" data-name="Path 18316" d="M613.508,150.109h.7v.621h.017a.661.661,0,0,1,.13-.209,1.327,1.327,0,0,1,.269-.239,1.643,1.643,0,0,1,.386-.193,1.429,1.429,0,0,1,.49-.08,1.4,1.4,0,0,1,.746.185,1.373,1.373,0,0,1,.494.553,1.271,1.271,0,0,1,.545-.553,1.513,1.513,0,0,1,.712-.185,1.645,1.645,0,0,1,.755.151,1.216,1.216,0,0,1,.461.4,1.517,1.517,0,0,1,.231.561,3.326,3.326,0,0,1,.063.65v2.314h-.755V151.87a3.018,3.018,0,0,0-.03-.436,1,1,0,0,0-.121-.369.693.693,0,0,0-.26-.256,1.072,1.072,0,0,0-1.224.239,1.473,1.473,0,0,0-.235.864v2.171h-.754V152a4.319,4.319,0,0,0-.03-.52,1.232,1.232,0,0,0-.117-.407.655.655,0,0,0-.252-.268.868.868,0,0,0-.441-.1.99.99,0,0,0-.39.08.923.923,0,0,0-.33.238,1.158,1.158,0,0,0-.227.407,1.821,1.821,0,0,0-.084.583v2.062h-.754Z" transform="translate(4115.602 20706.918)" fill="#3a4044"/>
      <path id="Path_18317" data-name="Path 18317" d="M624.107,152.373a1,1,0,0,0,.114.474,1.185,1.185,0,0,0,.3.365,1.374,1.374,0,0,0,.428.235,1.532,1.532,0,0,0,.5.083,1.129,1.129,0,0,0,.612-.163,2.01,2.01,0,0,0,.478-.432l.569.436a2.1,2.1,0,0,1-1.76.813,2.185,2.185,0,0,1-.851-.159,1.867,1.867,0,0,1-.645-.44,1.968,1.968,0,0,1-.406-.662,2.338,2.338,0,0,1-.143-.826,2.181,2.181,0,0,1,.154-.826,2.056,2.056,0,0,1,.428-.662,1.939,1.939,0,0,1,.65-.44,2.085,2.085,0,0,1,.822-.159,1.956,1.956,0,0,1,.893.185,1.763,1.763,0,0,1,.6.482,1.9,1.9,0,0,1,.339.671,2.8,2.8,0,0,1,.105.759v.268Zm2.381-.6a1.576,1.576,0,0,0-.079-.461,1.008,1.008,0,0,0-.214-.365.977.977,0,0,0-.356-.243,1.291,1.291,0,0,0-.5-.088,1.224,1.224,0,0,0-.507.1,1.237,1.237,0,0,0-.39.273,1.251,1.251,0,0,0-.248.373,1.027,1.027,0,0,0-.088.406Z" transform="translate(4112.716 20706.918)" fill="#3a4044"/>
      <path id="Path_18318" data-name="Path 18318" d="M635.039,147.451q-.269.427-.47.822a5.634,5.634,0,0,0-.336.8,5.185,5.185,0,0,0-.2.843,6.22,6.22,0,0,0-.067.939,5.972,5.972,0,0,0,.268,1.786,5.45,5.45,0,0,0,.805,1.6l-.5.336a6.4,6.4,0,0,1-.9-1.735,6.1,6.1,0,0,1-.323-1.988,6.248,6.248,0,0,1,.31-1.928,6.34,6.34,0,0,1,.913-1.794Z" transform="translate(4109.766 20707.766)" fill="#3a4044"/>
      <path id="Path_18319" data-name="Path 18319" d="M639.616,151.169a1.581,1.581,0,0,0-.44-.331,1.236,1.236,0,0,0-.549-.113,1.212,1.212,0,0,0-.54.113,1.094,1.094,0,0,0-.386.31,1.383,1.383,0,0,0-.235.453,1.784,1.784,0,0,0-.08.533,1.485,1.485,0,0,0,.092.523,1.3,1.3,0,0,0,.26.432,1.193,1.193,0,0,0,.4.289,1.284,1.284,0,0,0,.528.1,1.2,1.2,0,0,0,.544-.113,1.4,1.4,0,0,0,.42-.331l.537.537a1.7,1.7,0,0,1-.683.47,2.4,2.4,0,0,1-.826.142,2.281,2.281,0,0,1-.843-.151,1.946,1.946,0,0,1-.658-.424,1.866,1.866,0,0,1-.427-.653,2.268,2.268,0,0,1-.151-.843,2.3,2.3,0,0,1,.151-.847,1.927,1.927,0,0,1,.424-.662,1.9,1.9,0,0,1,.653-.432,2.238,2.238,0,0,1,.851-.155,2.278,2.278,0,0,1,.834.155,1.829,1.829,0,0,1,.691.473Z" transform="translate(4108.803 20706.914)" fill="#3a4044"/>
      <path id="Path_18320" data-name="Path 18320" d="M645.345,151.169a1.581,1.581,0,0,0-.44-.331,1.233,1.233,0,0,0-.549-.113,1.215,1.215,0,0,0-.541.113,1.107,1.107,0,0,0-.386.31,1.41,1.41,0,0,0-.235.453,1.782,1.782,0,0,0-.08.533,1.485,1.485,0,0,0,.092.523,1.318,1.318,0,0,0,.26.432,1.2,1.2,0,0,0,.4.289,1.285,1.285,0,0,0,.529.1,1.208,1.208,0,0,0,.544-.113,1.406,1.406,0,0,0,.42-.331l.536.537a1.7,1.7,0,0,1-.683.47,2.4,2.4,0,0,1-.826.142,2.284,2.284,0,0,1-.844-.151,1.944,1.944,0,0,1-.657-.424,1.868,1.868,0,0,1-.428-.653,2.283,2.283,0,0,1-.15-.843,2.316,2.316,0,0,1,.15-.847,1.936,1.936,0,0,1,.424-.662,1.9,1.9,0,0,1,.654-.432,2.232,2.232,0,0,1,.851-.155,2.274,2.274,0,0,1,.834.155,1.831,1.831,0,0,1,.692.473Z" transform="translate(4107.114 20706.914)" fill="#3a4044"/>
      <path id="Path_18321" data-name="Path 18321" d="M647.79,154.259q.269-.427.47-.822a5.65,5.65,0,0,0,.336-.8,5.308,5.308,0,0,0,.2-.842,6.215,6.215,0,0,0,.067-.939,6,6,0,0,0-.268-1.786,5.468,5.468,0,0,0-.805-1.6l.5-.336a6.375,6.375,0,0,1,.9,1.736,6.12,6.12,0,0,1,.323,1.987,6.392,6.392,0,0,1-1.224,3.723Z" transform="translate(4105.5 20707.766)" fill="#3a4044"/>
      <line id="Line_2306" data-name="Line 2306" x2="316.107" transform="translate(4449.518 20888.104)" fill="none" stroke="#fff" stroke-miterlimit="10" stroke-width="0.594"/>
      <line id="Line_2307" data-name="Line 2307" x2="316.107" transform="translate(4449.518 20904.186)" fill="none" stroke="#fff" stroke-miterlimit="10" stroke-width="0.594"/>
      <line id="Line_2308" data-name="Line 2308" x2="316.107" transform="translate(4449.518 20920.271)" fill="none" stroke="#fff" stroke-miterlimit="10" stroke-width="0.594"/>
    </g>
  </g>
</svg>
