<svg xmlns="http://www.w3.org/2000/svg" xmlns:xlink="http://www.w3.org/1999/xlink" width="353" height="206.64" viewBox="0 0 353 206.64">
  <defs>
    <filter id="Rectangle_1930" x="0" y="68.487" width="353" height="138.152" filterUnits="userSpaceOnUse">
      <feOffset dx="8" dy="5" input="SourceAlpha"/>
      <feGaussianBlur stdDeviation="4" result="blur"/>
      <feFlood flood-opacity="0.059"/>
      <feComposite operator="in" in2="blur"/>
      <feComposite in="SourceGraphic"/>
    </filter>
  </defs>
  <g id="Group_5197" data-name="Group 5197" transform="translate(-18 -207.829)">
    <g transform="matrix(1, 0, 0, 1, 18, 207.83)" filter="url(#Rectangle_1930)">
      <rect id="Rectangle_1930-2" data-name="Rectangle 1930" width="329" height="114.152" rx="8" transform="translate(4 75.49)" fill="#fff"/>
    </g>
    <g id="Group_5144" data-name="Group 5144" transform="translate(45.699 15)">
      <g id="Group_5143" data-name="Group 5143" transform="translate(-288.219 93.381)">
        <g id="Group_5141" data-name="Group 5141" transform="translate(351.52 107.862)">
          <g id="Group_5140" data-name="Group 5140">
            <g id="Group_5139" data-name="Group 5139">
              <g id="Group_5138" data-name="Group 5138">
                <g id="Group_5137" data-name="Group 5137">
                  <text id="CORSÉ" transform="translate(0 21)" fill="#b18959" font-size="21" font-family="Avenir-Medium, Avenir" font-weight="500" letter-spacing="0.02em"><tspan x="0" y="0">CORSÉ</tspan></text>
                </g>
              </g>
            </g>
          </g>
        </g>
        <g id="Group_5142" data-name="Group 5142" transform="translate(442.118 100.091)">
          <path id="Path_18175" data-name="Path 18175" d="M403.394,128.848c.967-.935,26.2-20.327,40.293-20.327,21.094,0,25.945,19.419,25.945,21.944,0,0,.1,2.191-1.493,2.191H404.4C403.732,132.656,401.557,130.612,403.394,128.848Z" transform="translate(-402.673 -93.59)" fill="none" stroke="#dcdcdc" stroke-miterlimit="10" stroke-width="1.285"/>
          <path id="Path_18176" data-name="Path 18176" d="M403.394,132.015c.967-.935,26.2-27.6,40.293-27.6,21.094,0,25.945,26.692,25.945,29.218,0,0,.1,2.191-1.493,2.191H404.4C403.732,135.823,401.557,133.779,403.394,132.015Z" transform="translate(-402.673 -96.757)" fill="none" stroke="#dcdcdc" stroke-miterlimit="10" stroke-width="1.285"/>
          <path id="Path_18177" data-name="Path 18177" d="M403.394,135.657c.967-.935,26.2-35.566,40.293-35.566,21.094,0,25.945,34.657,25.945,37.183,0,0,.1,2.189-1.493,2.189H404.4C403.732,139.463,401.557,137.421,403.394,135.657Z" transform="translate(-402.673 -100.091)" fill="none" stroke="#b18959" stroke-miterlimit="10" stroke-width="1.285"/>
        </g>
      </g>
    </g>
    <g id="Group_5146" data-name="Group 5146" transform="translate(-5307.864 -20651.58)">
      <path id="Rectangle_2438" data-name="Rectangle 2438" d="M8,0H323a8,8,0,0,1,8,8V28.313a0,0,0,0,1,0,0H0a0,0,0,0,1,0,0V8A8,8,0,0,1,8,0Z" transform="translate(5329.864 20934.896)" fill="#e8e8e8"/>
      <line id="Line_2319" data-name="Line 2319" y1="118.687" transform="translate(5385.797 20935.902)" fill="none" stroke="#fff" stroke-miterlimit="10" stroke-width="0.806"/>
      <line id="Line_2320" data-name="Line 2320" y1="118.687" transform="translate(5451.652 20935.902)" fill="none" stroke="#fff" stroke-miterlimit="10" stroke-width="0.806"/>
      <line id="Line_2321" data-name="Line 2321" y1="118.687" transform="translate(5521.758 20935.902)" fill="none" stroke="#fff" stroke-miterlimit="10" stroke-width="0.806"/>
      <line id="Line_2322" data-name="Line 2322" y1="118.687" transform="translate(5598.038 20935.902)" fill="none" stroke="#fff" stroke-miterlimit="10" stroke-width="0.806"/>
      <path id="Path_18423" data-name="Path 18423" d="M206.683,148.582a1.647,1.647,0,0,0-.634-.5,1.881,1.881,0,0,0-.792-.175,2.129,2.129,0,0,0-.905.187,2.089,2.089,0,0,0-.692.513,2.338,2.338,0,0,0-.445.763,2.729,2.729,0,0,0-.159.938,2.583,2.583,0,0,0,.15.884,2.2,2.2,0,0,0,.434.735,2.028,2.028,0,0,0,.692.5,2.243,2.243,0,0,0,.926.183,1.843,1.843,0,0,0,.892-.208,1.916,1.916,0,0,0,.65-.584l.676.509a2.8,2.8,0,0,1-.234.262,2.3,2.3,0,0,1-.442.342,3.142,3.142,0,0,1-.663.3,2.852,2.852,0,0,1-.9.129,2.921,2.921,0,0,1-1.264-.267,3.092,3.092,0,0,1-1.772-2.786,3.457,3.457,0,0,1,.225-1.263,2.982,2.982,0,0,1,.63-1,2.815,2.815,0,0,1,.972-.655,3.251,3.251,0,0,1,1.251-.234,3.063,3.063,0,0,1,1.146.225,2.146,2.146,0,0,1,.922.692Z" transform="translate(5133.773 20799.039)" fill="#3a4044"/>
      <path id="Path_18424" data-name="Path 18424" d="M210.757,150.593a2.073,2.073,0,0,1,.735-.438,2.52,2.52,0,0,1,.833-.146,2.286,2.286,0,0,1,.746.109,1.444,1.444,0,0,1,.513.292,1.15,1.15,0,0,1,.3.421,1.317,1.317,0,0,1,.1.5v2.018c0,.139,0,.267.008.384s.013.228.025.333h-.667c-.017-.2-.025-.4-.025-.6H213.3a1.439,1.439,0,0,1-.592.542,1.861,1.861,0,0,1-.792.159,1.823,1.823,0,0,1-.525-.075,1.293,1.293,0,0,1-.438-.225,1.078,1.078,0,0,1-.3-.371,1.152,1.152,0,0,1-.109-.513,1.134,1.134,0,0,1,.171-.642,1.294,1.294,0,0,1,.467-.422,2.285,2.285,0,0,1,.692-.234,4.83,4.83,0,0,1,.847-.07h.55v-.167a.829.829,0,0,0-.233-.572.845.845,0,0,0-.293-.192,1.1,1.1,0,0,0-.417-.071,1.562,1.562,0,0,0-.38.041,1.664,1.664,0,0,0-.3.1,1.288,1.288,0,0,0-.242.146l-.208.159Zm2.119,1.568a5.215,5.215,0,0,0-.547.029,2.148,2.148,0,0,0-.509.112.973.973,0,0,0-.375.234.526.526,0,0,0-.146.384.544.544,0,0,0,.229.492,1.127,1.127,0,0,0,.622.15,1.208,1.208,0,0,0,.525-.1.99.99,0,0,0,.35-.271,1.07,1.07,0,0,0,.192-.371,1.477,1.477,0,0,0,.058-.4v-.25Z" transform="translate(5131.283 20798.189)" fill="#3a4044"/>
      <path id="Path_18425" data-name="Path 18425" d="M218.865,150.33H217.79v1.793c0,.111,0,.221.008.329a.856.856,0,0,0,.062.292.468.468,0,0,0,.166.208.569.569,0,0,0,.33.079,1.635,1.635,0,0,0,.275-.025.807.807,0,0,0,.259-.092v.684a.989.989,0,0,1-.346.1,2.58,2.58,0,0,1-.33.029,1.508,1.508,0,0,1-.671-.121.82.82,0,0,1-.35-.312,1.028,1.028,0,0,1-.134-.43q-.02-.237-.02-.479v-2.06h-.867v-.651h.867V148.57h.751v1.109h1.076Z" transform="translate(5129.605 20798.619)" fill="#3a4044"/>
      <path id="Path_18426" data-name="Path 18426" d="M221.325,150.593a2.076,2.076,0,0,1,.734-.438,2.521,2.521,0,0,1,.834-.146,2.286,2.286,0,0,1,.746.109,1.444,1.444,0,0,1,.513.292,1.149,1.149,0,0,1,.3.421,1.316,1.316,0,0,1,.1.5v2.018c0,.139,0,.267.009.384s.013.228.025.333h-.667c-.017-.2-.025-.4-.025-.6h-.016a1.439,1.439,0,0,1-.592.542,1.862,1.862,0,0,1-.793.159,1.83,1.83,0,0,1-.525-.075,1.3,1.3,0,0,1-.438-.225,1.088,1.088,0,0,1-.3-.371,1.152,1.152,0,0,1-.108-.513,1.134,1.134,0,0,1,.171-.642,1.294,1.294,0,0,1,.467-.422,2.285,2.285,0,0,1,.692-.234,4.831,4.831,0,0,1,.847-.07h.55v-.167a.834.834,0,0,0-.058-.3.82.82,0,0,0-.175-.271.842.842,0,0,0-.292-.192,1.1,1.1,0,0,0-.417-.071,1.558,1.558,0,0,0-.38.041,1.665,1.665,0,0,0-.3.1,1.289,1.289,0,0,0-.242.146l-.208.159Zm2.119,1.568a5.2,5.2,0,0,0-.547.029,2.14,2.14,0,0,0-.509.112.973.973,0,0,0-.375.234.526.526,0,0,0-.146.384.544.544,0,0,0,.229.492,1.124,1.124,0,0,0,.621.15,1.206,1.206,0,0,0,.525-.1.977.977,0,0,0,.35-.271,1.059,1.059,0,0,0,.192-.371,1.478,1.478,0,0,0,.058-.4v-.25Z" transform="translate(5128.129 20798.189)" fill="#3a4044"/>
      <path id="Path_18427" data-name="Path 18427" d="M227.643,146.8h.751V153.1h-.751Z" transform="translate(5126.182 20799.146)" fill="#3a4044"/>
      <path id="Path_18428" data-name="Path 18428" d="M230.139,152.086a2.006,2.006,0,0,1,.163-.809,2.1,2.1,0,0,1,.446-.659,2.124,2.124,0,0,1,2.985,0,2.1,2.1,0,0,1,.446.659,2.005,2.005,0,0,1,.163.809,2.056,2.056,0,0,1-.609,1.472,2.114,2.114,0,0,1-.667.442,2.137,2.137,0,0,1-2.319-.442,2.056,2.056,0,0,1-.609-1.472Zm.8,0a1.623,1.623,0,0,0,.092.554,1.248,1.248,0,0,0,.258.434,1.2,1.2,0,0,0,.409.284,1.466,1.466,0,0,0,1.084,0,1.2,1.2,0,0,0,.409-.284,1.248,1.248,0,0,0,.258-.434,1.719,1.719,0,0,0,0-1.109,1.255,1.255,0,0,0-.258-.434,1.2,1.2,0,0,0-.409-.283,1.457,1.457,0,0,0-1.084,0,1.2,1.2,0,0,0-.409.283,1.255,1.255,0,0,0-.258.434A1.63,1.63,0,0,0,230.94,152.086Z" transform="translate(5125.437 20798.189)" fill="#3a4044"/>
      <path id="Path_18429" data-name="Path 18429" d="M241.353,154.029a2.129,2.129,0,0,1-.154.822,1.886,1.886,0,0,1-.438.642,1.994,1.994,0,0,1-.684.421,2.5,2.5,0,0,1-.884.15,3.253,3.253,0,0,1-1.038-.159,2.5,2.5,0,0,1-.9-.55l.509-.634a2.093,2.093,0,0,0,.634.48,1.789,1.789,0,0,0,.775.163,1.725,1.725,0,0,0,.692-.121,1.178,1.178,0,0,0,.438-.313,1.112,1.112,0,0,0,.229-.438,1.894,1.894,0,0,0,.067-.5v-.584h-.025a1.317,1.317,0,0,1-.588.53,1.844,1.844,0,0,1-.779.17,2.087,2.087,0,0,1-.805-.154,1.9,1.9,0,0,1-1.054-1.068,2.119,2.119,0,0,1-.15-.8,2.3,2.3,0,0,1,.142-.813,1.982,1.982,0,0,1,.4-.663,1.825,1.825,0,0,1,.634-.442,2.087,2.087,0,0,1,.83-.159,1.847,1.847,0,0,1,.779.175,1.433,1.433,0,0,1,.6.493h.017v-.568h.751Zm-2.051-3.32a1.357,1.357,0,0,0-.542.1,1.2,1.2,0,0,0-.409.283,1.256,1.256,0,0,0-.258.434,1.63,1.63,0,0,0-.092.555,1.33,1.33,0,0,0,.35.963,1.428,1.428,0,0,0,1.9,0,1.327,1.327,0,0,0,.35-.963,1.631,1.631,0,0,0-.092-.555,1.255,1.255,0,0,0-.258-.434,1.2,1.2,0,0,0-.409-.283A1.356,1.356,0,0,0,239.3,150.709Z" transform="translate(5123.33 20798.189)" fill="#3a4044"/>
      <path id="Path_18430" data-name="Path 18430" d="M248.239,154.1h-.751V153.5h-.016a1.1,1.1,0,0,1-.493.513,1.629,1.629,0,0,1-.809.2,1.706,1.706,0,0,1-.55-.088,1.229,1.229,0,0,1-.455-.272,1.3,1.3,0,0,1-.313-.471,1.8,1.8,0,0,1-.117-.68v-2.544h.751v2.336a1.311,1.311,0,0,0,.075.471.859.859,0,0,0,.2.317.746.746,0,0,0,.288.175,1.049,1.049,0,0,0,.337.054,1.213,1.213,0,0,0,.434-.075.9.9,0,0,0,.351-.238,1.13,1.13,0,0,0,.234-.413,1.885,1.885,0,0,0,.083-.592v-2.035h.751Z" transform="translate(5121.081 20798.146)" fill="#3a4044"/>
      <path id="Path_18431" data-name="Path 18431" d="M251.814,152.361a.992.992,0,0,0,.113.471,1.169,1.169,0,0,0,.3.363,1.371,1.371,0,0,0,.425.234,1.53,1.53,0,0,0,.5.083,1.123,1.123,0,0,0,.609-.162,1.984,1.984,0,0,0,.476-.429l.567.434a2.089,2.089,0,0,1-1.751.809A2.171,2.171,0,0,1,252.2,154a1.85,1.85,0,0,1-.642-.438,1.949,1.949,0,0,1-.4-.659,2.341,2.341,0,0,1-.142-.822,2.156,2.156,0,0,1,.154-.822,2.044,2.044,0,0,1,.425-.659,1.933,1.933,0,0,1,.647-.438,2.07,2.07,0,0,1,.817-.159,1.944,1.944,0,0,1,.888.184,1.763,1.763,0,0,1,.6.479,1.9,1.9,0,0,1,.337.667,2.781,2.781,0,0,1,.1.755v.267Zm2.369-.6a1.592,1.592,0,0,0-.079-.458,1,1,0,0,0-.213-.363.984.984,0,0,0-.354-.241,1.286,1.286,0,0,0-.5-.088,1.221,1.221,0,0,0-.892.375,1.232,1.232,0,0,0-.246.371,1.022,1.022,0,0,0-.088.4Z" transform="translate(5119.208 20798.189)" fill="#3a4044"/>
      <path id="Path_18432" data-name="Path 18432" d="M261.541,151.573h-.792v-.65h.884l.167-1.2h-.793v-.65h.884l.234-1.7h.651l-.234,1.7h.975l.234-1.7h.651l-.234,1.7h.792v.65h-.884l-.167,1.2h.792v.65h-.883l-.234,1.7h-.651l.234-1.7h-.976l-.233,1.7h-.651Zm.909-1.851-.167,1.2h.976l.166-1.2Z" transform="translate(5116.302 20798.977)" fill="#3a4044"/>
      <path id="Path_18433" data-name="Path 18433" d="M295.571,147.37h2.051a2.689,2.689,0,0,1,.714.091,1.7,1.7,0,0,1,.567.272,1.266,1.266,0,0,1,.375.459,1.463,1.463,0,0,1,.138.655,1.208,1.208,0,0,1-.283.83,1.658,1.658,0,0,1-.734.471v.016a1.259,1.259,0,0,1,.5.137,1.374,1.374,0,0,1,.4.317,1.528,1.528,0,0,1,.37,1.013,1.477,1.477,0,0,1-.162.705,1.526,1.526,0,0,1-.446.513,2.08,2.08,0,0,1-.659.317,2.906,2.906,0,0,1-.81.108h-2.026Zm.8,2.452h1.093a1.874,1.874,0,0,0,.424-.046.948.948,0,0,0,.351-.154.786.786,0,0,0,.238-.276.873.873,0,0,0,.087-.409.835.835,0,0,0-.934-.866h-1.259Zm0,2.752h1.176a2.414,2.414,0,0,0,.4-.038,1.211,1.211,0,0,0,.413-.15,1.027,1.027,0,0,0,.326-.3.871.871,0,0,0,.133-.509.932.932,0,0,0-.342-.788,1.482,1.482,0,0,0-.926-.263h-1.184Z" transform="translate(5105.911 20798.977)" fill="#3a4044"/>
      <path id="Path_18434" data-name="Path 18434" d="M302.721,150.593a2.077,2.077,0,0,1,.734-.438,2.521,2.521,0,0,1,.834-.146,2.287,2.287,0,0,1,.746.109,1.444,1.444,0,0,1,.513.292,1.149,1.149,0,0,1,.3.421,1.316,1.316,0,0,1,.1.5v2.018c0,.139,0,.267.009.384s.013.228.025.333h-.667c-.017-.2-.025-.4-.025-.6h-.016a1.439,1.439,0,0,1-.592.542,1.862,1.862,0,0,1-.793.159,1.83,1.83,0,0,1-.526-.075,1.3,1.3,0,0,1-.438-.225,1.088,1.088,0,0,1-.3-.371,1.152,1.152,0,0,1-.108-.513,1.134,1.134,0,0,1,.171-.642,1.294,1.294,0,0,1,.467-.422,2.285,2.285,0,0,1,.692-.234,4.825,4.825,0,0,1,.847-.07h.55v-.167a.835.835,0,0,0-.058-.3.821.821,0,0,0-.175-.271.842.842,0,0,0-.292-.192,1.1,1.1,0,0,0-.417-.071,1.558,1.558,0,0,0-.38.041,1.663,1.663,0,0,0-.3.1,1.29,1.29,0,0,0-.242.146l-.208.159Zm2.119,1.568a5.205,5.205,0,0,0-.547.029,2.142,2.142,0,0,0-.509.112.973.973,0,0,0-.375.234.526.526,0,0,0-.146.384.544.544,0,0,0,.229.492,1.124,1.124,0,0,0,.621.15,1.206,1.206,0,0,0,.526-.1.977.977,0,0,0,.35-.271,1.06,1.06,0,0,0,.192-.371,1.479,1.479,0,0,0,.058-.4v-.25Z" transform="translate(5103.839 20798.189)" fill="#3a4044"/>
      <path id="Path_18435" data-name="Path 18435" d="M310.915,151.1a1.149,1.149,0,0,0-.329-.279.95.95,0,0,0-.48-.113.91.91,0,0,0-.462.113.359.359,0,0,0-.2.33.376.376,0,0,0,.113.283.885.885,0,0,0,.267.175,1.6,1.6,0,0,0,.33.1l.3.058a3.556,3.556,0,0,1,.455.142,1.244,1.244,0,0,1,.367.217.939.939,0,0,1,.242.326,1.122,1.122,0,0,1,.088.467,1.093,1.093,0,0,1-.142.571,1.189,1.189,0,0,1-.367.387,1.521,1.521,0,0,1-.513.217,2.538,2.538,0,0,1-.579.067,2.3,2.3,0,0,1-.864-.15,1.557,1.557,0,0,1-.663-.551l.568-.467a2.344,2.344,0,0,0,.408.325,1.013,1.013,0,0,0,.551.142,1.45,1.45,0,0,0,.288-.029.9.9,0,0,0,.258-.092.57.57,0,0,0,.184-.159.363.363,0,0,0,.071-.221.382.382,0,0,0-.1-.275.765.765,0,0,0-.25-.171,1.823,1.823,0,0,0-.309-.1c-.109-.025-.2-.046-.288-.062-.161-.039-.314-.083-.459-.133a1.381,1.381,0,0,1-.384-.2.93.93,0,0,1-.267-.317,1.019,1.019,0,0,1-.1-.475,1.076,1.076,0,0,1,.129-.538,1.146,1.146,0,0,1,.342-.38,1.53,1.53,0,0,1,.483-.225,2.031,2.031,0,0,1,1.313.075,1.219,1.219,0,0,1,.584.5Z" transform="translate(5102.059 20798.189)" fill="#3a4044"/>
      <path id="Path_18436" data-name="Path 18436" d="M314.7,152.361a.984.984,0,0,0,.113.471,1.17,1.17,0,0,0,.3.363,1.375,1.375,0,0,0,.424.234,1.531,1.531,0,0,0,.5.083,1.123,1.123,0,0,0,.609-.162,1.982,1.982,0,0,0,.475-.429l.568.434a2.09,2.09,0,0,1-1.752.809,2.167,2.167,0,0,1-.846-.159,1.853,1.853,0,0,1-.643-.438,1.948,1.948,0,0,1-.4-.659,2.326,2.326,0,0,1-.142-.822,2.157,2.157,0,0,1,.154-.822,2.033,2.033,0,0,1,.425-.659,1.93,1.93,0,0,1,.646-.438,2.076,2.076,0,0,1,.817-.159,1.947,1.947,0,0,1,.888.184,1.753,1.753,0,0,1,.6.479,1.887,1.887,0,0,1,.338.667,2.779,2.779,0,0,1,.1.755v.267Zm2.369-.6a1.592,1.592,0,0,0-.079-.458,1,1,0,0,0-.213-.363.984.984,0,0,0-.354-.241,1.288,1.288,0,0,0-.5-.088,1.218,1.218,0,0,0-.892.375,1.233,1.233,0,0,0-.246.371,1.01,1.01,0,0,0-.088.4Z" transform="translate(5100.441 20798.189)" fill="#3a4044"/>
      <path id="Path_18437" data-name="Path 18437" d="M325.628,147.449q-.267.425-.467.817a5.6,5.6,0,0,0-.333.8,5.23,5.23,0,0,0-.2.838,6.185,6.185,0,0,0-.067.934,5.943,5.943,0,0,0,.267,1.776,5.421,5.421,0,0,0,.8,1.593l-.5.334a6.347,6.347,0,0,1-.9-1.726,6.074,6.074,0,0,1-.321-1.977,6.358,6.358,0,0,1,1.218-3.7Z" transform="translate(5097.454 20799.047)" fill="#3a4044"/>
      <path id="Path_18438" data-name="Path 18438" d="M330.2,151.163a1.573,1.573,0,0,0-.438-.329,1.229,1.229,0,0,0-.546-.112,1.212,1.212,0,0,0-.539.112,1.105,1.105,0,0,0-.383.309,1.375,1.375,0,0,0-.234.45,1.773,1.773,0,0,0-.079.53,1.479,1.479,0,0,0,.092.521,1.322,1.322,0,0,0,.258.43,1.2,1.2,0,0,0,.4.288,1.275,1.275,0,0,0,.525.1,1.2,1.2,0,0,0,.542-.112,1.4,1.4,0,0,0,.417-.33l.534.534a1.684,1.684,0,0,1-.68.467,2.388,2.388,0,0,1-.822.142,2.271,2.271,0,0,1-.838-.15,1.943,1.943,0,0,1-.655-.422,1.866,1.866,0,0,1-.425-.65,2.256,2.256,0,0,1-.15-.838,2.289,2.289,0,0,1,.15-.843,1.936,1.936,0,0,1,.421-.659,1.9,1.9,0,0,1,.65-.429,2.225,2.225,0,0,1,.847-.154,2.263,2.263,0,0,1,.83.154,1.826,1.826,0,0,1,.688.471Z" transform="translate(5096.479 20798.186)" fill="#3a4044"/>
      <path id="Path_18439" data-name="Path 18439" d="M333.182,150.109h.7v.617h.017a.65.65,0,0,1,.13-.208,1.3,1.3,0,0,1,.267-.238,1.626,1.626,0,0,1,.383-.192,1.426,1.426,0,0,1,.488-.079,1.4,1.4,0,0,1,.742.184,1.371,1.371,0,0,1,.493.55,1.263,1.263,0,0,1,.542-.55,1.507,1.507,0,0,1,.709-.184,1.64,1.64,0,0,1,.751.15,1.213,1.213,0,0,1,.458.4,1.509,1.509,0,0,1,.229.558,3.254,3.254,0,0,1,.062.646v2.3h-.75v-2.2a3.2,3.2,0,0,0-.029-.434.994.994,0,0,0-.121-.367.687.687,0,0,0-.258-.255,1.067,1.067,0,0,0-1.218.238,1.465,1.465,0,0,0-.233.859v2.16h-.751v-2.068a4.154,4.154,0,0,0-.029-.517,1.208,1.208,0,0,0-.117-.4.641.641,0,0,0-.25-.267.858.858,0,0,0-.438-.1.977.977,0,0,0-.388.08.922.922,0,0,0-.33.237,1.161,1.161,0,0,0-.225.4,1.814,1.814,0,0,0-.083.58v2.051h-.751Z" transform="translate(5094.688 20798.189)" fill="#3a4044"/>
      <path id="Path_18440" data-name="Path 18440" d="M342.787,154.221q.267-.425.467-.817a5.616,5.616,0,0,0,.333-.8,5.142,5.142,0,0,0,.2-.838,6.2,6.2,0,0,0,.067-.935,5.943,5.943,0,0,0-.267-1.776,5.436,5.436,0,0,0-.8-1.593l.5-.334a6.363,6.363,0,0,1,.9,1.727,6.088,6.088,0,0,1,.321,1.976,6.231,6.231,0,0,1-.308,1.918,6.3,6.3,0,0,1-.909,1.785Z" transform="translate(5091.821 20799.047)" fill="#3a4044"/>
      <path id="Path_18441" data-name="Path 18441" d="M386.967,147.37h.8v2.452h3.06V147.37h.8v5.9h-.8v-2.7h-3.06v2.7h-.8Z" transform="translate(5078.637 20798.977)" fill="#3a4044"/>
      <path id="Path_18442" data-name="Path 18442" d="M395.971,152.361a.984.984,0,0,0,.113.471,1.16,1.16,0,0,0,.3.363,1.367,1.367,0,0,0,.424.234,1.531,1.531,0,0,0,.5.083,1.119,1.119,0,0,0,.608-.162,1.972,1.972,0,0,0,.476-.429l.567.434a2.088,2.088,0,0,1-1.751.809,2.173,2.173,0,0,1-.847-.159,1.857,1.857,0,0,1-.642-.438,1.947,1.947,0,0,1-.4-.659,2.326,2.326,0,0,1-.142-.822,2.156,2.156,0,0,1,.154-.822,2.032,2.032,0,0,1,.425-.659,1.93,1.93,0,0,1,.646-.438,2.073,2.073,0,0,1,.817-.159,1.948,1.948,0,0,1,.888.184,1.76,1.76,0,0,1,.6.479,1.9,1.9,0,0,1,.338.667,2.806,2.806,0,0,1,.1.755v.267Zm2.369-.6a1.594,1.594,0,0,0-.079-.458,1.013,1.013,0,0,0-.213-.363.984.984,0,0,0-.354-.241,1.291,1.291,0,0,0-.5-.088,1.218,1.218,0,0,0-.505.1,1.23,1.23,0,0,0-.634.643,1.022,1.022,0,0,0-.088.4Z" transform="translate(5076.189 20798.189)" fill="#3a4044"/>
      <path id="Path_18443" data-name="Path 18443" d="M401.945,147.9a.555.555,0,1,1,.163.388A.528.528,0,0,1,401.945,147.9Zm.175,1.417h.751v3.953h-.751Z" transform="translate(5074.167 20798.984)" fill="#3a4044"/>
      <path id="Path_18444" data-name="Path 18444" d="M408.844,154.029a2.129,2.129,0,0,1-.154.822,1.9,1.9,0,0,1-.438.642,1.993,1.993,0,0,1-.684.421,2.492,2.492,0,0,1-.884.15,3.245,3.245,0,0,1-1.038-.159,2.5,2.5,0,0,1-.9-.55l.509-.634a2.073,2.073,0,0,0,.634.48,1.792,1.792,0,0,0,.776.163,1.726,1.726,0,0,0,.692-.121,1.178,1.178,0,0,0,.438-.313,1.122,1.122,0,0,0,.229-.438,1.865,1.865,0,0,0,.067-.5v-.584h-.025a1.32,1.32,0,0,1-.588.53,1.852,1.852,0,0,1-.78.17,2.084,2.084,0,0,1-.8-.154,1.9,1.9,0,0,1-1.055-1.068,2.133,2.133,0,0,1-.15-.8,2.3,2.3,0,0,1,.142-.813,1.969,1.969,0,0,1,.4-.663,1.839,1.839,0,0,1,.634-.442,2.089,2.089,0,0,1,.83-.159,1.847,1.847,0,0,1,.78.175,1.437,1.437,0,0,1,.6.493h.016v-.568h.751Zm-2.051-3.32a1.357,1.357,0,0,0-.542.1,1.2,1.2,0,0,0-.408.283,1.246,1.246,0,0,0-.259.434,1.63,1.63,0,0,0-.092.555,1.328,1.328,0,0,0,.351.963,1.427,1.427,0,0,0,1.9,0,1.327,1.327,0,0,0,.35-.963,1.63,1.63,0,0,0-.092-.555,1.255,1.255,0,0,0-.258-.434,1.2,1.2,0,0,0-.409-.283A1.356,1.356,0,0,0,406.793,150.709Z" transform="translate(5073.348 20798.189)" fill="#3a4044"/>
      <path id="Path_18445" data-name="Path 18445" d="M412.228,146.8h.75v2.961h.017a1.107,1.107,0,0,1,.492-.514,1.631,1.631,0,0,1,.81-.2,1.7,1.7,0,0,1,.546.088,1.228,1.228,0,0,1,.458.271,1.306,1.306,0,0,1,.314.471,1.814,1.814,0,0,1,.116.68V153.1h-.751v-2.335a1.323,1.323,0,0,0-.075-.471.859.859,0,0,0-.2-.317.767.767,0,0,0-.288-.175,1.076,1.076,0,0,0-.338-.054,1.232,1.232,0,0,0-.434.075.916.916,0,0,0-.35.238,1.119,1.119,0,0,0-.234.413,1.881,1.881,0,0,0-.083.592V153.1h-.75Z" transform="translate(5071.099 20799.146)" fill="#3a4044"/>
      <path id="Path_18446" data-name="Path 18446" d="M420.71,150.33h-1.076v1.793c0,.111,0,.221.008.329a.858.858,0,0,0,.063.292.473.473,0,0,0,.166.208.569.569,0,0,0,.33.079,1.629,1.629,0,0,0,.275-.025.813.813,0,0,0,.259-.092v.684a.988.988,0,0,1-.347.1,2.571,2.571,0,0,1-.329.029,1.506,1.506,0,0,1-.671-.121.82.82,0,0,1-.35-.312,1.008,1.008,0,0,1-.134-.43q-.02-.237-.02-.479v-2.06h-.867v-.651h.867V148.57h.75v1.109h1.076Z" transform="translate(5069.372 20798.619)" fill="#3a4044"/>
      <path id="Path_18447" data-name="Path 18447" d="M428.02,147.449q-.267.425-.467.817a5.69,5.69,0,0,0-.334.8,5.229,5.229,0,0,0-.2.838,6.181,6.181,0,0,0-.067.934,5.942,5.942,0,0,0,.267,1.776,5.423,5.423,0,0,0,.8,1.593l-.5.334a6.366,6.366,0,0,1-.9-1.726,6.073,6.073,0,0,1-.321-1.977,6.215,6.215,0,0,1,.309-1.918,6.31,6.31,0,0,1,.909-1.785Z" transform="translate(5066.899 20799.047)" fill="#3a4044"/>
      <path id="Path_18448" data-name="Path 18448" d="M432.59,151.163a1.573,1.573,0,0,0-.438-.329,1.228,1.228,0,0,0-.546-.112,1.209,1.209,0,0,0-.538.112,1.1,1.1,0,0,0-.384.309,1.388,1.388,0,0,0-.234.45,1.772,1.772,0,0,0-.079.53,1.479,1.479,0,0,0,.092.521,1.311,1.311,0,0,0,.259.43,1.192,1.192,0,0,0,.4.288,1.277,1.277,0,0,0,.526.1,1.2,1.2,0,0,0,.542-.112,1.388,1.388,0,0,0,.417-.33l.534.534a1.684,1.684,0,0,1-.68.467,2.386,2.386,0,0,1-.821.142,2.272,2.272,0,0,1-.839-.15,1.926,1.926,0,0,1-.654-.422,1.858,1.858,0,0,1-.426-.65,2.271,2.271,0,0,1-.15-.838,2.3,2.3,0,0,1,.15-.843,1.927,1.927,0,0,1,.422-.659,1.9,1.9,0,0,1,.65-.429,2.227,2.227,0,0,1,.848-.154,2.262,2.262,0,0,1,.829.154,1.826,1.826,0,0,1,.688.471Z" transform="translate(5065.923 20798.186)" fill="#3a4044"/>
      <path id="Path_18449" data-name="Path 18449" d="M435.574,150.109h.7v.617h.018a.654.654,0,0,1,.128-.208,1.356,1.356,0,0,1,.267-.238,1.632,1.632,0,0,1,.384-.192,1.422,1.422,0,0,1,.488-.079,1.4,1.4,0,0,1,.742.184,1.365,1.365,0,0,1,.492.55,1.27,1.27,0,0,1,.543-.55,1.5,1.5,0,0,1,.708-.184,1.64,1.64,0,0,1,.751.15,1.208,1.208,0,0,1,.458.4,1.5,1.5,0,0,1,.229.558,3.259,3.259,0,0,1,.062.646v2.3h-.75v-2.2a3.089,3.089,0,0,0-.03-.434,1,1,0,0,0-.121-.367.689.689,0,0,0-.259-.255,1.067,1.067,0,0,0-1.218.238,1.47,1.47,0,0,0-.234.859v2.16h-.75v-2.068a4.3,4.3,0,0,0-.029-.517,1.208,1.208,0,0,0-.117-.4.642.642,0,0,0-.25-.267.863.863,0,0,0-.439-.1.979.979,0,0,0-.387.08.92.92,0,0,0-.329.237,1.15,1.15,0,0,0-.225.4,1.814,1.814,0,0,0-.083.58v2.051h-.751Z" transform="translate(5064.132 20798.189)" fill="#3a4044"/>
      <path id="Path_18450" data-name="Path 18450" d="M445.179,154.221q.267-.425.467-.817a5.624,5.624,0,0,0,.333-.8,5.215,5.215,0,0,0,.2-.838,6.105,6.105,0,0,0,.067-.935,5.97,5.97,0,0,0-.267-1.776,5.437,5.437,0,0,0-.8-1.593l.5-.334a6.381,6.381,0,0,1,.9,1.727,6.089,6.089,0,0,1,.321,1.976,6.371,6.371,0,0,1-1.218,3.7Z" transform="translate(5061.266 20799.047)" fill="#3a4044"/>
      <path id="Path_18451" data-name="Path 18451" d="M482.253,147.37h2.077a2.425,2.425,0,0,1,.934.154,1.6,1.6,0,0,1,.579.391,1.342,1.342,0,0,1,.3.534,2,2,0,0,1,0,1.143,1.337,1.337,0,0,1-.3.534,1.587,1.587,0,0,1-.579.391,2.425,2.425,0,0,1-.934.154h-1.276v2.6h-.8Zm.8,2.6H484.1a2.848,2.848,0,0,0,.463-.038,1.236,1.236,0,0,0,.408-.137.761.761,0,0,0,.288-.288,1.156,1.156,0,0,0,0-.976.761.761,0,0,0-.288-.288,1.251,1.251,0,0,0-.408-.138,2.849,2.849,0,0,0-.463-.037h-1.051Z" transform="translate(5050.203 20798.977)" fill="#3a4044"/>
      <path id="Path_18452" data-name="Path 18452" d="M489.028,150.109h.751v.61h.017a1.062,1.062,0,0,1,.2-.288,1.3,1.3,0,0,1,.28-.221,1.476,1.476,0,0,1,.337-.146,1.3,1.3,0,0,1,.367-.054,1.059,1.059,0,0,1,.333.05l-.034.809c-.061-.017-.122-.03-.182-.041a1.024,1.024,0,0,0-.184-.017,1.1,1.1,0,0,0-.843.309,1.353,1.353,0,0,0-.292.959v1.985h-.751Z" transform="translate(5048.181 20798.189)" fill="#3a4044"/>
      <path id="Path_18453" data-name="Path 18453" d="M493.153,152.086a2.005,2.005,0,0,1,.163-.809,2.1,2.1,0,0,1,.446-.659,2.125,2.125,0,0,1,2.985,0,2.1,2.1,0,0,1,.446.659,2.006,2.006,0,0,1,.163.809,2.06,2.06,0,0,1-.61,1.472,2.11,2.11,0,0,1-.667.442,2.174,2.174,0,0,1-1.651,0,2.11,2.11,0,0,1-.667-.442,2.056,2.056,0,0,1-.609-1.472Zm.8,0a1.623,1.623,0,0,0,.092.554,1.239,1.239,0,0,0,.259.434,1.186,1.186,0,0,0,.408.284,1.466,1.466,0,0,0,1.084,0,1.188,1.188,0,0,0,.409-.284,1.248,1.248,0,0,0,.258-.434,1.719,1.719,0,0,0,0-1.109,1.255,1.255,0,0,0-.258-.434,1.2,1.2,0,0,0-.409-.283,1.457,1.457,0,0,0-1.084,0,1.194,1.194,0,0,0-.408.283,1.246,1.246,0,0,0-.259.434A1.63,1.63,0,0,0,493.953,152.086Z" transform="translate(5046.95 20798.189)" fill="#3a4044"/>
      <path id="Path_18454" data-name="Path 18454" d="M500.92,149.314v4.52q0,.15-.021.4a1.314,1.314,0,0,1-.133.476,1.024,1.024,0,0,1-.359.4,1.231,1.231,0,0,1-.7.167,1.8,1.8,0,0,1-.246-.017,1.182,1.182,0,0,1-.237-.058l.083-.692a1.33,1.33,0,0,0,.15.046.685.685,0,0,0,.159.021.462.462,0,0,0,.429-.2,1.091,1.091,0,0,0,.121-.571v-4.487Zm-.926-1.417a.551.551,0,0,1,1.1,0,.551.551,0,0,1-1.1,0Z" transform="translate(5045.137 20798.984)" fill="#3a4044"/>
      <path id="Path_18455" data-name="Path 18455" d="M503.808,152.361a.984.984,0,0,0,.114.471,1.167,1.167,0,0,0,.3.363,1.367,1.367,0,0,0,.426.234,1.524,1.524,0,0,0,.5.083,1.123,1.123,0,0,0,.609-.162,2,2,0,0,0,.476-.429l.566.434a2.086,2.086,0,0,1-1.751.809A2.174,2.174,0,0,1,504.2,154a1.857,1.857,0,0,1-.642-.438,1.959,1.959,0,0,1-.4-.659,2.326,2.326,0,0,1-.142-.822,2.156,2.156,0,0,1,.154-.822,2.032,2.032,0,0,1,.425-.659,1.93,1.93,0,0,1,.646-.438,2.073,2.073,0,0,1,.817-.159,1.951,1.951,0,0,1,.889.184,1.758,1.758,0,0,1,.6.479,1.9,1.9,0,0,1,.338.667,2.808,2.808,0,0,1,.1.755v.267Zm2.369-.6a1.569,1.569,0,0,0-.079-.458,1,1,0,0,0-.213-.363.975.975,0,0,0-.354-.241,1.29,1.29,0,0,0-.5-.088,1.221,1.221,0,0,0-.892.375,1.246,1.246,0,0,0-.246.371,1.022,1.022,0,0,0-.088.4Z" transform="translate(5044.009 20798.189)" fill="#3a4044"/>
      <path id="Path_18456" data-name="Path 18456" d="M512.7,151.163a1.573,1.573,0,0,0-.438-.329,1.224,1.224,0,0,0-.546-.112,1.2,1.2,0,0,0-.537.112,1.088,1.088,0,0,0-.384.309,1.375,1.375,0,0,0-.234.45,1.751,1.751,0,0,0-.08.53,1.478,1.478,0,0,0,.092.521,1.311,1.311,0,0,0,.259.43,1.2,1.2,0,0,0,.4.288,1.273,1.273,0,0,0,.526.1,1.2,1.2,0,0,0,.542-.112,1.4,1.4,0,0,0,.417-.33l.534.534a1.693,1.693,0,0,1-.68.467,2.39,2.39,0,0,1-.822.142,2.265,2.265,0,0,1-.838-.15,1.929,1.929,0,0,1-.655-.422,1.846,1.846,0,0,1-.425-.65,2.256,2.256,0,0,1-.15-.838,2.289,2.289,0,0,1,.15-.843,1.878,1.878,0,0,1,1.071-1.088,2.223,2.223,0,0,1,.847-.154,2.265,2.265,0,0,1,.83.154,1.818,1.818,0,0,1,.688.471Z" transform="translate(5042.019 20798.186)" fill="#3a4044"/>
      <path id="Path_18457" data-name="Path 18457" d="M517.553,150.33h-1.076v1.793c0,.111,0,.221.008.329a.856.856,0,0,0,.063.292.462.462,0,0,0,.166.208.568.568,0,0,0,.33.079,1.636,1.636,0,0,0,.275-.025.8.8,0,0,0,.258-.092v.684a.989.989,0,0,1-.346.1,2.569,2.569,0,0,1-.33.029,1.508,1.508,0,0,1-.671-.121.828.828,0,0,1-.35-.312,1.018,1.018,0,0,1-.133-.43c-.014-.158-.02-.318-.02-.479v-2.06h-.868v-.651h.868V148.57h.75v1.109h1.076Z" transform="translate(5040.473 20798.619)" fill="#3a4044"/>
      <path id="Path_18458" data-name="Path 18458" d="M519.911,147.9a.55.55,0,0,1,1.1,0,.55.55,0,0,1-1.1,0Zm.175,1.417h.75v3.953h-.75Z" transform="translate(5038.965 20798.984)" fill="#3a4044"/>
      <path id="Path_18459" data-name="Path 18459" d="M522.657,152.086a2.005,2.005,0,0,1,.163-.809,2.108,2.108,0,0,1,.445-.659,2.11,2.11,0,0,1,3.432.659,2.006,2.006,0,0,1,.163.809,2.056,2.056,0,0,1-.609,1.472,2.11,2.11,0,0,1-.667.442,2.174,2.174,0,0,1-1.651,0,2.12,2.12,0,0,1-.668-.442,2.059,2.059,0,0,1-.608-1.472Zm.8,0a1.623,1.623,0,0,0,.092.554,1.241,1.241,0,0,0,.259.434,1.187,1.187,0,0,0,.408.284,1.466,1.466,0,0,0,1.084,0,1.189,1.189,0,0,0,.409-.284,1.248,1.248,0,0,0,.258-.434,1.719,1.719,0,0,0,0-1.109,1.255,1.255,0,0,0-.258-.434,1.2,1.2,0,0,0-.409-.283,1.457,1.457,0,0,0-1.084,0,1.2,1.2,0,0,0-.408.283,1.247,1.247,0,0,0-.259.434A1.63,1.63,0,0,0,523.457,152.086Z" transform="translate(5038.146 20798.189)" fill="#3a4044"/>
      <path id="Path_18460" data-name="Path 18460" d="M529.991,150.109h.751v.61h.017a1.107,1.107,0,0,1,.492-.514,1.631,1.631,0,0,1,.809-.2,1.705,1.705,0,0,1,.547.088,1.228,1.228,0,0,1,.458.271,1.3,1.3,0,0,1,.313.471,1.8,1.8,0,0,1,.116.68v2.543h-.75v-2.335a1.325,1.325,0,0,0-.075-.471.861.861,0,0,0-.2-.317.761.761,0,0,0-.288-.175,1.069,1.069,0,0,0-.337-.054,1.23,1.23,0,0,0-.434.075.906.906,0,0,0-.35.238,1.12,1.12,0,0,0-.234.413,1.881,1.881,0,0,0-.083.592v2.035h-.751Z" transform="translate(5035.957 20798.189)" fill="#3a4044"/>
      <path id="Path_18461" data-name="Path 18461" d="M541.385,147.449q-.267.425-.467.817a5.685,5.685,0,0,0-.333.8,5.224,5.224,0,0,0-.2.838,6.184,6.184,0,0,0-.066.934,5.941,5.941,0,0,0,.267,1.776,5.42,5.42,0,0,0,.8,1.593l-.5.334a6.386,6.386,0,0,1-.9-1.726,6.072,6.072,0,0,1-.321-1.977,6.214,6.214,0,0,1,.309-1.918,6.308,6.308,0,0,1,.909-1.785Z" transform="translate(5033.069 20799.047)" fill="#3a4044"/>
      <path id="Path_18462" data-name="Path 18462" d="M545.955,151.163a1.575,1.575,0,0,0-.438-.329,1.226,1.226,0,0,0-.546-.112,1.209,1.209,0,0,0-.538.112,1.1,1.1,0,0,0-.384.309,1.4,1.4,0,0,0-.234.45,1.772,1.772,0,0,0-.079.53,1.477,1.477,0,0,0,.092.521,1.309,1.309,0,0,0,.259.43,1.193,1.193,0,0,0,.4.288,1.277,1.277,0,0,0,.525.1,1.2,1.2,0,0,0,.542-.112,1.4,1.4,0,0,0,.417-.33l.533.534a1.686,1.686,0,0,1-.679.467,2.39,2.39,0,0,1-.822.142,2.271,2.271,0,0,1-.839-.15,1.933,1.933,0,0,1-.654-.422,1.857,1.857,0,0,1-.426-.65,2.269,2.269,0,0,1-.15-.838,2.3,2.3,0,0,1,.15-.843,1.926,1.926,0,0,1,.422-.659,1.892,1.892,0,0,1,.65-.429,2.221,2.221,0,0,1,.847-.154,2.262,2.262,0,0,1,.829.154,1.821,1.821,0,0,1,.688.471Z" transform="translate(5032.093 20798.186)" fill="#3a4044"/>
      <path id="Path_18463" data-name="Path 18463" d="M548.939,150.109h.7v.617h.018a.646.646,0,0,1,.129-.208,1.334,1.334,0,0,1,.267-.238,1.646,1.646,0,0,1,.384-.192,1.426,1.426,0,0,1,.488-.079,1.394,1.394,0,0,1,.742.184,1.359,1.359,0,0,1,.492.55,1.27,1.27,0,0,1,.543-.55,1.5,1.5,0,0,1,.709-.184,1.637,1.637,0,0,1,.751.15,1.207,1.207,0,0,1,.458.4,1.5,1.5,0,0,1,.229.558,3.254,3.254,0,0,1,.062.646v2.3h-.75v-2.2a3.094,3.094,0,0,0-.029-.434.993.993,0,0,0-.121-.367.689.689,0,0,0-.259-.255,1.067,1.067,0,0,0-1.218.238,1.47,1.47,0,0,0-.234.859v2.16h-.75v-2.068a4.155,4.155,0,0,0-.029-.517,1.211,1.211,0,0,0-.116-.4.645.645,0,0,0-.25-.267.866.866,0,0,0-.438-.1.983.983,0,0,0-.388.08.92.92,0,0,0-.329.237,1.151,1.151,0,0,0-.225.4,1.814,1.814,0,0,0-.083.58v2.051h-.751Z" transform="translate(5030.302 20798.189)" fill="#3a4044"/>
      <path id="Path_18464" data-name="Path 18464" d="M558.544,154.221q.267-.425.467-.817a5.621,5.621,0,0,0,.334-.8,5.274,5.274,0,0,0,.2-.838,6.2,6.2,0,0,0,.066-.935,5.989,5.989,0,0,0-.266-1.776,5.439,5.439,0,0,0-.8-1.593l.5-.334a6.361,6.361,0,0,1,.9,1.727,6.088,6.088,0,0,1,.321,1.976,6.358,6.358,0,0,1-1.218,3.7Z" transform="translate(5027.436 20799.047)" fill="#3a4044"/>
      <path id="Path_18465" data-name="Path 18465" d="M588.616,147.37h.926l1.734,4.8h.017l1.8-4.8h.876l-2.326,5.9h-.751Z" transform="translate(5018.462 20798.977)" fill="#3a4044"/>
      <path id="Path_18466" data-name="Path 18466" d="M596.712,152.086a2.017,2.017,0,0,1,.162-.809,2.123,2.123,0,0,1,.446-.659,2.126,2.126,0,0,1,2.986,0,2.123,2.123,0,0,1,.446.659,2.006,2.006,0,0,1,.163.809,2.056,2.056,0,0,1-.609,1.472,2.117,2.117,0,0,1-.667.442,2.176,2.176,0,0,1-1.652,0,2.126,2.126,0,0,1-.667-.442,2.051,2.051,0,0,1-.608-1.472Zm.8,0a1.623,1.623,0,0,0,.091.554,1.228,1.228,0,0,0,.26.434,1.185,1.185,0,0,0,.408.284,1.465,1.465,0,0,0,1.083,0,1.182,1.182,0,0,0,.409-.284,1.24,1.24,0,0,0,.259-.434,1.719,1.719,0,0,0,0-1.109,1.246,1.246,0,0,0-.259-.434,1.19,1.19,0,0,0-.409-.283,1.456,1.456,0,0,0-1.083,0,1.193,1.193,0,0,0-.408.283,1.235,1.235,0,0,0-.26.434A1.63,1.63,0,0,0,597.513,152.086Z" transform="translate(5016.046 20798.189)" fill="#3a4044"/>
      <path id="Path_18467" data-name="Path 18467" d="M604.129,146.8h.75V153.1h-.75Z" transform="translate(5013.833 20799.146)" fill="#3a4044"/>
      <path id="Path_18468" data-name="Path 18468" d="M610.4,154.1h-.751V153.5h-.017a1.1,1.1,0,0,1-.492.513,1.631,1.631,0,0,1-.81.2,1.706,1.706,0,0,1-.55-.088,1.221,1.221,0,0,1-.454-.272,1.3,1.3,0,0,1-.314-.471,1.8,1.8,0,0,1-.117-.68v-2.544h.751v2.336a1.328,1.328,0,0,0,.075.471.86.86,0,0,0,.2.317.755.755,0,0,0,.288.175,1.046,1.046,0,0,0,.338.054,1.213,1.213,0,0,0,.434-.075.89.89,0,0,0,.35-.238,1.112,1.112,0,0,0,.234-.413,1.886,1.886,0,0,0,.083-.592v-2.035h.751Z" transform="translate(5013.007 20798.146)" fill="#3a4044"/>
      <path id="Path_18469" data-name="Path 18469" d="M613.508,150.109h.7v.617h.017a.659.659,0,0,1,.129-.208,1.321,1.321,0,0,1,.267-.238,1.631,1.631,0,0,1,.384-.192,1.422,1.422,0,0,1,.488-.079,1.4,1.4,0,0,1,.742.184,1.364,1.364,0,0,1,.492.55,1.264,1.264,0,0,1,.542-.55,1.505,1.505,0,0,1,.709-.184,1.637,1.637,0,0,1,.751.15,1.211,1.211,0,0,1,.459.4,1.51,1.51,0,0,1,.229.558,3.31,3.31,0,0,1,.062.646v2.3h-.751v-2.2a2.987,2.987,0,0,0-.03-.434.993.993,0,0,0-.121-.367.689.689,0,0,0-.259-.255,1.066,1.066,0,0,0-1.217.238,1.465,1.465,0,0,0-.234.859v2.16h-.75v-2.068a4.3,4.3,0,0,0-.029-.517,1.227,1.227,0,0,0-.116-.4.651.651,0,0,0-.25-.267.863.863,0,0,0-.438-.1.985.985,0,0,0-.388.08.918.918,0,0,0-.328.237,1.152,1.152,0,0,0-.226.4,1.814,1.814,0,0,0-.083.58v2.051h-.75Z" transform="translate(5011.034 20798.189)" fill="#3a4044"/>
      <path id="Path_18470" data-name="Path 18470" d="M624.1,152.361a.992.992,0,0,0,.113.471,1.178,1.178,0,0,0,.3.363,1.366,1.366,0,0,0,.426.234,1.524,1.524,0,0,0,.5.083,1.123,1.123,0,0,0,.609-.162,2,2,0,0,0,.476-.429l.566.434a2.087,2.087,0,0,1-1.751.809,2.174,2.174,0,0,1-.847-.159,1.857,1.857,0,0,1-.642-.438,1.958,1.958,0,0,1-.4-.659,2.324,2.324,0,0,1-.142-.822,2.169,2.169,0,0,1,.154-.822,2.045,2.045,0,0,1,.426-.659,1.929,1.929,0,0,1,.646-.438,2.073,2.073,0,0,1,.817-.159,1.946,1.946,0,0,1,.888.184,1.754,1.754,0,0,1,.6.479,1.888,1.888,0,0,1,.337.667,2.783,2.783,0,0,1,.1.755v.267Zm2.369-.6a1.566,1.566,0,0,0-.079-.458,1,1,0,0,0-.213-.363.971.971,0,0,0-.354-.241,1.283,1.283,0,0,0-.5-.088,1.217,1.217,0,0,0-.5.1,1.235,1.235,0,0,0-.634.643,1.021,1.021,0,0,0-.088.4Z" transform="translate(5008.111 20798.189)" fill="#3a4044"/>
      <path id="Path_18471" data-name="Path 18471" d="M635.03,147.449q-.267.425-.467.817a5.6,5.6,0,0,0-.334.8,5.171,5.171,0,0,0-.2.838,6.189,6.189,0,0,0-.067.934,5.943,5.943,0,0,0,.267,1.776,5.422,5.422,0,0,0,.8,1.593l-.5.334a6.363,6.363,0,0,1-.9-1.726,6.072,6.072,0,0,1-.321-1.977,6.215,6.215,0,0,1,.309-1.918,6.305,6.305,0,0,1,.909-1.785Z" transform="translate(5005.125 20799.047)" fill="#3a4044"/>
      <path id="Path_18472" data-name="Path 18472" d="M639.6,151.163a1.572,1.572,0,0,0-.438-.329,1.23,1.23,0,0,0-.547-.112,1.206,1.206,0,0,0-.537.112,1.087,1.087,0,0,0-.384.309,1.374,1.374,0,0,0-.234.45,1.774,1.774,0,0,0-.079.53,1.478,1.478,0,0,0,.092.521,1.289,1.289,0,0,0,.259.43,1.186,1.186,0,0,0,.4.288,1.277,1.277,0,0,0,.525.1,1.2,1.2,0,0,0,.542-.112,1.39,1.39,0,0,0,.417-.33l.534.534a1.688,1.688,0,0,1-.68.467,2.391,2.391,0,0,1-.822.142,2.268,2.268,0,0,1-.838-.15,1.935,1.935,0,0,1-.655-.422,1.857,1.857,0,0,1-.425-.65,2.258,2.258,0,0,1-.15-.838,2.291,2.291,0,0,1,.15-.843,1.918,1.918,0,0,1,.422-.659,1.889,1.889,0,0,1,.65-.429,2.225,2.225,0,0,1,.847-.154,2.265,2.265,0,0,1,.83.154,1.818,1.818,0,0,1,.688.471Z" transform="translate(5004.149 20798.186)" fill="#3a4044"/>
      <path id="Path_18473" data-name="Path 18473" d="M645.329,151.163a1.573,1.573,0,0,0-.438-.329,1.226,1.226,0,0,0-.546-.112,1.209,1.209,0,0,0-.538.112,1.1,1.1,0,0,0-.384.309,1.4,1.4,0,0,0-.234.45,1.774,1.774,0,0,0-.079.53,1.478,1.478,0,0,0,.092.521,1.311,1.311,0,0,0,.259.43,1.193,1.193,0,0,0,.4.288,1.279,1.279,0,0,0,.526.1,1.2,1.2,0,0,0,.542-.112,1.4,1.4,0,0,0,.417-.33l.533.534a1.686,1.686,0,0,1-.679.467,2.39,2.39,0,0,1-.822.142,2.272,2.272,0,0,1-.839-.15,1.933,1.933,0,0,1-.654-.422,1.858,1.858,0,0,1-.426-.65,2.272,2.272,0,0,1-.149-.838,2.306,2.306,0,0,1,.149-.843,1.927,1.927,0,0,1,.422-.659,1.892,1.892,0,0,1,.65-.429,2.22,2.22,0,0,1,.847-.154,2.262,2.262,0,0,1,.829.154,1.822,1.822,0,0,1,.688.471Z" transform="translate(5002.439 20798.186)" fill="#3a4044"/>
      <path id="Path_18474" data-name="Path 18474" d="M647.79,154.221q.267-.425.467-.817a5.628,5.628,0,0,0,.334-.8,5.281,5.281,0,0,0,.2-.838,6.175,6.175,0,0,0,.067-.935,5.968,5.968,0,0,0-.267-1.776,5.443,5.443,0,0,0-.8-1.593l.5-.334a6.34,6.34,0,0,1,.9,1.727,6.088,6.088,0,0,1,.321,1.976,6.358,6.358,0,0,1-1.218,3.7Z" transform="translate(5000.804 20799.047)" fill="#3a4044"/>
      <rect id="Rectangle_2433" data-name="Rectangle 2433" width="70.106" height="90.375" transform="translate(5451.652 20963.209)" fill="#bc925a"/>
      <rect id="Rectangle_2434" data-name="Rectangle 2434" width="76.28" height="90.375" transform="translate(5521.758 20963.209)" fill="#bc925a"/>
      <path id="Rectangle_2437" data-name="Rectangle 2437" d="M0,0H62.921a0,0,0,0,1,0,0V82.375a8,8,0,0,1-8,8H0a0,0,0,0,1,0,0V0A0,0,0,0,1,0,0Z" transform="translate(5597.943 20963.209)" fill="#bc925a"/>
      <path id="Rectangle_2435" data-name="Rectangle 2435" d="M0,0H55.933a0,0,0,0,1,0,0V90.375a0,0,0,0,1,0,0H8a8,8,0,0,1-8-8V0A0,0,0,0,1,0,0Z" transform="translate(5329.864 20963.209)" fill="#bc925a"/>
      <rect id="Rectangle_2436" data-name="Rectangle 2436" width="65.855" height="90.375" transform="translate(5385.797 20963.209)" fill="#bc925a"/>
      <path id="Path_18325" data-name="Path 18325" d="M218.4,274.254l-2.053-2.978h.932l1.648,2.463,1.631-2.463h.906l-2.054,2.978,2.252,3.315H220.7l-1.812-2.791-1.82,2.791h-.9Z" transform="translate(5129.606 20701.094)" fill="#fff"/>
      <path id="Path_18326" data-name="Path 18326" d="M225.036,271.276h1.079l2.07,4.934h.017l2.088-4.934h1.053v6.293h-.725V272.29H230.6l-2.191,5.279h-.441l-2.191-5.279h-.018v5.279h-.725Z" transform="translate(5126.959 20701.094)" fill="#fff"/>
      <path id="Path_18327" data-name="Path 18327" d="M236.19,271.276h1.079l2.07,4.934h.017l2.088-4.934H242.5v6.293h-.725V272.29h-.017l-2.191,5.279h-.441l-2.191-5.279h-.018v5.279h-.725Z" transform="translate(5123.631 20701.094)" fill="#fff"/>
      <path id="Path_18328" data-name="Path 18328" d="M246.8,276.749h2.114v.641H246.8Z" transform="translate(5120.464 20699.459)" fill="#fff"/>
      <path id="Path_18329" data-name="Path 18329" d="M254.619,271.97h-2.493l-.026,1.7a1.2,1.2,0,0,1,.384-.12,2.62,2.62,0,0,1,.4-.032,2,2,0,0,1,.8.155,1.83,1.83,0,0,1,.617.436,1.932,1.932,0,0,1,.4.657,2.382,2.382,0,0,1,.138.822,2.239,2.239,0,0,1-.16.858,1.934,1.934,0,0,1-.44.657,2,2,0,0,1-.664.422,2.264,2.264,0,0,1-.833.151,1.873,1.873,0,0,1-1.126-.311,2.166,2.166,0,0,1-.677-.836l.725-.285a1.382,1.382,0,0,0,.453.574,1.128,1.128,0,0,0,.685.217,1.274,1.274,0,0,0,.514-.1,1.209,1.209,0,0,0,.414-.293,1.439,1.439,0,0,0,.281-.457,1.64,1.64,0,0,0,.1-.6,1.515,1.515,0,0,0-.116-.613,1.273,1.273,0,0,0-.319-.449,1.352,1.352,0,0,0-.478-.275,1.838,1.838,0,0,0-.595-.094,1.978,1.978,0,0,0-.639.112,3.028,3.028,0,0,0-.6.279l.06-3.271h3.2Z" transform="translate(5119.231 20701.094)" fill="#fff"/>
      <path id="Path_18330" data-name="Path 18330" d="M260.938,275.436h.881v.693h-.881v1.44h-.725v-1.44h-2.588V275.3l2.425-4.027h.888Zm-.725-3.288H260.2l-1.95,3.288h1.967Z" transform="translate(5117.235 20701.094)" fill="#fff"/>
      <path id="Path_18331" data-name="Path 18331" d="M218.4,297.059l-2.053-2.978h.932l1.648,2.463,1.631-2.463h.906l-2.054,2.978,2.252,3.316H220.7l-1.812-2.792-1.82,2.792h-.9Z" transform="translate(5129.606 20694.287)" fill="#fff"/>
      <path id="Path_18332" data-name="Path 18332" d="M225.036,294.081h1.079l2.07,4.933h.017l2.088-4.933h1.053v6.293h-.725v-5.28H230.6l-2.191,5.28h-.441l-2.191-5.28h-.018v5.28h-.725Z" transform="translate(5126.959 20694.287)" fill="#fff"/>
      <path id="Path_18333" data-name="Path 18333" d="M236.19,294.081h1.079l2.07,4.933h.017l2.088-4.933H242.5v6.293h-.725v-5.28h-.017l-2.191,5.28h-.441l-2.191-5.28h-.018v5.28h-.725Z" transform="translate(5123.631 20694.287)" fill="#fff"/>
      <path id="Path_18334" data-name="Path 18334" d="M246.8,299.554h2.114v.641H246.8Z" transform="translate(5120.464 20692.654)" fill="#fff"/>
      <path id="Path_18335" data-name="Path 18335" d="M254.619,294.774h-2.493l-.026,1.7a1.214,1.214,0,0,1,.384-.12,2.708,2.708,0,0,1,.4-.032,2,2,0,0,1,.8.156,1.838,1.838,0,0,1,.617.436,1.935,1.935,0,0,1,.4.658,2.382,2.382,0,0,1,.138.822,2.233,2.233,0,0,1-.16.857,1.937,1.937,0,0,1-.44.658,1.985,1.985,0,0,1-.664.422,2.25,2.25,0,0,1-.833.152,1.873,1.873,0,0,1-1.126-.311,2.168,2.168,0,0,1-.677-.836l.725-.284a1.38,1.38,0,0,0,.453.573,1.124,1.124,0,0,0,.685.218,1.285,1.285,0,0,0,.514-.1,1.217,1.217,0,0,0,.414-.293,1.434,1.434,0,0,0,.281-.458,1.636,1.636,0,0,0,.1-.595,1.51,1.51,0,0,0-.116-.613,1.273,1.273,0,0,0-.319-.449,1.354,1.354,0,0,0-.478-.276,1.84,1.84,0,0,0-.595-.093,1.961,1.961,0,0,0-.639.112,2.989,2.989,0,0,0-.6.279l.06-3.271h3.2Z" transform="translate(5119.231 20694.287)" fill="#fff"/>
      <path id="Path_18336" data-name="Path 18336" d="M258.041,295.573a1.653,1.653,0,0,1,.133-.675,1.544,1.544,0,0,1,.367-.516,1.667,1.667,0,0,1,.552-.333,2.034,2.034,0,0,1,1.381,0,1.668,1.668,0,0,1,.552.333,1.545,1.545,0,0,1,.367.516,1.654,1.654,0,0,1,.133.675,1.521,1.521,0,0,1-.267.854,1.474,1.474,0,0,1-.315.329,1.179,1.179,0,0,1-.418.2v.018a1.534,1.534,0,0,1,.5.209,1.46,1.46,0,0,1,.38.36,1.711,1.711,0,0,1,.242.484,1.967,1.967,0,0,1-.065,1.334,1.71,1.71,0,0,1-.414.582,1.772,1.772,0,0,1-.621.364,2.4,2.4,0,0,1-1.527,0,1.775,1.775,0,0,1-.622-.364,1.71,1.71,0,0,1-.414-.582,1.878,1.878,0,0,1-.151-.769,1.856,1.856,0,0,1,.086-.565,1.692,1.692,0,0,1,.241-.484,1.46,1.46,0,0,1,.38-.36,1.531,1.531,0,0,1,.5-.209v-.018a1.177,1.177,0,0,1-.419-.2,1.508,1.508,0,0,1-.582-1.183Zm.518,2.969a1.324,1.324,0,0,0,.095.507,1.161,1.161,0,0,0,.263.4,1.244,1.244,0,0,0,.389.257,1.265,1.265,0,0,0,.957,0,1.236,1.236,0,0,0,.389-.257,1.16,1.16,0,0,0,.263-.4,1.4,1.4,0,0,0,0-1.014,1.16,1.16,0,0,0-.263-.4,1.238,1.238,0,0,0-.389-.258,1.273,1.273,0,0,0-.957,0,1.245,1.245,0,0,0-.389.258,1.161,1.161,0,0,0-.263.4A1.323,1.323,0,0,0,258.559,298.542Zm.207-2.933a1.037,1.037,0,0,0,.281.747,1.074,1.074,0,0,0,1.475,0,1.135,1.135,0,0,0,0-1.493,1.073,1.073,0,0,0-1.475,0A1.033,1.033,0,0,0,258.766,295.609Z" transform="translate(5117.172 20694.334)" fill="#fff"/>
      <path id="Path_18337" data-name="Path 18337" d="M218.4,319.863l-2.053-2.978h.932l1.648,2.463,1.631-2.463h.906l-2.054,2.978,2.252,3.315H220.7l-1.812-2.791-1.82,2.791h-.9Z" transform="translate(5129.606 20687.482)" fill="#fff"/>
      <path id="Path_18338" data-name="Path 18338" d="M225.036,316.885h1.079l2.07,4.933h.017l2.088-4.933h1.053v6.293h-.725V317.9H230.6l-2.191,5.279h-.441l-2.191-5.279h-.018v5.279h-.725Z" transform="translate(5126.959 20687.482)" fill="#fff"/>
      <path id="Path_18339" data-name="Path 18339" d="M236.19,316.885h1.079l2.07,4.933h.017l2.088-4.933H242.5v6.293h-.725V317.9h-.017l-2.191,5.279h-.441l-2.191-5.279h-.018v5.279h-.725Z" transform="translate(5123.631 20687.482)" fill="#fff"/>
      <path id="Path_18340" data-name="Path 18340" d="M246.8,322.357h2.114V323H246.8Z" transform="translate(5120.464 20685.85)" fill="#fff"/>
      <path id="Path_18341" data-name="Path 18341" d="M252.268,319.507l.017.018a1.336,1.336,0,0,1,.4-.142,2.16,2.16,0,0,1,.419-.044,1.9,1.9,0,0,1,.737.142,1.691,1.691,0,0,1,.587.4,1.892,1.892,0,0,1,.384.627,2.242,2.242,0,0,1,.138.8,2.1,2.1,0,0,1-.155.826,1.771,1.771,0,0,1-.431.618,1.954,1.954,0,0,1-.652.391,2.433,2.433,0,0,1-1.613,0,1.947,1.947,0,0,1-.652-.391,1.76,1.76,0,0,1-.431-.618,2.084,2.084,0,0,1-.156-.826,2.538,2.538,0,0,1,.164-.951,5.4,5.4,0,0,1,.414-.818l1.622-2.658h.845Zm.638.471a1.416,1.416,0,0,0-.518.093,1.215,1.215,0,0,0-.419.267,1.259,1.259,0,0,0-.28.422,1.419,1.419,0,0,0-.1.551,1.4,1.4,0,0,0,.1.555,1.258,1.258,0,0,0,.28.418,1.2,1.2,0,0,0,.419.267,1.473,1.473,0,0,0,1.036,0,1.208,1.208,0,0,0,.418-.267,1.27,1.27,0,0,0,.281-.418,1.41,1.41,0,0,0,.1-.555,1.432,1.432,0,0,0-.1-.551,1.271,1.271,0,0,0-.281-.422,1.218,1.218,0,0,0-.418-.267A1.422,1.422,0,0,0,252.906,319.978Z" transform="translate(5119.253 20687.482)" fill="#fff"/>
      <path id="Path_18342" data-name="Path 18342" d="M257.809,322.279l2.3-2.311c.143-.142.27-.274.38-.4a2.549,2.549,0,0,0,.272-.356,1.352,1.352,0,0,0,.16-.359,1.571,1.571,0,0,0,.051-.418,1.1,1.1,0,0,0-.086-.444.986.986,0,0,0-.238-.333,1.059,1.059,0,0,0-.354-.213,1.23,1.23,0,0,0-.436-.076,1.092,1.092,0,0,0-.768.276,1.274,1.274,0,0,0-.389.728l-.785-.07a2,2,0,0,1,.229-.681,1.631,1.631,0,0,1,.422-.493,1.868,1.868,0,0,1,.574-.3,2.238,2.238,0,0,1,.69-.1,2.263,2.263,0,0,1,.716.112,1.763,1.763,0,0,1,.591.324,1.545,1.545,0,0,1,.406.533,1.711,1.711,0,0,1,.151.738,2.162,2.162,0,0,1-.1.676,2.272,2.272,0,0,1-.267.556,3.733,3.733,0,0,1-.38.48q-.212.226-.445.449l-1.88,1.822v.018h3.114v.693h-3.934Z" transform="translate(5117.18 20687.527)" fill="#fff"/>
      <path id="Path_18343" data-name="Path 18343" d="M218.4,342.667l-2.053-2.978h.932l1.648,2.463,1.631-2.463h.906l-2.054,2.978,2.252,3.315H220.7l-1.812-2.791-1.82,2.791h-.9Z" transform="translate(5129.606 20680.676)" fill="#fff"/>
      <path id="Path_18344" data-name="Path 18344" d="M225.036,339.689h1.079l2.07,4.934h.017l2.088-4.934h1.053v6.293h-.725V340.7H230.6l-2.191,5.279h-.441l-2.191-5.279h-.018v5.279h-.725Z" transform="translate(5126.959 20680.676)" fill="#fff"/>
      <path id="Path_18345" data-name="Path 18345" d="M236.19,339.689h1.079l2.07,4.934h.017l2.088-4.934H242.5v6.293h-.725V340.7h-.017l-2.191,5.279h-.441l-2.191-5.279h-.018v5.279h-.725Z" transform="translate(5123.631 20680.676)" fill="#fff"/>
      <path id="Path_18346" data-name="Path 18346" d="M246.8,345.162h2.114v.641H246.8Z" transform="translate(5120.464 20679.043)" fill="#fff"/>
      <path id="Path_18347" data-name="Path 18347" d="M252.268,342.312l.017.018a1.314,1.314,0,0,1,.4-.142,2.163,2.163,0,0,1,.419-.044,1.9,1.9,0,0,1,.737.142,1.681,1.681,0,0,1,.587.4,1.9,1.9,0,0,1,.384.627,2.248,2.248,0,0,1,.138.8,2.1,2.1,0,0,1-.155.826,1.784,1.784,0,0,1-.431.618,1.954,1.954,0,0,1-.652.391,2.421,2.421,0,0,1-1.613,0,1.946,1.946,0,0,1-.652-.391,1.773,1.773,0,0,1-.431-.618,2.084,2.084,0,0,1-.156-.826,2.533,2.533,0,0,1,.164-.951,5.367,5.367,0,0,1,.414-.818l1.622-2.658h.845Zm.638.471a1.432,1.432,0,0,0-.518.093,1.216,1.216,0,0,0-.419.267,1.262,1.262,0,0,0-.28.422,1.417,1.417,0,0,0-.1.551,1.4,1.4,0,0,0,.1.555,1.265,1.265,0,0,0,.28.418,1.2,1.2,0,0,0,.419.267,1.483,1.483,0,0,0,1.036,0,1.208,1.208,0,0,0,.418-.267,1.277,1.277,0,0,0,.281-.418,1.41,1.41,0,0,0,.1-.555,1.429,1.429,0,0,0-.1-.551,1.274,1.274,0,0,0-.281-.422,1.219,1.219,0,0,0-.418-.267A1.437,1.437,0,0,0,252.906,342.783Z" transform="translate(5119.253 20680.676)" fill="#fff"/>
      <path id="Path_18348" data-name="Path 18348" d="M259.1,342.312l.018.018a1.31,1.31,0,0,1,.4-.142,2.169,2.169,0,0,1,.419-.044,1.893,1.893,0,0,1,.737.142,1.684,1.684,0,0,1,.587.4,1.894,1.894,0,0,1,.384.627,2.248,2.248,0,0,1,.138.8,2.084,2.084,0,0,1-.156.826,1.766,1.766,0,0,1-.431.618,1.944,1.944,0,0,1-.651.391,2.424,2.424,0,0,1-1.614,0,1.943,1.943,0,0,1-.651-.391,1.765,1.765,0,0,1-.431-.618,2.084,2.084,0,0,1-.155-.826,2.533,2.533,0,0,1,.163-.951,5.5,5.5,0,0,1,.414-.818l1.622-2.658h.846Zm.638.471a1.435,1.435,0,0,0-.518.093,1.219,1.219,0,0,0-.418.267,1.276,1.276,0,0,0-.281.422,1.43,1.43,0,0,0-.1.551,1.411,1.411,0,0,0,.1.555,1.279,1.279,0,0,0,.281.418,1.209,1.209,0,0,0,.418.267,1.483,1.483,0,0,0,1.036,0,1.2,1.2,0,0,0,.418-.267,1.266,1.266,0,0,0,.281-.418,1.41,1.41,0,0,0,.1-.555,1.429,1.429,0,0,0-.1-.551,1.264,1.264,0,0,0-.281-.422,1.212,1.212,0,0,0-.418-.267A1.437,1.437,0,0,0,259.743,342.783Z" transform="translate(5117.212 20680.676)" fill="#fff"/>
      <path id="Path_18349" data-name="Path 18349" d="M218.4,365.471l-2.053-2.978h.932l1.648,2.463,1.631-2.463h.906l-2.054,2.978,2.252,3.316H220.7l-1.812-2.792-1.82,2.792h-.9Z" transform="translate(5129.606 20673.871)" fill="#fff"/>
      <path id="Path_18350" data-name="Path 18350" d="M225.036,362.493h1.079l2.07,4.933h.017l2.088-4.933h1.053v6.293h-.725v-5.279H230.6l-2.191,5.279h-.441l-2.191-5.279h-.018v5.279h-.725Z" transform="translate(5126.959 20673.871)" fill="#fff"/>
      <path id="Path_18351" data-name="Path 18351" d="M236.19,362.493h1.079l2.07,4.933h.017l2.088-4.933H242.5v6.293h-.725v-5.279h-.017l-2.191,5.279h-.441l-2.191-5.279h-.018v5.279h-.725Z" transform="translate(5123.631 20673.871)" fill="#fff"/>
      <path id="Path_18352" data-name="Path 18352" d="M254.675,363.186l-2.442,5.6h-.82l2.485-5.6h-2.951v-.693h3.728Z" transform="translate(5119.228 20673.871)" fill="#fff"/>
      <path id="Path_18353" data-name="Path 18353" d="M257.662,365.595a7.514,7.514,0,0,1,.086-1.111,3.562,3.562,0,0,1,.319-1.053,2.154,2.154,0,0,1,.634-.783,1.887,1.887,0,0,1,2.062,0,2.159,2.159,0,0,1,.634.783,3.563,3.563,0,0,1,.319,1.053,7.194,7.194,0,0,1,0,2.222,3.576,3.576,0,0,1-.319,1.053,2.163,2.163,0,0,1-.634.782,1.887,1.887,0,0,1-2.062,0,2.158,2.158,0,0,1-.634-.782,3.575,3.575,0,0,1-.319-1.053A7.528,7.528,0,0,1,257.662,365.595Zm.725,0c0,.154.006.325.017.515a5.4,5.4,0,0,0,.065.573,3.664,3.664,0,0,0,.138.565,1.815,1.815,0,0,0,.242.488,1.208,1.208,0,0,0,.366.343,1.108,1.108,0,0,0,1.036,0,1.218,1.218,0,0,0,.367-.343,1.833,1.833,0,0,0,.241-.488,3.752,3.752,0,0,0,.138-.565c.031-.192.053-.384.065-.573s.018-.361.018-.515-.006-.326-.018-.516-.034-.381-.065-.573a3.741,3.741,0,0,0-.138-.564,1.837,1.837,0,0,0-.241-.489,1.2,1.2,0,0,0-.367-.342,1.1,1.1,0,0,0-1.036,0,1.188,1.188,0,0,0-.366.342,1.819,1.819,0,0,0-.242.489,3.653,3.653,0,0,0-.138.564,5.4,5.4,0,0,0-.065.573Q258.387,365.364,258.387,365.595Z" transform="translate(5117.224 20673.918)" fill="#fff"/>
      <path id="Path_18354" data-name="Path 18354" d="M311.643,277.569h-.725v-5.333H310.9l-1.1.951-.431-.542,1.639-1.369h.63Z" transform="translate(5101.792 20701.094)" fill="#fff"/>
      <path id="Path_18355" data-name="Path 18355" d="M318.481,277.569h-.725v-5.333h-.018l-1.1.951-.431-.542,1.64-1.369h.63Z" transform="translate(5099.752 20701.094)" fill="#fff"/>
      <path id="Path_18356" data-name="Path 18356" d="M323.345,278.8a.5.5,0,0,1,.367.155.526.526,0,0,1,.151.378.51.51,0,0,1-.159.378.517.517,0,0,1-.876-.378.525.525,0,0,1,.15-.378A.5.5,0,0,1,323.345,278.8Z" transform="translate(5097.777 20698.846)" fill="#fff"/>
      <path id="Path_18357" data-name="Path 18357" d="M325.742,274.378a7.531,7.531,0,0,1,.086-1.111,3.583,3.583,0,0,1,.319-1.053,2.171,2.171,0,0,1,.634-.782,1.883,1.883,0,0,1,2.062,0,2.164,2.164,0,0,1,.634.782,3.562,3.562,0,0,1,.319,1.053,7.194,7.194,0,0,1,0,2.222,3.562,3.562,0,0,1-.319,1.053,2.164,2.164,0,0,1-.634.782,1.887,1.887,0,0,1-2.062,0,2.171,2.171,0,0,1-.634-.782,3.583,3.583,0,0,1-.319-1.053A7.528,7.528,0,0,1,325.742,274.378Zm.725,0q0,.23.018.515a5.551,5.551,0,0,0,.065.573,3.752,3.752,0,0,0,.138.565,1.833,1.833,0,0,0,.241.488,1.2,1.2,0,0,0,.367.343,1.109,1.109,0,0,0,1.036,0,1.2,1.2,0,0,0,.366-.343,1.813,1.813,0,0,0,.241-.488,3.673,3.673,0,0,0,.138-.565,5.551,5.551,0,0,0,.065-.573q.018-.284.018-.515t-.018-.516a5.572,5.572,0,0,0-.065-.573,3.683,3.683,0,0,0-.138-.564,1.828,1.828,0,0,0-.241-.489,1.2,1.2,0,0,0-.366-.342,1.1,1.1,0,0,0-1.036,0,1.2,1.2,0,0,0-.367.342,1.848,1.848,0,0,0-.241.489,3.763,3.763,0,0,0-.138.564,5.572,5.572,0,0,0-.065.573Q326.466,274.147,326.467,274.378Z" transform="translate(5096.908 20701.139)" fill="#fff"/>
      <path id="Path_18358" data-name="Path 18358" d="M311.643,300.374h-.725v-5.333H310.9l-1.1.951-.431-.542,1.639-1.369h.63Z" transform="translate(5101.792 20694.287)" fill="#fff"/>
      <path id="Path_18359" data-name="Path 18359" d="M315.633,299.476l2.3-2.311q.216-.214.38-.4a2.5,2.5,0,0,0,.271-.356,1.346,1.346,0,0,0,.16-.36,1.572,1.572,0,0,0,.051-.418,1.1,1.1,0,0,0-.086-.443.99.99,0,0,0-.237-.334,1.082,1.082,0,0,0-.354-.213,1.231,1.231,0,0,0-.436-.076,1.1,1.1,0,0,0-.768.276,1.273,1.273,0,0,0-.388.728l-.786-.07a2.019,2.019,0,0,1,.229-.681,1.634,1.634,0,0,1,.423-.493,1.852,1.852,0,0,1,.574-.3,2.363,2.363,0,0,1,1.406.009,1.778,1.778,0,0,1,.591.324,1.549,1.549,0,0,1,.4.533,1.705,1.705,0,0,1,.152.737,2.164,2.164,0,0,1-.1.676,2.272,2.272,0,0,1-.267.556,3.793,3.793,0,0,1-.38.481q-.212.226-.445.448l-1.88,1.822v.018h3.114v.693h-3.934Z" transform="translate(5099.924 20694.334)" fill="#fff"/>
      <path id="Path_18360" data-name="Path 18360" d="M323.345,301.606a.5.5,0,0,1,.367.156.524.524,0,0,1,.151.377.508.508,0,0,1-.159.378.517.517,0,0,1-.876-.378.524.524,0,0,1,.15-.377A.5.5,0,0,1,323.345,301.606Z" transform="translate(5097.777 20692.041)" fill="#fff"/>
      <path id="Path_18361" data-name="Path 18361" d="M325.742,297.182a7.538,7.538,0,0,1,.086-1.111,3.6,3.6,0,0,1,.319-1.053,2.172,2.172,0,0,1,.634-.782,1.887,1.887,0,0,1,2.062,0,2.164,2.164,0,0,1,.634.782,3.575,3.575,0,0,1,.319,1.053,7.194,7.194,0,0,1,0,2.222,3.562,3.562,0,0,1-.319,1.053,2.16,2.16,0,0,1-.634.783,1.887,1.887,0,0,1-2.062,0,2.168,2.168,0,0,1-.634-.783,3.583,3.583,0,0,1-.319-1.053A7.521,7.521,0,0,1,325.742,297.182Zm.725,0c0,.154.006.326.018.516a5.574,5.574,0,0,0,.065.573,3.752,3.752,0,0,0,.138.565,1.833,1.833,0,0,0,.241.488,1.208,1.208,0,0,0,.367.342,1.1,1.1,0,0,0,1.036,0,1.207,1.207,0,0,0,.366-.342,1.813,1.813,0,0,0,.241-.488,3.673,3.673,0,0,0,.138-.565,5.574,5.574,0,0,0,.065-.573c.012-.19.018-.361.018-.516s-.006-.326-.018-.516a5.574,5.574,0,0,0-.065-.573,3.664,3.664,0,0,0-.138-.564,1.818,1.818,0,0,0-.241-.489,1.2,1.2,0,0,0-.366-.342,1.1,1.1,0,0,0-1.036,0,1.2,1.2,0,0,0-.367.342,1.837,1.837,0,0,0-.241.489,3.743,3.743,0,0,0-.138.564,5.574,5.574,0,0,0-.065.573Q326.466,296.952,326.467,297.182Z" transform="translate(5096.908 20694.334)" fill="#fff"/>
      <path id="Path_18362" data-name="Path 18362" d="M311.643,323.178h-.725v-5.333H310.9l-1.1.951-.431-.542,1.639-1.369h.63Z" transform="translate(5101.792 20687.482)" fill="#fff"/>
      <path id="Path_18363" data-name="Path 18363" d="M316.914,319.506h.224a3.261,3.261,0,0,0,.47-.036,1.264,1.264,0,0,0,.449-.151.945.945,0,0,0,.336-.334,1.084,1.084,0,0,0,.134-.573,1.011,1.011,0,0,0-.289-.76,1.039,1.039,0,0,0-.755-.28,1.242,1.242,0,0,0-.673.178,1.2,1.2,0,0,0-.449.525l-.7-.276a1.589,1.589,0,0,1,.7-.8,2.146,2.146,0,0,1,1.065-.267,2.247,2.247,0,0,1,.695.107,1.757,1.757,0,0,1,.582.311,1.472,1.472,0,0,1,.4.511,1.642,1.642,0,0,1,.147.715,1.507,1.507,0,0,1-1.044,1.44v.018a1.466,1.466,0,0,1,.914.547,1.509,1.509,0,0,1,.25.475,1.934,1.934,0,0,1-.078,1.351,1.689,1.689,0,0,1-.44.569,1.864,1.864,0,0,1-.643.347,2.574,2.574,0,0,1-.772.116,2.321,2.321,0,0,1-1.217-.311,1.775,1.775,0,0,1-.75-1.013l.733-.249a1.368,1.368,0,0,0,.44.72,1.488,1.488,0,0,0,1.277.125,1.166,1.166,0,0,0,.393-.254,1.223,1.223,0,0,0,.366-.893,1.164,1.164,0,0,0-.133-.582,1.046,1.046,0,0,0-.354-.373,1.561,1.561,0,0,0-.5-.2,2.5,2.5,0,0,0-.561-.062h-.224Z" transform="translate(5099.972 20687.527)" fill="#fff"/>
      <path id="Path_18364" data-name="Path 18364" d="M323.345,324.41a.493.493,0,0,1,.367.156.523.523,0,0,1,.151.377.517.517,0,1,1-1.035,0,.522.522,0,0,1,.15-.377A.493.493,0,0,1,323.345,324.41Z" transform="translate(5097.777 20685.236)" fill="#fff"/>
      <path id="Path_18365" data-name="Path 18365" d="M325.742,319.986a7.531,7.531,0,0,1,.086-1.111,3.583,3.583,0,0,1,.319-1.053,2.171,2.171,0,0,1,.634-.782,1.883,1.883,0,0,1,2.062,0,2.164,2.164,0,0,1,.634.782,3.562,3.562,0,0,1,.319,1.053,7.194,7.194,0,0,1,0,2.222,3.562,3.562,0,0,1-.319,1.053,2.164,2.164,0,0,1-.634.782,1.883,1.883,0,0,1-2.062,0,2.171,2.171,0,0,1-.634-.782,3.583,3.583,0,0,1-.319-1.053A7.529,7.529,0,0,1,325.742,319.986Zm.725,0c0,.154.006.326.018.515a5.585,5.585,0,0,0,.065.574,3.771,3.771,0,0,0,.138.565,1.844,1.844,0,0,0,.241.488,1.209,1.209,0,0,0,.367.342,1.1,1.1,0,0,0,1.036,0,1.207,1.207,0,0,0,.366-.342,1.824,1.824,0,0,0,.241-.488,3.69,3.69,0,0,0,.138-.565,5.585,5.585,0,0,0,.065-.574c.012-.189.018-.361.018-.515s-.006-.326-.018-.516a5.588,5.588,0,0,0-.065-.574,3.653,3.653,0,0,0-.138-.563,1.832,1.832,0,0,0-.241-.49,1.2,1.2,0,0,0-.366-.342,1.1,1.1,0,0,0-1.036,0,1.2,1.2,0,0,0-.367.342,1.853,1.853,0,0,0-.241.49,3.732,3.732,0,0,0-.138.563,5.588,5.588,0,0,0-.065.574Q326.466,319.754,326.467,319.986Z" transform="translate(5096.908 20687.527)" fill="#fff"/>
      <path id="Path_18366" data-name="Path 18366" d="M311.643,345.982h-.725v-5.333H310.9l-1.1.951-.431-.542,1.639-1.369h.63Z" transform="translate(5101.792 20680.676)" fill="#fff"/>
      <path id="Path_18367" data-name="Path 18367" d="M318.762,343.849h.88v.693h-.88v1.44h-.725v-1.44h-2.588v-.826l2.425-4.027h.888Zm-.725-3.288h-.017l-1.95,3.288h1.967Z" transform="translate(5099.979 20680.676)" fill="#fff"/>
      <path id="Path_18368" data-name="Path 18368" d="M323.345,347.215a.493.493,0,0,1,.367.156.523.523,0,0,1,.151.377.509.509,0,0,1-.159.378.517.517,0,0,1-.876-.378.522.522,0,0,1,.15-.377A.492.492,0,0,1,323.345,347.215Z" transform="translate(5097.777 20678.432)" fill="#fff"/>
      <path id="Path_18475" data-name="Path 18475" d="M323.345,347.215a.493.493,0,0,1,.367.156.523.523,0,0,1,.151.377.509.509,0,0,1-.159.378.517.517,0,0,1-.876-.378.522.522,0,0,1,.15-.377A.492.492,0,0,1,323.345,347.215Z" transform="translate(5097.777 20694.432)" fill="#fff"/>
      <path id="Path_18369" data-name="Path 18369" d="M325.742,342.791a7.531,7.531,0,0,1,.086-1.111,3.583,3.583,0,0,1,.319-1.053,2.171,2.171,0,0,1,.634-.782,1.883,1.883,0,0,1,2.062,0,2.164,2.164,0,0,1,.634.782,3.562,3.562,0,0,1,.319,1.053,7.193,7.193,0,0,1,0,2.222,3.562,3.562,0,0,1-.319,1.053,2.164,2.164,0,0,1-.634.782,1.883,1.883,0,0,1-2.062,0,2.171,2.171,0,0,1-.634-.782,3.583,3.583,0,0,1-.319-1.053A7.529,7.529,0,0,1,325.742,342.791Zm.725,0c0,.154.006.326.018.515a5.585,5.585,0,0,0,.065.574,3.74,3.74,0,0,0,.138.564,1.85,1.85,0,0,0,.241.489,1.208,1.208,0,0,0,.367.342,1.108,1.108,0,0,0,1.036,0,1.206,1.206,0,0,0,.366-.342,1.83,1.83,0,0,0,.241-.489,3.661,3.661,0,0,0,.138-.564,5.585,5.585,0,0,0,.065-.574c.012-.189.018-.361.018-.515s-.006-.326-.018-.516a5.572,5.572,0,0,0-.065-.573,3.681,3.681,0,0,0-.138-.564,1.829,1.829,0,0,0-.241-.489,1.2,1.2,0,0,0-.366-.342,1.1,1.1,0,0,0-1.036,0,1.2,1.2,0,0,0-.367.342,1.849,1.849,0,0,0-.241.489,3.761,3.761,0,0,0-.138.564,5.572,5.572,0,0,0-.065.573Q326.466,342.56,326.467,342.791Z" transform="translate(5096.908 20680.723)" fill="#fff"/>
      <path id="Path_18370" data-name="Path 18370" d="M311.643,368.786h-.725v-5.333H310.9l-1.1.951-.431-.542,1.639-1.369h.63Z" transform="translate(5101.792 20673.871)" fill="#fff"/>
      <path id="Path_18371" data-name="Path 18371" d="M319.281,363.186h-2.494l-.025,1.7a1.211,1.211,0,0,1,.384-.12,2.713,2.713,0,0,1,.4-.031,1.99,1.99,0,0,1,.8.155,1.841,1.841,0,0,1,.617.436,1.934,1.934,0,0,1,.4.658,2.383,2.383,0,0,1,.138.822,2.232,2.232,0,0,1-.159.857,1.921,1.921,0,0,1-.441.658,1.983,1.983,0,0,1-.664.422,2.25,2.25,0,0,1-.833.152,1.871,1.871,0,0,1-1.126-.311,2.156,2.156,0,0,1-.677-.836l.724-.284a1.382,1.382,0,0,0,.453.574,1.131,1.131,0,0,0,.686.217,1.283,1.283,0,0,0,.513-.1,1.214,1.214,0,0,0,.415-.293,1.433,1.433,0,0,0,.281-.458,1.636,1.636,0,0,0,.1-.595,1.515,1.515,0,0,0-.117-.613,1.291,1.291,0,0,0-.319-.449,1.351,1.351,0,0,0-.479-.276,1.858,1.858,0,0,0-.595-.093,1.959,1.959,0,0,0-.638.112,3,3,0,0,0-.6.279l.06-3.271h3.2Z" transform="translate(5099.935 20673.871)" fill="#fff"/>
      <path id="Path_18372" data-name="Path 18372" d="M325.742,365.595a7.522,7.522,0,0,1,.086-1.111,3.583,3.583,0,0,1,.319-1.053,2.167,2.167,0,0,1,.634-.783,1.887,1.887,0,0,1,2.062,0,2.16,2.16,0,0,1,.634.783,3.562,3.562,0,0,1,.319,1.053,7.194,7.194,0,0,1,0,2.222,3.575,3.575,0,0,1-.319,1.053,2.164,2.164,0,0,1-.634.782,1.887,1.887,0,0,1-2.062,0,2.171,2.171,0,0,1-.634-.782,3.6,3.6,0,0,1-.319-1.053A7.536,7.536,0,0,1,325.742,365.595Zm.725,0c0,.154.006.325.018.515a5.576,5.576,0,0,0,.065.573,3.752,3.752,0,0,0,.138.565,1.833,1.833,0,0,0,.241.488,1.218,1.218,0,0,0,.367.343,1.108,1.108,0,0,0,1.036,0,1.217,1.217,0,0,0,.366-.343,1.813,1.813,0,0,0,.241-.488,3.673,3.673,0,0,0,.138-.565,5.576,5.576,0,0,0,.065-.573c.012-.19.018-.361.018-.515s-.006-.326-.018-.516a5.573,5.573,0,0,0-.065-.573,3.662,3.662,0,0,0-.138-.564,1.817,1.817,0,0,0-.241-.489,1.2,1.2,0,0,0-.366-.342,1.1,1.1,0,0,0-1.036,0,1.2,1.2,0,0,0-.367.342,1.837,1.837,0,0,0-.241.489,3.741,3.741,0,0,0-.138.564,5.573,5.573,0,0,0-.065.573Q326.466,365.364,326.467,365.595Z" transform="translate(5096.908 20673.918)" fill="#fff"/>
      <path id="Path_18373" data-name="Path 18373" d="M408.309,277.569h-.724v-5.333h-.018l-1.1.951-.431-.542,1.639-1.369h.629Z" transform="translate(5072.945 20701.094)" fill="#fff"/>
      <path id="Path_18374" data-name="Path 18374" d="M412.153,274.378a7.523,7.523,0,0,1,.086-1.111,3.6,3.6,0,0,1,.319-1.053,2.173,2.173,0,0,1,.635-.782,1.883,1.883,0,0,1,2.062,0,2.164,2.164,0,0,1,.634.782,3.583,3.583,0,0,1,.319,1.053,7.194,7.194,0,0,1,0,2.222,3.583,3.583,0,0,1-.319,1.053,2.165,2.165,0,0,1-.634.782,1.887,1.887,0,0,1-2.062,0,2.173,2.173,0,0,1-.635-.782,3.605,3.605,0,0,1-.319-1.053A7.521,7.521,0,0,1,412.153,274.378Zm.725,0q0,.23.018.515a5.551,5.551,0,0,0,.065.573,3.746,3.746,0,0,0,.138.565,1.835,1.835,0,0,0,.242.488,1.193,1.193,0,0,0,.366.343,1.109,1.109,0,0,0,1.036,0,1.194,1.194,0,0,0,.367-.343,1.833,1.833,0,0,0,.241-.488,3.839,3.839,0,0,0,.138-.565,5.751,5.751,0,0,0,.065-.573c.012-.189.017-.361.017-.515s0-.326-.017-.516-.033-.381-.065-.573a3.85,3.85,0,0,0-.138-.564,1.848,1.848,0,0,0-.241-.489,1.189,1.189,0,0,0-.367-.342,1.1,1.1,0,0,0-1.036,0,1.188,1.188,0,0,0-.366.342,1.851,1.851,0,0,0-.242.489,3.757,3.757,0,0,0-.138.564,5.572,5.572,0,0,0-.065.573Q412.877,274.147,412.878,274.378Z" transform="translate(5071.122 20701.139)" fill="#fff"/>
      <path id="Path_18375" data-name="Path 18375" d="M420.012,278.8a.5.5,0,0,1,.368.155.529.529,0,0,1,.151.378.509.509,0,0,1-.16.378.518.518,0,0,1-.876-.378.523.523,0,0,1,.151-.378A.493.493,0,0,1,420.012,278.8Z" transform="translate(5068.931 20698.846)" fill="#fff"/>
      <path id="Path_18376" data-name="Path 18376" d="M422.41,274.378a7.523,7.523,0,0,1,.086-1.111,3.6,3.6,0,0,1,.319-1.053,2.173,2.173,0,0,1,.635-.782,1.883,1.883,0,0,1,2.062,0,2.155,2.155,0,0,1,.634.782,3.562,3.562,0,0,1,.319,1.053,7.191,7.191,0,0,1,0,2.222,3.562,3.562,0,0,1-.319,1.053,2.156,2.156,0,0,1-.634.782,1.887,1.887,0,0,1-2.062,0,2.173,2.173,0,0,1-.635-.782,3.6,3.6,0,0,1-.319-1.053A7.521,7.521,0,0,1,422.41,274.378Zm.724,0q0,.23.018.515a5.364,5.364,0,0,0,.065.573,3.664,3.664,0,0,0,.138.565,1.834,1.834,0,0,0,.242.488,1.193,1.193,0,0,0,.366.343,1.109,1.109,0,0,0,1.036,0,1.2,1.2,0,0,0,.367-.343,1.835,1.835,0,0,0,.241-.488,3.839,3.839,0,0,0,.138-.565,5.742,5.742,0,0,0,.065-.573q.017-.284.017-.515t-.017-.516a5.765,5.765,0,0,0-.065-.573,3.85,3.85,0,0,0-.138-.564,1.85,1.85,0,0,0-.241-.489,1.19,1.19,0,0,0-.367-.342,1.1,1.1,0,0,0-1.036,0,1.187,1.187,0,0,0-.366.342,1.849,1.849,0,0,0-.242.489,3.674,3.674,0,0,0-.138.564,5.384,5.384,0,0,0-.065.573Q423.134,274.147,423.134,274.378Z" transform="translate(5068.061 20701.139)" fill="#fff"/>
      <path id="Path_18377" data-name="Path 18377" d="M408.309,300.374h-.724v-5.333h-.018l-1.1.951-.431-.542,1.639-1.369h.629Z" transform="translate(5072.945 20694.287)" fill="#fff"/>
      <path id="Path_18378" data-name="Path 18378" d="M415.147,300.374h-.724v-5.333h-.018l-1.1.951-.431-.542,1.639-1.369h.629Z" transform="translate(5070.905 20694.287)" fill="#fff"/>
      <path id="Path_18379" data-name="Path 18379" d="M420.012,301.606a.5.5,0,0,1,.368.156.527.527,0,0,1,.151.377.506.506,0,0,1-.16.378.518.518,0,0,1-.876-.378.521.521,0,0,1,.151-.377A.494.494,0,0,1,420.012,301.606Z" transform="translate(5068.931 20692.041)" fill="#fff"/>
      <path id="Path_18380" data-name="Path 18380" d="M422.41,297.182a7.53,7.53,0,0,1,.086-1.111,3.617,3.617,0,0,1,.319-1.053,2.173,2.173,0,0,1,.635-.782,1.887,1.887,0,0,1,2.062,0,2.156,2.156,0,0,1,.634.782,3.575,3.575,0,0,1,.319,1.053,7.191,7.191,0,0,1,0,2.222,3.562,3.562,0,0,1-.319,1.053,2.152,2.152,0,0,1-.634.783,1.887,1.887,0,0,1-2.062,0,2.169,2.169,0,0,1-.635-.783,3.6,3.6,0,0,1-.319-1.053A7.513,7.513,0,0,1,422.41,297.182Zm.724,0c0,.154.006.326.018.516a5.385,5.385,0,0,0,.065.573,3.664,3.664,0,0,0,.138.565,1.834,1.834,0,0,0,.242.488,1.2,1.2,0,0,0,.366.342,1.1,1.1,0,0,0,1.036,0,1.2,1.2,0,0,0,.367-.342,1.835,1.835,0,0,0,.241-.488,3.839,3.839,0,0,0,.138-.565,5.767,5.767,0,0,0,.065-.573c.011-.19.017-.361.017-.516s-.006-.326-.017-.516a5.767,5.767,0,0,0-.065-.573,3.83,3.83,0,0,0-.138-.564,1.839,1.839,0,0,0-.241-.489A1.192,1.192,0,0,0,425,294.7a1.1,1.1,0,0,0-1.036,0,1.19,1.19,0,0,0-.366.342,1.838,1.838,0,0,0-.242.489,3.655,3.655,0,0,0-.138.564,5.386,5.386,0,0,0-.065.573Q423.134,296.952,423.134,297.182Z" transform="translate(5068.061 20694.334)" fill="#fff"/>
      <path id="Path_18381" data-name="Path 18381" d="M408.309,323.178h-.724v-5.333h-.018l-1.1.951-.431-.542,1.639-1.369h.629Z" transform="translate(5072.945 20687.482)" fill="#fff"/>
      <path id="Path_18382" data-name="Path 18382" d="M412.3,322.279l2.3-2.311q.216-.214.38-.4a2.616,2.616,0,0,0,.272-.356,1.4,1.4,0,0,0,.159-.359,1.572,1.572,0,0,0,.051-.418,1.089,1.089,0,0,0-.086-.444.982.982,0,0,0-.236-.333,1.073,1.073,0,0,0-.354-.213,1.241,1.241,0,0,0-.436-.076,1.094,1.094,0,0,0-.768.276,1.278,1.278,0,0,0-.389.728l-.785-.07a2.013,2.013,0,0,1,.229-.681,1.614,1.614,0,0,1,.423-.493,1.86,1.86,0,0,1,.574-.3,2.23,2.23,0,0,1,.69-.1,2.259,2.259,0,0,1,.716.112,1.766,1.766,0,0,1,.591.324,1.562,1.562,0,0,1,.406.533,1.731,1.731,0,0,1,.151.738,2.143,2.143,0,0,1-.1.676,2.273,2.273,0,0,1-.267.556,3.8,3.8,0,0,1-.38.48q-.211.226-.445.449l-1.88,1.822v.018h3.114v.693H412.3Z" transform="translate(5071.077 20687.527)" fill="#fff"/>
      <path id="Path_18383" data-name="Path 18383" d="M420.012,324.41a.494.494,0,0,1,.368.156.526.526,0,0,1,.151.377.518.518,0,1,1-1.036,0,.52.52,0,0,1,.151-.377A.491.491,0,0,1,420.012,324.41Z" transform="translate(5068.931 20685.236)" fill="#fff"/>
      <path id="Path_18384" data-name="Path 18384" d="M422.41,319.986a7.523,7.523,0,0,1,.086-1.111,3.6,3.6,0,0,1,.319-1.053,2.173,2.173,0,0,1,.635-.782,1.883,1.883,0,0,1,2.062,0,2.155,2.155,0,0,1,.634.782,3.562,3.562,0,0,1,.319,1.053,7.191,7.191,0,0,1,0,2.222,3.562,3.562,0,0,1-.319,1.053,2.155,2.155,0,0,1-.634.782,1.883,1.883,0,0,1-2.062,0,2.173,2.173,0,0,1-.635-.782,3.6,3.6,0,0,1-.319-1.053A7.521,7.521,0,0,1,422.41,319.986Zm.724,0c0,.154.006.326.018.515a5.4,5.4,0,0,0,.065.574,3.681,3.681,0,0,0,.138.565,1.845,1.845,0,0,0,.242.488,1.2,1.2,0,0,0,.366.342,1.1,1.1,0,0,0,1.036,0,1.2,1.2,0,0,0,.367-.342,1.846,1.846,0,0,0,.241-.488,3.858,3.858,0,0,0,.138-.565c.032-.193.053-.384.065-.574s.017-.361.017-.515-.006-.326-.017-.516-.033-.381-.065-.574a3.818,3.818,0,0,0-.138-.563,1.854,1.854,0,0,0-.241-.49A1.19,1.19,0,0,0,425,317.5a1.1,1.1,0,0,0-1.036,0,1.187,1.187,0,0,0-.366.342,1.853,1.853,0,0,0-.242.49,3.644,3.644,0,0,0-.138.563,5.4,5.4,0,0,0-.065.574Q423.134,319.754,423.134,319.986Z" transform="translate(5068.061 20687.527)" fill="#fff"/>
      <path id="Path_18385" data-name="Path 18385" d="M408.309,345.982h-.724v-5.333h-.018l-1.1.951-.431-.542,1.639-1.369h.629Z" transform="translate(5072.945 20680.676)" fill="#fff"/>
      <path id="Path_18386" data-name="Path 18386" d="M413.581,342.31h.225a3.177,3.177,0,0,0,.471-.036,1.256,1.256,0,0,0,.448-.15.949.949,0,0,0,.337-.334,1.085,1.085,0,0,0,.133-.573,1.01,1.01,0,0,0-.289-.76,1.04,1.04,0,0,0-.755-.281,1.243,1.243,0,0,0-.673.178,1.2,1.2,0,0,0-.449.524l-.7-.275a1.587,1.587,0,0,1,.7-.8,2.148,2.148,0,0,1,1.066-.267,2.27,2.27,0,0,1,.695.107,1.759,1.759,0,0,1,.582.312,1.462,1.462,0,0,1,.4.511,1.646,1.646,0,0,1,.147.716,1.509,1.509,0,0,1-1.044,1.44v.018a1.5,1.5,0,0,1,.522.2,1.5,1.5,0,0,1,.643.827,1.939,1.939,0,0,1-.077,1.351,1.69,1.69,0,0,1-.441.568,1.84,1.84,0,0,1-.643.347,2.552,2.552,0,0,1-.772.116,2.317,2.317,0,0,1-1.216-.312,1.775,1.775,0,0,1-.751-1.013l.733-.25a1.367,1.367,0,0,0,.44.721,1.49,1.49,0,0,0,1.277.124,1.166,1.166,0,0,0,.392-.253,1.226,1.226,0,0,0,.268-.391,1.242,1.242,0,0,0,.1-.5,1.161,1.161,0,0,0-.134-.582,1.039,1.039,0,0,0-.353-.374,1.6,1.6,0,0,0-.5-.2,2.548,2.548,0,0,0-.561-.062h-.225Z" transform="translate(5071.125 20680.723)" fill="#fff"/>
      <path id="Path_18387" data-name="Path 18387" d="M420.012,347.215a.494.494,0,0,1,.368.156.526.526,0,0,1,.151.377.538.538,0,0,1-.518.533.538.538,0,0,1-.517-.533.52.52,0,0,1,.151-.377A.491.491,0,0,1,420.012,347.215Z" transform="translate(5068.931 20678.432)" fill="#fff"/>
      <path id="Path_18476" data-name="Path 18476" d="M420.012,347.215a.494.494,0,0,1,.368.156.526.526,0,0,1,.151.377.538.538,0,0,1-.518.533.538.538,0,0,1-.517-.533.52.52,0,0,1,.151-.377A.491.491,0,0,1,420.012,347.215Z" transform="translate(5068.931 20694.432)" fill="#fff"/>
      <path id="Path_18388" data-name="Path 18388" d="M422.41,342.791a7.523,7.523,0,0,1,.086-1.111,3.6,3.6,0,0,1,.319-1.053,2.173,2.173,0,0,1,.635-.782,1.883,1.883,0,0,1,2.062,0,2.156,2.156,0,0,1,.634.782,3.562,3.562,0,0,1,.319,1.053,7.191,7.191,0,0,1,0,2.222,3.562,3.562,0,0,1-.319,1.053,2.155,2.155,0,0,1-.634.782,1.883,1.883,0,0,1-2.062,0,2.173,2.173,0,0,1-.635-.782,3.6,3.6,0,0,1-.319-1.053A7.521,7.521,0,0,1,422.41,342.791Zm.724,0c0,.154.006.326.018.515a5.4,5.4,0,0,0,.065.574,3.652,3.652,0,0,0,.138.564,1.85,1.85,0,0,0,.242.489,1.2,1.2,0,0,0,.366.342,1.108,1.108,0,0,0,1.036,0,1.2,1.2,0,0,0,.367-.342,1.852,1.852,0,0,0,.241-.489,3.826,3.826,0,0,0,.138-.564c.032-.193.053-.384.065-.574s.017-.361.017-.515-.006-.326-.017-.516a5.765,5.765,0,0,0-.065-.573,3.848,3.848,0,0,0-.138-.564,1.851,1.851,0,0,0-.241-.489,1.19,1.19,0,0,0-.367-.342,1.1,1.1,0,0,0-1.036,0,1.187,1.187,0,0,0-.366.342,1.849,1.849,0,0,0-.242.489,3.672,3.672,0,0,0-.138.564,5.384,5.384,0,0,0-.065.573Q423.134,342.56,423.134,342.791Z" transform="translate(5068.061 20680.723)" fill="#fff"/>
      <path id="Path_18389" data-name="Path 18389" d="M408.309,368.786h-.724v-5.333h-.018l-1.1.951-.431-.542,1.639-1.369h.629Z" transform="translate(5072.945 20673.871)" fill="#fff"/>
      <path id="Path_18390" data-name="Path 18390" d="M415.429,366.653h.88v.693h-.88v1.44H414.7v-1.44h-2.589v-.826l2.424-4.026h.889Zm-.724-3.289h-.018l-1.95,3.289H414.7Z" transform="translate(5071.133 20673.871)" fill="#fff"/>
      <path id="Path_18391" data-name="Path 18391" d="M422.41,365.595a7.515,7.515,0,0,1,.086-1.111,3.6,3.6,0,0,1,.319-1.053,2.169,2.169,0,0,1,.635-.783,1.887,1.887,0,0,1,2.062,0,2.152,2.152,0,0,1,.634.783,3.562,3.562,0,0,1,.319,1.053,7.191,7.191,0,0,1,0,2.222,3.575,3.575,0,0,1-.319,1.053,2.156,2.156,0,0,1-.634.782,1.887,1.887,0,0,1-2.062,0,2.173,2.173,0,0,1-.635-.782,3.617,3.617,0,0,1-.319-1.053A7.528,7.528,0,0,1,422.41,365.595Zm.724,0c0,.154.006.325.018.515a5.388,5.388,0,0,0,.065.573,3.664,3.664,0,0,0,.138.565,1.834,1.834,0,0,0,.242.488,1.208,1.208,0,0,0,.366.343,1.108,1.108,0,0,0,1.036,0,1.211,1.211,0,0,0,.367-.343,1.835,1.835,0,0,0,.241-.488,3.839,3.839,0,0,0,.138-.565c.032-.192.053-.384.065-.573s.017-.361.017-.515-.006-.326-.017-.516a5.766,5.766,0,0,0-.065-.573,3.827,3.827,0,0,0-.138-.564,1.839,1.839,0,0,0-.241-.489,1.191,1.191,0,0,0-.367-.342,1.1,1.1,0,0,0-1.036,0,1.188,1.188,0,0,0-.366.342,1.838,1.838,0,0,0-.242.489,3.653,3.653,0,0,0-.138.564,5.385,5.385,0,0,0-.065.573Q423.134,365.364,423.134,365.595Z" transform="translate(5068.061 20673.918)" fill="#fff"/>
      <path id="Path_18392" data-name="Path 18392" d="M517.083,271.97H514.59l-.026,1.7a1.194,1.194,0,0,1,.383-.12,2.645,2.645,0,0,1,.4-.032,1.99,1.99,0,0,1,.8.155,1.831,1.831,0,0,1,.617.436,1.932,1.932,0,0,1,.4.657,2.365,2.365,0,0,1,.138.822,2.225,2.225,0,0,1-.16.858,1.943,1.943,0,0,1-.439.657,2,2,0,0,1-.665.422,2.261,2.261,0,0,1-.832.151,1.876,1.876,0,0,1-1.127-.311,2.167,2.167,0,0,1-.677-.836l.725-.285a1.375,1.375,0,0,0,.453.574,1.13,1.13,0,0,0,.686.217,1.273,1.273,0,0,0,.513-.1,1.211,1.211,0,0,0,.415-.293,1.423,1.423,0,0,0,.28-.457,1.623,1.623,0,0,0,.1-.6,1.525,1.525,0,0,0-.117-.613,1.289,1.289,0,0,0-.319-.449,1.35,1.35,0,0,0-.479-.275,1.842,1.842,0,0,0-.6-.094,1.98,1.98,0,0,0-.638.112,3.023,3.023,0,0,0-.6.279l.06-3.271h3.2Z" transform="translate(5040.908 20701.094)" fill="#fff"/>
      <path id="Path_18393" data-name="Path 18393" d="M521.148,278.8a.5.5,0,0,1,.368.155.528.528,0,0,1,.15.378.51.51,0,0,1-.159.378.491.491,0,0,1-.716,0,.508.508,0,0,1-.159-.378.523.523,0,0,1,.151-.378A.492.492,0,0,1,521.148,278.8Z" transform="translate(5038.75 20698.846)" fill="#fff"/>
      <path id="Path_18394" data-name="Path 18394" d="M526.821,275.436h.88v.693h-.88v1.44H526.1v-1.44h-2.588V275.3l2.424-4.027h.888Zm-.724-3.288h-.018l-1.95,3.288H526.1Z" transform="translate(5037.891 20701.094)" fill="#fff"/>
      <path id="Path_18395" data-name="Path 18395" d="M517.083,294.774H514.59l-.026,1.7a1.211,1.211,0,0,1,.383-.12,2.734,2.734,0,0,1,.4-.032,1.99,1.99,0,0,1,.8.156,1.838,1.838,0,0,1,.617.436,1.935,1.935,0,0,1,.4.658,2.365,2.365,0,0,1,.138.822,2.219,2.219,0,0,1-.16.857,1.946,1.946,0,0,1-.439.658,1.988,1.988,0,0,1-.665.422,2.246,2.246,0,0,1-.832.152,1.876,1.876,0,0,1-1.127-.311,2.169,2.169,0,0,1-.677-.836l.725-.284a1.373,1.373,0,0,0,.453.573,1.126,1.126,0,0,0,.686.218,1.284,1.284,0,0,0,.513-.1,1.22,1.22,0,0,0,.415-.293,1.418,1.418,0,0,0,.28-.458,1.619,1.619,0,0,0,.1-.595,1.52,1.52,0,0,0-.117-.613,1.29,1.29,0,0,0-.319-.449,1.351,1.351,0,0,0-.479-.276,1.844,1.844,0,0,0-.6-.093,1.963,1.963,0,0,0-.638.112,2.984,2.984,0,0,0-.6.279l.06-3.271h3.2Z" transform="translate(5040.908 20694.287)" fill="#fff"/>
      <path id="Path_18396" data-name="Path 18396" d="M521.148,301.606a.5.5,0,0,1,.368.156.527.527,0,0,1,.15.377.508.508,0,0,1-.159.378.49.49,0,0,1-.716,0,.506.506,0,0,1-.159-.378.521.521,0,0,1,.151-.377A.493.493,0,0,1,521.148,301.606Z" transform="translate(5038.75 20692.041)" fill="#fff"/>
      <path id="Path_18397" data-name="Path 18397" d="M523.925,295.573a1.653,1.653,0,0,1,.133-.675,1.534,1.534,0,0,1,.367-.516,1.667,1.667,0,0,1,.552-.333,2.032,2.032,0,0,1,1.38,0,1.67,1.67,0,0,1,.553.333,1.531,1.531,0,0,1,.366.516,1.652,1.652,0,0,1,.134.675,1.52,1.52,0,0,1-.267.854,1.473,1.473,0,0,1-.315.329,1.185,1.185,0,0,1-.418.2v.018a1.54,1.54,0,0,1,.5.209,1.471,1.471,0,0,1,.38.36,1.708,1.708,0,0,1,.241.484,1.857,1.857,0,0,1,.086.565,1.889,1.889,0,0,1-.151.769,1.718,1.718,0,0,1-.414.582,1.768,1.768,0,0,1-.622.364,2.4,2.4,0,0,1-1.527,0,1.772,1.772,0,0,1-.621-.364,1.7,1.7,0,0,1-.414-.582,1.878,1.878,0,0,1-.151-.769,1.855,1.855,0,0,1,.086-.565,1.693,1.693,0,0,1,.241-.484,1.448,1.448,0,0,1,.38-.36,1.533,1.533,0,0,1,.5-.209v-.018a1.18,1.18,0,0,1-.418-.2,1.461,1.461,0,0,1-.315-.329,1.522,1.522,0,0,1-.267-.854Zm.518,2.969a1.325,1.325,0,0,0,.095.507,1.171,1.171,0,0,0,.263.4,1.241,1.241,0,0,0,.388.257,1.268,1.268,0,0,0,.958,0,1.229,1.229,0,0,0,.387-.257,1.141,1.141,0,0,0,.263-.4,1.394,1.394,0,0,0,0-1.014,1.141,1.141,0,0,0-.263-.4,1.237,1.237,0,0,0-1.734,0,1.171,1.171,0,0,0-.263.4A1.324,1.324,0,0,0,524.443,298.542Zm.207-2.933a1.039,1.039,0,0,0,.28.747,1.074,1.074,0,0,0,1.475,0,1.133,1.133,0,0,0,0-1.493,1.072,1.072,0,0,0-1.475,0A1.036,1.036,0,0,0,524.65,295.609Z" transform="translate(5037.829 20694.334)" fill="#fff"/>
      <path id="Path_18398" data-name="Path 18398" d="M514.732,319.507l.017.018a1.34,1.34,0,0,1,.4-.142,2.159,2.159,0,0,1,.417-.044,1.9,1.9,0,0,1,.738.142,1.684,1.684,0,0,1,.587.4,1.882,1.882,0,0,1,.385.627,2.243,2.243,0,0,1,.137.8,2.1,2.1,0,0,1-.154.826,1.763,1.763,0,0,1-.432.618,1.952,1.952,0,0,1-.651.391,2.435,2.435,0,0,1-1.614,0,1.944,1.944,0,0,1-.651-.391,1.753,1.753,0,0,1-.431-.618,2.084,2.084,0,0,1-.156-.826,2.525,2.525,0,0,1,.165-.951,5.4,5.4,0,0,1,.413-.818l1.622-2.658h.846Zm.638.471a1.418,1.418,0,0,0-.518.093,1.214,1.214,0,0,0-.419.267,1.26,1.26,0,0,0-.28.422,1.421,1.421,0,0,0-.1.551,1.4,1.4,0,0,0,.1.555,1.259,1.259,0,0,0,.28.418,1.2,1.2,0,0,0,.419.267,1.473,1.473,0,0,0,1.036,0,1.208,1.208,0,0,0,.418-.267,1.26,1.26,0,0,0,.281-.418,1.41,1.41,0,0,0,.1-.555,1.432,1.432,0,0,0-.1-.551,1.261,1.261,0,0,0-.281-.422,1.218,1.218,0,0,0-.418-.267A1.422,1.422,0,0,0,515.37,319.978Z" transform="translate(5040.931 20687.482)" fill="#fff"/>
      <path id="Path_18399" data-name="Path 18399" d="M521.148,324.41a.494.494,0,0,1,.368.156.526.526,0,0,1,.15.377.517.517,0,1,1-1.035,0,.52.52,0,0,1,.151-.377A.49.49,0,0,1,521.148,324.41Z" transform="translate(5038.75 20685.236)" fill="#fff"/>
      <path id="Path_18400" data-name="Path 18400" d="M523.693,322.279l2.3-2.311c.144-.142.269-.274.38-.4a2.557,2.557,0,0,0,.272-.356,1.375,1.375,0,0,0,.16-.359,1.573,1.573,0,0,0,.051-.418,1.091,1.091,0,0,0-.086-.444.976.976,0,0,0-.237-.333,1.058,1.058,0,0,0-.354-.213,1.236,1.236,0,0,0-.436-.076,1.1,1.1,0,0,0-.768.276,1.277,1.277,0,0,0-.388.728l-.785-.07a2,2,0,0,1,.229-.681,1.621,1.621,0,0,1,.422-.493,1.864,1.864,0,0,1,.575-.3,2.224,2.224,0,0,1,.69-.1,2.266,2.266,0,0,1,.716.112,1.763,1.763,0,0,1,.591.324,1.555,1.555,0,0,1,.406.533,1.722,1.722,0,0,1,.151.738,2.162,2.162,0,0,1-.1.676,2.274,2.274,0,0,1-.267.556,3.8,3.8,0,0,1-.38.48q-.212.226-.445.449l-1.881,1.822v.018h3.115v.693h-3.935Z" transform="translate(5037.836 20687.527)" fill="#fff"/>
      <path id="Path_18401" data-name="Path 18401" d="M514.732,342.312l.017.018a1.318,1.318,0,0,1,.4-.142,2.162,2.162,0,0,1,.417-.044,1.9,1.9,0,0,1,.738.142,1.675,1.675,0,0,1,.587.4,1.886,1.886,0,0,1,.385.627,2.249,2.249,0,0,1,.137.8,2.1,2.1,0,0,1-.154.826,1.776,1.776,0,0,1-.432.618,1.951,1.951,0,0,1-.651.391,2.424,2.424,0,0,1-1.614,0,1.943,1.943,0,0,1-.651-.391,1.765,1.765,0,0,1-.431-.618,2.084,2.084,0,0,1-.156-.826,2.519,2.519,0,0,1,.165-.951,5.362,5.362,0,0,1,.413-.818l1.622-2.658h.846Zm.638.471a1.434,1.434,0,0,0-.518.093,1.215,1.215,0,0,0-.419.267,1.263,1.263,0,0,0-.28.422,1.418,1.418,0,0,0-.1.551,1.4,1.4,0,0,0,.1.555,1.266,1.266,0,0,0,.28.418,1.2,1.2,0,0,0,.419.267,1.483,1.483,0,0,0,1.036,0,1.208,1.208,0,0,0,.418-.267,1.267,1.267,0,0,0,.281-.418,1.41,1.41,0,0,0,.1-.555,1.429,1.429,0,0,0-.1-.551,1.264,1.264,0,0,0-.281-.422,1.219,1.219,0,0,0-.418-.267A1.437,1.437,0,0,0,515.37,342.783Z" transform="translate(5040.931 20680.676)" fill="#fff"/>
      <path id="Path_18402" data-name="Path 18402" d="M521.148,347.215a.494.494,0,0,1,.368.156.525.525,0,0,1,.15.377.509.509,0,0,1-.159.378.517.517,0,0,1-.876-.378.52.52,0,0,1,.151-.377A.49.49,0,0,1,521.148,347.215Z" transform="translate(5038.75 20678.432)" fill="#fff"/>
      <path id="Path_18477" data-name="Path 18477" d="M521.148,347.215a.494.494,0,0,1,.368.156.525.525,0,0,1,.15.377.509.509,0,0,1-.159.378.517.517,0,0,1-.876-.378.52.52,0,0,1,.151-.377A.49.49,0,0,1,521.148,347.215Z" transform="translate(5038.75 20694.43)" fill="#fff"/>
      <path id="Path_18403" data-name="Path 18403" d="M524.989,342.312l.017.018a1.311,1.311,0,0,1,.4-.142,2.156,2.156,0,0,1,.417-.044,1.9,1.9,0,0,1,.738.142,1.675,1.675,0,0,1,.587.4,1.9,1.9,0,0,1,.384.627,2.248,2.248,0,0,1,.138.8,2.085,2.085,0,0,1-.155.826,1.766,1.766,0,0,1-.431.618,1.954,1.954,0,0,1-.652.391,2.422,2.422,0,0,1-1.613,0,1.943,1.943,0,0,1-.651-.391,1.765,1.765,0,0,1-.431-.618,2.084,2.084,0,0,1-.156-.826,2.533,2.533,0,0,1,.164-.951,5.436,5.436,0,0,1,.414-.818l1.622-2.658h.846Zm.639.471a1.432,1.432,0,0,0-.518.093,1.217,1.217,0,0,0-.419.267,1.263,1.263,0,0,0-.28.422,1.417,1.417,0,0,0-.1.551,1.4,1.4,0,0,0,.1.555,1.266,1.266,0,0,0,.28.418,1.206,1.206,0,0,0,.419.267,1.482,1.482,0,0,0,1.035,0,1.205,1.205,0,0,0,.419-.267,1.253,1.253,0,0,0,.28-.418,1.4,1.4,0,0,0,.1-.555,1.417,1.417,0,0,0-.1-.551,1.25,1.25,0,0,0-.28-.422,1.216,1.216,0,0,0-.419-.267A1.431,1.431,0,0,0,525.627,342.783Z" transform="translate(5037.869 20680.676)" fill="#fff"/>
      <path id="Path_18404" data-name="Path 18404" d="M517.139,363.186l-2.442,5.6h-.82l2.485-5.6h-2.951v-.693h3.728Z" transform="translate(5040.904 20673.871)" fill="#fff"/>
      <path id="Path_18405" data-name="Path 18405" d="M523.546,365.595a7.5,7.5,0,0,1,.086-1.111,3.582,3.582,0,0,1,.319-1.053,2.168,2.168,0,0,1,.634-.783,1.888,1.888,0,0,1,2.063,0,2.159,2.159,0,0,1,.634.783,3.562,3.562,0,0,1,.319,1.053,7.194,7.194,0,0,1,0,2.222,3.575,3.575,0,0,1-.319,1.053,2.162,2.162,0,0,1-.634.782,1.888,1.888,0,0,1-2.063,0,2.172,2.172,0,0,1-.634-.782,3.6,3.6,0,0,1-.319-1.053A7.516,7.516,0,0,1,523.546,365.595Zm.724,0c0,.154.006.325.018.515a5.416,5.416,0,0,0,.064.573,3.752,3.752,0,0,0,.138.565,1.856,1.856,0,0,0,.241.488,1.22,1.22,0,0,0,.367.343,1.106,1.106,0,0,0,1.035,0,1.221,1.221,0,0,0,.368-.343,1.854,1.854,0,0,0,.241-.488,3.93,3.93,0,0,0,.138-.565c.032-.192.053-.384.065-.573s.017-.361.017-.515-.006-.326-.017-.516-.033-.381-.065-.573a3.918,3.918,0,0,0-.138-.564,1.859,1.859,0,0,0-.241-.489,1.2,1.2,0,0,0-.368-.342,1.1,1.1,0,0,0-1.035,0,1.2,1.2,0,0,0-.367.342,1.861,1.861,0,0,0-.241.489,3.741,3.741,0,0,0-.138.564,5.414,5.414,0,0,0-.064.573Q524.27,365.364,524.27,365.595Z" transform="translate(5037.88 20673.918)" fill="#fff"/>
      <path id="Path_18406" data-name="Path 18406" d="M611.389,273.9h.224a3.178,3.178,0,0,0,.471-.036,1.259,1.259,0,0,0,.448-.15.953.953,0,0,0,.337-.334A1.087,1.087,0,0,0,613,272.8a1.01,1.01,0,0,0-.289-.76,1.041,1.041,0,0,0-.756-.281,1.244,1.244,0,0,0-.673.178,1.2,1.2,0,0,0-.448.524l-.7-.275a1.588,1.588,0,0,1,.7-.8,2.148,2.148,0,0,1,1.065-.267,2.259,2.259,0,0,1,.695.107,1.764,1.764,0,0,1,.583.311,1.471,1.471,0,0,1,.4.511,1.645,1.645,0,0,1,.147.716,1.509,1.509,0,0,1-1.044,1.44v.018a1.491,1.491,0,0,1,.522.2,1.528,1.528,0,0,1,.392.352,1.512,1.512,0,0,1,.25.476,1.934,1.934,0,0,1-.078,1.351,1.7,1.7,0,0,1-.44.568,1.846,1.846,0,0,1-.643.347,2.551,2.551,0,0,1-.772.116,2.317,2.317,0,0,1-1.216-.311,1.776,1.776,0,0,1-.751-1.013l.733-.25a1.376,1.376,0,0,0,.441.721,1.489,1.489,0,0,0,1.276.124,1.169,1.169,0,0,0,.393-.253,1.219,1.219,0,0,0,.366-.893,1.161,1.161,0,0,0-.133-.582,1.035,1.035,0,0,0-.354-.374,1.579,1.579,0,0,0-.5-.2,2.554,2.554,0,0,0-.561-.062h-.224Z" transform="translate(5012.097 20701.139)" fill="#fff"/>
      <path id="Path_18407" data-name="Path 18407" d="M616.8,274.378a7.519,7.519,0,0,1,.086-1.111,3.58,3.58,0,0,1,.319-1.053,2.171,2.171,0,0,1,.634-.782,1.884,1.884,0,0,1,2.063,0,2.163,2.163,0,0,1,.634.782,3.564,3.564,0,0,1,.319,1.053,7.194,7.194,0,0,1,0,2.222,3.564,3.564,0,0,1-.319,1.053,2.164,2.164,0,0,1-.634.782,1.888,1.888,0,0,1-2.063,0,2.172,2.172,0,0,1-.634-.782,3.58,3.58,0,0,1-.319-1.053A7.517,7.517,0,0,1,616.8,274.378Zm.724,0c0,.154.006.326.018.515a5.542,5.542,0,0,0,.064.573,3.752,3.752,0,0,0,.138.565,1.832,1.832,0,0,0,.241.488,1.2,1.2,0,0,0,.367.343,1.107,1.107,0,0,0,1.035,0,1.206,1.206,0,0,0,.368-.343,1.833,1.833,0,0,0,.241-.488,3.844,3.844,0,0,0,.139-.565c.031-.192.053-.383.065-.573s.017-.361.017-.515-.006-.326-.017-.516-.033-.381-.065-.573a3.856,3.856,0,0,0-.139-.564,1.848,1.848,0,0,0-.241-.489,1.2,1.2,0,0,0-.368-.342,1.1,1.1,0,0,0-1.035,0,1.2,1.2,0,0,0-.367.342,1.848,1.848,0,0,0-.241.489,3.763,3.763,0,0,0-.138.564,5.563,5.563,0,0,0-.064.573C617.529,274.052,617.523,274.224,617.523,274.378Z" transform="translate(5010.052 20701.139)" fill="#fff"/>
      <path id="Path_18408" data-name="Path 18408" d="M623.637,274.378a7.527,7.527,0,0,1,.086-1.111,3.582,3.582,0,0,1,.319-1.053,2.171,2.171,0,0,1,.634-.782,1.884,1.884,0,0,1,2.063,0,2.169,2.169,0,0,1,.633.782,3.564,3.564,0,0,1,.319,1.053,7.2,7.2,0,0,1,0,2.222,3.564,3.564,0,0,1-.319,1.053,2.17,2.17,0,0,1-.633.782,1.888,1.888,0,0,1-2.063,0,2.171,2.171,0,0,1-.634-.782,3.582,3.582,0,0,1-.319-1.053A7.524,7.524,0,0,1,623.637,274.378Zm.724,0c0,.154.006.326.018.515a5.576,5.576,0,0,0,.065.573,3.75,3.75,0,0,0,.138.565,1.854,1.854,0,0,0,.242.488,1.2,1.2,0,0,0,.367.343,1.107,1.107,0,0,0,1.035,0,1.205,1.205,0,0,0,.368-.343,1.855,1.855,0,0,0,.241-.488,3.844,3.844,0,0,0,.139-.565,5.556,5.556,0,0,0,.064-.573q.018-.284.018-.515t-.018-.516a5.578,5.578,0,0,0-.064-.573,3.856,3.856,0,0,0-.139-.564,1.871,1.871,0,0,0-.241-.489,1.2,1.2,0,0,0-.368-.342,1.1,1.1,0,0,0-1.035,0,1.2,1.2,0,0,0-.367.342,1.87,1.87,0,0,0-.242.489,3.761,3.761,0,0,0-.138.564,5.6,5.6,0,0,0-.065.573C624.367,274.052,624.361,274.224,624.361,274.378Z" transform="translate(5008.012 20701.139)" fill="#fff"/>
      <path id="Path_18409" data-name="Path 18409" d="M611.389,296.7h.224a3.271,3.271,0,0,0,.471-.036,1.247,1.247,0,0,0,.448-.151.945.945,0,0,0,.337-.333,1.088,1.088,0,0,0,.134-.574,1.011,1.011,0,0,0-.289-.76,1.044,1.044,0,0,0-.756-.28,1.244,1.244,0,0,0-.673.178,1.2,1.2,0,0,0-.448.524l-.7-.276a1.586,1.586,0,0,1,.7-.8,2.148,2.148,0,0,1,1.065-.267,2.239,2.239,0,0,1,.695.107,1.775,1.775,0,0,1,.583.311,1.48,1.48,0,0,1,.4.511,1.645,1.645,0,0,1,.147.715,1.507,1.507,0,0,1-1.044,1.44v.018a1.477,1.477,0,0,1,.522.2,1.529,1.529,0,0,1,.392.352,1.512,1.512,0,0,1,.25.476,1.932,1.932,0,0,1-.078,1.351,1.7,1.7,0,0,1-.44.569,1.845,1.845,0,0,1-.643.347,2.574,2.574,0,0,1-.772.116,2.317,2.317,0,0,1-1.216-.311,1.777,1.777,0,0,1-.751-1.014l.733-.249a1.373,1.373,0,0,0,.441.72,1.487,1.487,0,0,0,1.276.125,1.168,1.168,0,0,0,.393-.253,1.219,1.219,0,0,0,.366-.894,1.163,1.163,0,0,0-.133-.582,1.038,1.038,0,0,0-.354-.373,1.564,1.564,0,0,0-.5-.2,2.513,2.513,0,0,0-.561-.062h-.224Z" transform="translate(5012.097 20694.334)" fill="#fff"/>
      <path id="Path_18410" data-name="Path 18410" d="M620.648,294.774l-2.442,5.6h-.82l2.485-5.6h-2.951v-.693h3.727Z" transform="translate(5010.016 20694.287)" fill="#fff"/>
      <path id="Path_18411" data-name="Path 18411" d="M627.431,294.774h-2.493l-.026,1.7a1.216,1.216,0,0,1,.384-.12,2.725,2.725,0,0,1,.4-.032,2,2,0,0,1,.8.156,1.839,1.839,0,0,1,.617.436,1.922,1.922,0,0,1,.4.658,2.365,2.365,0,0,1,.139.822,2.232,2.232,0,0,1-.16.857,1.937,1.937,0,0,1-.44.658,1.986,1.986,0,0,1-.664.422,2.25,2.25,0,0,1-.833.152,1.873,1.873,0,0,1-1.126-.311,2.162,2.162,0,0,1-.677-.836l.725-.284a1.379,1.379,0,0,0,.453.573,1.124,1.124,0,0,0,.685.218,1.288,1.288,0,0,0,.514-.1,1.227,1.227,0,0,0,.415-.293,1.431,1.431,0,0,0,.28-.458,1.62,1.62,0,0,0,.1-.595,1.511,1.511,0,0,0-.116-.613,1.275,1.275,0,0,0-.319-.449,1.348,1.348,0,0,0-.478-.276,1.845,1.845,0,0,0-.6-.093,1.956,1.956,0,0,0-.638.112,2.954,2.954,0,0,0-.6.279l.06-3.271h3.2Z" transform="translate(5007.979 20694.287)" fill="#fff"/>
      <path id="Path_18412" data-name="Path 18412" d="M613.237,321.044h.88v.694h-.88v1.44h-.725v-1.44h-2.588v-.827l2.424-4.026h.889Zm-.725-3.288h-.017l-1.95,3.288h1.967Z" transform="translate(5012.104 20687.482)" fill="#fff"/>
      <path id="Path_18413" data-name="Path 18413" d="M619.518,320.51l-.017-.018a1.334,1.334,0,0,1-.4.142,2.214,2.214,0,0,1-.418.043,1.9,1.9,0,0,1-.738-.142,1.672,1.672,0,0,1-.587-.4,1.887,1.887,0,0,1-.384-.623,2.214,2.214,0,0,1-.138-.8,2.087,2.087,0,0,1,.156-.826,1.764,1.764,0,0,1,.431-.618,1.955,1.955,0,0,1,.651-.391,2.423,2.423,0,0,1,1.613,0,1.965,1.965,0,0,1,.652.391,1.764,1.764,0,0,1,.431.618,2.086,2.086,0,0,1,.155.826,2.679,2.679,0,0,1-.163.951,3.171,3.171,0,0,1-.186.413q-.108.2-.228.4l-1.623,2.658h-.845Zm-.638-.471a1.43,1.43,0,0,0,.517-.093,1.216,1.216,0,0,0,.419-.267,1.262,1.262,0,0,0,.28-.418,1.525,1.525,0,0,0,0-1.106,1.245,1.245,0,0,0-.28-.422,1.216,1.216,0,0,0-.419-.267,1.481,1.481,0,0,0-1.035,0,1.215,1.215,0,0,0-.419.267,1.256,1.256,0,0,0-.28.422,1.525,1.525,0,0,0,0,1.106,1.274,1.274,0,0,0,.28.418,1.215,1.215,0,0,0,.419.267A1.43,1.43,0,0,0,618.88,320.039Z" transform="translate(5010.042 20687.527)" fill="#fff"/>
      <path id="Path_18414" data-name="Path 18414" d="M623.637,319.986a7.527,7.527,0,0,1,.086-1.111,3.582,3.582,0,0,1,.319-1.053,2.171,2.171,0,0,1,.634-.782,1.884,1.884,0,0,1,2.063,0,2.169,2.169,0,0,1,.633.782,3.564,3.564,0,0,1,.319,1.053,7.2,7.2,0,0,1,0,2.222,3.564,3.564,0,0,1-.319,1.053,2.169,2.169,0,0,1-.633.782,1.884,1.884,0,0,1-2.063,0,2.171,2.171,0,0,1-.634-.782,3.582,3.582,0,0,1-.319-1.053A7.525,7.525,0,0,1,623.637,319.986Zm.724,0c0,.154.006.326.018.515a5.61,5.61,0,0,0,.065.574,3.769,3.769,0,0,0,.138.565,1.865,1.865,0,0,0,.242.488,1.209,1.209,0,0,0,.367.342,1.1,1.1,0,0,0,1.035,0,1.211,1.211,0,0,0,.368-.342,1.866,1.866,0,0,0,.241-.488,3.864,3.864,0,0,0,.139-.565,5.59,5.59,0,0,0,.064-.574c.012-.189.018-.361.018-.515s-.006-.326-.018-.516a5.593,5.593,0,0,0-.064-.574,3.824,3.824,0,0,0-.139-.563,1.875,1.875,0,0,0-.241-.49,1.2,1.2,0,0,0-.368-.342,1.1,1.1,0,0,0-1.035,0,1.2,1.2,0,0,0-.367.342,1.874,1.874,0,0,0-.242.49,3.73,3.73,0,0,0-.138.563,5.613,5.613,0,0,0-.065.574C624.367,319.66,624.361,319.832,624.361,319.986Z" transform="translate(5008.012 20687.527)" fill="#fff"/>
      <path id="Path_18415" data-name="Path 18415" d="M611.4,342.312l.017.018a1.312,1.312,0,0,1,.4-.142,2.154,2.154,0,0,1,.417-.044,1.9,1.9,0,0,1,.738.142,1.674,1.674,0,0,1,.586.4,1.9,1.9,0,0,1,.385.627,2.249,2.249,0,0,1,.138.8,2.083,2.083,0,0,1-.155.826,1.765,1.765,0,0,1-.431.618,1.95,1.95,0,0,1-.651.391,2.424,2.424,0,0,1-1.614,0,1.943,1.943,0,0,1-.651-.391,1.765,1.765,0,0,1-.431-.618,2.083,2.083,0,0,1-.156-.826,2.533,2.533,0,0,1,.164-.951,5.447,5.447,0,0,1,.414-.818l1.622-2.658h.846Zm.638.471a1.431,1.431,0,0,0-.518.093,1.214,1.214,0,0,0-.419.267,1.263,1.263,0,0,0-.28.422,1.417,1.417,0,0,0-.1.551,1.4,1.4,0,0,0,.1.555,1.266,1.266,0,0,0,.28.418,1.2,1.2,0,0,0,.419.267,1.481,1.481,0,0,0,1.035,0,1.2,1.2,0,0,0,.419-.267,1.267,1.267,0,0,0,.281-.418,1.411,1.411,0,0,0,.1-.555,1.43,1.43,0,0,0-.1-.551,1.264,1.264,0,0,0-.281-.422,1.215,1.215,0,0,0-.419-.267A1.43,1.43,0,0,0,612.042,342.783Z" transform="translate(5012.082 20680.676)" fill="#fff"/>
      <path id="Path_18416" data-name="Path 18416" d="M616.8,342.791a7.519,7.519,0,0,1,.086-1.111,3.58,3.58,0,0,1,.319-1.053,2.172,2.172,0,0,1,.634-.782,1.884,1.884,0,0,1,2.063,0,2.164,2.164,0,0,1,.634.782,3.564,3.564,0,0,1,.319,1.053,7.193,7.193,0,0,1,0,2.222,3.564,3.564,0,0,1-.319,1.053,2.163,2.163,0,0,1-.634.782,1.884,1.884,0,0,1-2.063,0,2.171,2.171,0,0,1-.634-.782,3.58,3.58,0,0,1-.319-1.053A7.517,7.517,0,0,1,616.8,342.791Zm.724,0c0,.154.006.326.018.515a5.576,5.576,0,0,0,.064.574,3.74,3.74,0,0,0,.138.564,1.849,1.849,0,0,0,.241.489,1.207,1.207,0,0,0,.367.342,1.107,1.107,0,0,0,1.035,0,1.211,1.211,0,0,0,.368-.342,1.849,1.849,0,0,0,.241-.489,3.832,3.832,0,0,0,.139-.564c.031-.193.053-.384.065-.574s.017-.361.017-.515-.006-.326-.017-.516-.033-.381-.065-.573a3.854,3.854,0,0,0-.139-.564,1.848,1.848,0,0,0-.241-.489,1.2,1.2,0,0,0-.368-.342,1.1,1.1,0,0,0-1.035,0,1.2,1.2,0,0,0-.367.342,1.848,1.848,0,0,0-.241.489,3.761,3.761,0,0,0-.138.564,5.563,5.563,0,0,0-.064.573C617.529,342.465,617.523,342.637,617.523,342.791Z" transform="translate(5010.052 20680.723)" fill="#fff"/>
      <path id="Path_18417" data-name="Path 18417" d="M627.431,340.383h-2.493l-.026,1.7a1.2,1.2,0,0,1,.384-.12,2.632,2.632,0,0,1,.4-.032,1.984,1.984,0,0,1,.8.156,1.819,1.819,0,0,1,.617.436,1.919,1.919,0,0,1,.4.657,2.365,2.365,0,0,1,.139.822,2.238,2.238,0,0,1-.16.858,1.934,1.934,0,0,1-.44.657,2,2,0,0,1-.664.422,2.264,2.264,0,0,1-.833.152,1.873,1.873,0,0,1-1.126-.312,2.16,2.16,0,0,1-.677-.836l.725-.285a1.381,1.381,0,0,0,.453.574,1.128,1.128,0,0,0,.685.217,1.276,1.276,0,0,0,.514-.1,1.217,1.217,0,0,0,.415-.293,1.428,1.428,0,0,0,.28-.457,1.624,1.624,0,0,0,.1-.6,1.516,1.516,0,0,0-.116-.613,1.275,1.275,0,0,0-.319-.449,1.346,1.346,0,0,0-.478-.275,1.843,1.843,0,0,0-.6-.094,1.974,1.974,0,0,0-.638.112,2.956,2.956,0,0,0-.6.28l.06-3.271h3.2Z" transform="translate(5007.979 20680.676)" fill="#fff"/>
      <path id="Path_18418" data-name="Path 18418" d="M613.811,363.186l-2.442,5.6h-.82l2.485-5.6h-2.951v-.693h3.727Z" transform="translate(5012.056 20673.871)" fill="#fff"/>
      <path id="Path_18419" data-name="Path 18419" d="M620.593,363.186H618.1l-.026,1.7a1.215,1.215,0,0,1,.384-.12,2.719,2.719,0,0,1,.4-.031,2,2,0,0,1,.8.155,1.839,1.839,0,0,1,.617.436,1.935,1.935,0,0,1,.4.658,2.381,2.381,0,0,1,.138.822,2.218,2.218,0,0,1-.16.857,1.928,1.928,0,0,1-.44.658,1.985,1.985,0,0,1-.664.422,2.25,2.25,0,0,1-.833.152,1.872,1.872,0,0,1-1.126-.311,2.161,2.161,0,0,1-.677-.836l.725-.284a1.381,1.381,0,0,0,.453.574,1.128,1.128,0,0,0,.685.217,1.289,1.289,0,0,0,.514-.1,1.228,1.228,0,0,0,.415-.293,1.432,1.432,0,0,0,.28-.458,1.622,1.622,0,0,0,.1-.595,1.526,1.526,0,0,0-.116-.613,1.283,1.283,0,0,0-.32-.449,1.342,1.342,0,0,0-.478-.276,1.863,1.863,0,0,0-.6-.093,1.959,1.959,0,0,0-.638.112,2.972,2.972,0,0,0-.6.279l.06-3.271h3.2Z" transform="translate(5010.02 20673.871)" fill="#fff"/>
      <path id="Path_18420" data-name="Path 18420" d="M623.637,365.595a7.519,7.519,0,0,1,.086-1.111,3.582,3.582,0,0,1,.319-1.053,2.167,2.167,0,0,1,.634-.783,1.888,1.888,0,0,1,2.063,0,2.166,2.166,0,0,1,.633.783,3.564,3.564,0,0,1,.319,1.053,7.2,7.2,0,0,1,0,2.222,3.577,3.577,0,0,1-.319,1.053,2.17,2.17,0,0,1-.633.782,1.888,1.888,0,0,1-2.063,0,2.171,2.171,0,0,1-.634-.782,3.6,3.6,0,0,1-.319-1.053A7.532,7.532,0,0,1,623.637,365.595Zm.724,0c0,.154.006.325.018.515a5.6,5.6,0,0,0,.065.573,3.75,3.75,0,0,0,.138.565,1.854,1.854,0,0,0,.242.488,1.219,1.219,0,0,0,.367.343,1.106,1.106,0,0,0,1.035,0,1.221,1.221,0,0,0,.368-.343,1.855,1.855,0,0,0,.241-.488,3.845,3.845,0,0,0,.139-.565,5.581,5.581,0,0,0,.064-.573c.012-.19.018-.361.018-.515s-.006-.326-.018-.516a5.579,5.579,0,0,0-.064-.573,3.833,3.833,0,0,0-.139-.564,1.859,1.859,0,0,0-.241-.489,1.2,1.2,0,0,0-.368-.342,1.1,1.1,0,0,0-1.035,0,1.2,1.2,0,0,0-.367.342,1.858,1.858,0,0,0-.242.489,3.739,3.739,0,0,0-.138.564,5.6,5.6,0,0,0-.065.573C624.367,365.269,624.361,365.441,624.361,365.595Z" transform="translate(5008.012 20673.918)" fill="#fff"/>
      <line id="Line_2314" data-name="Line 2314" x2="314.435" transform="translate(5346.43 20982.297)" fill="none" stroke="#fff" stroke-miterlimit="10" stroke-width="0.594"/>
      <line id="Line_2315" data-name="Line 2315" x2="314.435" transform="translate(5346.43 21014.295)" fill="none" stroke="#fff" stroke-miterlimit="10" stroke-width="0.594"/>
      <line id="Line_2316" data-name="Line 2316" x2="314.435" transform="translate(5346.43 21030.293)" fill="none" stroke="#fff" stroke-miterlimit="10" stroke-width="0.594"/>
      <line id="Line_2317" data-name="Line 2317" x2="314.435" transform="translate(5346.43 20999.895)" fill="none" stroke="#fff" stroke-miterlimit="10" stroke-width="0.594"/>
    </g>
  </g>
</svg>
