<svg xmlns="http://www.w3.org/2000/svg" xmlns:xlink="http://www.w3.org/1999/xlink" width="356" height="272.318" viewBox="0 0 356 272.318">
  <defs>
    <filter id="Rectangle_1930" x="0" y="64.034" width="356" height="195" filterUnits="userSpaceOnUse">
      <feOffset dx="8" dy="5" input="SourceAlpha"/>
      <feGaussianBlur stdDeviation="4" result="blur"/>
      <feFlood flood-opacity="0.059"/>
      <feComposite operator="in" in2="blur"/>
      <feComposite in="SourceGraphic"/>
    </filter>
  </defs>
  <g id="Group_5182" data-name="Group 5182" transform="translate(-18 -195.966)">
    <text id="A_Base_B_Projection_C_Arc_Length_V_Volume" data-name="A=Base   B=Projection   C=Arc Length   V=Volume" transform="translate(187.53 464.283)" fill="#333" font-size="12" font-family="Avenir-Light, Avenir" font-weight="300"><tspan x="-134.526" y="0" xml:space="preserve">A=Base   B=Projection   C=Arc Length   V=Volume</tspan></text>
    <g transform="matrix(1, 0, 0, 1, 18, 195.97)" filter="url(#Rectangle_1930)">
      <rect id="Rectangle_1930-2" data-name="Rectangle 1930" width="332" height="171" rx="8" transform="translate(4 71.03)" fill="#fff"/>
    </g>
    <text id="DEMI_WITH_QID_" data-name="DEMI WITH QID®" transform="translate(84.772 230)" fill="#7f5867" font-size="20" font-family="Avenir-Roman, Avenir" letter-spacing="0.02em"><tspan x="0" y="0">DEMI WITH QID®</tspan></text>
    <g id="Group_2790" data-name="Group 2790" transform="translate(273 197)">
      <path id="Path_2260" data-name="Path 2260" d="M391.214,151.445c.725.751,14.939,21.784,14.939,32.728,0,16.387-14.231,18.72-16.194,18.72,0,0-1.7.079-1.7-1.16v-49.51C388.258,151.7,389.844,150.021,391.214,151.445Z" transform="translate(-388.258 -150.886)" fill="none" stroke="#c7c9cb" stroke-miterlimit="10" stroke-width="2"/>
      <path id="Path_2261" data-name="Path 2261" d="M391.214,151.445c.725.751,8.213,22.263,8.213,33.207,0,16.387-7.505,18.241-9.468,18.241,0,0-1.7.079-1.7-1.16v-49.51C388.258,151.7,389.844,150.021,391.214,151.445Z" transform="translate(-388.258 -150.886)" fill="none" stroke="#7f5867" stroke-miterlimit="10" stroke-width="2"/>
    </g>
    <g id="Group_4278" data-name="Group 4278" transform="translate(-4678 -12972.041)">
      <rect id="Rectangle_2200" data-name="Rectangle 2200" width="62.537" height="133.332" transform="translate(4844.389 13278.329)" fill="#7f5867" stroke="#fff" stroke-miterlimit="10" stroke-width="0.5"/>
      <rect id="Rectangle_2201" data-name="Rectangle 2201" width="62.537" height="133.179" transform="translate(4906.926 13278.482)" fill="#7f5867" stroke="#fff" stroke-miterlimit="10" stroke-width="0.5"/>
      <path id="Rectangle_2202" data-name="Rectangle 2202" d="M0,0H62.537a0,0,0,0,1,0,0V125.179a8,8,0,0,1-8,8H0a0,0,0,0,1,0,0V0A0,0,0,0,1,0,0Z" transform="translate(4969.462 13278.482)" fill="#7f5867" stroke="#fff" stroke-miterlimit="10" stroke-width="0.5"/>
      <rect id="Rectangle_2203" data-name="Rectangle 2203" width="62.537" height="133.077" transform="translate(4781.853 13278.585)" fill="#7f5867" stroke="#fff" stroke-miterlimit="10" stroke-width="0.5"/>
      <path id="Rectangle_2204" data-name="Rectangle 2204" d="M0,0H81.853a0,0,0,0,1,0,0V133.179a0,0,0,0,1,0,0H5.669A5.669,5.669,0,0,1,0,127.51V0A0,0,0,0,1,0,0Z" transform="translate(4700 13278.482)" fill="#fff"/>
      <path id="Rectangle_2205" data-name="Rectangle 2205" d="M8,0H81.516a0,0,0,0,1,0,0V39.442a0,0,0,0,1,0,0H0a0,0,0,0,1,0,0V8A8,8,0,0,1,8,0Z" transform="translate(4700 13239.041)" fill="#fff"/>
      <path id="Rectangle_2206" data-name="Rectangle 2206" d="M0,0H242.083a8,8,0,0,1,8,8V39.442a0,0,0,0,1,0,0H0a0,0,0,0,1,0,0V0A0,0,0,0,1,0,0Z" transform="translate(4781.853 13239.041)" fill="#dbdcde"/>
      <g id="Group_4265" data-name="Group 4265" transform="translate(4705.664 13248.438)">
        <g id="Group_4248" data-name="Group 4248" transform="translate(0 2.702)">
          <g id="Group_4247" data-name="Group 4247">
            <text id="Catalogue_" data-name="Catalogue #" transform="translate(33 12)" fill="#464749" font-size="12" font-family="Avenir-Roman, Avenir"><tspan x="-32.91" y="0">Catalogue #</tspan></text>
          </g>
        </g>
        <g id="Group_4262" data-name="Group 4262" transform="translate(93.538 0)">
          <g id="Group_4254" data-name="Group 4254" transform="translate(0 0.042)">
            <g id="Group_4253" data-name="Group 4253">
              <g id="Group_4250" data-name="Group 4250" transform="translate(4.858 15.513)">
                <g id="Group_4249" data-name="Group 4249">
                  <path id="Path_10179" data-name="Path 10179" d="M164.655,238.295l.854-.008,1.452,3.776-.865.008-.294-.841-1.415.013-.291.847-.843.007Zm-.058,2.324.981-.009-.49-1.386h-.012Z" transform="translate(-163.252 -238.287)" fill="#464749"/>
                </g>
              </g>
              <path id="Path_10180" data-name="Path 10180" d="M164.323,235.9c-2.824.026-5.136-1.533-5.172-5.247s2.224-8.174,5.049-8.2,5.145,4.393,5.18,8.106S167.149,235.869,164.323,235.9Z" transform="translate(-158.31 -222.449)" fill="none" stroke="#5a5b5e" stroke-width="0.7"/>
              <path id="Path_10181" data-name="Path 10181" d="M295.711,238.826c-2.824.025-5.136-1.533-5.173-5.247s2.225-8.175,5.049-8.2,5.146,4.393,5.18,8.106S298.536,238.8,295.711,238.826Z" transform="translate(-161.009 -222.509)" fill="none" stroke="#5a5b5e" stroke-width="0.7"/>
              <g id="Group_4251" data-name="Group 4251" transform="translate(0 16.187)">
                <line id="Line_1103" data-name="Line 1103" y1="0.041" x2="3.179" transform="translate(0.89 0.865)" fill="none" stroke="#5a5b5e" stroke-width="0.465"/>
                <line id="Line_1104" data-name="Line 1104" x1="1.778" y2="1.811" fill="none" stroke="#5a5b5e" stroke-width="0.465"/>
              </g>
              <g id="Group_4252" data-name="Group 4252" transform="translate(9.12 16.065)">
                <line id="Line_1105" data-name="Line 1105" y1="0.036" x2="2.616" transform="translate(0 0.905)" fill="none" stroke="#5a5b5e" stroke-width="0.465"/>
                <line id="Line_1106" data-name="Line 1106" x1="1.779" y2="1.811" transform="translate(1.619)" fill="none" stroke="#5a5b5e" stroke-width="0.465"/>
              </g>
            </g>
            <text id="_cm_" data-name="(cm)" transform="translate(16.524 10.806)" fill="#464749" font-size="8" font-family="Avenir-Roman, Avenir"><tspan x="0" y="0">(cm)</tspan></text>
          </g>
          <g id="Group_4258" data-name="Group 4258" transform="translate(123.891 2.848)">
            <text id="_cm_2" data-name="(cm)" transform="translate(20.408 8)" fill="#464749" font-size="8" font-family="Avenir-Roman, Avenir"><tspan x="0" y="0">(cm)</tspan></text>
            <g id="Group_4257" data-name="Group 4257" transform="translate(0 0.058)">
              <g id="Group_4255" data-name="Group 4255" transform="translate(1.077 10.618)">
                <line id="Line_1107" data-name="Line 1107" x1="0.041" y1="3.577" transform="translate(0.865)" fill="none" stroke="#5a5b5e" stroke-width="0.465"/>
                <line id="Line_1108" data-name="Line 1108" x2="1.811" y2="1.778" transform="translate(0 2.689)" fill="none" stroke="#5a5b5e" stroke-width="0.465"/>
              </g>
              <g id="Group_4256" data-name="Group 4256" transform="translate(0.954)">
                <line id="Line_1109" data-name="Line 1109" x1="0.036" y1="3.299" transform="translate(0.905 0.782)" fill="none" stroke="#5a5b5e" stroke-width="0.465"/>
                <line id="Line_1110" data-name="Line 1110" x2="1.811" y2="1.779" fill="none" stroke="#5a5b5e" stroke-width="0.465"/>
              </g>
              <text id="D" transform="translate(1 6.573)" fill="#464749" font-size="3" font-family="Avenir-Black, Avenir" font-weight="800"><tspan x="-1.138" y="0">D</tspan></text>
            </g>
          </g>
          <g id="Group_4261" data-name="Group 4261" transform="translate(61.271)">
            <g id="Group_4259" data-name="Group 4259" transform="translate(0 2.675)">
              <text id="_cm_3" data-name="(cm)" transform="translate(13.661 8)" fill="#464749" font-size="8" font-family="Avenir-Roman, Avenir"><tspan x="0" y="0">(cm)</tspan></text>
              <path id="Path_10182" data-name="Path 10182" d="M224.509,238.461l1.635-.015c.662-.007,1.111.2,1.117.849a.764.764,0,0,1-.465.73.849.849,0,0,1,.646.875c.006.705-.591,1.013-1.217,1.019l-1.682.015Zm.778,1.4.772-.007c.269,0,.466-.125.465-.418-.007-.33-.259-.4-.53-.393l-.716.007Zm.013,1.474.816-.008c.3,0,.564-.1.561-.461s-.228-.494-.554-.491l-.832.008Z" transform="translate(-220.923 -225.41)" fill="#464749"/>
              <line id="Line_1111" data-name="Line 1111" x1="1.63" y2="1.661" transform="translate(0 13.651)" fill="none" stroke="#5a5b5e" stroke-width="0.396"/>
              <line id="Line_1112" data-name="Line 1112" y1="0.016" x2="1.742" transform="translate(6.894 14.375)" fill="none" stroke="#5a5b5e" stroke-width="0.396"/>
              <line id="Line_1113" data-name="Line 1113" y1="0.016" x2="1.741" transform="translate(0.884 14.375)" fill="none" stroke="#5a5b5e" stroke-width="0.396"/>
              <line id="Line_1114" data-name="Line 1114" x1="1.63" y2="1.66" transform="translate(7.778 13.539)" fill="none" stroke="#5a5b5e" stroke-width="0.396"/>
            </g>
            <g id="Group_4260" data-name="Group 4260" transform="translate(2.855)">
              <path id="Path_10183" data-name="Path 10183" d="M224.86,222.552c.269.2,3.849,5.709,3.849,8.577a4.54,4.54,0,0,1-4.314,4.905s-.632.021-.632-.3V222.757A.774.774,0,0,1,224.86,222.552Z" transform="translate(-223.763 -222.406)" fill="none" stroke="#5a5b5e" stroke-width="0.7"/>
            </g>
          </g>
        </g>
        <g id="Group_4264" data-name="Group 4264" transform="translate(280.27 3.04)">
          <g id="Group_4263" data-name="Group 4263" transform="translate(0 0.845)">
            <path id="Path_10184" data-name="Path 10184" d="M353.578,239.712l-4.637-13.34h1.277l4.029,11.783,4.021-11.783h1.241l-4.618,13.34Z" transform="translate(-348.941 -226.372)" fill="#464749"/>
          </g>
          <text id="_cc_" data-name="(cc)" transform="translate(17.216 8)" fill="#464749" font-size="8" font-family="Avenir-Roman, Avenir"><tspan x="0" y="0">(cc)</tspan></text>
        </g>
      </g>
      <text id="_235_305_375_465" data-name="235
305
375
465" transform="translate(5000.408 13299.295)" fill="#fff" font-size="12" font-family="Avenir-Roman, Avenir"><tspan x="-10.008" y="0">235</tspan><tspan x="-10.008" y="30">305</tspan><tspan x="-10.008" y="60">375</tspan><tspan x="-10.008" y="90">465</tspan></text>
      <g id="Group_4266" data-name="Group 4266" transform="translate(4714.186 13287.899)">
        <text id="GSD-30Q_GSD-33Q_GSD-35Q_GSD-38Q" data-name="GSD-30Q
GSD-33Q
GSD-35Q
GSD-38Q" transform="translate(28 12)" fill="#464749" font-size="12" font-family="Avenir-Roman, Avenir" letter-spacing="0.05em"><tspan x="-27.924" y="0">GSD-30Q</tspan><tspan x="-27.924" y="30">GSD-33Q</tspan><tspan x="-27.924" y="60">GSD-35Q</tspan><tspan x="-27.924" y="90">GSD-38Q</tspan></text>
      </g>
      <g id="Group_4269" data-name="Group 4269" transform="translate(4800.386 13287.899)">
        <g id="Group_4268" data-name="Group 4268" transform="translate(0 0)">
          <g id="Group_4267" data-name="Group 4267">
            <text id="_9.4_10.2_11.0_11.8" data-name="9.4
10.2
11.0
11.8" transform="translate(12 12)" fill="#fff" font-size="12" font-family="Avenir-Roman, Avenir"><tspan x="-8.34" y="0">9.4</tspan><tspan x="-11.676" y="30">10.2</tspan><tspan x="-11.676" y="60">11.0</tspan><tspan x="-11.676" y="90">11.8</tspan></text>
          </g>
        </g>
      </g>
      <g id="Group_4273" data-name="Group 4273" transform="translate(4925.46 13287.899)">
        <g id="Group_4272" data-name="Group 4272" transform="translate(0 0)">
          <g id="Group_4271" data-name="Group 4271">
            <g id="Group_4270" data-name="Group 4270">
              <text id="_12.0_13.0_14.0_15.0" data-name="12.0
13.0
14.0
15.0" transform="translate(12 12)" fill="#fff" font-size="12" font-family="Avenir-Roman, Avenir"><tspan x="-11.676" y="0">12.0</tspan><tspan x="-11.676" y="30">13.0</tspan><tspan x="-11.676" y="60">14.0</tspan><tspan x="-11.676" y="90">15.0</tspan></text>
            </g>
          </g>
        </g>
      </g>
      <g id="Group_4276" data-name="Group 4276" transform="translate(4866.841 13287.376)">
        <g id="Group_4275" data-name="Group 4275" transform="translate(0 0)">
          <g id="Group_4274" data-name="Group 4274">
            <text id="_3.0_3.3_3.5_3.8" data-name="3.0
3.3
3.5
3.8" transform="translate(8 12)" fill="#fff" font-size="12" font-family="Avenir-Roman, Avenir"><tspan x="-8.34" y="0">3.0</tspan><tspan x="-8.34" y="30">3.3</tspan><tspan x="-8.34" y="60">3.5</tspan><tspan x="-8.34" y="90">3.8</tspan></text>
          </g>
        </g>
      </g>
      <line id="Line_1115" data-name="Line 1115" x2="331.756" transform="translate(4700 13278.482)" fill="none" stroke="#fff" stroke-miterlimit="10" stroke-width="0.5"/>
      <g id="Group_4277" data-name="Group 4277" transform="translate(4700 13311.309)">
        <line id="Line_1116" data-name="Line 1116" x2="331.936" transform="translate(0)" fill="none" stroke="#fff" stroke-miterlimit="10" stroke-width="0.5"/>
        <line id="Line_1117" data-name="Line 1117" x2="331.936" transform="translate(0 32.825)" fill="none" stroke="#fff" stroke-miterlimit="10" stroke-width="0.5"/>
        <line id="Line_1118" data-name="Line 1118" x2="331.936" transform="translate(0 65.65)" fill="none" stroke="#fff" stroke-miterlimit="10" stroke-width="0.5"/>
      </g>
      <line id="Line_1119" data-name="Line 1119" x1="80.085" transform="translate(4700.883 13311.309)" fill="#dbdcde" stroke="#dbdcde" stroke-miterlimit="10" stroke-width="0.5"/>
      <line id="Line_1120" data-name="Line 1120" x1="80.085" transform="translate(4700.883 13344.133)" fill="#dbdcde" stroke="#dbdcde" stroke-miterlimit="10" stroke-width="0.5"/>
      <line id="Line_1121" data-name="Line 1121" x1="80.085" transform="translate(4700.883 13376.957)" fill="#dbdcde" stroke="#dbdcde" stroke-miterlimit="10" stroke-width="0.5"/>
      <line id="Line_1122" data-name="Line 1122" y2="172.621" transform="translate(4781.853 13239.041)" fill="none" stroke="#fff" stroke-miterlimit="10" stroke-width="0.7"/>
      <line id="Line_1123" data-name="Line 1123" x1="81.311" transform="translate(4700.883 13278.482)" fill="#dbdcde" stroke="#dbdcde" stroke-miterlimit="10" stroke-width="0.5"/>
    </g>
  </g>
</svg>
