<svg xmlns="http://www.w3.org/2000/svg" xmlns:xlink="http://www.w3.org/1999/xlink" width="356" height="275.843" viewBox="0 0 356 275.843">
  <defs>
    <filter id="Rectangle_1930" x="0" y="67.56" width="356" height="195" filterUnits="userSpaceOnUse">
      <feOffset dx="8" dy="5" input="SourceAlpha"/>
      <feGaussianBlur stdDeviation="4" result="blur"/>
      <feFlood flood-opacity="0.059"/>
      <feComposite operator="in" in2="blur"/>
      <feComposite in="SourceGraphic"/>
    </filter>
  </defs>
  <g id="Group_5183" data-name="Group 5183" transform="translate(-18 -192.44)">
    <text id="A_Base_B_Projection_C_Arc_Length_V_Volume" data-name="A=Base   B=Projection   C=Arc Length   V=Volume" transform="translate(187.53 464.283)" fill="#333" font-size="12" font-family="Avenir-Light, Avenir" font-weight="300"><tspan x="-134.526" y="0" xml:space="preserve">A=Base   B=Projection   C=Arc Length   V=Volume</tspan></text>
    <g transform="matrix(1, 0, 0, 1, 18, 192.44)" filter="url(#Rectangle_1930)">
      <rect id="Rectangle_1930-2" data-name="Rectangle 1930" width="332" height="171" rx="8" transform="translate(4 74.56)" fill="#fff"/>
    </g>
    <text id="FULL_WITH_QID_" data-name="FULL WITH QID®" transform="translate(86.772 230)" fill="#51615e" font-size="20" font-family="Avenir-Roman, Avenir" letter-spacing="0.02em"><tspan x="0" y="0">FULL WITH QID®</tspan></text>
    <g id="Group_2789" data-name="Group 2789" transform="translate(270.418 193.475)">
      <path id="Path_2258" data-name="Path 2258" d="M794.935,151.445c.725.751,8.213,22.263,8.213,33.207,0,16.387-7.505,18.241-9.468,18.241,0,0-1.7.079-1.7-1.16v-49.51C791.979,151.7,793.565,150.021,794.935,151.445Z" transform="translate(-791.979 -150.886)" fill="none" stroke="#c7c9cb" stroke-miterlimit="10" stroke-width="2"/>
      <path id="Path_2259" data-name="Path 2259" d="M794.935,151.445c.725.751,14.941,21.784,14.941,32.728,0,16.387-14.233,18.72-16.2,18.72,0,0-1.7.079-1.7-1.16v-49.51C791.979,151.7,793.565,150.021,794.935,151.445Z" transform="translate(-791.979 -150.886)" fill="none" stroke="#51615e" stroke-miterlimit="10" stroke-width="2"/>
    </g>
    <g id="Group_4313" data-name="Group 4313" transform="translate(-5026.991 -13023)">
      <path id="Rectangle_2207" data-name="Rectangle 2207" d="M0,0H80.052a0,0,0,0,1,0,0V133.168a0,0,0,0,1,0,0H8a8,8,0,0,1-8-8V0A0,0,0,0,1,0,0Z" transform="translate(5049.198 13329.438)" fill="#fff"/>
      <path id="Rectangle_2208" data-name="Rectangle 2208" d="M0,0H64.072a0,0,0,0,1,0,0V127.732A5.669,5.669,0,0,1,58.4,133.4H0a0,0,0,0,1,0,0V0A0,0,0,0,1,0,0Z" transform="translate(5316.738 13329.438)" fill="#51615e" stroke="#fff" stroke-miterlimit="10" stroke-width="0.5"/>
      <rect id="Rectangle_2209" data-name="Rectangle 2209" width="62.532" height="133.401" transform="translate(5129.249 13329.438)" fill="#51615e" stroke="#fff" stroke-miterlimit="10" stroke-width="0.5"/>
      <rect id="Rectangle_2210" data-name="Rectangle 2210" width="62.532" height="133.401" transform="translate(5191.673 13329.438)" fill="#51615e" stroke="#fff" stroke-miterlimit="10" stroke-width="0.5"/>
      <rect id="Rectangle_2211" data-name="Rectangle 2211" width="62.532" height="133.401" transform="translate(5254.206 13329.438)" fill="#51615e" stroke="#fff" stroke-miterlimit="10" stroke-width="0.5"/>
      <path id="Rectangle_2212" data-name="Rectangle 2212" d="M8,0H79.984a0,0,0,0,1,0,0V39.439a0,0,0,0,1,0,0H0a0,0,0,0,1,0,0V8A8,8,0,0,1,8,0Z" transform="translate(5048.991 13290)" fill="#fff"/>
      <path id="Rectangle_2213" data-name="Rectangle 2213" d="M0,0H243.561a8,8,0,0,1,8,8V39.439a0,0,0,0,1,0,0H0a0,0,0,0,1,0,0V0A0,0,0,0,1,0,0Z" transform="translate(5129.249 13290)" fill="#dbdcde"/>
      <g id="Group_4296" data-name="Group 4296" transform="translate(5053.543 13299.396)">
        <g id="Group_4279" data-name="Group 4279" transform="translate(0 2.702)">
          <text id="Catalogue_" data-name="Catalogue #" transform="translate(33 12)" fill="#464749" font-size="12" font-family="Avenir-Roman, Avenir"><tspan x="-32.91" y="0">Catalogue #</tspan></text>
        </g>
        <g id="Group_4293" data-name="Group 4293" transform="translate(96.898 0)">
          <g id="Group_4285" data-name="Group 4285" transform="translate(0 0.042)">
            <g id="Group_4284" data-name="Group 4284">
              <g id="Group_4281" data-name="Group 4281" transform="translate(4.857 15.511)">
                <g id="Group_4280" data-name="Group 4280">
                  <path id="Path_10185" data-name="Path 10185" d="M505.948,238.295l.855-.008,1.451,3.775-.865.008-.295-.841-1.415.013-.29.847-.844.007Zm-.057,2.324.981-.009-.49-1.386h-.012Z" transform="translate(-504.546 -238.287)" fill="#464749"/>
                </g>
              </g>
              <path id="Path_10186" data-name="Path 10186" d="M505.617,235.895c-2.824.026-5.136-1.533-5.171-5.246s2.224-8.174,5.048-8.2,5.146,4.392,5.18,8.105S508.443,235.868,505.617,235.895Z" transform="translate(-499.604 -222.449)" fill="none" stroke="#5a5b5e" stroke-width="0.7"/>
              <path id="Path_10187" data-name="Path 10187" d="M637.005,238.825c-2.825.025-5.137-1.533-5.172-5.246s2.224-8.174,5.049-8.2,5.145,4.392,5.179,8.105S639.83,238.8,637.005,238.825Z" transform="translate(-502.315 -222.509)" fill="none" stroke="#5a5b5e" stroke-width="0.7"/>
              <g id="Group_4282" data-name="Group 4282" transform="translate(0 16.186)">
                <line id="Line_1124" data-name="Line 1124" y1="0.041" x2="3.179" transform="translate(0.89 0.865)" fill="none" stroke="#5a5b5e" stroke-width="0.465"/>
                <line id="Line_1125" data-name="Line 1125" x1="1.778" y2="1.811" fill="none" stroke="#5a5b5e" stroke-width="0.465"/>
              </g>
              <g id="Group_4283" data-name="Group 4283" transform="translate(9.12 16.063)">
                <line id="Line_1126" data-name="Line 1126" y1="0.036" x2="2.616" transform="translate(0 0.904)" fill="none" stroke="#5a5b5e" stroke-width="0.465"/>
                <line id="Line_1127" data-name="Line 1127" x1="1.779" y2="1.811" transform="translate(1.619)" fill="none" stroke="#5a5b5e" stroke-width="0.465"/>
              </g>
            </g>
            <text id="_cm_" data-name="(cm)" transform="translate(16.523 10.805)" fill="#464749" font-size="8" font-family="Avenir-Roman, Avenir"><tspan x="0" y="0">(cm)</tspan></text>
          </g>
          <g id="Group_4289" data-name="Group 4289" transform="translate(123.882 2.847)">
            <text id="_cm_2" data-name="(cm)" transform="translate(20.404 8)" fill="#464749" font-size="8" font-family="Avenir-Roman, Avenir"><tspan x="0" y="0">(cm)</tspan></text>
            <g id="Group_4288" data-name="Group 4288" transform="translate(0 0.058)">
              <g id="Group_4286" data-name="Group 4286" transform="translate(1.075 10.617)">
                <line id="Line_1128" data-name="Line 1128" x1="0.041" y1="3.577" transform="translate(0.865)" fill="none" stroke="#5a5b5e" stroke-width="0.465"/>
                <line id="Line_1129" data-name="Line 1129" x2="1.811" y2="1.778" transform="translate(0 2.688)" fill="none" stroke="#5a5b5e" stroke-width="0.465"/>
              </g>
              <g id="Group_4287" data-name="Group 4287" transform="translate(0.953)">
                <line id="Line_1130" data-name="Line 1130" x1="0.036" y1="3.299" transform="translate(0.904 0.781)" fill="none" stroke="#5a5b5e" stroke-width="0.465"/>
                <line id="Line_1131" data-name="Line 1131" x2="1.811" y2="1.779" fill="none" stroke="#5a5b5e" stroke-width="0.465"/>
              </g>
              <text id="D" transform="translate(1 6.573)" fill="#464749" font-size="3" font-family="Avenir-Black, Avenir" font-weight="800"><tspan x="-1.138" y="0">D</tspan></text>
            </g>
          </g>
          <g id="Group_4292" data-name="Group 4292" transform="translate(61.266)">
            <g id="Group_4290" data-name="Group 4290" transform="translate(0 2.674)">
              <text id="_cm_3" data-name="(cm)" transform="translate(13.66 8)" fill="#464749" font-size="8" font-family="Avenir-Roman, Avenir"><tspan x="0" y="0">(cm)</tspan></text>
              <path id="Path_10188" data-name="Path 10188" d="M565.8,238.461l1.634-.015c.662-.007,1.111.2,1.117.849a.764.764,0,0,1-.465.73.848.848,0,0,1,.645.875c.007.705-.59,1.013-1.216,1.019l-1.683.015Zm.777,1.4.773-.007c.268,0,.465-.125.464-.418-.006-.33-.258-.4-.529-.393l-.716.007Zm.014,1.474.816-.008c.3,0,.564-.1.561-.461s-.228-.494-.555-.491l-.831.008Z" transform="translate(-562.218 -225.411)" fill="#464749"/>
              <line id="Line_1132" data-name="Line 1132" x1="1.629" y2="1.661" transform="translate(0 13.65)" fill="none" stroke="#5a5b5e" stroke-width="0.396"/>
              <line id="Line_1133" data-name="Line 1133" y1="0.016" x2="1.742" transform="translate(6.894 14.373)" fill="none" stroke="#5a5b5e" stroke-width="0.396"/>
              <line id="Line_1134" data-name="Line 1134" y1="0.016" x2="1.741" transform="translate(0.883 14.373)" fill="none" stroke="#5a5b5e" stroke-width="0.396"/>
              <line id="Line_1135" data-name="Line 1135" x1="1.63" y2="1.66" transform="translate(7.778 13.538)" fill="none" stroke="#5a5b5e" stroke-width="0.396"/>
            </g>
            <g id="Group_4291" data-name="Group 4291" transform="translate(2.855)">
              <path id="Path_10189" data-name="Path 10189" d="M566.155,222.552c.269.2,3.849,5.709,3.849,8.576a4.54,4.54,0,0,1-4.315,4.9s-.631.021-.631-.3V222.757A.774.774,0,0,1,566.155,222.552Z" transform="translate(-565.058 -222.406)" fill="none" stroke="#5a5b5e" stroke-width="0.7"/>
            </g>
          </g>
        </g>
        <g id="Group_4295" data-name="Group 4295" transform="translate(283.615 3.04)">
          <g id="Group_4294" data-name="Group 4294" transform="translate(0 0.845)">
            <path id="Path_10190" data-name="Path 10190" d="M694.872,239.711l-4.636-13.339h1.277l4.029,11.782,4.02-11.782H700.8l-4.618,13.339Z" transform="translate(-690.236 -226.372)" fill="#464749"/>
          </g>
          <text id="_cc_" data-name="(cc)" transform="translate(17.215 8)" fill="#464749" font-size="8" font-family="Avenir-Roman, Avenir"><tspan x="0" y="0">(cc)</tspan></text>
        </g>
      </g>
      <g id="Group_4299" data-name="Group 4299" transform="translate(5060.398 13338.854)">
        <g id="Group_4298" data-name="Group 4298" transform="translate(0 0)">
          <g id="Group_4297" data-name="Group 4297">
            <text id="GSF-38Q_GSF-42Q_GSF-45Q_GSF-48Q" data-name="GSF-38Q
GSF-42Q
GSF-45Q
GSF-48Q" transform="translate(27 12)" fill="#464749" font-size="12" font-family="Avenir-Roman, Avenir" letter-spacing="0.05em"><tspan x="-26.814" y="0">GSF-38Q</tspan><tspan x="-26.814" y="30">GSF-42Q</tspan><tspan x="-26.814" y="60">GSF-45Q</tspan><tspan x="-26.814" y="90">GSF-48Q</tspan></text>
          </g>
        </g>
      </g>
      <g id="Group_4303" data-name="Group 4303" transform="translate(5147.781 13338.854)">
        <g id="Group_4302" data-name="Group 4302" transform="translate(0 0)">
          <g id="Group_4301" data-name="Group 4301">
            <g id="Group_4300" data-name="Group 4300">
              <text id="_9.4_10.2_11.0_11.8" data-name="9.4
10.2
11.0
11.8" transform="translate(12 12)" fill="#fff" font-size="12" font-family="Avenir-Roman, Avenir"><tspan x="-8.34" y="0">9.4</tspan><tspan x="-11.676" y="30">10.2</tspan><tspan x="-11.676" y="60">11.0</tspan><tspan x="-11.676" y="90">11.8</tspan></text>
            </g>
          </g>
        </g>
      </g>
      <g id="Group_4307" data-name="Group 4307" transform="translate(5272.739 13338.854)">
        <g id="Group_4306" data-name="Group 4306" transform="translate(0 0)">
          <g id="Group_4305" data-name="Group 4305">
            <g id="Group_4304" data-name="Group 4304">
              <text id="_12.0_13.0_14.0_15.0" data-name="12.0
13.0
14.0
15.0" transform="translate(12 12)" fill="#fff" font-size="12" font-family="Avenir-Roman, Avenir"><tspan x="-11.676" y="0">12.0</tspan><tspan x="-11.676" y="30">13.0</tspan><tspan x="-11.676" y="60">14.0</tspan><tspan x="-11.676" y="90">15.0</tspan></text>
            </g>
          </g>
        </g>
      </g>
      <g id="Group_4311" data-name="Group 4311" transform="translate(5214.124 13338.854)">
        <g id="Group_4310" data-name="Group 4310" transform="translate(0 0)">
          <g id="Group_4309" data-name="Group 4309">
            <g id="Group_4308" data-name="Group 4308">
              <text id="_3.8_4.2_4.5_4.8" data-name="3.8
4.2
4.5
4.8" transform="translate(8 12)" fill="#fff" font-size="12" font-family="Avenir-Roman, Avenir"><tspan x="-8.34" y="0">3.8</tspan><tspan x="-8.34" y="30">4.2</tspan><tspan x="-8.34" y="60">4.5</tspan><tspan x="-8.34" y="90">4.8</tspan></text>
            </g>
          </g>
        </g>
      </g>
      <text id="_285_365_455_555" data-name="285
365
455
555" transform="translate(5348 13350.854)" fill="#fff" font-size="12" font-family="Avenir-Roman, Avenir"><tspan x="-10.008" y="0">285</tspan><tspan x="-10.008" y="30">365</tspan><tspan x="-10.008" y="60">455</tspan><tspan x="-10.008" y="90">555</tspan></text>
      <line id="Line_1136" data-name="Line 1136" x2="331.91" transform="translate(5048.991 13329.438)" fill="none" stroke="#fff" stroke-miterlimit="10" stroke-width="0.5"/>
      <g id="Group_4312" data-name="Group 4312" transform="translate(5048.991 13362.261)">
        <line id="Line_1137" data-name="Line 1137" x2="332" transform="translate(0 0)" fill="none" stroke="#fff" stroke-miterlimit="10" stroke-width="0.5"/>
        <line id="Line_1138" data-name="Line 1138" x2="332" transform="translate(0 32.822)" fill="none" stroke="#fff" stroke-miterlimit="10" stroke-width="0.5"/>
        <line id="Line_1139" data-name="Line 1139" x2="332" transform="translate(0 65.644)" fill="none" stroke="#fff" stroke-miterlimit="10" stroke-width="0.5"/>
      </g>
      <line id="Line_1140" data-name="Line 1140" x1="80.078" transform="translate(5049.171 13362.261)" fill="#dbdcde" stroke="#dbdcde" stroke-miterlimit="10" stroke-width="0.5"/>
      <line id="Line_1141" data-name="Line 1141" x1="80.078" transform="translate(5049.171 13395.083)" fill="#dbdcde" stroke="#dbdcde" stroke-miterlimit="10" stroke-width="0.5"/>
      <line id="Line_1142" data-name="Line 1142" x1="80.078" transform="translate(5049.171 13427.905)" fill="#dbdcde" stroke="#dbdcde" stroke-miterlimit="10" stroke-width="0.5"/>
      <line id="Line_1143" data-name="Line 1143" y2="172.607" transform="translate(5129.249 13290)" fill="none" stroke="#fff" stroke-miterlimit="10" stroke-width="0.7"/>
      <line id="Line_1144" data-name="Line 1144" x1="80.507" transform="translate(5049.171 13329.438)" fill="#dbdcde" stroke="#dbdcde" stroke-miterlimit="10" stroke-width="0.5"/>
    </g>
  </g>
</svg>
