<svg xmlns="http://www.w3.org/2000/svg" xmlns:xlink="http://www.w3.org/1999/xlink" width="363.942" height="233.283" viewBox="0 0 363.942 233.283">
  <defs>
    <filter id="Rectangle_1930" x="7.942" y="67" width="356" height="136" filterUnits="userSpaceOnUse">
      <feOffset dx="8" dy="5" input="SourceAlpha"/>
      <feGaussianBlur stdDeviation="4" result="blur"/>
      <feFlood flood-opacity="0.059"/>
      <feComposite operator="in" in2="blur"/>
      <feComposite in="SourceGraphic"/>
    </filter>
  </defs>
  <g id="Group_5187" data-name="Group 5187" transform="translate(-10.058 -202)">
    <g transform="matrix(1, 0, 0, 1, 10.06, 202)" filter="url(#Rectangle_1930)">
      <rect id="Rectangle_1930-2" data-name="Rectangle 1930" width="332" height="112" rx="8" transform="translate(11.94 74)" fill="#fff"/>
    </g>
    <g id="Group_5153" data-name="Group 5153" transform="translate(42.068)">
      <text id="CORSÉ" transform="translate(103.932 235)" fill="#bf7e1b" font-size="20" font-family="Avenir-Roman, Avenir" letter-spacing="0.02em"><tspan x="-33.78" y="0">CORSÉ</tspan></text>
      <g id="icon-corse-diamond" transform="translate(153.884 203)">
        <path id="Path_2233" data-name="Path 2233" d="M882.834,82.371c0-8.922,15.056-16.153,33.625-16.153s33.623,7.231,33.623,16.153v-.729c0,4.879-6.582,9.2-6.582,9.2s-9.612,6.553-27.041,6.553-27.039-6.553-27.039-6.553-6.586-4.32-6.586-9.2Z" transform="translate(-882.804 -56.121)" fill="none" stroke="#d1d2d3" stroke-miterlimit="10" stroke-width="2"/>
        <path id="Path_2234" data-name="Path 2234" d="M882.819,85.326c0-13.561,15.07-21.585,33.664-21.585s33.656,8.353,33.656,21.585v-.661c0,2.872-.977,6.156-4.4,9.721,0,0-10.662,10.212-29.252,10.212s-28.871-9.925-28.871-9.925-4.793-4.459-4.793-10.009Z" transform="translate(-882.819 -58.486)" fill="none" stroke="#d1d2d3" stroke-miterlimit="10" stroke-width="2"/>
        <path id="Path_2235" data-name="Path 2235" d="M882.825,79.006c0-5.368,15.062-9.721,33.635-9.721s33.635,4.353,33.635,9.721V78.25c0,4.51-6.369,6.506-6.369,6.506s-8.7,4.033-27.266,4.033-27.082-3.959-27.082-3.959-6.652-2.34-6.553-6.58Z" transform="translate(-882.814 -53.193)" fill="none" stroke="#d1d2d3" stroke-miterlimit="10" stroke-width="2"/>
        <path id="Path_2236" data-name="Path 2236" d="M882.834,86.573c0-11.471,15.058-25.52,33.629-25.52s33.621,14.049,33.621,25.52c0,11.565-15.064,25.645-33.629,25.645S882.834,98.138,882.834,86.573Z" transform="translate(-882.804 -61.053)" fill="none" stroke="#c7922c" stroke-miterlimit="10" stroke-width="2"/>
      </g>
    </g>
    <text id="A_Base_B_Projection_C_Arc_Length_V_Volume" data-name="A=Base   B=Projection   C=Arc Length   V=Volume" transform="translate(22 430.283)" fill="#333" font-size="14" font-family="Avenir-Roman, Avenir"><tspan x="0" y="0" xml:space="preserve">A=Base   B=Projection   C=Arc Length   V=Volume</tspan></text>
    <g id="Group_5136" data-name="Group 5136" transform="translate(-6322.965 -15525.761)">
      <path id="Rectangle_2414" data-name="Rectangle 2414" d="M9.579,0H344.218A9.579,9.579,0,0,1,353.8,9.579v95.6a9.58,9.58,0,0,1-9.58,9.58H9.58A9.58,9.58,0,0,1,0,105.181V9.579A9.579,9.579,0,0,1,9.579,0Z" transform="translate(6333.394 15799)" fill="#edeeef"/>
      <path id="Rectangle_2424" data-name="Rectangle 2424" d="M0,0H76.882a0,0,0,0,1,0,0V86.231a8,8,0,0,1-8,8H0a0,0,0,0,1,0,0V0A0,0,0,0,1,0,0Z" transform="translate(6610.165 15819.529)" fill="#bc925a" stroke="#fff" stroke-miterlimit="10" stroke-width="0.5"/>
      <rect id="Rectangle_2425" data-name="Rectangle 2425" width="76.882" height="94.231" transform="translate(6533.282 15819.529)" fill="#bc925a" stroke="#fff" stroke-miterlimit="10" stroke-width="0.5"/>
      <path id="Rectangle_2420" data-name="Rectangle 2420" d="M0,0H227.863a8,8,0,0,1,8,8V51.21a0,0,0,0,1,0,0H0a0,0,0,0,1,0,0V0A0,0,0,0,1,0,0Z" transform="translate(6451.184 15799)" fill="#e0e1e3"/>
      <path id="Path_17971" data-name="Path 17971" d="M559.635,329.206l-81.3-.168V235.406c0-.059.357-.106.795-.106l80.509.081a1.051,1.051,0,0,1,.795.308V329.1c0,.061-.355.107-.795.107" transform="translate(5972.852 15584.555)" fill="#e0e1e3"/>
      <path id="Path_18101" data-name="Path 18101" d="M505.152,227.6a8.182,8.182,0,0,1-1.183-2.322,8.088,8.088,0,0,1-.4-2.5,7.957,7.957,0,0,1,.416-2.571,8.322,8.322,0,0,1,1.168-2.246l.586.434a7.042,7.042,0,0,0-1.041,2.072,7.7,7.7,0,0,0-.349,2.31,8.1,8.1,0,0,0,.087,1.216,6.594,6.594,0,0,0,.262,1.089,7.167,7.167,0,0,0,.433,1.037c.174.34.375.695.608,1.063Z" transform="translate(5994.261 15600.313)" fill="#48484a"/>
      <path id="Path_18102" data-name="Path 18102" d="M509.059,220.844a1.72,1.72,0,0,0-.586-.473,1.654,1.654,0,0,0-.7-.146,1.833,1.833,0,0,0-.749.146,1.426,1.426,0,0,0-.536.408,1.807,1.807,0,0,0-.322.6,2.417,2.417,0,0,0-.107.732,2.131,2.131,0,0,0,.124.734,1.952,1.952,0,0,0,.347.6,1.569,1.569,0,0,0,.536.407,1.658,1.658,0,0,0,.706.148,1.5,1.5,0,0,0,1.29-.63l.63.6a2.222,2.222,0,0,1-.867.619,3.012,3.012,0,0,1-2.127,0,2.339,2.339,0,0,1-.83-.555,2.521,2.521,0,0,1-.53-.847,3.065,3.065,0,0,1,0-2.137,2.5,2.5,0,0,1,.536-.847,2.469,2.469,0,0,1,.83-.558,2.771,2.771,0,0,1,1.068-.2,2.947,2.947,0,0,1,1.068.2,2.349,2.349,0,0,1,.885.608Z" transform="translate(5995.605 15601.567)" fill="#48484a"/>
      <path id="Path_18103" data-name="Path 18103" d="M508.161,220.779c0-.233-.007-.449-.022-.652s-.022-.386-.022-.553h.8c0,.137,0,.275.013.412s.009.279.009.423h.022a1.433,1.433,0,0,1,.244-.359,1.816,1.816,0,0,1,.373-.309,2.009,2.009,0,0,1,.49-.218,2.037,2.037,0,0,1,.584-.081,1.992,1.992,0,0,1,.689.1,1.685,1.685,0,0,1,.46.25,1.309,1.309,0,0,1,.29.314q.1.169.166.3a2.314,2.314,0,0,1,.651-.71,1.635,1.635,0,0,1,.956-.257,2.469,2.469,0,0,1,.911.148,1.446,1.446,0,0,1,.6.423,1.662,1.662,0,0,1,.325.671,3.731,3.731,0,0,1,.1.885v3.081h-.846v-3.039a2.358,2.358,0,0,0-.054-.51,1.187,1.187,0,0,0-.194-.444,1.011,1.011,0,0,0-.379-.314,1.37,1.37,0,0,0-.608-.12,1.221,1.221,0,0,0-.51.109,1.257,1.257,0,0,0-.418.3,1.431,1.431,0,0,0-.283.471,1.76,1.76,0,0,0-.1.614v2.93h-.846v-2.874a2.3,2.3,0,0,0-.229-1.2.824.824,0,0,0-.749-.353,1.69,1.69,0,0,0-.712.14,1.244,1.244,0,0,0-.486.4,1.791,1.791,0,0,0-.283.617,3.193,3.193,0,0,0-.091.791v2.475h-.847Z" transform="translate(5998.121 15601.567)" fill="#48484a"/>
      <path id="Path_18104" data-name="Path 18104" d="M513.428,217.964a8.274,8.274,0,0,1,1.183,2.322,8.158,8.158,0,0,1,.4,2.5,7.94,7.94,0,0,1-.418,2.571,8.231,8.231,0,0,1-1.166,2.246l-.586-.434a7,7,0,0,0,1.041-2.072,7.74,7.74,0,0,0,.349-2.31,7.829,7.829,0,0,0-.089-1.214,6.653,6.653,0,0,0-.261-1.09,7.045,7.045,0,0,0-.433-1.035q-.261-.51-.608-1.063Z" transform="translate(6002.129 15600.313)" fill="#48484a"/>
      <path id="Path_18091" data-name="Path 18091" d="M494.75,227.759l1.436-.011,2.436,6.342-1.451.017-.5-1.416-2.379.022-.488,1.423-1.419.011Zm-.1,3.906,1.649-.013-.824-2.331h-.019Z" transform="translate(5984.779 15608.612)" fill="#48484a"/>
      <path id="Path_18095" data-name="Path 18095" d="M498.975,213.64a11.3,11.3,0,1,1-11.2,11.4A11.3,11.3,0,0,1,498.975,213.64Z" transform="translate(5980.866 15596.644)" fill="none" stroke="#48484a" stroke-width="0.431"/>
      <line id="Line_2276" data-name="Line 2276" y1="0.07" x2="7.497" transform="translate(6468.348 15838.947)" fill="none" stroke="#48484a" stroke-width="0.431"/>
      <line id="Line_2272" data-name="Line 2272" x1="2.989" y2="3.042" transform="translate(6466.852 15837.494)" fill="none" stroke="#48484a" stroke-width="0.431"/>
      <line id="Line_2277" data-name="Line 2277" y1="0.061" x2="6.552" transform="translate(6484.333 15838.806)" fill="none" stroke="#48484a" stroke-width="0.431"/>
      <line id="Line_2273" data-name="Line 2273" x1="2.989" y2="3.042" transform="translate(6489.211 15837.29)" fill="none" stroke="#48484a" stroke-width="0.431"/>
      <path id="Path_18158" data-name="Path 18158" d="M587.783,227.583a8.263,8.263,0,0,1-1.584-4.817,7.9,7.9,0,0,1,.418-2.571,8.266,8.266,0,0,1,1.166-2.246l.586.434a7.018,7.018,0,0,0-1.041,2.072,7.7,7.7,0,0,0-.349,2.31,8.051,8.051,0,0,0,.087,1.214,6.554,6.554,0,0,0,.262,1.09,7.166,7.166,0,0,0,.432,1.037c.174.34.375.695.608,1.063Z" transform="translate(6064.362 15600.3)" fill="#48484a"/>
      <path id="Path_18164" data-name="Path 18164" d="M591.688,220.829a1.7,1.7,0,0,0-.584-.473,1.626,1.626,0,0,0-.7-.146,1.8,1.8,0,0,0-.748.146,1.442,1.442,0,0,0-.536.407,1.831,1.831,0,0,0-.322.6,2.407,2.407,0,0,0-.109.732,2.132,2.132,0,0,0,.126.734,1.954,1.954,0,0,0,.347.6,1.569,1.569,0,0,0,.536.407,1.653,1.653,0,0,0,.706.148,1.5,1.5,0,0,0,1.29-.63l.63.6a2.233,2.233,0,0,1-.869.619,3.007,3.007,0,0,1-2.126,0,2.34,2.34,0,0,1-.83-.554,2.539,2.539,0,0,1-.531-.847,3.065,3.065,0,0,1,0-2.137,2.493,2.493,0,0,1,.536-.847,2.441,2.441,0,0,1,.83-.558,2.737,2.737,0,0,1,1.068-.2,2.908,2.908,0,0,1,1.068.2,2.348,2.348,0,0,1,.885.608Z" transform="translate(6065.706 15601.554)" fill="#48484a"/>
      <path id="Path_18170" data-name="Path 18170" d="M594.519,220.829a1.72,1.72,0,0,0-.586-.473,1.626,1.626,0,0,0-.695-.146,1.8,1.8,0,0,0-.749.146,1.44,1.44,0,0,0-.536.407,1.832,1.832,0,0,0-.322.6,2.407,2.407,0,0,0-.109.732,2.133,2.133,0,0,0,.126.734,1.953,1.953,0,0,0,.348.6,1.57,1.57,0,0,0,.536.407,1.659,1.659,0,0,0,.706.148,1.5,1.5,0,0,0,1.29-.63l.63.6a2.241,2.241,0,0,1-.867.619,3.012,3.012,0,0,1-2.128,0,2.339,2.339,0,0,1-.83-.554,2.543,2.543,0,0,1-.531-.847,3.066,3.066,0,0,1,0-2.137,2.5,2.5,0,0,1,.536-.847,2.442,2.442,0,0,1,.83-.558,2.737,2.737,0,0,1,1.068-.2,2.908,2.908,0,0,1,1.068.2,2.348,2.348,0,0,1,.885.608Z" transform="translate(6068.105 15601.554)" fill="#48484a"/>
      <path id="Path_18171" data-name="Path 18171" d="M593.887,217.949a8.262,8.262,0,0,1,1.584,4.817,7.942,7.942,0,0,1-.418,2.571,8.233,8.233,0,0,1-1.166,2.246l-.586-.434a7,7,0,0,0,1.041-2.072,7.991,7.991,0,0,0,.261-3.525,6.62,6.62,0,0,0-.261-1.091,7.054,7.054,0,0,0-.433-1.035q-.261-.51-.608-1.065Z" transform="translate(6070.386 15600.3)" fill="#48484a"/>
      <path id="Path_18142" data-name="Path 18142" d="M582.38,235.436l-6.691-19.256h1.841l5.817,17.007,5.808-17.007h1.789l-6.667,19.256Z" transform="translate(6055.445 15598.799)" fill="#48484a"/>
      <path id="Path_18105" data-name="Path 18105" d="M543.759,227.255a8.277,8.277,0,0,1-1.582-4.817,7.949,7.949,0,0,1,.416-2.571,8.366,8.366,0,0,1,1.166-2.246l.588.434a7.023,7.023,0,0,0-1.043,2.072,7.7,7.7,0,0,0-.347,2.31,7.819,7.819,0,0,0,.087,1.214,6.749,6.749,0,0,0,.261,1.091,7.6,7.6,0,0,0,.433,1.037q.261.51.61,1.063Z" transform="translate(6027.015 15600.021)" fill="#48484a"/>
      <path id="Path_18106" data-name="Path 18106" d="M547.667,220.5a1.731,1.731,0,0,0-.584-.471,1.637,1.637,0,0,0-.695-.146,1.811,1.811,0,0,0-.75.146,1.439,1.439,0,0,0-.536.407,1.847,1.847,0,0,0-.322.6,2.409,2.409,0,0,0-.107.732,2.113,2.113,0,0,0,.124.732,1.947,1.947,0,0,0,.349.6,1.57,1.57,0,0,0,.536.407,1.646,1.646,0,0,0,.706.146,1.5,1.5,0,0,0,1.29-.628l.63.6a2.21,2.21,0,0,1-.869.617,2.98,2.98,0,0,1-2.126,0,2.318,2.318,0,0,1-.832-.553,2.57,2.57,0,0,1-.53-.847,2.959,2.959,0,0,1-.19-1.074,2.921,2.921,0,0,1,.19-1.063,2.524,2.524,0,0,1,.536-.847,2.45,2.45,0,0,1,.832-.558,2.73,2.73,0,0,1,1.068-.2,2.915,2.915,0,0,1,1.068.2,2.321,2.321,0,0,1,.883.608Z" transform="translate(6028.359 15601.275)" fill="#48484a"/>
      <path id="Path_18107" data-name="Path 18107" d="M546.769,220.434c0-.231-.008-.447-.022-.651s-.02-.386-.02-.555h.8c0,.139,0,.275.013.414s.011.277.011.423h.022a1.435,1.435,0,0,1,.242-.359,1.725,1.725,0,0,1,.375-.309,1.958,1.958,0,0,1,.488-.218,2.049,2.049,0,0,1,.586-.081,2.006,2.006,0,0,1,.689.1,1.7,1.7,0,0,1,.46.25,1.268,1.268,0,0,1,.288.314c.068.113.124.213.168.3a2.337,2.337,0,0,1,.649-.712,1.648,1.648,0,0,1,.956-.255,2.51,2.51,0,0,1,.911.146,1.463,1.463,0,0,1,.6.423,1.669,1.669,0,0,1,.325.673,3.726,3.726,0,0,1,.1.885v3.081h-.847V221.27a2.452,2.452,0,0,0-.054-.51,1.2,1.2,0,0,0-.2-.445,1.029,1.029,0,0,0-.379-.314,1.366,1.366,0,0,0-.608-.118,1.207,1.207,0,0,0-.508.109,1.239,1.239,0,0,0-.42.3,1.391,1.391,0,0,0-.281.471,1.714,1.714,0,0,0-.1.614v2.93h-.846v-2.876a2.335,2.335,0,0,0-.227-1.2.825.825,0,0,0-.749-.351,1.651,1.651,0,0,0-.712.14,1.262,1.262,0,0,0-.488.4,1.812,1.812,0,0,0-.281.619,3.194,3.194,0,0,0-.093.791v2.475h-.846Z" transform="translate(6030.875 15601.275)" fill="#48484a"/>
      <path id="Path_18108" data-name="Path 18108" d="M552.038,217.621a8.278,8.278,0,0,1,1.582,4.817,7.9,7.9,0,0,1-.418,2.571,8.31,8.31,0,0,1-1.164,2.246l-.588-.434a7.028,7.028,0,0,0,1.042-2.072,7.75,7.75,0,0,0,.348-2.31,7.585,7.585,0,0,0-.089-1.214,6.753,6.753,0,0,0-.259-1.091,7.387,7.387,0,0,0-.434-1.037c-.172-.34-.377-.693-.608-1.063Z" transform="translate(6034.882 15600.021)" fill="#48484a"/>
      <path id="Path_18092" data-name="Path 18092" d="M535.916,226.926l3.007-.03c1.216-.013,2.039.375,2.05,1.564a1.4,1.4,0,0,1-.854,1.338,1.564,1.564,0,0,1,1.189,1.61c.009,1.294-1.087,1.859-2.238,1.869l-3.094.026Zm1.431,2.567,1.42-.013c.492,0,.856-.231.856-.769-.013-.608-.477-.728-.976-.723l-1.314.013Zm.024,2.708,1.5-.011c.554-.006,1.033-.189,1.029-.852s-.416-.908-1.018-.9l-1.529.015Z" transform="translate(6021.704 15607.889)" fill="#48484a"/>
      <path id="Path_18109" data-name="Path 18109" d="M540.245,212.712a1.513,1.513,0,0,0-.675-.3,2,2,0,0,0-.752.3,15.34,15.34,0,0,0,0,22.441,1.2,1.2,0,0,0,.752.331.931.931,0,0,0,.675-.311,15.548,15.548,0,0,0,4.911-11.253A15.39,15.39,0,0,0,540.245,212.712Z" transform="translate(6020.027 15595.604)" fill="none" stroke="#48484a" stroke-width="0.431"/>
      <line id="Line_2278" data-name="Line 2278" x1="2.994" y2="3.052" transform="translate(6551.033 15835.919)" fill="none" stroke="#48484a" stroke-width="0.359"/>
      <line id="Line_2279" data-name="Line 2279" y1="0.028" x2="3.203" transform="translate(6563.7 15837.249)" fill="none" stroke="#48484a" stroke-width="0.359"/>
      <line id="Line_2280" data-name="Line 2280" y1="0.028" x2="3.201" transform="translate(6552.655 15837.249)" fill="none" stroke="#48484a" stroke-width="0.359"/>
      <line id="Line_2281" data-name="Line 2281" x1="2.998" y2="3.05" transform="translate(6565.326 15835.713)" fill="none" stroke="#48484a" stroke-width="0.359"/>
      <path id="Path_18110" data-name="Path 18110" d="M433.322,220.509a3.233,3.233,0,0,0-1.259-1.028,3.692,3.692,0,0,0-1.56-.342,3.905,3.905,0,0,0-1.73.383,4.339,4.339,0,0,0-1.362,1.028,4.76,4.76,0,0,0-.893,1.5,5.035,5.035,0,0,0-.318,1.776,5.207,5.207,0,0,0,.318,1.841,4.642,4.642,0,0,0,.885,1.481,4.183,4.183,0,0,0,1.353,1,4.378,4.378,0,0,0,3.6-.041,4.188,4.188,0,0,0,1.416-1.172l1,.845a4.616,4.616,0,0,1-1.839,1.5,5.9,5.9,0,0,1-2.429.479,5.7,5.7,0,0,1-2.264-.447,5.512,5.512,0,0,1-1.822-1.235A5.654,5.654,0,0,1,425.2,226.2a6.628,6.628,0,0,1-.015-4.7,5.6,5.6,0,0,1,5.314-3.6,5.98,5.98,0,0,1,2.205.414,4.056,4.056,0,0,1,1.778,1.353Z" transform="translate(5927.41 15600.255)" fill="#464749"/>
      <path id="Path_18111" data-name="Path 18111" d="M431.168,221.165a3.512,3.512,0,0,1,1.362-.869,4.765,4.765,0,0,1,1.6-.279,3.156,3.156,0,0,1,2.39.782,3.36,3.36,0,0,1,.732,2.373v3.2c0,.213.011.432.033.662s.046.436.079.628h-1.2a2.625,2.625,0,0,1-.072-.566c-.006-.207-.007-.39-.007-.551h-.031a2.9,2.9,0,0,1-.981.941,2.814,2.814,0,0,1-1.473.366,3.952,3.952,0,0,1-1.076-.142,2.718,2.718,0,0,1-.876-.423,2.078,2.078,0,0,1-.6-.693,1.994,1.994,0,0,1-.224-.956,2.076,2.076,0,0,1,.479-1.451,2.9,2.9,0,0,1,1.187-.78,5.846,5.846,0,0,1,1.53-.318q.821-.064,1.5-.063h.479V222.8a1.525,1.525,0,0,0-.484-1.225,2.039,2.039,0,0,0-1.364-.414,3.627,3.627,0,0,0-1.187.2,2.819,2.819,0,0,0-1.028.612Zm3.6,2.915a4.451,4.451,0,0,0-1.895.335,1.138,1.138,0,0,0-.7,1.1,1.084,1.084,0,0,0,.471,1,2.171,2.171,0,0,0,1.172.3,2.281,2.281,0,0,0,.946-.185,1.974,1.974,0,0,0,.678-.486,2.063,2.063,0,0,0,.412-.708,2.893,2.893,0,0,0,.161-.869v-.479Z" transform="translate(5932.557 15602.054)" fill="#464749"/>
      <path id="Path_18112" data-name="Path 18112" d="M440.074,222.146h-2.2v3.728q0,.366.017.677a1.38,1.38,0,0,0,.126.542.86.86,0,0,0,.336.368,1.25,1.25,0,0,0,.638.135,2.56,2.56,0,0,0,.556-.065,2.294,2.294,0,0,0,.542-.19l.048,1.131a2.8,2.8,0,0,1-.708.207,4.63,4.63,0,0,1-.741.063,2.706,2.706,0,0,1-1.068-.174,1.481,1.481,0,0,1-.623-.5,1.875,1.875,0,0,1-.294-.789,7.139,7.139,0,0,1-.072-1.042v-4.094h-1.625v-1.052h1.625v-2.12h1.244v2.12h2.2Z" transform="translate(5936.097 15601.169)" fill="#464749"/>
      <path id="Path_18113" data-name="Path 18113" d="M438.676,221.165a3.513,3.513,0,0,1,1.362-.869,4.747,4.747,0,0,1,1.6-.279,3.15,3.15,0,0,1,2.39.782,3.352,3.352,0,0,1,.734,2.373v3.2c0,.213.011.432.031.662s.048.436.079.628H443.68a2.626,2.626,0,0,1-.072-.566c-.006-.207-.007-.39-.007-.551h-.033a2.882,2.882,0,0,1-.98.941,2.819,2.819,0,0,1-1.473.366,3.951,3.951,0,0,1-1.076-.142,2.7,2.7,0,0,1-.876-.423,2.082,2.082,0,0,1-.6-.693,1.992,1.992,0,0,1-.222-.956,2.076,2.076,0,0,1,.479-1.451,2.9,2.9,0,0,1,1.187-.78,5.845,5.845,0,0,1,1.53-.318q.821-.064,1.5-.063h.479V222.8a1.52,1.52,0,0,0-.486-1.225,2.034,2.034,0,0,0-1.362-.414,3.637,3.637,0,0,0-1.188.2,2.825,2.825,0,0,0-1.026.612Zm3.6,2.915a4.45,4.45,0,0,0-1.895.335,1.138,1.138,0,0,0-.7,1.1,1.084,1.084,0,0,0,.471,1,2.17,2.17,0,0,0,1.172.3,2.281,2.281,0,0,0,.946-.185,1.949,1.949,0,0,0,.676-.486,2.067,2.067,0,0,0,.414-.708,2.9,2.9,0,0,0,.161-.869v-.479Z" transform="translate(5938.927 15602.054)" fill="#464749"/>
      <path id="Path_18114" data-name="Path 18114" d="M443.109,217.638h1.244v12.046h-1.244Z" transform="translate(5942.971 15600.036)" fill="#464749"/>
      <path id="Path_18115" data-name="Path 18115" d="M444.884,223.937a4.076,4.076,0,0,1,.3-1.6,3.744,3.744,0,0,1,.83-1.235,3.676,3.676,0,0,1,1.257-.8,4.573,4.573,0,0,1,3.187,0,3.692,3.692,0,0,1,1.261.8,3.826,3.826,0,0,1,.828,1.235,4.344,4.344,0,0,1,0,3.188,3.827,3.827,0,0,1-.828,1.235,3.665,3.665,0,0,1-1.261.8,4.573,4.573,0,0,1-3.187,0,3.648,3.648,0,0,1-1.257-.8,3.744,3.744,0,0,1-.83-1.235A4.067,4.067,0,0,1,444.884,223.937Zm1.338,0a3.12,3.12,0,0,0,.185,1.09,2.5,2.5,0,0,0,.534.876,2.527,2.527,0,0,0,.835.59,2.858,2.858,0,0,0,2.181,0,2.562,2.562,0,0,0,.839-.59,2.609,2.609,0,0,0,.534-.876,3.379,3.379,0,0,0,0-2.183,2.61,2.61,0,0,0-.534-.876,2.562,2.562,0,0,0-.839-.59,2.881,2.881,0,0,0-2.181,0,2.526,2.526,0,0,0-.835.59,2.5,2.5,0,0,0-.534.876A3.123,3.123,0,0,0,446.222,223.937Z" transform="translate(5944.477 15602.054)" fill="#464749"/>
      <path id="Path_18096" data-name="Path 18096" d="M457.876,227.331a4.229,4.229,0,0,1-1.044,3.1,4.044,4.044,0,0,1-3.018,1.061,5.8,5.8,0,0,1-1.983-.32,4.694,4.694,0,0,1-1.682-1.1l.893-1.02a4.248,4.248,0,0,0,1.251.963,3.38,3.38,0,0,0,1.521.327,3.33,3.33,0,0,0,1.377-.248,2.172,2.172,0,0,0,.869-.669,2.543,2.543,0,0,0,.445-.963,4.922,4.922,0,0,0,.128-1.131v-.956H456.6a2.68,2.68,0,0,1-1.163,1.05,3.434,3.434,0,0,1-1.466.336,4.354,4.354,0,0,1-1.61-.288,3.741,3.741,0,0,1-1.259-.8,3.508,3.508,0,0,1-.811-1.211,3.978,3.978,0,0,1-.288-1.529,4.447,4.447,0,0,1,.288-1.641,3.406,3.406,0,0,1,.8-1.235,3.489,3.489,0,0,1,1.249-.773,4.657,4.657,0,0,1,1.627-.272,3.388,3.388,0,0,1,.765.089,3.116,3.116,0,0,1,.739.27,2.664,2.664,0,0,1,.647.462,2.6,2.6,0,0,1,.477.645h.031v-1.274h1.244Zm-6.534-3.394a2.644,2.644,0,0,0,1.61,2.469,2.561,2.561,0,0,0,1.02.207,2.716,2.716,0,0,0,1.131-.224,2.51,2.51,0,0,0,1.355-1.458,3.006,3.006,0,0,0,.174-1.026,3.072,3.072,0,0,0-.19-1.107,2.607,2.607,0,0,0-.542-.871,2.38,2.38,0,0,0-.845-.564,2.86,2.86,0,0,0-1.083-.2,2.613,2.613,0,0,0-1.076.214,2.442,2.442,0,0,0-.828.59,2.7,2.7,0,0,0-.534.876A3.042,3.042,0,0,0,451.342,223.937Z" transform="translate(5948.82 15602.054)" fill="#464749"/>
      <path id="Path_18116" data-name="Path 18116" d="M462.005,225.808c0,.34.011.658.031.956s.031.569.031.813h-1.179c0-.2,0-.4-.015-.606s-.017-.408-.017-.621h-.031a2.174,2.174,0,0,1-.359.525,2.526,2.526,0,0,1-.551.455,2.878,2.878,0,0,1-.717.318,2.91,2.91,0,0,1-.859.12,3.286,3.286,0,0,1-1.266-.222,2.354,2.354,0,0,1-.884-.623,2.507,2.507,0,0,1-.519-.963,4.362,4.362,0,0,1-.168-1.235v-4.6h1.244V224.6a2.372,2.372,0,0,0,.414,1.481,1.52,1.52,0,0,0,1.29.543,2.413,2.413,0,0,0,1.044-.209,1.843,1.843,0,0,0,.717-.588,2.635,2.635,0,0,0,.414-.909,4.648,4.648,0,0,0,.135-1.163v-3.632h1.244Z" transform="translate(5953.485 15602.142)" fill="#464749"/>
      <path id="Path_18117" data-name="Path 18117" d="M467.154,226.311a3.8,3.8,0,0,1-1.466,1.2,4.664,4.664,0,0,1-1.848.342,3.862,3.862,0,0,1-1.579-.311,3.577,3.577,0,0,1-1.187-.835,3.652,3.652,0,0,1-.747-1.244,4.349,4.349,0,0,1-.264-1.529,4.291,4.291,0,0,1,.286-1.586,3.7,3.7,0,0,1,.8-1.244,3.569,3.569,0,0,1,1.211-.8,4.012,4.012,0,0,1,1.529-.286,3.841,3.841,0,0,1,1.436.262,3.11,3.11,0,0,1,1.122.765,3.419,3.419,0,0,1,.726,1.227,5.007,5.007,0,0,1,.253,1.649v.4H461.4a2.59,2.59,0,0,0,.231.915,2.647,2.647,0,0,0,.518.765,2.39,2.39,0,0,0,.749.518,2.29,2.29,0,0,0,.941.192,2.955,2.955,0,0,0,1.37-.288,3.088,3.088,0,0,0,1-.845Zm-1.066-3.044a2.144,2.144,0,0,0-.623-1.529,2.229,2.229,0,0,0-1.625-.573,2.3,2.3,0,0,0-2.438,2.1Z" transform="translate(5957.354 15602.054)" fill="#464749"/>
      <path id="Path_18118" data-name="Path 18118" d="M468.669,225.939h-1.562v-1.052h1.721l.318-2.421h-1.56v-1.052H469.3l.479-3.362h1.066l-.477,3.362h2.007l.477-3.362h1.068l-.477,3.362h1.56v1.052h-1.7l-.335,2.421h1.562v1.052h-1.721l-.479,3.394h-1.066l.479-3.394h-2.009l-.477,3.394H468.19Zm3.567-3.473h-2.007l-.333,2.421H471.9Z" transform="translate(5963.33 15600.387)" fill="#464749"/>
      <line id="Line_2268" data-name="Line 2268" x1="109.692" transform="translate(6372.021 15850.645)" fill="#e0e1e3"/>
      <line id="Line_2257" data-name="Line 2257" x1="351.798" transform="translate(6334.394 15913.761)" fill="none" stroke="#fff" stroke-miterlimit="10" stroke-width="0.463"/>
      <line id="Line_2269" data-name="Line 2269" x2="354.884" transform="translate(6333.023 15850.21)" fill="none" stroke="#fff" stroke-miterlimit="10" stroke-width="0.463"/>
      <path id="Path_18121" data-name="Path 18121" d="M505.152,227.6a8.182,8.182,0,0,1-1.183-2.322,8.088,8.088,0,0,1-.4-2.5,7.957,7.957,0,0,1,.416-2.571,8.322,8.322,0,0,1,1.168-2.246l.586.434a7.042,7.042,0,0,0-1.041,2.072,7.7,7.7,0,0,0-.349,2.31,8.1,8.1,0,0,0,.087,1.216,6.594,6.594,0,0,0,.262,1.089,7.167,7.167,0,0,0,.433,1.037c.174.34.375.695.608,1.063Z" transform="translate(5994.261 15600.313)" fill="none"/>
      <path id="Path_18122" data-name="Path 18122" d="M509.059,220.844a1.72,1.72,0,0,0-.586-.473,1.654,1.654,0,0,0-.7-.146,1.833,1.833,0,0,0-.749.146,1.426,1.426,0,0,0-.536.408,1.807,1.807,0,0,0-.322.6,2.417,2.417,0,0,0-.107.732,2.131,2.131,0,0,0,.124.734,1.952,1.952,0,0,0,.347.6,1.569,1.569,0,0,0,.536.407,1.658,1.658,0,0,0,.706.148,1.5,1.5,0,0,0,1.29-.63l.63.6a2.222,2.222,0,0,1-.867.619,3.012,3.012,0,0,1-2.127,0,2.339,2.339,0,0,1-.83-.555,2.521,2.521,0,0,1-.53-.847,3.065,3.065,0,0,1,0-2.137,2.5,2.5,0,0,1,.536-.847,2.469,2.469,0,0,1,.83-.558,2.771,2.771,0,0,1,1.068-.2,2.947,2.947,0,0,1,1.068.2,2.349,2.349,0,0,1,.885.608Z" transform="translate(5995.605 15601.567)" fill="none"/>
      <path id="Path_18123" data-name="Path 18123" d="M508.161,220.779c0-.233-.007-.449-.022-.652s-.022-.386-.022-.553h.8c0,.137,0,.275.013.412s.009.279.009.423h.022a1.433,1.433,0,0,1,.244-.359,1.816,1.816,0,0,1,.373-.309,2.009,2.009,0,0,1,.49-.218,2.037,2.037,0,0,1,.584-.081,1.992,1.992,0,0,1,.689.1,1.685,1.685,0,0,1,.46.25,1.309,1.309,0,0,1,.29.314q.1.169.166.3a2.314,2.314,0,0,1,.651-.71,1.635,1.635,0,0,1,.956-.257,2.469,2.469,0,0,1,.911.148,1.446,1.446,0,0,1,.6.423,1.662,1.662,0,0,1,.325.671,3.731,3.731,0,0,1,.1.885v3.081h-.846v-3.039a2.358,2.358,0,0,0-.054-.51,1.187,1.187,0,0,0-.194-.444,1.011,1.011,0,0,0-.379-.314,1.37,1.37,0,0,0-.608-.12,1.221,1.221,0,0,0-.51.109,1.257,1.257,0,0,0-.418.3,1.431,1.431,0,0,0-.283.471,1.76,1.76,0,0,0-.1.614v2.93h-.846v-2.874a2.3,2.3,0,0,0-.229-1.2.824.824,0,0,0-.749-.353,1.69,1.69,0,0,0-.712.14,1.244,1.244,0,0,0-.486.4,1.791,1.791,0,0,0-.283.617,3.193,3.193,0,0,0-.091.791v2.475h-.847Z" transform="translate(5998.121 15601.567)" fill="none"/>
      <path id="Path_18124" data-name="Path 18124" d="M513.428,217.964a8.274,8.274,0,0,1,1.183,2.322,8.158,8.158,0,0,1,.4,2.5,7.94,7.94,0,0,1-.418,2.571,8.231,8.231,0,0,1-1.166,2.246l-.586-.434a7,7,0,0,0,1.041-2.072,7.74,7.74,0,0,0,.349-2.31,7.829,7.829,0,0,0-.089-1.214,6.653,6.653,0,0,0-.261-1.09,7.045,7.045,0,0,0-.433-1.035q-.261-.51-.608-1.063Z" transform="translate(6002.129 15600.313)" fill="none"/>
      <path id="Path_18093" data-name="Path 18093" d="M494.75,227.759l1.436-.011,2.436,6.342-1.451.017-.5-1.416-2.379.022-.488,1.423-1.419.011Zm-.1,3.906,1.649-.013-.824-2.331h-.019Z" transform="translate(5984.779 15608.612)" fill="none"/>
      <path id="Path_18097" data-name="Path 18097" d="M498.975,213.64a11.3,11.3,0,1,1-11.2,11.4A11.3,11.3,0,0,1,498.975,213.64Z" transform="translate(5980.866 15596.644)" fill="none" stroke="#48484a" stroke-width="0.431"/>
      <line id="Line_2282" data-name="Line 2282" y1="0.07" x2="7.497" transform="translate(6468.348 15838.947)" fill="none" stroke="#48484a" stroke-width="0.431"/>
      <line id="Line_2274" data-name="Line 2274" x1="2.989" y2="3.042" transform="translate(6466.852 15837.494)" fill="none" stroke="#48484a" stroke-width="0.431"/>
      <line id="Line_2283" data-name="Line 2283" y1="0.061" x2="6.552" transform="translate(6484.333 15838.806)" fill="none" stroke="#48484a" stroke-width="0.431"/>
      <line id="Line_2275" data-name="Line 2275" x1="2.989" y2="3.042" transform="translate(6489.211 15837.29)" fill="none" stroke="#48484a" stroke-width="0.431"/>
      <path id="Path_18160" data-name="Path 18160" d="M587.783,227.583a8.263,8.263,0,0,1-1.584-4.817,7.9,7.9,0,0,1,.418-2.571,8.266,8.266,0,0,1,1.166-2.246l.586.434a7.018,7.018,0,0,0-1.041,2.072,7.7,7.7,0,0,0-.349,2.31,8.051,8.051,0,0,0,.087,1.214,6.554,6.554,0,0,0,.262,1.09,7.166,7.166,0,0,0,.432,1.037c.174.34.375.695.608,1.063Z" transform="translate(6064.362 15600.3)" fill="none"/>
      <path id="Path_18168" data-name="Path 18168" d="M591.688,220.829a1.7,1.7,0,0,0-.584-.473,1.626,1.626,0,0,0-.7-.146,1.8,1.8,0,0,0-.748.146,1.442,1.442,0,0,0-.536.407,1.831,1.831,0,0,0-.322.6,2.407,2.407,0,0,0-.109.732,2.132,2.132,0,0,0,.126.734,1.954,1.954,0,0,0,.347.6,1.569,1.569,0,0,0,.536.407,1.653,1.653,0,0,0,.706.148,1.5,1.5,0,0,0,1.29-.63l.63.6a2.233,2.233,0,0,1-.869.619,3.007,3.007,0,0,1-2.126,0,2.34,2.34,0,0,1-.83-.554,2.539,2.539,0,0,1-.531-.847,3.065,3.065,0,0,1,0-2.137,2.493,2.493,0,0,1,.536-.847,2.441,2.441,0,0,1,.83-.558,2.737,2.737,0,0,1,1.068-.2,2.908,2.908,0,0,1,1.068.2,2.348,2.348,0,0,1,.885.608Z" transform="translate(6065.706 15601.554)" fill="none"/>
      <path id="Path_18173" data-name="Path 18173" d="M594.519,220.829a1.72,1.72,0,0,0-.586-.473,1.626,1.626,0,0,0-.695-.146,1.8,1.8,0,0,0-.749.146,1.44,1.44,0,0,0-.536.407,1.832,1.832,0,0,0-.322.6,2.407,2.407,0,0,0-.109.732,2.133,2.133,0,0,0,.126.734,1.953,1.953,0,0,0,.348.6,1.57,1.57,0,0,0,.536.407,1.659,1.659,0,0,0,.706.148,1.5,1.5,0,0,0,1.29-.63l.63.6a2.241,2.241,0,0,1-.867.619,3.012,3.012,0,0,1-2.128,0,2.339,2.339,0,0,1-.83-.554,2.543,2.543,0,0,1-.531-.847,3.066,3.066,0,0,1,0-2.137,2.5,2.5,0,0,1,.536-.847,2.442,2.442,0,0,1,.83-.558,2.737,2.737,0,0,1,1.068-.2,2.908,2.908,0,0,1,1.068.2,2.348,2.348,0,0,1,.885.608Z" transform="translate(6068.105 15601.554)" fill="none"/>
      <path id="Path_18174" data-name="Path 18174" d="M593.887,217.949a8.262,8.262,0,0,1,1.584,4.817,7.942,7.942,0,0,1-.418,2.571,8.233,8.233,0,0,1-1.166,2.246l-.586-.434a7,7,0,0,0,1.041-2.072,7.991,7.991,0,0,0,.261-3.525,6.62,6.62,0,0,0-.261-1.091,7.054,7.054,0,0,0-.433-1.035q-.261-.51-.608-1.065Z" transform="translate(6070.386 15600.3)" fill="none"/>
      <path id="Path_18146" data-name="Path 18146" d="M582.38,235.436l-6.691-19.256h1.841l5.817,17.007,5.808-17.007h1.789l-6.667,19.256Z" transform="translate(6055.445 15598.799)" fill="none"/>
      <path id="Path_18125" data-name="Path 18125" d="M543.759,227.255a8.277,8.277,0,0,1-1.582-4.817,7.949,7.949,0,0,1,.416-2.571,8.366,8.366,0,0,1,1.166-2.246l.588.434a7.023,7.023,0,0,0-1.043,2.072,7.7,7.7,0,0,0-.347,2.31,7.819,7.819,0,0,0,.087,1.214,6.749,6.749,0,0,0,.261,1.091,7.6,7.6,0,0,0,.433,1.037q.261.51.61,1.063Z" transform="translate(6027.015 15600.021)" fill="none"/>
      <path id="Path_18126" data-name="Path 18126" d="M547.667,220.5a1.731,1.731,0,0,0-.584-.471,1.637,1.637,0,0,0-.695-.146,1.811,1.811,0,0,0-.75.146,1.439,1.439,0,0,0-.536.407,1.847,1.847,0,0,0-.322.6,2.409,2.409,0,0,0-.107.732,2.113,2.113,0,0,0,.124.732,1.947,1.947,0,0,0,.349.6,1.57,1.57,0,0,0,.536.407,1.646,1.646,0,0,0,.706.146,1.5,1.5,0,0,0,1.29-.628l.63.6a2.21,2.21,0,0,1-.869.617,2.98,2.98,0,0,1-2.126,0,2.318,2.318,0,0,1-.832-.553,2.57,2.57,0,0,1-.53-.847,2.959,2.959,0,0,1-.19-1.074,2.921,2.921,0,0,1,.19-1.063,2.524,2.524,0,0,1,.536-.847,2.45,2.45,0,0,1,.832-.558,2.73,2.73,0,0,1,1.068-.2,2.915,2.915,0,0,1,1.068.2,2.321,2.321,0,0,1,.883.608Z" transform="translate(6028.359 15601.275)" fill="none"/>
      <path id="Path_18127" data-name="Path 18127" d="M546.769,220.434c0-.231-.008-.447-.022-.651s-.02-.386-.02-.555h.8c0,.139,0,.275.013.414s.011.277.011.423h.022a1.435,1.435,0,0,1,.242-.359,1.725,1.725,0,0,1,.375-.309,1.958,1.958,0,0,1,.488-.218,2.049,2.049,0,0,1,.586-.081,2.006,2.006,0,0,1,.689.1,1.7,1.7,0,0,1,.46.25,1.268,1.268,0,0,1,.288.314c.068.113.124.213.168.3a2.337,2.337,0,0,1,.649-.712,1.648,1.648,0,0,1,.956-.255,2.51,2.51,0,0,1,.911.146,1.463,1.463,0,0,1,.6.423,1.669,1.669,0,0,1,.325.673,3.726,3.726,0,0,1,.1.885v3.081h-.847V221.27a2.452,2.452,0,0,0-.054-.51,1.2,1.2,0,0,0-.2-.445,1.029,1.029,0,0,0-.379-.314,1.366,1.366,0,0,0-.608-.118,1.207,1.207,0,0,0-.508.109,1.239,1.239,0,0,0-.42.3,1.391,1.391,0,0,0-.281.471,1.714,1.714,0,0,0-.1.614v2.93h-.846v-2.876a2.335,2.335,0,0,0-.227-1.2.825.825,0,0,0-.749-.351,1.651,1.651,0,0,0-.712.14,1.262,1.262,0,0,0-.488.4,1.812,1.812,0,0,0-.281.619,3.194,3.194,0,0,0-.093.791v2.475h-.846Z" transform="translate(6030.875 15601.275)" fill="none"/>
      <path id="Path_18128" data-name="Path 18128" d="M552.038,217.621a8.278,8.278,0,0,1,1.582,4.817,7.9,7.9,0,0,1-.418,2.571,8.31,8.31,0,0,1-1.164,2.246l-.588-.434a7.028,7.028,0,0,0,1.042-2.072,7.75,7.75,0,0,0,.348-2.31,7.585,7.585,0,0,0-.089-1.214,6.753,6.753,0,0,0-.259-1.091,7.387,7.387,0,0,0-.434-1.037c-.172-.34-.377-.693-.608-1.063Z" transform="translate(6034.882 15600.021)" fill="none"/>
      <path id="Path_18094" data-name="Path 18094" d="M535.916,226.926l3.007-.03c1.216-.013,2.039.375,2.05,1.564a1.4,1.4,0,0,1-.854,1.338,1.564,1.564,0,0,1,1.189,1.61c.009,1.294-1.087,1.859-2.238,1.869l-3.094.026Zm1.431,2.567,1.42-.013c.492,0,.856-.231.856-.769-.013-.608-.477-.728-.976-.723l-1.314.013Zm.024,2.708,1.5-.011c.554-.006,1.033-.189,1.029-.852s-.416-.908-1.018-.9l-1.529.015Z" transform="translate(6021.704 15607.889)" fill="none"/>
      <path id="Path_18129" data-name="Path 18129" d="M540.245,212.712a1.513,1.513,0,0,0-.675-.3,2,2,0,0,0-.752.3,15.34,15.34,0,0,0,0,22.441,1.2,1.2,0,0,0,.752.331.931.931,0,0,0,.675-.311,15.548,15.548,0,0,0,4.911-11.253A15.39,15.39,0,0,0,540.245,212.712Z" transform="translate(6020.027 15595.604)" fill="none" stroke="#48484a" stroke-width="0.431"/>
      <line id="Line_2284" data-name="Line 2284" x1="2.994" y2="3.052" transform="translate(6551.033 15835.919)" fill="none" stroke="#48484a" stroke-width="0.359"/>
      <line id="Line_2285" data-name="Line 2285" y1="0.028" x2="3.203" transform="translate(6563.7 15837.249)" fill="none" stroke="#48484a" stroke-width="0.359"/>
      <line id="Line_2286" data-name="Line 2286" y1="0.028" x2="3.201" transform="translate(6552.655 15837.249)" fill="none" stroke="#48484a" stroke-width="0.359"/>
      <line id="Line_2287" data-name="Line 2287" x1="2.998" y2="3.05" transform="translate(6565.326 15835.713)" fill="none" stroke="#48484a" stroke-width="0.359"/>
      <path id="Path_18130" data-name="Path 18130" d="M433.322,220.509a3.233,3.233,0,0,0-1.259-1.028,3.692,3.692,0,0,0-1.56-.342,3.905,3.905,0,0,0-1.73.383,4.339,4.339,0,0,0-1.362,1.028,4.76,4.76,0,0,0-.893,1.5,5.035,5.035,0,0,0-.318,1.776,5.207,5.207,0,0,0,.318,1.841,4.642,4.642,0,0,0,.885,1.481,4.183,4.183,0,0,0,1.353,1,4.378,4.378,0,0,0,3.6-.041,4.188,4.188,0,0,0,1.416-1.172l1,.845a4.616,4.616,0,0,1-1.839,1.5,5.9,5.9,0,0,1-2.429.479,5.7,5.7,0,0,1-2.264-.447,5.512,5.512,0,0,1-1.822-1.235A5.654,5.654,0,0,1,425.2,226.2a6.628,6.628,0,0,1-.015-4.7,5.6,5.6,0,0,1,5.314-3.6,5.98,5.98,0,0,1,2.205.414,4.056,4.056,0,0,1,1.778,1.353Z" transform="translate(5927.41 15600.255)" fill="none"/>
      <path id="Path_18131" data-name="Path 18131" d="M431.168,221.165a3.512,3.512,0,0,1,1.362-.869,4.765,4.765,0,0,1,1.6-.279,3.156,3.156,0,0,1,2.39.782,3.36,3.36,0,0,1,.732,2.373v3.2c0,.213.011.432.033.662s.046.436.079.628h-1.2a2.625,2.625,0,0,1-.072-.566c-.006-.207-.007-.39-.007-.551h-.031a2.9,2.9,0,0,1-.981.941,2.814,2.814,0,0,1-1.473.366,3.952,3.952,0,0,1-1.076-.142,2.718,2.718,0,0,1-.876-.423,2.078,2.078,0,0,1-.6-.693,1.994,1.994,0,0,1-.224-.956,2.076,2.076,0,0,1,.479-1.451,2.9,2.9,0,0,1,1.187-.78,5.846,5.846,0,0,1,1.53-.318q.821-.064,1.5-.063h.479V222.8a1.525,1.525,0,0,0-.484-1.225,2.039,2.039,0,0,0-1.364-.414,3.627,3.627,0,0,0-1.187.2,2.819,2.819,0,0,0-1.028.612Zm3.6,2.915a4.451,4.451,0,0,0-1.895.335,1.138,1.138,0,0,0-.7,1.1,1.084,1.084,0,0,0,.471,1,2.171,2.171,0,0,0,1.172.3,2.281,2.281,0,0,0,.946-.185,1.974,1.974,0,0,0,.678-.486,2.063,2.063,0,0,0,.412-.708,2.893,2.893,0,0,0,.161-.869v-.479Z" transform="translate(5932.557 15602.054)" fill="none"/>
      <path id="Path_18132" data-name="Path 18132" d="M440.074,222.146h-2.2v3.728q0,.366.017.677a1.38,1.38,0,0,0,.126.542.86.86,0,0,0,.336.368,1.25,1.25,0,0,0,.638.135,2.56,2.56,0,0,0,.556-.065,2.294,2.294,0,0,0,.542-.19l.048,1.131a2.8,2.8,0,0,1-.708.207,4.63,4.63,0,0,1-.741.063,2.706,2.706,0,0,1-1.068-.174,1.481,1.481,0,0,1-.623-.5,1.875,1.875,0,0,1-.294-.789,7.139,7.139,0,0,1-.072-1.042v-4.094h-1.625v-1.052h1.625v-2.12h1.244v2.12h2.2Z" transform="translate(5936.097 15601.169)" fill="none"/>
      <path id="Path_18133" data-name="Path 18133" d="M438.676,221.165a3.513,3.513,0,0,1,1.362-.869,4.747,4.747,0,0,1,1.6-.279,3.15,3.15,0,0,1,2.39.782,3.352,3.352,0,0,1,.734,2.373v3.2c0,.213.011.432.031.662s.048.436.079.628H443.68a2.626,2.626,0,0,1-.072-.566c-.006-.207-.007-.39-.007-.551h-.033a2.882,2.882,0,0,1-.98.941,2.819,2.819,0,0,1-1.473.366,3.951,3.951,0,0,1-1.076-.142,2.7,2.7,0,0,1-.876-.423,2.082,2.082,0,0,1-.6-.693,1.992,1.992,0,0,1-.222-.956,2.076,2.076,0,0,1,.479-1.451,2.9,2.9,0,0,1,1.187-.78,5.845,5.845,0,0,1,1.53-.318q.821-.064,1.5-.063h.479V222.8a1.52,1.52,0,0,0-.486-1.225,2.034,2.034,0,0,0-1.362-.414,3.637,3.637,0,0,0-1.188.2,2.825,2.825,0,0,0-1.026.612Zm3.6,2.915a4.45,4.45,0,0,0-1.895.335,1.138,1.138,0,0,0-.7,1.1,1.084,1.084,0,0,0,.471,1,2.17,2.17,0,0,0,1.172.3,2.281,2.281,0,0,0,.946-.185,1.949,1.949,0,0,0,.676-.486,2.067,2.067,0,0,0,.414-.708,2.9,2.9,0,0,0,.161-.869v-.479Z" transform="translate(5938.927 15602.054)" fill="none"/>
      <path id="Path_18134" data-name="Path 18134" d="M443.109,217.638h1.244v12.046h-1.244Z" transform="translate(5942.971 15600.036)" fill="none"/>
      <path id="Path_18135" data-name="Path 18135" d="M444.884,223.937a4.076,4.076,0,0,1,.3-1.6,3.744,3.744,0,0,1,.83-1.235,3.676,3.676,0,0,1,1.257-.8,4.573,4.573,0,0,1,3.187,0,3.692,3.692,0,0,1,1.261.8,3.826,3.826,0,0,1,.828,1.235,4.344,4.344,0,0,1,0,3.188,3.827,3.827,0,0,1-.828,1.235,3.665,3.665,0,0,1-1.261.8,4.573,4.573,0,0,1-3.187,0,3.648,3.648,0,0,1-1.257-.8,3.744,3.744,0,0,1-.83-1.235A4.067,4.067,0,0,1,444.884,223.937Zm1.338,0a3.12,3.12,0,0,0,.185,1.09,2.5,2.5,0,0,0,.534.876,2.527,2.527,0,0,0,.835.59,2.858,2.858,0,0,0,2.181,0,2.562,2.562,0,0,0,.839-.59,2.609,2.609,0,0,0,.534-.876,3.379,3.379,0,0,0,0-2.183,2.61,2.61,0,0,0-.534-.876,2.562,2.562,0,0,0-.839-.59,2.881,2.881,0,0,0-2.181,0,2.526,2.526,0,0,0-.835.59,2.5,2.5,0,0,0-.534.876A3.123,3.123,0,0,0,446.222,223.937Z" transform="translate(5944.477 15602.054)" fill="none"/>
      <path id="Path_18098" data-name="Path 18098" d="M457.876,227.331a4.229,4.229,0,0,1-1.044,3.1,4.044,4.044,0,0,1-3.018,1.061,5.8,5.8,0,0,1-1.983-.32,4.694,4.694,0,0,1-1.682-1.1l.893-1.02a4.248,4.248,0,0,0,1.251.963,3.38,3.38,0,0,0,1.521.327,3.33,3.33,0,0,0,1.377-.248,2.172,2.172,0,0,0,.869-.669,2.543,2.543,0,0,0,.445-.963,4.922,4.922,0,0,0,.128-1.131v-.956H456.6a2.68,2.68,0,0,1-1.163,1.05,3.434,3.434,0,0,1-1.466.336,4.354,4.354,0,0,1-1.61-.288,3.741,3.741,0,0,1-1.259-.8,3.508,3.508,0,0,1-.811-1.211,3.978,3.978,0,0,1-.288-1.529,4.447,4.447,0,0,1,.288-1.641,3.406,3.406,0,0,1,.8-1.235,3.489,3.489,0,0,1,1.249-.773,4.657,4.657,0,0,1,1.627-.272,3.388,3.388,0,0,1,.765.089,3.116,3.116,0,0,1,.739.27,2.664,2.664,0,0,1,.647.462,2.6,2.6,0,0,1,.477.645h.031v-1.274h1.244Zm-6.534-3.394a2.644,2.644,0,0,0,1.61,2.469,2.561,2.561,0,0,0,1.02.207,2.716,2.716,0,0,0,1.131-.224,2.51,2.51,0,0,0,1.355-1.458,3.006,3.006,0,0,0,.174-1.026,3.072,3.072,0,0,0-.19-1.107,2.607,2.607,0,0,0-.542-.871,2.38,2.38,0,0,0-.845-.564,2.86,2.86,0,0,0-1.083-.2,2.613,2.613,0,0,0-1.076.214,2.442,2.442,0,0,0-.828.59,2.7,2.7,0,0,0-.534.876A3.042,3.042,0,0,0,451.342,223.937Z" transform="translate(5948.82 15602.054)" fill="none"/>
      <path id="Path_18136" data-name="Path 18136" d="M462.005,225.808c0,.34.011.658.031.956s.031.569.031.813h-1.179c0-.2,0-.4-.015-.606s-.017-.408-.017-.621h-.031a2.174,2.174,0,0,1-.359.525,2.526,2.526,0,0,1-.551.455,2.878,2.878,0,0,1-.717.318,2.91,2.91,0,0,1-.859.12,3.286,3.286,0,0,1-1.266-.222,2.354,2.354,0,0,1-.884-.623,2.507,2.507,0,0,1-.519-.963,4.362,4.362,0,0,1-.168-1.235v-4.6h1.244V224.6a2.372,2.372,0,0,0,.414,1.481,1.52,1.52,0,0,0,1.29.543,2.413,2.413,0,0,0,1.044-.209,1.843,1.843,0,0,0,.717-.588,2.635,2.635,0,0,0,.414-.909,4.648,4.648,0,0,0,.135-1.163v-3.632h1.244Z" transform="translate(5953.485 15602.142)" fill="none"/>
      <path id="Path_18137" data-name="Path 18137" d="M467.154,226.311a3.8,3.8,0,0,1-1.466,1.2,4.664,4.664,0,0,1-1.848.342,3.862,3.862,0,0,1-1.579-.311,3.577,3.577,0,0,1-1.187-.835,3.652,3.652,0,0,1-.747-1.244,4.349,4.349,0,0,1-.264-1.529,4.291,4.291,0,0,1,.286-1.586,3.7,3.7,0,0,1,.8-1.244,3.569,3.569,0,0,1,1.211-.8,4.012,4.012,0,0,1,1.529-.286,3.841,3.841,0,0,1,1.436.262,3.11,3.11,0,0,1,1.122.765,3.419,3.419,0,0,1,.726,1.227,5.007,5.007,0,0,1,.253,1.649v.4H461.4a2.59,2.59,0,0,0,.231.915,2.647,2.647,0,0,0,.518.765,2.39,2.39,0,0,0,.749.518,2.29,2.29,0,0,0,.941.192,2.955,2.955,0,0,0,1.37-.288,3.088,3.088,0,0,0,1-.845Zm-1.066-3.044a2.144,2.144,0,0,0-.623-1.529,2.229,2.229,0,0,0-1.625-.573,2.3,2.3,0,0,0-2.438,2.1Z" transform="translate(5957.354 15602.054)" fill="none"/>
      <path id="Path_18138" data-name="Path 18138" d="M468.669,225.939h-1.562v-1.052h1.721l.318-2.421h-1.56v-1.052H469.3l.479-3.362h1.066l-.477,3.362h2.007l.477-3.362h1.068l-.477,3.362h1.56v1.052h-1.7l-.335,2.421h1.562v1.052h-1.721l-.479,3.394h-1.066l.479-3.394h-2.009l-.477,3.394H468.19Zm3.567-3.473h-2.007l-.333,2.421H471.9Z" transform="translate(5963.33 15600.387)" fill="none"/>
      <line id="Line_2267" data-name="Line 2267" x2="351.798" transform="translate(6334.394 15881.986)" fill="none" stroke="#fff" stroke-miterlimit="10" stroke-width="0.463"/>
      <line id="Line_2271" data-name="Line 2271" x2="354.884" transform="translate(6333.023 15850.21)" fill="none" stroke="#fff" stroke-miterlimit="10" stroke-width="0.463"/>
      <g id="Group_5135" data-name="Group 5135" transform="translate(-383.065 -126.213)">
        <g id="Group_5127" data-name="Group 5127" transform="translate(6944.159 15986.409)">
          <path id="Path_15348" data-name="Path 15348" d="M916.1,326.593h.478a6.984,6.984,0,0,0,1-.074,2.681,2.681,0,0,0,.954-.322,1.991,1.991,0,0,0,.717-.71,2.319,2.319,0,0,0,.284-1.22,2.149,2.149,0,0,0-.616-1.619,2.213,2.213,0,0,0-1.608-.6,2.654,2.654,0,0,0-1.432.379,2.581,2.581,0,0,0-.956,1.117l-1.487-.587a3.377,3.377,0,0,1,1.5-1.7,4.582,4.582,0,0,1,2.269-.567,4.775,4.775,0,0,1,1.478.226,3.726,3.726,0,0,1,1.24.663,3.135,3.135,0,0,1,.846,1.088,3.493,3.493,0,0,1,.311,1.523,3.205,3.205,0,0,1-2.222,3.066v.038a3.162,3.162,0,0,1,1.11.416,3.191,3.191,0,0,1,1.369,1.76,3.888,3.888,0,0,1,.185,1.193,3.83,3.83,0,0,1-.35,1.684,3.629,3.629,0,0,1-.936,1.211,4,4,0,0,1-1.369.739,5.474,5.474,0,0,1-1.644.244,4.95,4.95,0,0,1-2.591-.661,3.788,3.788,0,0,1-1.6-2.158l1.561-.531a2.942,2.942,0,0,0,.938,1.534,3.172,3.172,0,0,0,2.72.264,2.477,2.477,0,0,0,.836-.538,2.637,2.637,0,0,0,.569-.833,2.668,2.668,0,0,0,.212-1.07,2.48,2.48,0,0,0-.286-1.24,2.207,2.207,0,0,0-.753-.795,3.373,3.373,0,0,0-1.056-.426,5.493,5.493,0,0,0-1.2-.132H916.1Z" transform="translate(-913.036 -320.69)" fill="#fff"/>
          <path id="Path_15349" data-name="Path 15349" d="M920.2,327.023a1.062,1.062,0,0,1,.782.331,1.115,1.115,0,0,1,.319.8,1.1,1.1,0,1,1-2.2,0,1.109,1.109,0,0,1,.321-.8A1.052,1.052,0,0,1,920.2,327.023Z" transform="translate(-908.116 -315.555)" fill="#fff"/>
          <path id="Path_15350" data-name="Path 15350" d="M927.251,328.732l-.036-.036a2.785,2.785,0,0,1-.855.3,4.7,4.7,0,0,1-.891.094,4.043,4.043,0,0,1-1.57-.3,3.618,3.618,0,0,1-1.251-.86,4.07,4.07,0,0,1-.817-1.325,4.768,4.768,0,0,1-.293-1.713,4.446,4.446,0,0,1,.331-1.76,3.757,3.757,0,0,1,.918-1.315,4.115,4.115,0,0,1,1.387-.833,5.181,5.181,0,0,1,3.437,0,4.127,4.127,0,0,1,1.385.833,3.706,3.706,0,0,1,.918,1.315,4.446,4.446,0,0,1,.331,1.76,5.869,5.869,0,0,1-.092,1.079,5.757,5.757,0,0,1-.257.945,6.486,6.486,0,0,1-.393.88q-.231.426-.489.862l-3.453,5.659h-1.8Zm-1.36-1a3.053,3.053,0,0,0,1.1-.2,2.608,2.608,0,0,0,.889-.569,2.667,2.667,0,0,0,.6-.889,3.25,3.25,0,0,0,0-2.356,2.678,2.678,0,0,0-.6-.9,2.631,2.631,0,0,0-.889-.567,3.152,3.152,0,0,0-2.206,0,2.6,2.6,0,0,0-.891.567,2.68,2.68,0,0,0-.6.9,3.275,3.275,0,0,0,0,2.356,2.669,2.669,0,0,0,.6.889,2.58,2.58,0,0,0,.891.569A3.033,3.033,0,0,0,925.891,327.73Z" transform="translate(-906.143 -320.69)" fill="#fff"/>
        </g>
        <g id="Group_5128" data-name="Group 5128" transform="translate(6944.125 16017.524)">
          <path id="Path_15351" data-name="Path 15351" d="M920.07,346.856h1.874v1.476H920.07V351.4h-1.543v-3.066h-5.51v-1.76L918.178,338h1.892Zm-1.543-7h-.036l-4.152,7h4.188Z" transform="translate(-913.017 -337.772)" fill="#fff"/>
          <path id="Path_15352" data-name="Path 15352" d="M920.2,344.207a1.06,1.06,0,0,1,.782.33,1.116,1.116,0,0,1,.319.806,1.1,1.1,0,1,1-2.2,0,1.11,1.11,0,0,1,.321-.806A1.051,1.051,0,0,1,920.2,344.207Z" transform="translate(-908.082 -332.738)" fill="#fff"/>
          <path id="Path_15353" data-name="Path 15353" d="M921.629,349.683l4.905-4.922q.459-.454.808-.842a5.3,5.3,0,0,0,.579-.757,3,3,0,0,0,.34-.766,3.381,3.381,0,0,0,.111-.891,2.306,2.306,0,0,0-.185-.945,2.084,2.084,0,0,0-.5-.71,2.317,2.317,0,0,0-.753-.454,2.658,2.658,0,0,0-.929-.161,2.334,2.334,0,0,0-1.635.587,2.712,2.712,0,0,0-.826,1.552l-1.671-.15a4.246,4.246,0,0,1,.485-1.449,3.455,3.455,0,0,1,.9-1.05,3.982,3.982,0,0,1,1.222-.634,5.062,5.062,0,0,1,2.993.018,3.77,3.77,0,0,1,1.26.692,3.283,3.283,0,0,1,.862,1.135,3.624,3.624,0,0,1,.322,1.57,4.586,4.586,0,0,1-.212,1.44,4.825,4.825,0,0,1-.57,1.182,7.854,7.854,0,0,1-.808,1.021q-.451.483-.945.956l-4.005,3.88v.038h6.633V351.5h-8.378Z" transform="translate(-906.035 -337.873)" fill="#fff"/>
        </g>
        <g id="Group_5129" data-name="Group 5129" transform="translate(7016.629 15986.422)">
          <path id="Path_15382" data-name="Path 15382" d="M957.889,334.1h-1.545V322.741h-.034l-2.336,2.025-.916-1.155,3.489-2.914h1.342Z" transform="translate(-953.058 -320.697)" fill="#fff"/>
          <path id="Path_15383" data-name="Path 15383" d="M965.124,329.554H967v1.476h-1.874V334.1h-1.545v-3.067h-5.51v-1.758l5.163-8.574h1.892Zm-1.545-7h-.034l-4.152,7h4.187Z" transform="translate(-948.995 -320.697)" fill="#fff"/>
          <path id="Path_15384" data-name="Path 15384" d="M971.675,322.173h-5.309l-.054,3.614a2.649,2.649,0,0,1,.817-.255,6,6,0,0,1,.855-.065,4.227,4.227,0,0,1,1.7.331,3.839,3.839,0,0,1,1.313.925,4.158,4.158,0,0,1,.846,1.4,5.075,5.075,0,0,1,.293,1.751,4.742,4.742,0,0,1-.34,1.825,4.063,4.063,0,0,1-.936,1.4,4.239,4.239,0,0,1-1.414.9,4.777,4.777,0,0,1-1.773.322,3.979,3.979,0,0,1-2.4-.663,4.6,4.6,0,0,1-1.443-1.778l1.545-.6a2.922,2.922,0,0,0,.963,1.219,2.408,2.408,0,0,0,1.46.465,2.706,2.706,0,0,0,1.094-.219,2.522,2.522,0,0,0,.882-.625,3,3,0,0,0,.6-.974,3.48,3.48,0,0,0,.219-1.268,3.209,3.209,0,0,0-.246-1.305,2.758,2.758,0,0,0-.679-.956,2.88,2.88,0,0,0-1.021-.587,3.941,3.941,0,0,0-1.268-.2,4.228,4.228,0,0,0-1.358.237,6.4,6.4,0,0,0-1.287.6l.129-6.964h6.816Z" transform="translate(-944.324 -320.697)" fill="#fff"/>
        </g>
        <g id="Group_5130" data-name="Group 5130" transform="translate(7016.629 16017.196)">
          <path id="Path_15385" data-name="Path 15385" d="M957.889,351.092h-1.545V339.736h-.034l-2.336,2.024-.916-1.155,3.489-2.914h1.342Z" transform="translate(-953.058 -337.692)" fill="#fff"/>
          <path id="Path_15386" data-name="Path 15386" d="M966.138,339.168l-5.2,11.924h-1.746l5.291-11.924H958.2v-1.476h7.937Z" transform="translate(-948.888 -337.692)" fill="#fff"/>
          <path id="Path_15387" data-name="Path 15387" d="M971.675,339.168h-5.309l-.054,3.614a2.649,2.649,0,0,1,.817-.255,6,6,0,0,1,.855-.065,4.227,4.227,0,0,1,1.7.331,3.819,3.819,0,0,1,1.313.927,4.133,4.133,0,0,1,.846,1.4,5.075,5.075,0,0,1,.293,1.751,4.758,4.758,0,0,1-.34,1.827,4.072,4.072,0,0,1-.936,1.4,4.271,4.271,0,0,1-1.414.9,4.814,4.814,0,0,1-1.773.32,3.991,3.991,0,0,1-2.4-.661,4.619,4.619,0,0,1-1.443-1.78l1.545-.6a2.94,2.94,0,0,0,.963,1.22,2.418,2.418,0,0,0,1.46.464,2.706,2.706,0,0,0,1.094-.219,2.541,2.541,0,0,0,.882-.623,3.028,3.028,0,0,0,.6-.976,3.479,3.479,0,0,0,.219-1.268,3.209,3.209,0,0,0-.246-1.306,2.757,2.757,0,0,0-.679-.956,2.88,2.88,0,0,0-1.021-.587,3.941,3.941,0,0,0-1.268-.2,4.225,4.225,0,0,0-1.358.237,6.393,6.393,0,0,0-1.287.6l.129-6.964h6.816Z" transform="translate(-944.324 -337.692)" fill="#fff"/>
        </g>
        <g id="Group_5131" data-name="Group 5131" transform="translate(6739.918 15986.308)">
          <path id="Path_15397" data-name="Path 15397" d="M800.244,320.822h5a6.571,6.571,0,0,1,1.36.152,6.47,6.47,0,0,1,1.423.482,6.569,6.569,0,0,1,1.36.862,5.66,5.66,0,0,1,1.148,1.278,6.492,6.492,0,0,1,.79,1.722,8.434,8.434,0,0,1,0,4.409,6.494,6.494,0,0,1-.79,1.722,5.7,5.7,0,0,1-1.148,1.278,6.6,6.6,0,0,1-2.783,1.344,6.692,6.692,0,0,1-1.36.15h-5Zm1.545,11.924h2.939a6.85,6.85,0,0,0,2.075-.3,4.265,4.265,0,0,0,2.756-2.555,7.131,7.131,0,0,0,0-4.732A4.253,4.253,0,0,0,806.8,322.6a6.794,6.794,0,0,0-2.075-.3h-2.939Z" transform="translate(-800.244 -320.482)" fill="#464749"/>
          <path id="Path_15398" data-name="Path 15398" d="M814.478,323.339a2.293,2.293,0,0,0-1.03-.936,3.187,3.187,0,0,0-1.34-.293,3.88,3.88,0,0,0-1.01.134,2.928,2.928,0,0,0-.891.4,1.95,1.95,0,0,0-.634.7,2.1,2.1,0,0,0-.239,1.023,2.174,2.174,0,0,0,.138.8,1.708,1.708,0,0,0,.449.634,3.285,3.285,0,0,0,.846.531,11.328,11.328,0,0,0,1.306.493q.752.247,1.459.529a4.926,4.926,0,0,1,1.249.721,3.161,3.161,0,0,1,.864,1.088,4.227,4.227,0,0,1-.065,3.379,3.59,3.59,0,0,1-1.018,1.219,4.413,4.413,0,0,1-1.461.721,6.191,6.191,0,0,1-1.708.235,6.4,6.4,0,0,1-1.141-.1,5.387,5.387,0,0,1-1.094-.322,4.4,4.4,0,0,1-.981-.567,3.335,3.335,0,0,1-.789-.862l1.322-1.115a2.743,2.743,0,0,0,1.177,1.115,3.514,3.514,0,0,0,1.6.378,3.457,3.457,0,0,0,1-.152,2.951,2.951,0,0,0,.909-.444,2.362,2.362,0,0,0,.661-.73,1.921,1.921,0,0,0,.257-1,2.2,2.2,0,0,0-.2-1.012,1.85,1.85,0,0,0-.625-.674,4.81,4.81,0,0,0-1.067-.511c-.427-.152-.931-.328-1.507-.531a9.28,9.28,0,0,1-1.286-.52,3.954,3.954,0,0,1-1.018-.719,3.041,3.041,0,0,1-.681-1.023,3.716,3.716,0,0,1-.248-1.429,3.641,3.641,0,0,1,.368-1.684,3.5,3.5,0,0,1,.992-1.2,4.441,4.441,0,0,1,1.414-.728,5.5,5.5,0,0,1,1.653-.246,5.576,5.576,0,0,1,2.01.349,3.964,3.964,0,0,1,1.628,1.222Z" transform="translate(-794.453 -320.634)" fill="#464749"/>
          <path id="Path_15399" data-name="Path 15399" d="M822.983,323.738a3.741,3.741,0,0,0-1.45-1.22,4.168,4.168,0,0,0-1.8-.407,4.406,4.406,0,0,0-1.994.455,4.974,4.974,0,0,0-1.57,1.222,5.653,5.653,0,0,0-1.03,1.778,6.15,6.15,0,0,0-.368,2.11,6.391,6.391,0,0,0,.368,2.187,5.537,5.537,0,0,0,1.021,1.758,4.774,4.774,0,0,0,1.561,1.184,4.912,4.912,0,0,0,4.141-.047,4.856,4.856,0,0,0,1.637-1.393l1.157,1a5.4,5.4,0,0,1-2.122,1.78,6.656,6.656,0,0,1-2.8.567,6.429,6.429,0,0,1-4.712-2,6.8,6.8,0,0,1-1.4-2.224,8.09,8.09,0,0,1-.016-5.584,6.655,6.655,0,0,1,1.369-2.233,6.487,6.487,0,0,1,2.093-1.5,6.379,6.379,0,0,1,2.664-.549,6.748,6.748,0,0,1,2.544.493,4.711,4.711,0,0,1,2.05,1.608Z" transform="translate(-789.806 -320.634)" fill="#464749"/>
          <path id="Path_15400" data-name="Path 15400" d="M820.23,325.337h4.5V326.7h-4.5Z" transform="translate(-784.04 -316.821)" fill="#464749"/>
          <path id="Path_15401" data-name="Path 15401" d="M828.977,334.222h-1.543V322.866H827.4l-2.334,2.025-.918-1.153,3.491-2.915h1.34Z" transform="translate(-780.865 -320.482)" fill="#464749"/>
          <path id="Path_15402" data-name="Path 15402" d="M836.213,329.68h1.874v1.476h-1.874v3.066h-1.545v-3.066h-5.51V329.4l5.162-8.574h1.892Zm-1.545-7h-.034l-4.152,7h4.187Z" transform="translate(-776.801 -320.482)" fill="#464749"/>
          <path id="Path_15403" data-name="Path 15403" d="M842.764,322.3h-5.309l-.054,3.616a2.55,2.55,0,0,1,.817-.255,5.728,5.728,0,0,1,.855-.067,4.211,4.211,0,0,1,1.7.331,3.86,3.86,0,0,1,1.315.927,4.141,4.141,0,0,1,.846,1.4,5.068,5.068,0,0,1,.293,1.751,4.743,4.743,0,0,1-.34,1.825,4.074,4.074,0,0,1-.936,1.4,4.273,4.273,0,0,1-1.414.9,4.814,4.814,0,0,1-1.773.322,3.978,3.978,0,0,1-2.4-.663,4.6,4.6,0,0,1-1.443-1.778l1.543-.607a2.944,2.944,0,0,0,.965,1.22,2.406,2.406,0,0,0,1.46.464,2.738,2.738,0,0,0,1.094-.217,2.583,2.583,0,0,0,.882-.625,3.023,3.023,0,0,0,.6-.974A3.488,3.488,0,0,0,841.68,330a3.252,3.252,0,0,0-.246-1.307,2.733,2.733,0,0,0-.679-.954,2.929,2.929,0,0,0-1.021-.589,3.941,3.941,0,0,0-1.268-.2,4.223,4.223,0,0,0-1.358.235,6.308,6.308,0,0,0-1.287.6l.129-6.966h6.816Z" transform="translate(-772.13 -320.482)" fill="#464749"/>
          <path id="Path_15404" data-name="Path 15404" d="M854.8,334.374h-7.551a6.561,6.561,0,0,1-4.768-1.977,6.738,6.738,0,0,1-1.405-2.177,7.429,7.429,0,0,1,0-5.432,6.778,6.778,0,0,1,1.405-2.177,6.693,6.693,0,0,1,9.536,0,6.776,6.776,0,0,1,1.405,2.177,7.132,7.132,0,0,1,.514,2.716,6.68,6.68,0,0,1-.221,1.695,6.493,6.493,0,0,1-.634,1.57,5.931,5.931,0,0,1-.992,1.306,4.264,4.264,0,0,1-1.313.9v.038H854.8Zm-12.585-6.87a5.763,5.763,0,0,0,.386,2.12,5.382,5.382,0,0,0,1.057,1.711,4.891,4.891,0,0,0,7.182,0,5.376,5.376,0,0,0,1.056-1.711,5.729,5.729,0,0,0,.388-2.12,5.85,5.85,0,0,0-.377-2.1,5.305,5.305,0,0,0-1.048-1.713,4.969,4.969,0,0,0-1.588-1.153,4.992,4.992,0,0,0-4.042,0,4.976,4.976,0,0,0-1.59,1.153,5.3,5.3,0,0,0-1.047,1.713A5.812,5.812,0,0,0,842.214,327.5Z" transform="translate(-767.556 -320.634)" fill="#464749"/>
        </g>
        <g id="Group_5132" data-name="Group 5132" transform="translate(6739.844 16017.082)">
          <path id="Path_15405" data-name="Path 15405" d="M800.2,337.817h5a6.571,6.571,0,0,1,1.36.152,6.478,6.478,0,0,1,1.423.483,6.559,6.559,0,0,1,1.36.86,5.655,5.655,0,0,1,1.148,1.278,6.487,6.487,0,0,1,.79,1.722,8.433,8.433,0,0,1,0,4.409,6.486,6.486,0,0,1-.79,1.722,5.694,5.694,0,0,1-1.148,1.278,6.609,6.609,0,0,1-4.143,1.494h-5Zm1.545,11.924h2.939a6.849,6.849,0,0,0,2.075-.3,4.264,4.264,0,0,0,2.756-2.555,7.13,7.13,0,0,0,0-4.732,4.253,4.253,0,0,0-2.756-2.555,6.851,6.851,0,0,0-2.075-.3h-2.939Z" transform="translate(-800.203 -337.477)" fill="#464749"/>
          <path id="Path_15406" data-name="Path 15406" d="M814.437,340.336a2.288,2.288,0,0,0-1.03-.938,3.214,3.214,0,0,0-1.34-.293,3.879,3.879,0,0,0-1.01.134,2.925,2.925,0,0,0-.891.4,1.957,1.957,0,0,0-.634.7,2.088,2.088,0,0,0-.239,1.021,2.167,2.167,0,0,0,.138.8,1.708,1.708,0,0,0,.449.634,3.285,3.285,0,0,0,.846.531,11.016,11.016,0,0,0,1.306.493q.752.247,1.459.529a4.957,4.957,0,0,1,1.25.721,3.16,3.16,0,0,1,.864,1.088,4.228,4.228,0,0,1-.065,3.379,3.588,3.588,0,0,1-1.018,1.219,4.379,4.379,0,0,1-1.461.721,6.191,6.191,0,0,1-1.708.235,6.393,6.393,0,0,1-1.141-.1,5.278,5.278,0,0,1-1.094-.322,4.408,4.408,0,0,1-.981-.567,3.336,3.336,0,0,1-.789-.862l1.322-1.115a2.745,2.745,0,0,0,1.177,1.115,3.492,3.492,0,0,0,1.6.378,3.4,3.4,0,0,0,1-.152,2.953,2.953,0,0,0,.909-.444,2.362,2.362,0,0,0,.661-.73,1.922,1.922,0,0,0,.257-1,2.2,2.2,0,0,0-.2-1.012,1.845,1.845,0,0,0-.625-.672,4.725,4.725,0,0,0-1.067-.512c-.427-.152-.931-.328-1.506-.531a9.293,9.293,0,0,1-1.286-.52,3.914,3.914,0,0,1-1.018-.719,3.043,3.043,0,0,1-.681-1.023,3.714,3.714,0,0,1-.248-1.429,3.641,3.641,0,0,1,.368-1.684,3.479,3.479,0,0,1,.992-1.2,4.445,4.445,0,0,1,1.414-.73,5.5,5.5,0,0,1,1.653-.246,5.582,5.582,0,0,1,2.01.349A3.964,3.964,0,0,1,815.7,339.2Z" transform="translate(-794.412 -337.629)" fill="#464749"/>
          <path id="Path_15407" data-name="Path 15407" d="M822.942,340.733a3.741,3.741,0,0,0-1.451-1.22,4.2,4.2,0,0,0-1.8-.407,4.4,4.4,0,0,0-1.992.454,4.971,4.971,0,0,0-1.57,1.222,5.65,5.65,0,0,0-1.03,1.778,6.15,6.15,0,0,0-.368,2.11,6.383,6.383,0,0,0,.368,2.187,5.535,5.535,0,0,0,1.021,1.758,4.748,4.748,0,0,0,1.561,1.184,4.912,4.912,0,0,0,4.141-.047,4.854,4.854,0,0,0,1.637-1.393l1.157,1a5.4,5.4,0,0,1-2.122,1.78,6.659,6.659,0,0,1-2.8.567,6.429,6.429,0,0,1-4.71-2,6.8,6.8,0,0,1-1.4-2.224,8.091,8.091,0,0,1-.016-5.584,6.656,6.656,0,0,1,1.369-2.233,6.387,6.387,0,0,1,4.755-2.044,6.749,6.749,0,0,1,2.546.493,4.7,4.7,0,0,1,2.05,1.61Z" transform="translate(-789.765 -337.629)" fill="#464749"/>
          <path id="Path_15408" data-name="Path 15408" d="M820.189,342.333h4.5v1.362h-4.5Z" transform="translate(-783.999 -333.815)" fill="#464749"/>
          <path id="Path_15409" data-name="Path 15409" d="M828.936,351.217h-1.543V339.861h-.036l-2.334,2.026-.918-1.155,3.491-2.915h1.34Z" transform="translate(-780.824 -337.477)" fill="#464749"/>
          <path id="Path_15410" data-name="Path 15410" d="M837.186,339.293l-5.2,11.924h-1.746l5.291-11.924h-6.283v-1.476h7.937Z" transform="translate(-776.653 -337.477)" fill="#464749"/>
          <path id="Path_15411" data-name="Path 15411" d="M842.723,339.293h-5.309l-.054,3.616a2.549,2.549,0,0,1,.817-.255,5.733,5.733,0,0,1,.855-.067,4.21,4.21,0,0,1,1.7.331,3.861,3.861,0,0,1,1.315.927,4.16,4.16,0,0,1,.846,1.4,5.068,5.068,0,0,1,.293,1.751,4.743,4.743,0,0,1-.34,1.825,4.126,4.126,0,0,1-.936,1.4,4.3,4.3,0,0,1-1.414.9,4.813,4.813,0,0,1-1.773.322,3.978,3.978,0,0,1-2.4-.663A4.6,4.6,0,0,1,834.879,349l1.543-.607a2.934,2.934,0,0,0,.965,1.22,2.406,2.406,0,0,0,1.459.464,2.738,2.738,0,0,0,1.094-.217,2.582,2.582,0,0,0,.882-.625,3.024,3.024,0,0,0,.6-.974,3.481,3.481,0,0,0,.219-1.268,3.241,3.241,0,0,0-.246-1.306,2.723,2.723,0,0,0-.679-.956,2.9,2.9,0,0,0-1.021-.587,3.892,3.892,0,0,0-1.268-.2,4.225,4.225,0,0,0-1.358.237,6.21,6.21,0,0,0-1.288.6l.129-6.966h6.816Z" transform="translate(-772.089 -337.477)" fill="#464749"/>
          <path id="Path_15412" data-name="Path 15412" d="M854.758,351.369h-7.551a6.6,6.6,0,0,1-2.655-.529,6.526,6.526,0,0,1-2.113-1.449,6.735,6.735,0,0,1-1.405-2.177,7.43,7.43,0,0,1,0-5.432,6.773,6.773,0,0,1,1.405-2.177,6.522,6.522,0,0,1,2.113-1.447,6.907,6.907,0,0,1,5.309,0,6.522,6.522,0,0,1,2.113,1.447,6.776,6.776,0,0,1,1.405,2.177,7.133,7.133,0,0,1,.514,2.716,6.68,6.68,0,0,1-.221,1.695,6.5,6.5,0,0,1-.634,1.57,5.936,5.936,0,0,1-.992,1.306,4.264,4.264,0,0,1-1.313.9v.038h4.024Zm-12.585-6.87a5.767,5.767,0,0,0,.386,2.12,5.42,5.42,0,0,0,1.056,1.713,4.888,4.888,0,0,0,1.59,1.144,4.9,4.9,0,0,0,5.593-1.144,5.383,5.383,0,0,0,1.056-1.713,5.73,5.73,0,0,0,.388-2.12,5.856,5.856,0,0,0-.377-2.1,5.325,5.325,0,0,0-1.048-1.713,4.97,4.97,0,0,0-1.588-1.153,4.992,4.992,0,0,0-4.042,0,4.978,4.978,0,0,0-1.59,1.153,5.323,5.323,0,0,0-1.047,1.713A5.819,5.819,0,0,0,842.173,344.5Z" transform="translate(-767.515 -337.629)" fill="#464749"/>
        </g>
        <g id="Group_5133" data-name="Group 5133" transform="translate(6864.108 15986.857)">
          <path id="Path_15437" data-name="Path 15437" d="M869.27,324.439a3.518,3.518,0,0,1,.284-1.44,3.265,3.265,0,0,1,.78-1.1,3.614,3.614,0,0,1,1.177-.71,4.356,4.356,0,0,1,2.939,0,3.6,3.6,0,0,1,1.175.71,3.267,3.267,0,0,1,.782,1.1,3.545,3.545,0,0,1,.284,1.44,3.233,3.233,0,0,1-.57,1.816,3.111,3.111,0,0,1-.67.7,2.506,2.506,0,0,1-.891.435v.038a3.237,3.237,0,0,1,1.065.445,3.044,3.044,0,0,1,.808.766,3.531,3.531,0,0,1,.514,1.032,3.9,3.9,0,0,1,.185,1.2,4.02,4.02,0,0,1-.322,1.637,3.631,3.631,0,0,1-.88,1.24,3.785,3.785,0,0,1-1.322.775,5.1,5.1,0,0,1-3.252,0,3.745,3.745,0,0,1-1.324-.775,3.611,3.611,0,0,1-.882-1.24,4.02,4.02,0,0,1-.322-1.637,3.909,3.909,0,0,1,.185-1.2,3.534,3.534,0,0,1,.514-1.032,3.071,3.071,0,0,1,.808-.766,3.232,3.232,0,0,1,1.067-.445v-.038a2.493,2.493,0,0,1-.891-.435,3.07,3.07,0,0,1-.67-.7,3.127,3.127,0,0,1-.424-.871A3.17,3.17,0,0,1,869.27,324.439Zm1.1,6.32a2.84,2.84,0,0,0,.2,1.081,2.448,2.448,0,0,0,.561.84,2.656,2.656,0,0,0,.828.551,2.57,2.57,0,0,0,1.018.2,2.6,2.6,0,0,0,1.021-.2,2.715,2.715,0,0,0,.826-.551,2.47,2.47,0,0,0,.56-.84,2.973,2.973,0,0,0,0-2.159,2.5,2.5,0,0,0-.56-.842,2.678,2.678,0,0,0-.826-.549,2.569,2.569,0,0,0-1.021-.2,2.538,2.538,0,0,0-1.018.2,2.62,2.62,0,0,0-.828.549,2.473,2.473,0,0,0-.561.842A2.828,2.828,0,0,0,870.373,330.759Zm.44-6.244a2.208,2.208,0,0,0,.6,1.59,2.289,2.289,0,0,0,3.14,0,2.414,2.414,0,0,0,0-3.18,2.285,2.285,0,0,0-3.14,0A2.2,2.2,0,0,0,870.813,324.515Z" transform="translate(-868.828 -320.937)" fill="#464749"/>
          <path id="Path_15438" data-name="Path 15438" d="M875.846,327.271a1.049,1.049,0,0,1,.781.331,1.114,1.114,0,0,1,.32.8,1.083,1.083,0,0,1-.34.8,1.04,1.04,0,0,1-1.523,0,1.083,1.083,0,0,1-.34-.8,1.108,1.108,0,0,1,.322-.8A1.046,1.046,0,0,1,875.846,327.271Z" transform="translate(-864.032 -315.802)" fill="#464749"/>
          <path id="Path_15439" data-name="Path 15439" d="M877.147,327.863a15.935,15.935,0,0,1,.185-2.365,7.571,7.571,0,0,1,.679-2.244,4.657,4.657,0,0,1,1.351-1.666,4.023,4.023,0,0,1,4.391,0,4.652,4.652,0,0,1,1.349,1.666,7.633,7.633,0,0,1,.681,2.244,15.244,15.244,0,0,1,0,4.732,7.633,7.633,0,0,1-.681,2.244,4.631,4.631,0,0,1-1.349,1.664,4.014,4.014,0,0,1-4.391,0,4.635,4.635,0,0,1-1.351-1.664,7.571,7.571,0,0,1-.679-2.244A15.942,15.942,0,0,1,877.147,327.863Zm1.543,0c0,.33.013.7.038,1.1a11.891,11.891,0,0,0,.138,1.221,7.976,7.976,0,0,0,.293,1.2,3.923,3.923,0,0,0,.514,1.039,2.542,2.542,0,0,0,.782.73,2.343,2.343,0,0,0,2.2,0,2.536,2.536,0,0,0,.781-.73,3.923,3.923,0,0,0,.514-1.039,7.754,7.754,0,0,0,.293-1.2c.067-.411.114-.817.139-1.221s.036-.77.036-1.1-.013-.694-.036-1.1-.072-.809-.139-1.22a7.751,7.751,0,0,0-.293-1.2,3.925,3.925,0,0,0-.514-1.039,2.536,2.536,0,0,0-.781-.73,2.357,2.357,0,0,0-2.2,0,2.542,2.542,0,0,0-.782.73,3.925,3.925,0,0,0-.514,1.039,7.973,7.973,0,0,0-.293,1.2,11.892,11.892,0,0,0-.138,1.22Q878.69,327.372,878.69,327.863Z" transform="translate(-862.083 -320.937)" fill="#464749"/>
        </g>
        <g id="Group_5134" data-name="Group 5134" transform="translate(6864.108 16017.972)">
          <path id="Path_15440" data-name="Path 15440" d="M869.27,341.622a3.517,3.517,0,0,1,.284-1.44,3.283,3.283,0,0,1,.78-1.1,3.643,3.643,0,0,1,1.177-.71,4.357,4.357,0,0,1,2.939,0,3.633,3.633,0,0,1,1.175.71,3.285,3.285,0,0,1,.782,1.1,3.544,3.544,0,0,1,.284,1.44,3.233,3.233,0,0,1-.57,1.816,3.073,3.073,0,0,1-.67.7,2.507,2.507,0,0,1-.891.435v.038a3.237,3.237,0,0,1,1.065.445,3.045,3.045,0,0,1,.808.766,3.555,3.555,0,0,1,.514,1.032,3.9,3.9,0,0,1,.185,1.2,4.02,4.02,0,0,1-.322,1.637,3.63,3.63,0,0,1-.88,1.24,3.816,3.816,0,0,1-1.322.777,5.133,5.133,0,0,1-3.252,0,3.775,3.775,0,0,1-1.324-.777,3.61,3.61,0,0,1-.882-1.24,4.02,4.02,0,0,1-.322-1.637,3.909,3.909,0,0,1,.185-1.2,3.558,3.558,0,0,1,.514-1.032,3.072,3.072,0,0,1,.808-.766,3.232,3.232,0,0,1,1.067-.445v-.038a2.493,2.493,0,0,1-.891-.435,3.033,3.033,0,0,1-.67-.7,3.1,3.1,0,0,1-.424-.871A3.17,3.17,0,0,1,869.27,341.622Zm1.1,6.32a2.833,2.833,0,0,0,.2,1.081,2.472,2.472,0,0,0,.561.842,2.65,2.65,0,0,0,.828.549,2.57,2.57,0,0,0,1.018.2,2.6,2.6,0,0,0,1.021-.2,2.709,2.709,0,0,0,.826-.549,2.5,2.5,0,0,0,.56-.842,2.973,2.973,0,0,0,0-2.158,2.5,2.5,0,0,0-.56-.842,2.676,2.676,0,0,0-.826-.549,2.569,2.569,0,0,0-1.021-.2,2.538,2.538,0,0,0-1.018.2,2.618,2.618,0,0,0-.828.549,2.472,2.472,0,0,0-.561.842A2.827,2.827,0,0,0,870.373,347.942Zm.44-6.244a2.208,2.208,0,0,0,.6,1.59,2.29,2.29,0,0,0,3.14,0,2.414,2.414,0,0,0,0-3.18,2.285,2.285,0,0,0-3.14,0A2.2,2.2,0,0,0,870.813,341.7Z" transform="translate(-868.828 -338.12)" fill="#464749"/>
          <path id="Path_15441" data-name="Path 15441" d="M875.846,344.454a1.049,1.049,0,0,1,.781.331,1.114,1.114,0,0,1,.32.8,1.082,1.082,0,0,1-.34.8,1.04,1.04,0,0,1-1.523,0,1.082,1.082,0,0,1-.34-.8,1.108,1.108,0,0,1,.322-.8A1.046,1.046,0,0,1,875.846,344.454Z" transform="translate(-864.032 -332.985)" fill="#464749"/>
          <path id="Path_15442" data-name="Path 15442" d="M885.082,339.722h-5.307l-.056,3.614a2.564,2.564,0,0,1,.818-.255,5.994,5.994,0,0,1,.853-.067,4.2,4.2,0,0,1,1.7.333,3.838,3.838,0,0,1,1.313.925,4.128,4.128,0,0,1,.846,1.4,5.024,5.024,0,0,1,.293,1.751,4.741,4.741,0,0,1-.339,1.825,4.082,4.082,0,0,1-.938,1.4,4.22,4.22,0,0,1-1.414.9,4.814,4.814,0,0,1-1.773.322,3.984,3.984,0,0,1-2.4-.663,4.615,4.615,0,0,1-1.443-1.778l1.545-.607a2.931,2.931,0,0,0,.963,1.22,2.409,2.409,0,0,0,1.461.465,2.7,2.7,0,0,0,1.092-.219,2.571,2.571,0,0,0,.884-.625,3.052,3.052,0,0,0,.6-.974,3.481,3.481,0,0,0,.219-1.268,3.212,3.212,0,0,0-.248-1.306,2.742,2.742,0,0,0-.679-.956,2.88,2.88,0,0,0-1.021-.587,3.931,3.931,0,0,0-1.268-.2,4.225,4.225,0,0,0-1.358.237,6.4,6.4,0,0,0-1.287.6l.13-6.964h6.814Z" transform="translate(-862.01 -338.018)" fill="#464749"/>
        </g>
      </g>
    </g>
  </g>
</svg>
