<svg xmlns="http://www.w3.org/2000/svg" xmlns:xlink="http://www.w3.org/1999/xlink" width="364" height="256.283" viewBox="0 0 364 256.283">
  <defs>
    <filter id="Rectangle_1930" x="8" y="67" width="356" height="167" filterUnits="userSpaceOnUse">
      <feOffset dx="8" dy="5" input="SourceAlpha"/>
      <feGaussianBlur stdDeviation="4" result="blur"/>
      <feFlood flood-opacity="0.059"/>
      <feComposite operator="in" in2="blur"/>
      <feComposite in="SourceGraphic"/>
    </filter>
  </defs>
  <g id="Group_5186" data-name="Group 5186" transform="translate(-10 -202)">
    <g transform="matrix(1, 0, 0, 1, 10, 202)" filter="url(#Rectangle_1930)">
      <rect id="Rectangle_1930-2" data-name="Rectangle 1930" width="332" height="143" rx="8" transform="translate(12 74)" fill="#fff"/>
    </g>
    <g id="Group_5154" data-name="Group 5154" transform="translate(31.068)">
      <text id="FULL" transform="translate(114.932 235)" fill="#698736" font-size="20" font-family="Avenir-Roman, Avenir" letter-spacing="0.02em"><tspan x="-23.2" y="0">FULL</tspan></text>
      <g id="icon-full-diamond" transform="translate(153.414 203)">
        <path id="Path_2249" data-name="Path 2249" d="M626.815,82.5c0-8.922,15.056-16.153,33.625-16.153s33.623,7.231,33.623,16.153v-.729c0,4.879-6.584,9.2-6.584,9.2s-9.612,6.553-27.039,6.553S633.4,90.975,633.4,90.975s-6.584-4.32-6.584-9.2Z" transform="translate(-626.788 -56.255)" fill="none" stroke="#d1d2d3" stroke-miterlimit="10" stroke-width="2"/>
        <path id="Path_2250" data-name="Path 2250" d="M626.815,86.707c0-11.471,15.056-25.52,33.627-25.52s33.623,14.049,33.623,25.52c0,11.565-15.066,25.643-33.629,25.643S626.815,98.272,626.815,86.707Z" transform="translate(-626.788 -61.187)" fill="none" stroke="#d1d2d3" stroke-miterlimit="10" stroke-width="2"/>
        <path id="Path_2251" data-name="Path 2251" d="M626.807,79.14c0-5.368,15.062-9.721,33.637-9.721s33.635,4.353,33.635,9.721v-.757c0,4.51-6.371,6.508-6.371,6.508s-8.693,4.031-27.266,4.031-27.082-3.959-27.082-3.959-6.652-2.34-6.553-6.58Z" transform="translate(-626.797 -53.327)" fill="none" stroke="#d1d2d3" stroke-miterlimit="10" stroke-width="2"/>
        <path id="Path_2252" data-name="Path 2252" d="M626.8,85.46c0-13.561,15.068-21.585,33.662-21.585s33.658,8.355,33.658,21.585V84.8c0,2.872-.98,6.158-4.4,9.721,0,0-10.664,10.212-29.254,10.212s-28.869-9.925-28.869-9.925S626.8,90.349,626.8,84.8Z" transform="translate(-626.801 -58.62)" fill="none" stroke="#729849" stroke-miterlimit="10" stroke-width="2"/>
      </g>
    </g>
    <text id="A_Base_B_Projection_C_Arc_Length_V_Volume" data-name="A=Base   B=Projection   C=Arc Length   V=Volume" transform="translate(22 453.283)" fill="#333" font-size="14" font-family="Avenir-Roman, Avenir"><tspan x="0" y="0" xml:space="preserve">A=Base   B=Projection   C=Arc Length   V=Volume</tspan></text>
    <g id="Group_5106" data-name="Group 5106" transform="translate(-5852 -15355.5)">
      <path id="Rectangle_2414" data-name="Rectangle 2414" d="M9.579,0H344.218A9.579,9.579,0,0,1,353.8,9.579V135.646a9.58,9.58,0,0,1-9.58,9.58H9.58A9.58,9.58,0,0,1,0,135.646V9.579A9.579,9.579,0,0,1,9.579,0Z" transform="translate(5862.371 15629.5)" fill="#edeeef"/>
      <path id="Rectangle_2424" data-name="Rectangle 2424" d="M0,0H76.882a0,0,0,0,1,0,0V86.231a8,8,0,0,1-8,8H0a0,0,0,0,1,0,0V0A0,0,0,0,1,0,0Z" transform="translate(6139.141 15680.494)" fill="#51615e" stroke="#fff" stroke-miterlimit="10" stroke-width="0.5"/>
      <rect id="Rectangle_2425" data-name="Rectangle 2425" width="76.882" height="94.231" transform="translate(6062.259 15680.494)" fill="#51615e" stroke="#fff" stroke-miterlimit="10" stroke-width="0.5"/>
      <path id="Rectangle_2420" data-name="Rectangle 2420" d="M0,0H227.863a8,8,0,0,1,8,8V51.21a0,0,0,0,1,0,0H0a0,0,0,0,1,0,0V0A0,0,0,0,1,0,0Z" transform="translate(5980.161 15629.5)" fill="#e0e1e3"/>
      <path id="Path_17971" data-name="Path 17971" d="M559.635,329.206l-81.3-.168V235.406c0-.059.357-.106.795-.106l80.509.081a1.051,1.051,0,0,1,.795.308V329.1c0,.061-.355.107-.795.107" transform="translate(5501.829 15445.52)" fill="#e0e1e3"/>
      <path id="Path_18101" data-name="Path 18101" d="M505.152,227.6a8.182,8.182,0,0,1-1.183-2.322,8.088,8.088,0,0,1-.4-2.5,7.957,7.957,0,0,1,.416-2.571,8.322,8.322,0,0,1,1.168-2.246l.586.434a7.042,7.042,0,0,0-1.041,2.072,7.7,7.7,0,0,0-.349,2.31,8.1,8.1,0,0,0,.087,1.216,6.594,6.594,0,0,0,.262,1.089,7.167,7.167,0,0,0,.433,1.037c.174.34.375.695.608,1.063Z" transform="translate(5523.238 15430.813)" fill="#48484a"/>
      <path id="Path_18102" data-name="Path 18102" d="M509.059,220.844a1.72,1.72,0,0,0-.586-.473,1.654,1.654,0,0,0-.7-.146,1.833,1.833,0,0,0-.749.146,1.426,1.426,0,0,0-.536.408,1.807,1.807,0,0,0-.322.6,2.417,2.417,0,0,0-.107.732,2.131,2.131,0,0,0,.124.734,1.952,1.952,0,0,0,.347.6,1.569,1.569,0,0,0,.536.407,1.658,1.658,0,0,0,.706.148,1.5,1.5,0,0,0,1.29-.63l.63.6a2.222,2.222,0,0,1-.867.619,3.012,3.012,0,0,1-2.127,0,2.339,2.339,0,0,1-.83-.555,2.521,2.521,0,0,1-.53-.847,3.065,3.065,0,0,1,0-2.137,2.5,2.5,0,0,1,.536-.847,2.469,2.469,0,0,1,.83-.558,2.771,2.771,0,0,1,1.068-.2,2.947,2.947,0,0,1,1.068.2,2.349,2.349,0,0,1,.885.608Z" transform="translate(5524.582 15432.067)" fill="#48484a"/>
      <path id="Path_18103" data-name="Path 18103" d="M508.161,220.779c0-.233-.007-.449-.022-.652s-.022-.386-.022-.553h.8c0,.137,0,.275.013.412s.009.279.009.423h.022a1.433,1.433,0,0,1,.244-.359,1.816,1.816,0,0,1,.373-.309,2.009,2.009,0,0,1,.49-.218,2.037,2.037,0,0,1,.584-.081,1.992,1.992,0,0,1,.689.1,1.685,1.685,0,0,1,.46.25,1.309,1.309,0,0,1,.29.314q.1.169.166.3a2.314,2.314,0,0,1,.651-.71,1.635,1.635,0,0,1,.956-.257,2.469,2.469,0,0,1,.911.148,1.446,1.446,0,0,1,.6.423,1.662,1.662,0,0,1,.325.671,3.731,3.731,0,0,1,.1.885v3.081h-.846v-3.039a2.358,2.358,0,0,0-.054-.51,1.187,1.187,0,0,0-.194-.444,1.011,1.011,0,0,0-.379-.314,1.37,1.37,0,0,0-.608-.12,1.221,1.221,0,0,0-.51.109,1.257,1.257,0,0,0-.418.3,1.431,1.431,0,0,0-.283.471,1.76,1.76,0,0,0-.1.614v2.93h-.846v-2.874a2.3,2.3,0,0,0-.229-1.2.824.824,0,0,0-.749-.353,1.69,1.69,0,0,0-.712.14,1.244,1.244,0,0,0-.486.4,1.791,1.791,0,0,0-.283.617,3.193,3.193,0,0,0-.091.791v2.475h-.847Z" transform="translate(5527.097 15432.067)" fill="#48484a"/>
      <path id="Path_18104" data-name="Path 18104" d="M513.428,217.964a8.274,8.274,0,0,1,1.183,2.322,8.158,8.158,0,0,1,.4,2.5,7.94,7.94,0,0,1-.418,2.571,8.231,8.231,0,0,1-1.166,2.246l-.586-.434a7,7,0,0,0,1.041-2.072,7.74,7.74,0,0,0,.349-2.31,7.829,7.829,0,0,0-.089-1.214,6.653,6.653,0,0,0-.261-1.09,7.045,7.045,0,0,0-.433-1.035q-.261-.51-.608-1.063Z" transform="translate(5531.105 15430.813)" fill="#48484a"/>
      <path id="Path_18091" data-name="Path 18091" d="M494.75,227.759l1.436-.011,2.436,6.342-1.451.017-.5-1.416-2.379.022-.488,1.423-1.419.011Zm-.1,3.906,1.649-.013-.824-2.331h-.019Z" transform="translate(5513.755 15439.112)" fill="#48484a"/>
      <path id="Path_18095" data-name="Path 18095" d="M498.975,213.64a11.3,11.3,0,1,1-11.2,11.4A11.3,11.3,0,0,1,498.975,213.64Z" transform="translate(5509.842 15427.144)" fill="none" stroke="#48484a" stroke-width="0.431"/>
      <line id="Line_2276" data-name="Line 2276" y1="0.07" x2="7.497" transform="translate(5997.324 15669.447)" fill="none" stroke="#48484a" stroke-width="0.431"/>
      <line id="Line_2272" data-name="Line 2272" x1="2.989" y2="3.042" transform="translate(5995.829 15667.994)" fill="none" stroke="#48484a" stroke-width="0.431"/>
      <line id="Line_2277" data-name="Line 2277" y1="0.061" x2="6.552" transform="translate(6013.31 15669.306)" fill="none" stroke="#48484a" stroke-width="0.431"/>
      <line id="Line_2273" data-name="Line 2273" x1="2.989" y2="3.042" transform="translate(6018.188 15667.79)" fill="none" stroke="#48484a" stroke-width="0.431"/>
      <path id="Path_18158" data-name="Path 18158" d="M587.783,227.583a8.263,8.263,0,0,1-1.584-4.817,7.9,7.9,0,0,1,.418-2.571,8.266,8.266,0,0,1,1.166-2.246l.586.434a7.018,7.018,0,0,0-1.041,2.072,7.7,7.7,0,0,0-.349,2.31,8.051,8.051,0,0,0,.087,1.214,6.554,6.554,0,0,0,.262,1.09,7.166,7.166,0,0,0,.432,1.037c.174.34.375.695.608,1.063Z" transform="translate(5593.338 15430.8)" fill="#48484a"/>
      <path id="Path_18164" data-name="Path 18164" d="M591.688,220.829a1.7,1.7,0,0,0-.584-.473,1.626,1.626,0,0,0-.7-.146,1.8,1.8,0,0,0-.748.146,1.442,1.442,0,0,0-.536.407,1.831,1.831,0,0,0-.322.6,2.407,2.407,0,0,0-.109.732,2.132,2.132,0,0,0,.126.734,1.954,1.954,0,0,0,.347.6,1.569,1.569,0,0,0,.536.407,1.653,1.653,0,0,0,.706.148,1.5,1.5,0,0,0,1.29-.63l.63.6a2.233,2.233,0,0,1-.869.619,3.007,3.007,0,0,1-2.126,0,2.34,2.34,0,0,1-.83-.554,2.539,2.539,0,0,1-.531-.847,3.065,3.065,0,0,1,0-2.137,2.493,2.493,0,0,1,.536-.847,2.441,2.441,0,0,1,.83-.558,2.737,2.737,0,0,1,1.068-.2,2.908,2.908,0,0,1,1.068.2,2.348,2.348,0,0,1,.885.608Z" transform="translate(5594.682 15432.054)" fill="#48484a"/>
      <path id="Path_18170" data-name="Path 18170" d="M594.519,220.829a1.72,1.72,0,0,0-.586-.473,1.626,1.626,0,0,0-.695-.146,1.8,1.8,0,0,0-.749.146,1.44,1.44,0,0,0-.536.407,1.832,1.832,0,0,0-.322.6,2.407,2.407,0,0,0-.109.732,2.133,2.133,0,0,0,.126.734,1.953,1.953,0,0,0,.348.6,1.57,1.57,0,0,0,.536.407,1.659,1.659,0,0,0,.706.148,1.5,1.5,0,0,0,1.29-.63l.63.6a2.241,2.241,0,0,1-.867.619,3.012,3.012,0,0,1-2.128,0,2.339,2.339,0,0,1-.83-.554,2.543,2.543,0,0,1-.531-.847,3.066,3.066,0,0,1,0-2.137,2.5,2.5,0,0,1,.536-.847,2.442,2.442,0,0,1,.83-.558,2.737,2.737,0,0,1,1.068-.2,2.908,2.908,0,0,1,1.068.2,2.348,2.348,0,0,1,.885.608Z" transform="translate(5597.082 15432.054)" fill="#48484a"/>
      <path id="Path_18171" data-name="Path 18171" d="M593.887,217.949a8.262,8.262,0,0,1,1.584,4.817,7.942,7.942,0,0,1-.418,2.571,8.233,8.233,0,0,1-1.166,2.246l-.586-.434a7,7,0,0,0,1.041-2.072,7.991,7.991,0,0,0,.261-3.525,6.62,6.62,0,0,0-.261-1.091,7.054,7.054,0,0,0-.433-1.035q-.261-.51-.608-1.065Z" transform="translate(5599.363 15430.8)" fill="#48484a"/>
      <path id="Path_18142" data-name="Path 18142" d="M582.38,235.436l-6.691-19.256h1.841l5.817,17.007,5.808-17.007h1.789l-6.667,19.256Z" transform="translate(5584.422 15429.299)" fill="#48484a"/>
      <path id="Path_18105" data-name="Path 18105" d="M543.759,227.255a8.277,8.277,0,0,1-1.582-4.817,7.949,7.949,0,0,1,.416-2.571,8.366,8.366,0,0,1,1.166-2.246l.588.434a7.023,7.023,0,0,0-1.043,2.072,7.7,7.7,0,0,0-.347,2.31,7.819,7.819,0,0,0,.087,1.214,6.749,6.749,0,0,0,.261,1.091,7.6,7.6,0,0,0,.433,1.037q.261.51.61,1.063Z" transform="translate(5555.992 15430.521)" fill="#48484a"/>
      <path id="Path_18106" data-name="Path 18106" d="M547.667,220.5a1.731,1.731,0,0,0-.584-.471,1.637,1.637,0,0,0-.695-.146,1.811,1.811,0,0,0-.75.146,1.439,1.439,0,0,0-.536.407,1.847,1.847,0,0,0-.322.6,2.409,2.409,0,0,0-.107.732,2.113,2.113,0,0,0,.124.732,1.947,1.947,0,0,0,.349.6,1.57,1.57,0,0,0,.536.407,1.646,1.646,0,0,0,.706.146,1.5,1.5,0,0,0,1.29-.628l.63.6a2.21,2.21,0,0,1-.869.617,2.98,2.98,0,0,1-2.126,0,2.318,2.318,0,0,1-.832-.553,2.57,2.57,0,0,1-.53-.847,2.959,2.959,0,0,1-.19-1.074,2.921,2.921,0,0,1,.19-1.063,2.524,2.524,0,0,1,.536-.847,2.45,2.45,0,0,1,.832-.558,2.73,2.73,0,0,1,1.068-.2,2.915,2.915,0,0,1,1.068.2,2.321,2.321,0,0,1,.883.608Z" transform="translate(5557.336 15431.775)" fill="#48484a"/>
      <path id="Path_18107" data-name="Path 18107" d="M546.769,220.434c0-.231-.008-.447-.022-.651s-.02-.386-.02-.555h.8c0,.139,0,.275.013.414s.011.277.011.423h.022a1.435,1.435,0,0,1,.242-.359,1.725,1.725,0,0,1,.375-.309,1.958,1.958,0,0,1,.488-.218,2.049,2.049,0,0,1,.586-.081,2.006,2.006,0,0,1,.689.1,1.7,1.7,0,0,1,.46.25,1.268,1.268,0,0,1,.288.314c.068.113.124.213.168.3a2.337,2.337,0,0,1,.649-.712,1.648,1.648,0,0,1,.956-.255,2.51,2.51,0,0,1,.911.146,1.463,1.463,0,0,1,.6.423,1.669,1.669,0,0,1,.325.673,3.726,3.726,0,0,1,.1.885v3.081h-.847V221.27a2.452,2.452,0,0,0-.054-.51,1.2,1.2,0,0,0-.2-.445,1.029,1.029,0,0,0-.379-.314,1.366,1.366,0,0,0-.608-.118,1.207,1.207,0,0,0-.508.109,1.239,1.239,0,0,0-.42.3,1.391,1.391,0,0,0-.281.471,1.714,1.714,0,0,0-.1.614v2.93h-.846v-2.876a2.335,2.335,0,0,0-.227-1.2.825.825,0,0,0-.749-.351,1.651,1.651,0,0,0-.712.14,1.262,1.262,0,0,0-.488.4,1.812,1.812,0,0,0-.281.619,3.194,3.194,0,0,0-.093.791v2.475h-.846Z" transform="translate(5559.852 15431.775)" fill="#48484a"/>
      <path id="Path_18108" data-name="Path 18108" d="M552.038,217.621a8.278,8.278,0,0,1,1.582,4.817,7.9,7.9,0,0,1-.418,2.571,8.31,8.31,0,0,1-1.164,2.246l-.588-.434a7.028,7.028,0,0,0,1.042-2.072,7.75,7.75,0,0,0,.348-2.31,7.585,7.585,0,0,0-.089-1.214,6.753,6.753,0,0,0-.259-1.091,7.387,7.387,0,0,0-.434-1.037c-.172-.34-.377-.693-.608-1.063Z" transform="translate(5563.858 15430.521)" fill="#48484a"/>
      <path id="Path_18092" data-name="Path 18092" d="M535.916,226.926l3.007-.03c1.216-.013,2.039.375,2.05,1.564a1.4,1.4,0,0,1-.854,1.338,1.564,1.564,0,0,1,1.189,1.61c.009,1.294-1.087,1.859-2.238,1.869l-3.094.026Zm1.431,2.567,1.42-.013c.492,0,.856-.231.856-.769-.013-.608-.477-.728-.976-.723l-1.314.013Zm.024,2.708,1.5-.011c.554-.006,1.033-.189,1.029-.852s-.416-.908-1.018-.9l-1.529.015Z" transform="translate(5550.68 15438.389)" fill="#48484a"/>
      <path id="Path_18109" data-name="Path 18109" d="M540.245,212.712a1.513,1.513,0,0,0-.675-.3,2,2,0,0,0-.752.3,15.34,15.34,0,0,0,0,22.441,1.2,1.2,0,0,0,.752.331.931.931,0,0,0,.675-.311,15.548,15.548,0,0,0,4.911-11.253A15.39,15.39,0,0,0,540.245,212.712Z" transform="translate(5549.003 15426.104)" fill="none" stroke="#48484a" stroke-width="0.431"/>
      <line id="Line_2278" data-name="Line 2278" x1="2.994" y2="3.052" transform="translate(6080.009 15666.419)" fill="none" stroke="#48484a" stroke-width="0.359"/>
      <line id="Line_2279" data-name="Line 2279" y1="0.028" x2="3.203" transform="translate(6092.676 15667.749)" fill="none" stroke="#48484a" stroke-width="0.359"/>
      <line id="Line_2280" data-name="Line 2280" y1="0.028" x2="3.201" transform="translate(6081.631 15667.749)" fill="none" stroke="#48484a" stroke-width="0.359"/>
      <line id="Line_2281" data-name="Line 2281" x1="2.998" y2="3.05" transform="translate(6094.302 15666.213)" fill="none" stroke="#48484a" stroke-width="0.359"/>
      <path id="Path_18110" data-name="Path 18110" d="M433.322,220.509a3.233,3.233,0,0,0-1.259-1.028,3.692,3.692,0,0,0-1.56-.342,3.905,3.905,0,0,0-1.73.383,4.339,4.339,0,0,0-1.362,1.028,4.76,4.76,0,0,0-.893,1.5,5.035,5.035,0,0,0-.318,1.776,5.207,5.207,0,0,0,.318,1.841,4.642,4.642,0,0,0,.885,1.481,4.183,4.183,0,0,0,1.353,1,4.378,4.378,0,0,0,3.6-.041,4.188,4.188,0,0,0,1.416-1.172l1,.845a4.616,4.616,0,0,1-1.839,1.5,5.9,5.9,0,0,1-2.429.479,5.7,5.7,0,0,1-2.264-.447,5.512,5.512,0,0,1-1.822-1.235A5.654,5.654,0,0,1,425.2,226.2a6.628,6.628,0,0,1-.015-4.7,5.6,5.6,0,0,1,5.314-3.6,5.98,5.98,0,0,1,2.205.414,4.056,4.056,0,0,1,1.778,1.353Z" transform="translate(5456.386 15430.755)" fill="#464749"/>
      <path id="Path_18111" data-name="Path 18111" d="M431.168,221.165a3.512,3.512,0,0,1,1.362-.869,4.765,4.765,0,0,1,1.6-.279,3.156,3.156,0,0,1,2.39.782,3.36,3.36,0,0,1,.732,2.373v3.2c0,.213.011.432.033.662s.046.436.079.628h-1.2a2.625,2.625,0,0,1-.072-.566c-.006-.207-.007-.39-.007-.551h-.031a2.9,2.9,0,0,1-.981.941,2.814,2.814,0,0,1-1.473.366,3.952,3.952,0,0,1-1.076-.142,2.718,2.718,0,0,1-.876-.423,2.078,2.078,0,0,1-.6-.693,1.994,1.994,0,0,1-.224-.956,2.076,2.076,0,0,1,.479-1.451,2.9,2.9,0,0,1,1.187-.78,5.846,5.846,0,0,1,1.53-.318q.821-.064,1.5-.063h.479V222.8a1.525,1.525,0,0,0-.484-1.225,2.039,2.039,0,0,0-1.364-.414,3.627,3.627,0,0,0-1.187.2,2.819,2.819,0,0,0-1.028.612Zm3.6,2.915a4.451,4.451,0,0,0-1.895.335,1.138,1.138,0,0,0-.7,1.1,1.084,1.084,0,0,0,.471,1,2.171,2.171,0,0,0,1.172.3,2.281,2.281,0,0,0,.946-.185,1.974,1.974,0,0,0,.678-.486,2.063,2.063,0,0,0,.412-.708,2.893,2.893,0,0,0,.161-.869v-.479Z" transform="translate(5461.534 15432.554)" fill="#464749"/>
      <path id="Path_18112" data-name="Path 18112" d="M440.074,222.146h-2.2v3.728q0,.366.017.677a1.38,1.38,0,0,0,.126.542.86.86,0,0,0,.336.368,1.25,1.25,0,0,0,.638.135,2.56,2.56,0,0,0,.556-.065,2.294,2.294,0,0,0,.542-.19l.048,1.131a2.8,2.8,0,0,1-.708.207,4.63,4.63,0,0,1-.741.063,2.706,2.706,0,0,1-1.068-.174,1.481,1.481,0,0,1-.623-.5,1.875,1.875,0,0,1-.294-.789,7.139,7.139,0,0,1-.072-1.042v-4.094h-1.625v-1.052h1.625v-2.12h1.244v2.12h2.2Z" transform="translate(5465.073 15431.669)" fill="#464749"/>
      <path id="Path_18113" data-name="Path 18113" d="M438.676,221.165a3.513,3.513,0,0,1,1.362-.869,4.747,4.747,0,0,1,1.6-.279,3.15,3.15,0,0,1,2.39.782,3.352,3.352,0,0,1,.734,2.373v3.2c0,.213.011.432.031.662s.048.436.079.628H443.68a2.626,2.626,0,0,1-.072-.566c-.006-.207-.007-.39-.007-.551h-.033a2.882,2.882,0,0,1-.98.941,2.819,2.819,0,0,1-1.473.366,3.951,3.951,0,0,1-1.076-.142,2.7,2.7,0,0,1-.876-.423,2.082,2.082,0,0,1-.6-.693,1.992,1.992,0,0,1-.222-.956,2.076,2.076,0,0,1,.479-1.451,2.9,2.9,0,0,1,1.187-.78,5.845,5.845,0,0,1,1.53-.318q.821-.064,1.5-.063h.479V222.8a1.52,1.52,0,0,0-.486-1.225,2.034,2.034,0,0,0-1.362-.414,3.637,3.637,0,0,0-1.188.2,2.825,2.825,0,0,0-1.026.612Zm3.6,2.915a4.45,4.45,0,0,0-1.895.335,1.138,1.138,0,0,0-.7,1.1,1.084,1.084,0,0,0,.471,1,2.17,2.17,0,0,0,1.172.3,2.281,2.281,0,0,0,.946-.185,1.949,1.949,0,0,0,.676-.486,2.067,2.067,0,0,0,.414-.708,2.9,2.9,0,0,0,.161-.869v-.479Z" transform="translate(5467.903 15432.554)" fill="#464749"/>
      <path id="Path_18114" data-name="Path 18114" d="M443.109,217.638h1.244v12.046h-1.244Z" transform="translate(5471.948 15430.536)" fill="#464749"/>
      <path id="Path_18115" data-name="Path 18115" d="M444.884,223.937a4.076,4.076,0,0,1,.3-1.6,3.744,3.744,0,0,1,.83-1.235,3.676,3.676,0,0,1,1.257-.8,4.573,4.573,0,0,1,3.187,0,3.692,3.692,0,0,1,1.261.8,3.826,3.826,0,0,1,.828,1.235,4.344,4.344,0,0,1,0,3.188,3.827,3.827,0,0,1-.828,1.235,3.665,3.665,0,0,1-1.261.8,4.573,4.573,0,0,1-3.187,0,3.648,3.648,0,0,1-1.257-.8,3.744,3.744,0,0,1-.83-1.235A4.067,4.067,0,0,1,444.884,223.937Zm1.338,0a3.12,3.12,0,0,0,.185,1.09,2.5,2.5,0,0,0,.534.876,2.527,2.527,0,0,0,.835.59,2.858,2.858,0,0,0,2.181,0,2.562,2.562,0,0,0,.839-.59,2.609,2.609,0,0,0,.534-.876,3.379,3.379,0,0,0,0-2.183,2.61,2.61,0,0,0-.534-.876,2.562,2.562,0,0,0-.839-.59,2.881,2.881,0,0,0-2.181,0,2.526,2.526,0,0,0-.835.59,2.5,2.5,0,0,0-.534.876A3.123,3.123,0,0,0,446.222,223.937Z" transform="translate(5473.453 15432.554)" fill="#464749"/>
      <path id="Path_18096" data-name="Path 18096" d="M457.876,227.331a4.229,4.229,0,0,1-1.044,3.1,4.044,4.044,0,0,1-3.018,1.061,5.8,5.8,0,0,1-1.983-.32,4.694,4.694,0,0,1-1.682-1.1l.893-1.02a4.248,4.248,0,0,0,1.251.963,3.38,3.38,0,0,0,1.521.327,3.33,3.33,0,0,0,1.377-.248,2.172,2.172,0,0,0,.869-.669,2.543,2.543,0,0,0,.445-.963,4.922,4.922,0,0,0,.128-1.131v-.956H456.6a2.68,2.68,0,0,1-1.163,1.05,3.434,3.434,0,0,1-1.466.336,4.354,4.354,0,0,1-1.61-.288,3.741,3.741,0,0,1-1.259-.8,3.508,3.508,0,0,1-.811-1.211,3.978,3.978,0,0,1-.288-1.529,4.447,4.447,0,0,1,.288-1.641,3.406,3.406,0,0,1,.8-1.235,3.489,3.489,0,0,1,1.249-.773,4.657,4.657,0,0,1,1.627-.272,3.388,3.388,0,0,1,.765.089,3.116,3.116,0,0,1,.739.27,2.664,2.664,0,0,1,.647.462,2.6,2.6,0,0,1,.477.645h.031v-1.274h1.244Zm-6.534-3.394a2.644,2.644,0,0,0,1.61,2.469,2.561,2.561,0,0,0,1.02.207,2.716,2.716,0,0,0,1.131-.224,2.51,2.51,0,0,0,1.355-1.458,3.006,3.006,0,0,0,.174-1.026,3.072,3.072,0,0,0-.19-1.107,2.607,2.607,0,0,0-.542-.871,2.38,2.38,0,0,0-.845-.564,2.86,2.86,0,0,0-1.083-.2,2.613,2.613,0,0,0-1.076.214,2.442,2.442,0,0,0-.828.59,2.7,2.7,0,0,0-.534.876A3.042,3.042,0,0,0,451.342,223.937Z" transform="translate(5477.797 15432.554)" fill="#464749"/>
      <path id="Path_18116" data-name="Path 18116" d="M462.005,225.808c0,.34.011.658.031.956s.031.569.031.813h-1.179c0-.2,0-.4-.015-.606s-.017-.408-.017-.621h-.031a2.174,2.174,0,0,1-.359.525,2.526,2.526,0,0,1-.551.455,2.878,2.878,0,0,1-.717.318,2.91,2.91,0,0,1-.859.12,3.286,3.286,0,0,1-1.266-.222,2.354,2.354,0,0,1-.884-.623,2.507,2.507,0,0,1-.519-.963,4.362,4.362,0,0,1-.168-1.235v-4.6h1.244V224.6a2.372,2.372,0,0,0,.414,1.481,1.52,1.52,0,0,0,1.29.543,2.413,2.413,0,0,0,1.044-.209,1.843,1.843,0,0,0,.717-.588,2.635,2.635,0,0,0,.414-.909,4.648,4.648,0,0,0,.135-1.163v-3.632h1.244Z" transform="translate(5482.462 15432.642)" fill="#464749"/>
      <path id="Path_18117" data-name="Path 18117" d="M467.154,226.311a3.8,3.8,0,0,1-1.466,1.2,4.664,4.664,0,0,1-1.848.342,3.862,3.862,0,0,1-1.579-.311,3.577,3.577,0,0,1-1.187-.835,3.652,3.652,0,0,1-.747-1.244,4.349,4.349,0,0,1-.264-1.529,4.291,4.291,0,0,1,.286-1.586,3.7,3.7,0,0,1,.8-1.244,3.569,3.569,0,0,1,1.211-.8,4.012,4.012,0,0,1,1.529-.286,3.841,3.841,0,0,1,1.436.262,3.11,3.11,0,0,1,1.122.765,3.419,3.419,0,0,1,.726,1.227,5.007,5.007,0,0,1,.253,1.649v.4H461.4a2.59,2.59,0,0,0,.231.915,2.647,2.647,0,0,0,.518.765,2.39,2.39,0,0,0,.749.518,2.29,2.29,0,0,0,.941.192,2.955,2.955,0,0,0,1.37-.288,3.088,3.088,0,0,0,1-.845Zm-1.066-3.044a2.144,2.144,0,0,0-.623-1.529,2.229,2.229,0,0,0-1.625-.573,2.3,2.3,0,0,0-2.438,2.1Z" transform="translate(5486.331 15432.554)" fill="#464749"/>
      <path id="Path_18118" data-name="Path 18118" d="M468.669,225.939h-1.562v-1.052h1.721l.318-2.421h-1.56v-1.052H469.3l.479-3.362h1.066l-.477,3.362h2.007l.477-3.362h1.068l-.477,3.362h1.56v1.052h-1.7l-.335,2.421h1.562v1.052h-1.721l-.479,3.394h-1.066l.479-3.394h-2.009l-.477,3.394H468.19Zm3.567-3.473h-2.007l-.333,2.421H471.9Z" transform="translate(5492.306 15430.887)" fill="#464749"/>
      <line id="Line_2268" data-name="Line 2268" x1="109.692" transform="translate(5900.997 15681.145)" fill="#e0e1e3"/>
      <line id="Line_2257" data-name="Line 2257" x1="351.798" transform="translate(5863.37 15744.261)" fill="none" stroke="#fff" stroke-miterlimit="10" stroke-width="0.463"/>
      <line id="Line_2269" data-name="Line 2269" x2="354.884" transform="translate(5862 15680.71)" fill="none" stroke="#fff" stroke-miterlimit="10" stroke-width="0.463"/>
      <path id="Path_18121" data-name="Path 18121" d="M505.152,227.6a8.182,8.182,0,0,1-1.183-2.322,8.088,8.088,0,0,1-.4-2.5,7.957,7.957,0,0,1,.416-2.571,8.322,8.322,0,0,1,1.168-2.246l.586.434a7.042,7.042,0,0,0-1.041,2.072,7.7,7.7,0,0,0-.349,2.31,8.1,8.1,0,0,0,.087,1.216,6.594,6.594,0,0,0,.262,1.089,7.167,7.167,0,0,0,.433,1.037c.174.34.375.695.608,1.063Z" transform="translate(5523.238 15430.813)" fill="none"/>
      <path id="Path_18122" data-name="Path 18122" d="M509.059,220.844a1.72,1.72,0,0,0-.586-.473,1.654,1.654,0,0,0-.7-.146,1.833,1.833,0,0,0-.749.146,1.426,1.426,0,0,0-.536.408,1.807,1.807,0,0,0-.322.6,2.417,2.417,0,0,0-.107.732,2.131,2.131,0,0,0,.124.734,1.952,1.952,0,0,0,.347.6,1.569,1.569,0,0,0,.536.407,1.658,1.658,0,0,0,.706.148,1.5,1.5,0,0,0,1.29-.63l.63.6a2.222,2.222,0,0,1-.867.619,3.012,3.012,0,0,1-2.127,0,2.339,2.339,0,0,1-.83-.555,2.521,2.521,0,0,1-.53-.847,3.065,3.065,0,0,1,0-2.137,2.5,2.5,0,0,1,.536-.847,2.469,2.469,0,0,1,.83-.558,2.771,2.771,0,0,1,1.068-.2,2.947,2.947,0,0,1,1.068.2,2.349,2.349,0,0,1,.885.608Z" transform="translate(5524.582 15432.067)" fill="none"/>
      <path id="Path_18123" data-name="Path 18123" d="M508.161,220.779c0-.233-.007-.449-.022-.652s-.022-.386-.022-.553h.8c0,.137,0,.275.013.412s.009.279.009.423h.022a1.433,1.433,0,0,1,.244-.359,1.816,1.816,0,0,1,.373-.309,2.009,2.009,0,0,1,.49-.218,2.037,2.037,0,0,1,.584-.081,1.992,1.992,0,0,1,.689.1,1.685,1.685,0,0,1,.46.25,1.309,1.309,0,0,1,.29.314q.1.169.166.3a2.314,2.314,0,0,1,.651-.71,1.635,1.635,0,0,1,.956-.257,2.469,2.469,0,0,1,.911.148,1.446,1.446,0,0,1,.6.423,1.662,1.662,0,0,1,.325.671,3.731,3.731,0,0,1,.1.885v3.081h-.846v-3.039a2.358,2.358,0,0,0-.054-.51,1.187,1.187,0,0,0-.194-.444,1.011,1.011,0,0,0-.379-.314,1.37,1.37,0,0,0-.608-.12,1.221,1.221,0,0,0-.51.109,1.257,1.257,0,0,0-.418.3,1.431,1.431,0,0,0-.283.471,1.76,1.76,0,0,0-.1.614v2.93h-.846v-2.874a2.3,2.3,0,0,0-.229-1.2.824.824,0,0,0-.749-.353,1.69,1.69,0,0,0-.712.14,1.244,1.244,0,0,0-.486.4,1.791,1.791,0,0,0-.283.617,3.193,3.193,0,0,0-.091.791v2.475h-.847Z" transform="translate(5527.097 15432.067)" fill="none"/>
      <path id="Path_18124" data-name="Path 18124" d="M513.428,217.964a8.274,8.274,0,0,1,1.183,2.322,8.158,8.158,0,0,1,.4,2.5,7.94,7.94,0,0,1-.418,2.571,8.231,8.231,0,0,1-1.166,2.246l-.586-.434a7,7,0,0,0,1.041-2.072,7.74,7.74,0,0,0,.349-2.31,7.829,7.829,0,0,0-.089-1.214,6.653,6.653,0,0,0-.261-1.09,7.045,7.045,0,0,0-.433-1.035q-.261-.51-.608-1.063Z" transform="translate(5531.105 15430.813)" fill="none"/>
      <path id="Path_18093" data-name="Path 18093" d="M494.75,227.759l1.436-.011,2.436,6.342-1.451.017-.5-1.416-2.379.022-.488,1.423-1.419.011Zm-.1,3.906,1.649-.013-.824-2.331h-.019Z" transform="translate(5513.755 15439.112)" fill="none"/>
      <path id="Path_18097" data-name="Path 18097" d="M498.975,213.64a11.3,11.3,0,1,1-11.2,11.4A11.3,11.3,0,0,1,498.975,213.64Z" transform="translate(5509.842 15427.144)" fill="none" stroke="#48484a" stroke-width="0.431"/>
      <line id="Line_2282" data-name="Line 2282" y1="0.07" x2="7.497" transform="translate(5997.324 15669.447)" fill="none" stroke="#48484a" stroke-width="0.431"/>
      <line id="Line_2274" data-name="Line 2274" x1="2.989" y2="3.042" transform="translate(5995.829 15667.994)" fill="none" stroke="#48484a" stroke-width="0.431"/>
      <line id="Line_2283" data-name="Line 2283" y1="0.061" x2="6.552" transform="translate(6013.31 15669.306)" fill="none" stroke="#48484a" stroke-width="0.431"/>
      <line id="Line_2275" data-name="Line 2275" x1="2.989" y2="3.042" transform="translate(6018.188 15667.79)" fill="none" stroke="#48484a" stroke-width="0.431"/>
      <path id="Path_18160" data-name="Path 18160" d="M587.783,227.583a8.263,8.263,0,0,1-1.584-4.817,7.9,7.9,0,0,1,.418-2.571,8.266,8.266,0,0,1,1.166-2.246l.586.434a7.018,7.018,0,0,0-1.041,2.072,7.7,7.7,0,0,0-.349,2.31,8.051,8.051,0,0,0,.087,1.214,6.554,6.554,0,0,0,.262,1.09,7.166,7.166,0,0,0,.432,1.037c.174.34.375.695.608,1.063Z" transform="translate(5593.338 15430.8)" fill="none"/>
      <path id="Path_18168" data-name="Path 18168" d="M591.688,220.829a1.7,1.7,0,0,0-.584-.473,1.626,1.626,0,0,0-.7-.146,1.8,1.8,0,0,0-.748.146,1.442,1.442,0,0,0-.536.407,1.831,1.831,0,0,0-.322.6,2.407,2.407,0,0,0-.109.732,2.132,2.132,0,0,0,.126.734,1.954,1.954,0,0,0,.347.6,1.569,1.569,0,0,0,.536.407,1.653,1.653,0,0,0,.706.148,1.5,1.5,0,0,0,1.29-.63l.63.6a2.233,2.233,0,0,1-.869.619,3.007,3.007,0,0,1-2.126,0,2.34,2.34,0,0,1-.83-.554,2.539,2.539,0,0,1-.531-.847,3.065,3.065,0,0,1,0-2.137,2.493,2.493,0,0,1,.536-.847,2.441,2.441,0,0,1,.83-.558,2.737,2.737,0,0,1,1.068-.2,2.908,2.908,0,0,1,1.068.2,2.348,2.348,0,0,1,.885.608Z" transform="translate(5594.682 15432.054)" fill="none"/>
      <path id="Path_18173" data-name="Path 18173" d="M594.519,220.829a1.72,1.72,0,0,0-.586-.473,1.626,1.626,0,0,0-.695-.146,1.8,1.8,0,0,0-.749.146,1.44,1.44,0,0,0-.536.407,1.832,1.832,0,0,0-.322.6,2.407,2.407,0,0,0-.109.732,2.133,2.133,0,0,0,.126.734,1.953,1.953,0,0,0,.348.6,1.57,1.57,0,0,0,.536.407,1.659,1.659,0,0,0,.706.148,1.5,1.5,0,0,0,1.29-.63l.63.6a2.241,2.241,0,0,1-.867.619,3.012,3.012,0,0,1-2.128,0,2.339,2.339,0,0,1-.83-.554,2.543,2.543,0,0,1-.531-.847,3.066,3.066,0,0,1,0-2.137,2.5,2.5,0,0,1,.536-.847,2.442,2.442,0,0,1,.83-.558,2.737,2.737,0,0,1,1.068-.2,2.908,2.908,0,0,1,1.068.2,2.348,2.348,0,0,1,.885.608Z" transform="translate(5597.082 15432.054)" fill="none"/>
      <path id="Path_18174" data-name="Path 18174" d="M593.887,217.949a8.262,8.262,0,0,1,1.584,4.817,7.942,7.942,0,0,1-.418,2.571,8.233,8.233,0,0,1-1.166,2.246l-.586-.434a7,7,0,0,0,1.041-2.072,7.991,7.991,0,0,0,.261-3.525,6.62,6.62,0,0,0-.261-1.091,7.054,7.054,0,0,0-.433-1.035q-.261-.51-.608-1.065Z" transform="translate(5599.363 15430.8)" fill="none"/>
      <path id="Path_18146" data-name="Path 18146" d="M582.38,235.436l-6.691-19.256h1.841l5.817,17.007,5.808-17.007h1.789l-6.667,19.256Z" transform="translate(5584.422 15429.299)" fill="none"/>
      <path id="Path_18125" data-name="Path 18125" d="M543.759,227.255a8.277,8.277,0,0,1-1.582-4.817,7.949,7.949,0,0,1,.416-2.571,8.366,8.366,0,0,1,1.166-2.246l.588.434a7.023,7.023,0,0,0-1.043,2.072,7.7,7.7,0,0,0-.347,2.31,7.819,7.819,0,0,0,.087,1.214,6.749,6.749,0,0,0,.261,1.091,7.6,7.6,0,0,0,.433,1.037q.261.51.61,1.063Z" transform="translate(5555.992 15430.521)" fill="none"/>
      <path id="Path_18126" data-name="Path 18126" d="M547.667,220.5a1.731,1.731,0,0,0-.584-.471,1.637,1.637,0,0,0-.695-.146,1.811,1.811,0,0,0-.75.146,1.439,1.439,0,0,0-.536.407,1.847,1.847,0,0,0-.322.6,2.409,2.409,0,0,0-.107.732,2.113,2.113,0,0,0,.124.732,1.947,1.947,0,0,0,.349.6,1.57,1.57,0,0,0,.536.407,1.646,1.646,0,0,0,.706.146,1.5,1.5,0,0,0,1.29-.628l.63.6a2.21,2.21,0,0,1-.869.617,2.98,2.98,0,0,1-2.126,0,2.318,2.318,0,0,1-.832-.553,2.57,2.57,0,0,1-.53-.847,2.959,2.959,0,0,1-.19-1.074,2.921,2.921,0,0,1,.19-1.063,2.524,2.524,0,0,1,.536-.847,2.45,2.45,0,0,1,.832-.558,2.73,2.73,0,0,1,1.068-.2,2.915,2.915,0,0,1,1.068.2,2.321,2.321,0,0,1,.883.608Z" transform="translate(5557.336 15431.775)" fill="none"/>
      <path id="Path_18127" data-name="Path 18127" d="M546.769,220.434c0-.231-.008-.447-.022-.651s-.02-.386-.02-.555h.8c0,.139,0,.275.013.414s.011.277.011.423h.022a1.435,1.435,0,0,1,.242-.359,1.725,1.725,0,0,1,.375-.309,1.958,1.958,0,0,1,.488-.218,2.049,2.049,0,0,1,.586-.081,2.006,2.006,0,0,1,.689.1,1.7,1.7,0,0,1,.46.25,1.268,1.268,0,0,1,.288.314c.068.113.124.213.168.3a2.337,2.337,0,0,1,.649-.712,1.648,1.648,0,0,1,.956-.255,2.51,2.51,0,0,1,.911.146,1.463,1.463,0,0,1,.6.423,1.669,1.669,0,0,1,.325.673,3.726,3.726,0,0,1,.1.885v3.081h-.847V221.27a2.452,2.452,0,0,0-.054-.51,1.2,1.2,0,0,0-.2-.445,1.029,1.029,0,0,0-.379-.314,1.366,1.366,0,0,0-.608-.118,1.207,1.207,0,0,0-.508.109,1.239,1.239,0,0,0-.42.3,1.391,1.391,0,0,0-.281.471,1.714,1.714,0,0,0-.1.614v2.93h-.846v-2.876a2.335,2.335,0,0,0-.227-1.2.825.825,0,0,0-.749-.351,1.651,1.651,0,0,0-.712.14,1.262,1.262,0,0,0-.488.4,1.812,1.812,0,0,0-.281.619,3.194,3.194,0,0,0-.093.791v2.475h-.846Z" transform="translate(5559.852 15431.775)" fill="none"/>
      <path id="Path_18128" data-name="Path 18128" d="M552.038,217.621a8.278,8.278,0,0,1,1.582,4.817,7.9,7.9,0,0,1-.418,2.571,8.31,8.31,0,0,1-1.164,2.246l-.588-.434a7.028,7.028,0,0,0,1.042-2.072,7.75,7.75,0,0,0,.348-2.31,7.585,7.585,0,0,0-.089-1.214,6.753,6.753,0,0,0-.259-1.091,7.387,7.387,0,0,0-.434-1.037c-.172-.34-.377-.693-.608-1.063Z" transform="translate(5563.858 15430.521)" fill="none"/>
      <path id="Path_18094" data-name="Path 18094" d="M535.916,226.926l3.007-.03c1.216-.013,2.039.375,2.05,1.564a1.4,1.4,0,0,1-.854,1.338,1.564,1.564,0,0,1,1.189,1.61c.009,1.294-1.087,1.859-2.238,1.869l-3.094.026Zm1.431,2.567,1.42-.013c.492,0,.856-.231.856-.769-.013-.608-.477-.728-.976-.723l-1.314.013Zm.024,2.708,1.5-.011c.554-.006,1.033-.189,1.029-.852s-.416-.908-1.018-.9l-1.529.015Z" transform="translate(5550.68 15438.389)" fill="none"/>
      <path id="Path_18129" data-name="Path 18129" d="M540.245,212.712a1.513,1.513,0,0,0-.675-.3,2,2,0,0,0-.752.3,15.34,15.34,0,0,0,0,22.441,1.2,1.2,0,0,0,.752.331.931.931,0,0,0,.675-.311,15.548,15.548,0,0,0,4.911-11.253A15.39,15.39,0,0,0,540.245,212.712Z" transform="translate(5549.003 15426.104)" fill="none" stroke="#48484a" stroke-width="0.431"/>
      <line id="Line_2284" data-name="Line 2284" x1="2.994" y2="3.052" transform="translate(6080.009 15666.419)" fill="none" stroke="#48484a" stroke-width="0.359"/>
      <line id="Line_2285" data-name="Line 2285" y1="0.028" x2="3.203" transform="translate(6092.676 15667.749)" fill="none" stroke="#48484a" stroke-width="0.359"/>
      <line id="Line_2286" data-name="Line 2286" y1="0.028" x2="3.201" transform="translate(6081.631 15667.749)" fill="none" stroke="#48484a" stroke-width="0.359"/>
      <line id="Line_2287" data-name="Line 2287" x1="2.998" y2="3.05" transform="translate(6094.302 15666.213)" fill="none" stroke="#48484a" stroke-width="0.359"/>
      <path id="Path_18130" data-name="Path 18130" d="M433.322,220.509a3.233,3.233,0,0,0-1.259-1.028,3.692,3.692,0,0,0-1.56-.342,3.905,3.905,0,0,0-1.73.383,4.339,4.339,0,0,0-1.362,1.028,4.76,4.76,0,0,0-.893,1.5,5.035,5.035,0,0,0-.318,1.776,5.207,5.207,0,0,0,.318,1.841,4.642,4.642,0,0,0,.885,1.481,4.183,4.183,0,0,0,1.353,1,4.378,4.378,0,0,0,3.6-.041,4.188,4.188,0,0,0,1.416-1.172l1,.845a4.616,4.616,0,0,1-1.839,1.5,5.9,5.9,0,0,1-2.429.479,5.7,5.7,0,0,1-2.264-.447,5.512,5.512,0,0,1-1.822-1.235A5.654,5.654,0,0,1,425.2,226.2a6.628,6.628,0,0,1-.015-4.7,5.6,5.6,0,0,1,5.314-3.6,5.98,5.98,0,0,1,2.205.414,4.056,4.056,0,0,1,1.778,1.353Z" transform="translate(5456.386 15430.755)" fill="none"/>
      <path id="Path_18131" data-name="Path 18131" d="M431.168,221.165a3.512,3.512,0,0,1,1.362-.869,4.765,4.765,0,0,1,1.6-.279,3.156,3.156,0,0,1,2.39.782,3.36,3.36,0,0,1,.732,2.373v3.2c0,.213.011.432.033.662s.046.436.079.628h-1.2a2.625,2.625,0,0,1-.072-.566c-.006-.207-.007-.39-.007-.551h-.031a2.9,2.9,0,0,1-.981.941,2.814,2.814,0,0,1-1.473.366,3.952,3.952,0,0,1-1.076-.142,2.718,2.718,0,0,1-.876-.423,2.078,2.078,0,0,1-.6-.693,1.994,1.994,0,0,1-.224-.956,2.076,2.076,0,0,1,.479-1.451,2.9,2.9,0,0,1,1.187-.78,5.846,5.846,0,0,1,1.53-.318q.821-.064,1.5-.063h.479V222.8a1.525,1.525,0,0,0-.484-1.225,2.039,2.039,0,0,0-1.364-.414,3.627,3.627,0,0,0-1.187.2,2.819,2.819,0,0,0-1.028.612Zm3.6,2.915a4.451,4.451,0,0,0-1.895.335,1.138,1.138,0,0,0-.7,1.1,1.084,1.084,0,0,0,.471,1,2.171,2.171,0,0,0,1.172.3,2.281,2.281,0,0,0,.946-.185,1.974,1.974,0,0,0,.678-.486,2.063,2.063,0,0,0,.412-.708,2.893,2.893,0,0,0,.161-.869v-.479Z" transform="translate(5461.534 15432.554)" fill="none"/>
      <path id="Path_18132" data-name="Path 18132" d="M440.074,222.146h-2.2v3.728q0,.366.017.677a1.38,1.38,0,0,0,.126.542.86.86,0,0,0,.336.368,1.25,1.25,0,0,0,.638.135,2.56,2.56,0,0,0,.556-.065,2.294,2.294,0,0,0,.542-.19l.048,1.131a2.8,2.8,0,0,1-.708.207,4.63,4.63,0,0,1-.741.063,2.706,2.706,0,0,1-1.068-.174,1.481,1.481,0,0,1-.623-.5,1.875,1.875,0,0,1-.294-.789,7.139,7.139,0,0,1-.072-1.042v-4.094h-1.625v-1.052h1.625v-2.12h1.244v2.12h2.2Z" transform="translate(5465.073 15431.669)" fill="none"/>
      <path id="Path_18133" data-name="Path 18133" d="M438.676,221.165a3.513,3.513,0,0,1,1.362-.869,4.747,4.747,0,0,1,1.6-.279,3.15,3.15,0,0,1,2.39.782,3.352,3.352,0,0,1,.734,2.373v3.2c0,.213.011.432.031.662s.048.436.079.628H443.68a2.626,2.626,0,0,1-.072-.566c-.006-.207-.007-.39-.007-.551h-.033a2.882,2.882,0,0,1-.98.941,2.819,2.819,0,0,1-1.473.366,3.951,3.951,0,0,1-1.076-.142,2.7,2.7,0,0,1-.876-.423,2.082,2.082,0,0,1-.6-.693,1.992,1.992,0,0,1-.222-.956,2.076,2.076,0,0,1,.479-1.451,2.9,2.9,0,0,1,1.187-.78,5.845,5.845,0,0,1,1.53-.318q.821-.064,1.5-.063h.479V222.8a1.52,1.52,0,0,0-.486-1.225,2.034,2.034,0,0,0-1.362-.414,3.637,3.637,0,0,0-1.188.2,2.825,2.825,0,0,0-1.026.612Zm3.6,2.915a4.45,4.45,0,0,0-1.895.335,1.138,1.138,0,0,0-.7,1.1,1.084,1.084,0,0,0,.471,1,2.17,2.17,0,0,0,1.172.3,2.281,2.281,0,0,0,.946-.185,1.949,1.949,0,0,0,.676-.486,2.067,2.067,0,0,0,.414-.708,2.9,2.9,0,0,0,.161-.869v-.479Z" transform="translate(5467.903 15432.554)" fill="none"/>
      <path id="Path_18134" data-name="Path 18134" d="M443.109,217.638h1.244v12.046h-1.244Z" transform="translate(5471.948 15430.536)" fill="none"/>
      <path id="Path_18135" data-name="Path 18135" d="M444.884,223.937a4.076,4.076,0,0,1,.3-1.6,3.744,3.744,0,0,1,.83-1.235,3.676,3.676,0,0,1,1.257-.8,4.573,4.573,0,0,1,3.187,0,3.692,3.692,0,0,1,1.261.8,3.826,3.826,0,0,1,.828,1.235,4.344,4.344,0,0,1,0,3.188,3.827,3.827,0,0,1-.828,1.235,3.665,3.665,0,0,1-1.261.8,4.573,4.573,0,0,1-3.187,0,3.648,3.648,0,0,1-1.257-.8,3.744,3.744,0,0,1-.83-1.235A4.067,4.067,0,0,1,444.884,223.937Zm1.338,0a3.12,3.12,0,0,0,.185,1.09,2.5,2.5,0,0,0,.534.876,2.527,2.527,0,0,0,.835.59,2.858,2.858,0,0,0,2.181,0,2.562,2.562,0,0,0,.839-.59,2.609,2.609,0,0,0,.534-.876,3.379,3.379,0,0,0,0-2.183,2.61,2.61,0,0,0-.534-.876,2.562,2.562,0,0,0-.839-.59,2.881,2.881,0,0,0-2.181,0,2.526,2.526,0,0,0-.835.59,2.5,2.5,0,0,0-.534.876A3.123,3.123,0,0,0,446.222,223.937Z" transform="translate(5473.453 15432.554)" fill="none"/>
      <path id="Path_18098" data-name="Path 18098" d="M457.876,227.331a4.229,4.229,0,0,1-1.044,3.1,4.044,4.044,0,0,1-3.018,1.061,5.8,5.8,0,0,1-1.983-.32,4.694,4.694,0,0,1-1.682-1.1l.893-1.02a4.248,4.248,0,0,0,1.251.963,3.38,3.38,0,0,0,1.521.327,3.33,3.33,0,0,0,1.377-.248,2.172,2.172,0,0,0,.869-.669,2.543,2.543,0,0,0,.445-.963,4.922,4.922,0,0,0,.128-1.131v-.956H456.6a2.68,2.68,0,0,1-1.163,1.05,3.434,3.434,0,0,1-1.466.336,4.354,4.354,0,0,1-1.61-.288,3.741,3.741,0,0,1-1.259-.8,3.508,3.508,0,0,1-.811-1.211,3.978,3.978,0,0,1-.288-1.529,4.447,4.447,0,0,1,.288-1.641,3.406,3.406,0,0,1,.8-1.235,3.489,3.489,0,0,1,1.249-.773,4.657,4.657,0,0,1,1.627-.272,3.388,3.388,0,0,1,.765.089,3.116,3.116,0,0,1,.739.27,2.664,2.664,0,0,1,.647.462,2.6,2.6,0,0,1,.477.645h.031v-1.274h1.244Zm-6.534-3.394a2.644,2.644,0,0,0,1.61,2.469,2.561,2.561,0,0,0,1.02.207,2.716,2.716,0,0,0,1.131-.224,2.51,2.51,0,0,0,1.355-1.458,3.006,3.006,0,0,0,.174-1.026,3.072,3.072,0,0,0-.19-1.107,2.607,2.607,0,0,0-.542-.871,2.38,2.38,0,0,0-.845-.564,2.86,2.86,0,0,0-1.083-.2,2.613,2.613,0,0,0-1.076.214,2.442,2.442,0,0,0-.828.59,2.7,2.7,0,0,0-.534.876A3.042,3.042,0,0,0,451.342,223.937Z" transform="translate(5477.797 15432.554)" fill="none"/>
      <path id="Path_18136" data-name="Path 18136" d="M462.005,225.808c0,.34.011.658.031.956s.031.569.031.813h-1.179c0-.2,0-.4-.015-.606s-.017-.408-.017-.621h-.031a2.174,2.174,0,0,1-.359.525,2.526,2.526,0,0,1-.551.455,2.878,2.878,0,0,1-.717.318,2.91,2.91,0,0,1-.859.12,3.286,3.286,0,0,1-1.266-.222,2.354,2.354,0,0,1-.884-.623,2.507,2.507,0,0,1-.519-.963,4.362,4.362,0,0,1-.168-1.235v-4.6h1.244V224.6a2.372,2.372,0,0,0,.414,1.481,1.52,1.52,0,0,0,1.29.543,2.413,2.413,0,0,0,1.044-.209,1.843,1.843,0,0,0,.717-.588,2.635,2.635,0,0,0,.414-.909,4.648,4.648,0,0,0,.135-1.163v-3.632h1.244Z" transform="translate(5482.462 15432.642)" fill="none"/>
      <path id="Path_18137" data-name="Path 18137" d="M467.154,226.311a3.8,3.8,0,0,1-1.466,1.2,4.664,4.664,0,0,1-1.848.342,3.862,3.862,0,0,1-1.579-.311,3.577,3.577,0,0,1-1.187-.835,3.652,3.652,0,0,1-.747-1.244,4.349,4.349,0,0,1-.264-1.529,4.291,4.291,0,0,1,.286-1.586,3.7,3.7,0,0,1,.8-1.244,3.569,3.569,0,0,1,1.211-.8,4.012,4.012,0,0,1,1.529-.286,3.841,3.841,0,0,1,1.436.262,3.11,3.11,0,0,1,1.122.765,3.419,3.419,0,0,1,.726,1.227,5.007,5.007,0,0,1,.253,1.649v.4H461.4a2.59,2.59,0,0,0,.231.915,2.647,2.647,0,0,0,.518.765,2.39,2.39,0,0,0,.749.518,2.29,2.29,0,0,0,.941.192,2.955,2.955,0,0,0,1.37-.288,3.088,3.088,0,0,0,1-.845Zm-1.066-3.044a2.144,2.144,0,0,0-.623-1.529,2.229,2.229,0,0,0-1.625-.573,2.3,2.3,0,0,0-2.438,2.1Z" transform="translate(5486.331 15432.554)" fill="none"/>
      <path id="Path_18138" data-name="Path 18138" d="M468.669,225.939h-1.562v-1.052h1.721l.318-2.421h-1.56v-1.052H469.3l.479-3.362h1.066l-.477,3.362h2.007l.477-3.362h1.068l-.477,3.362h1.56v1.052h-1.7l-.335,2.421h1.562v1.052h-1.721l-.479,3.394h-1.066l.479-3.394h-2.009l-.477,3.394H468.19Zm3.567-3.473h-2.007l-.333,2.421H471.9Z" transform="translate(5492.306 15430.887)" fill="none"/>
      <line id="Line_2267" data-name="Line 2267" x2="351.798" transform="translate(5863.37 15712.486)" fill="none" stroke="#fff" stroke-miterlimit="10" stroke-width="0.463"/>
      <line id="Line_2271" data-name="Line 2271" x2="354.884" transform="translate(5862 15680.71)" fill="none" stroke="#fff" stroke-miterlimit="10" stroke-width="0.463"/>
      <line id="Line_2290" data-name="Line 2290" x1="109.692" transform="translate(5899.853 15806.5)" fill="#e0e1e3"/>
      <g id="Group_5105" data-name="Group 5105" transform="translate(-1034.482 22.77)">
        <g id="Group_5104" data-name="Group 5104" transform="translate(6893.295 15667.825)">
          <g id="Group_5086" data-name="Group 5086" transform="translate(225.108 0.247)">
            <path id="Path_14990" data-name="Path 14990" d="M726.287,326.584h.474a6.934,6.934,0,0,0,1-.074,2.677,2.677,0,0,0,.952-.321,1.966,1.966,0,0,0,.712-.707,2.293,2.293,0,0,0,.283-1.215,2.14,2.14,0,0,0-.613-1.612,2.2,2.2,0,0,0-1.6-.593,2.634,2.634,0,0,0-1.426.377,2.563,2.563,0,0,0-.954,1.112l-1.48-.584a3.369,3.369,0,0,1,1.491-1.7,4.562,4.562,0,0,1,2.259-.564,4.828,4.828,0,0,1,1.473.225,3.751,3.751,0,0,1,1.233.66,3.1,3.1,0,0,1,.842,1.084,3.478,3.478,0,0,1,.312,1.516,3.2,3.2,0,0,1-2.214,3.054v.036a3.156,3.156,0,0,1,1.107.415,3.183,3.183,0,0,1,1.361,1.753,4.1,4.1,0,0,1-.162,2.865,3.6,3.6,0,0,1-.934,1.206,3.981,3.981,0,0,1-1.363.736,5.451,5.451,0,0,1-1.637.243,4.933,4.933,0,0,1-2.58-.658,3.772,3.772,0,0,1-1.592-2.149l1.556-.528a2.921,2.921,0,0,0,.932,1.527,3.17,3.17,0,0,0,2.708.265,2.5,2.5,0,0,0,.833-.537,2.631,2.631,0,0,0,.568-.829,2.658,2.658,0,0,0,.209-1.066,2.488,2.488,0,0,0-.283-1.235,2.225,2.225,0,0,0-.75-.792,3.328,3.328,0,0,0-1.051-.422,5.388,5.388,0,0,0-1.192-.133h-.474Z" transform="translate(-723.231 -320.706)" fill="#fff"/>
            <path id="Path_14991" data-name="Path 14991" d="M730.4,327.04a1.053,1.053,0,0,1,.779.328,1.114,1.114,0,0,1,.319.8,1.1,1.1,0,1,1-2.194,0,1.1,1.1,0,0,1,.321-.8A1.042,1.042,0,0,1,730.4,327.04Z" transform="translate(-718.358 -315.62)" fill="#fff"/>
            <path id="Path_14992" data-name="Path 14992" d="M739.706,322.3l-5.177,11.873h-1.736L738.06,322.3H731.8v-1.469h7.9Z" transform="translate(-716.346 -320.606)" fill="#fff"/>
          </g>
          <g id="Group_5087" data-name="Group 5087" transform="translate(225.108 31.227)">
            <path id="Path_14993" data-name="Path 14993" d="M726.287,343.768h.474a6.944,6.944,0,0,0,1-.076,2.64,2.64,0,0,0,.952-.319,1.979,1.979,0,0,0,.712-.707,2.3,2.3,0,0,0,.283-1.215,2.137,2.137,0,0,0-.613-1.612,2.2,2.2,0,0,0-1.6-.593,2.634,2.634,0,0,0-1.426.377,2.558,2.558,0,0,0-.954,1.111l-1.48-.582a3.362,3.362,0,0,1,1.491-1.7,4.563,4.563,0,0,1,2.259-.566,4.773,4.773,0,0,1,1.473.227,3.714,3.714,0,0,1,1.233.658,3.126,3.126,0,0,1,.842,1.085,3.478,3.478,0,0,1,.312,1.516,3.2,3.2,0,0,1-2.214,3.053v.038a3.123,3.123,0,0,1,1.107.415,3.157,3.157,0,0,1,.831.745,3.2,3.2,0,0,1,.53,1.008,4.1,4.1,0,0,1-.162,2.865,3.612,3.612,0,0,1-.934,1.206,3.946,3.946,0,0,1-1.363.734,5.4,5.4,0,0,1-1.637.245,4.917,4.917,0,0,1-2.58-.66,3.772,3.772,0,0,1-1.592-2.149l1.556-.526a2.928,2.928,0,0,0,.932,1.527,3.159,3.159,0,0,0,2.708.263,2.5,2.5,0,0,0,.833-.537,2.611,2.611,0,0,0,.568-.829,2.644,2.644,0,0,0,.209-1.064,2.488,2.488,0,0,0-.283-1.235,2.2,2.2,0,0,0-.75-.792,3.372,3.372,0,0,0-1.051-.424,5.388,5.388,0,0,0-1.192-.132h-.474Z" transform="translate(-723.231 -337.888)" fill="#fff"/>
            <path id="Path_14994" data-name="Path 14994" d="M730.4,344.222a1.048,1.048,0,0,1,.779.33,1.109,1.109,0,0,1,.319.8,1.085,1.085,0,0,1-.339.8,1.042,1.042,0,0,1-1.518,0,1.083,1.083,0,0,1-.337-.8,1.1,1.1,0,0,1,.321-.8A1.037,1.037,0,0,1,730.4,344.222Z" transform="translate(-718.358 -332.802)" fill="#fff"/>
            <path id="Path_14995" data-name="Path 14995" d="M737.423,345.9l-.038-.036a2.822,2.822,0,0,1-.851.3,4.647,4.647,0,0,1-.887.094,4.04,4.04,0,0,1-1.563-.3,3.578,3.578,0,0,1-1.244-.858,3.96,3.96,0,0,1-.813-1.32,4.691,4.691,0,0,1-.294-1.7,4.437,4.437,0,0,1,.33-1.754,3.772,3.772,0,0,1,.914-1.309,4.166,4.166,0,0,1,1.381-.829,5.158,5.158,0,0,1,3.422,0,4.149,4.149,0,0,1,1.381.829,3.745,3.745,0,0,1,.912,1.309,4.437,4.437,0,0,1,.33,1.754,5.833,5.833,0,0,1-.092,1.073,5.963,5.963,0,0,1-.254.943,6.81,6.81,0,0,1-.393.876c-.153.283-.316.568-.487.858l-3.438,5.634h-1.792Zm-1.354-1a3.028,3.028,0,0,0,1.1-.2,2.588,2.588,0,0,0,.885-.566,2.692,2.692,0,0,0,.6-.885,3.237,3.237,0,0,0,0-2.346,2.648,2.648,0,0,0-.6-.9,2.556,2.556,0,0,0-.885-.564,3.138,3.138,0,0,0-2.2,0,2.582,2.582,0,0,0-.887.564,2.653,2.653,0,0,0-.595.9,3.262,3.262,0,0,0,0,2.346,2.7,2.7,0,0,0,.595.885,2.614,2.614,0,0,0,.887.566A3.027,3.027,0,0,0,736.069,344.9Z" transform="translate(-716.404 -337.888)" fill="#fff"/>
          </g>
          <g id="Group_5088" data-name="Group 5088" transform="translate(225.073 62.436)">
            <path id="Path_14996" data-name="Path 14996" d="M730.235,364.016H732.1v1.469h-1.868v3.054H728.7v-3.054h-5.487v-1.751l5.139-8.537h1.884Zm-1.536-6.972h-.036l-4.134,6.972h4.17Z" transform="translate(-723.212 -355.197)" fill="#fff"/>
            <path id="Path_14997" data-name="Path 14997" d="M730.4,361.4a1.048,1.048,0,0,1,.779.33,1.109,1.109,0,0,1,.319.8,1.1,1.1,0,1,1-2.194,0,1.1,1.1,0,0,1,.321-.8A1.037,1.037,0,0,1,730.4,361.4Z" transform="translate(-718.324 -350.212)" fill="#fff"/>
            <path id="Path_14998" data-name="Path 14998" d="M737.112,368.539h-1.538V357.233h-.034l-2.324,2.016-.914-1.15,3.474-2.9h1.336Z" transform="translate(-715.912 -355.197)" fill="#fff"/>
          </g>
          <g id="Group_5091" data-name="Group 5091" transform="translate(297.182 0.247)">
            <path id="Path_15005" data-name="Path 15005" d="M768.015,334.173h-1.536V322.867h-.036l-2.324,2.016-.914-1.15,3.476-2.9h1.334Z" transform="translate(-763.205 -320.606)" fill="#fff"/>
            <path id="Path_15006" data-name="Path 15006" d="M771.292,326.584h.474a6.939,6.939,0,0,0,1-.074,2.67,2.67,0,0,0,.95-.321,1.971,1.971,0,0,0,.714-.707,2.309,2.309,0,0,0,.283-1.215,2.14,2.14,0,0,0-.613-1.612,2.2,2.2,0,0,0-1.6-.593,2.634,2.634,0,0,0-1.426.377,2.561,2.561,0,0,0-.954,1.112l-1.48-.584a3.369,3.369,0,0,1,1.491-1.7,4.562,4.562,0,0,1,2.259-.564,4.809,4.809,0,0,1,1.471.225,3.744,3.744,0,0,1,1.235.66,3.1,3.1,0,0,1,.842,1.084,3.478,3.478,0,0,1,.312,1.516,3.2,3.2,0,0,1-2.214,3.054v.036a3.133,3.133,0,0,1,1.105.415,3.176,3.176,0,0,1,1.363,1.753,4.093,4.093,0,0,1-.164,2.865,3.568,3.568,0,0,1-.932,1.206,3.981,3.981,0,0,1-1.363.736,5.451,5.451,0,0,1-1.637.243,4.928,4.928,0,0,1-2.58-.658,3.773,3.773,0,0,1-1.592-2.149l1.556-.528a2.921,2.921,0,0,0,.932,1.527,3.17,3.17,0,0,0,2.708.265,2.5,2.5,0,0,0,.833-.537,2.588,2.588,0,0,0,.777-1.895,2.488,2.488,0,0,0-.283-1.235,2.217,2.217,0,0,0-.752-.792,3.3,3.3,0,0,0-1.051-.422,5.36,5.36,0,0,0-1.19-.133h-.474Z" transform="translate(-759.165 -320.706)" fill="#fff"/>
            <path id="Path_15007" data-name="Path 15007" d="M781.79,322.3H776.5l-.054,3.6a2.524,2.524,0,0,1,.813-.254,5.708,5.708,0,0,1,.849-.067,4.2,4.2,0,0,1,1.693.33,3.854,3.854,0,0,1,1.309.923,4.072,4.072,0,0,1,.84,1.4,5,5,0,0,1,.292,1.742,4.726,4.726,0,0,1-.337,1.819,4.059,4.059,0,0,1-.934,1.394,4.215,4.215,0,0,1-1.408.9,4.788,4.788,0,0,1-1.763.319,3.979,3.979,0,0,1-2.389-.658,4.579,4.579,0,0,1-1.435-1.772l1.536-.6a2.94,2.94,0,0,0,.959,1.215,2.4,2.4,0,0,0,1.455.462,2.681,2.681,0,0,0,1.087-.218,2.529,2.529,0,0,0,.88-.62,3.039,3.039,0,0,0,.595-.97,3.475,3.475,0,0,0,.218-1.264,3.2,3.2,0,0,0-.247-1.3,2.747,2.747,0,0,0-.676-.952,2.859,2.859,0,0,0-1.015-.584,3.932,3.932,0,0,0-1.262-.2,4.19,4.19,0,0,0-1.352.236,6.329,6.329,0,0,0-1.282.593l.128-6.935h6.787Z" transform="translate(-754.553 -320.606)" fill="#fff"/>
          </g>
          <g id="Group_5092" data-name="Group 5092" transform="translate(297.182 31.057)">
            <path id="Path_15008" data-name="Path 15008" d="M768.015,351.263h-1.536V339.956h-.036l-2.324,2.016-.914-1.15,3.476-2.9h1.334Z" transform="translate(-763.205 -337.693)" fill="#fff"/>
            <path id="Path_15009" data-name="Path 15009" d="M771.259,343.479l.036.038a2.808,2.808,0,0,1,.851-.3,4.679,4.679,0,0,1,.887-.094,3.985,3.985,0,0,1,1.563.3,3.606,3.606,0,0,1,1.246.856,4.026,4.026,0,0,1,.813,1.329,4.771,4.771,0,0,1,.292,1.7,4.421,4.421,0,0,1-.33,1.753,3.7,3.7,0,0,1-.914,1.309,4.092,4.092,0,0,1-1.379.829,5.158,5.158,0,0,1-3.422,0,4.118,4.118,0,0,1-1.381-.829,3.739,3.739,0,0,1-.914-1.309,4.421,4.421,0,0,1-.33-1.753,5.422,5.422,0,0,1,.348-2.018,11.776,11.776,0,0,1,.878-1.733l3.438-5.634h1.792Zm1.354,1a3.029,3.029,0,0,0-1.1.2,2.587,2.587,0,0,0-.887.566,2.645,2.645,0,0,0-.6.894,3.264,3.264,0,0,0,0,2.346,2.7,2.7,0,0,0,.6.887,2.607,2.607,0,0,0,.887.564,3.139,3.139,0,0,0,2.2,0,2.6,2.6,0,0,0,.885-.564,2.7,2.7,0,0,0,.6-.887,3.237,3.237,0,0,0,0-2.346,2.642,2.642,0,0,0-.6-.894,2.578,2.578,0,0,0-.885-.566A3.029,3.029,0,0,0,772.613,344.478Z" transform="translate(-759.132 -337.693)" fill="#fff"/>
            <path id="Path_15010" data-name="Path 15010" d="M773.888,344.692a15.828,15.828,0,0,1,.182-2.355,7.63,7.63,0,0,1,.676-2.234,4.622,4.622,0,0,1,1.345-1.659,4,4,0,0,1,4.372,0,4.58,4.58,0,0,1,1.343,1.659,7.58,7.58,0,0,1,.678,2.234,15.163,15.163,0,0,1,0,4.71,7.6,7.6,0,0,1-.678,2.234,4.581,4.581,0,0,1-1.343,1.659,4.006,4.006,0,0,1-4.372,0,4.622,4.622,0,0,1-1.345-1.659,7.648,7.648,0,0,1-.676-2.234A15.827,15.827,0,0,1,773.888,344.692Zm1.534,0q0,.49.038,1.093A11.783,11.783,0,0,0,775.6,347a8.1,8.1,0,0,0,.292,1.2,3.889,3.889,0,0,0,.512,1.037,2.547,2.547,0,0,0,.779.725,2.337,2.337,0,0,0,2.2,0,2.534,2.534,0,0,0,.775-.725,3.889,3.889,0,0,0,.512-1.037,7.882,7.882,0,0,0,.294-1.2q.1-.611.137-1.215c.023-.4.036-.766.036-1.093s-.013-.691-.036-1.093-.07-.808-.137-1.217a7.915,7.915,0,0,0-.294-1.2,3.889,3.889,0,0,0-.512-1.037,2.562,2.562,0,0,0-.775-.727,2.35,2.35,0,0,0-2.2,0,2.575,2.575,0,0,0-.779.727,3.889,3.889,0,0,0-.512,1.037,8.136,8.136,0,0,0-.292,1.2,11.876,11.876,0,0,0-.137,1.217Q775.422,344.2,775.422,344.692Z" transform="translate(-754.626 -337.794)" fill="#fff"/>
          </g>
          <g id="Group_5093" data-name="Group 5093" transform="translate(297.182 62.512)">
            <path id="Path_15011" data-name="Path 15011" d="M768.015,368.707h-1.536V357.4h-.036l-2.324,2.016-.914-1.149,3.476-2.9h1.334Z" transform="translate(-763.205 -355.139)" fill="#fff"/>
            <path id="Path_15012" data-name="Path 15012" d="M773.967,363.248l-.038-.038a2.724,2.724,0,0,1-.851.3,4.647,4.647,0,0,1-.887.094,4.006,4.006,0,0,1-1.563-.3,3.556,3.556,0,0,1-1.244-.856,4.028,4.028,0,0,1-.815-1.32,4.734,4.734,0,0,1-.292-1.706,4.427,4.427,0,0,1,.33-1.753,3.739,3.739,0,0,1,.914-1.309,4.118,4.118,0,0,1,1.381-.829,5.159,5.159,0,0,1,3.422,0,4.092,4.092,0,0,1,1.379.829,3.7,3.7,0,0,1,.914,1.309,4.427,4.427,0,0,1,.33,1.753,5.839,5.839,0,0,1-.092,1.075,5.927,5.927,0,0,1-.254.941,6.735,6.735,0,0,1-.393.878c-.153.281-.316.568-.487.856l-3.438,5.635h-1.792Zm-1.354-1a3.029,3.029,0,0,0,1.1-.2,2.6,2.6,0,0,0,.885-.564,2.683,2.683,0,0,0,.6-.887,3.237,3.237,0,0,0,0-2.346,2.64,2.64,0,0,0-.6-.894,2.576,2.576,0,0,0-.885-.566,3.139,3.139,0,0,0-2.2,0,2.585,2.585,0,0,0-.887.566,2.643,2.643,0,0,0-.6.894,3.264,3.264,0,0,0,0,2.346,2.685,2.685,0,0,0,.6.887,2.609,2.609,0,0,0,.887.564A3.03,3.03,0,0,0,772.613,362.249Z" transform="translate(-759.132 -355.239)" fill="#fff"/>
            <path id="Path_15013" data-name="Path 15013" d="M773.888,362.136a15.846,15.846,0,0,1,.182-2.355,7.647,7.647,0,0,1,.676-2.234,4.637,4.637,0,0,1,1.345-1.659,4.006,4.006,0,0,1,4.372,0,4.6,4.6,0,0,1,1.343,1.659,7.6,7.6,0,0,1,.678,2.234,15.175,15.175,0,0,1,0,4.711,7.586,7.586,0,0,1-.678,2.232,4.565,4.565,0,0,1-1.343,1.659,4,4,0,0,1-4.372,0,4.606,4.606,0,0,1-1.345-1.659,7.636,7.636,0,0,1-.676-2.232A15.869,15.869,0,0,1,773.888,362.136Zm1.534,0c0,.328.013.691.038,1.093a11.818,11.818,0,0,0,.137,1.217,8.078,8.078,0,0,0,.292,1.2,3.891,3.891,0,0,0,.512,1.037,2.5,2.5,0,0,0,.779.725,2.336,2.336,0,0,0,2.2,0,2.491,2.491,0,0,0,.775-.725,3.891,3.891,0,0,0,.512-1.037,7.861,7.861,0,0,0,.294-1.2c.067-.409.112-.813.137-1.217s.036-.764.036-1.093-.013-.691-.036-1.093-.07-.808-.137-1.215a7.936,7.936,0,0,0-.294-1.2,3.889,3.889,0,0,0-.512-1.037,2.534,2.534,0,0,0-.775-.725,2.337,2.337,0,0,0-2.2,0,2.547,2.547,0,0,0-.779.725,3.89,3.89,0,0,0-.512,1.037,8.157,8.157,0,0,0-.292,1.2,11.782,11.782,0,0,0-.137,1.215Q775.422,361.646,775.422,362.136Z" transform="translate(-754.626 -355.239)" fill="#fff"/>
          </g>
          <g id="Group_5096" data-name="Group 5096" transform="translate(26.574 0)">
            <path id="Path_15020" data-name="Path 15020" d="M613.121,320.758H618.1a6.661,6.661,0,0,1,1.354.15,6.547,6.547,0,0,1,1.417.481,6.465,6.465,0,0,1,1.354.858,5.667,5.667,0,0,1,1.143,1.271,6.489,6.489,0,0,1,.786,1.715,8.4,8.4,0,0,1,0,4.39,6.5,6.5,0,0,1-.786,1.717,5.668,5.668,0,0,1-1.143,1.271,6.54,6.54,0,0,1-1.354.858,6.446,6.446,0,0,1-1.417.48,6.542,6.542,0,0,1-1.354.151h-4.976Zm1.538,11.871h2.926a6.764,6.764,0,0,0,2.066-.3,4.235,4.235,0,0,0,2.744-2.544,7.1,7.1,0,0,0,0-4.711,4.235,4.235,0,0,0-2.744-2.544,6.82,6.82,0,0,0-2.066-.3h-2.926Z" transform="translate(-613.121 -320.417)" fill="#464749"/>
            <path id="Path_15021" data-name="Path 15021" d="M627.325,323.265a2.283,2.283,0,0,0-1.026-.932,3.174,3.174,0,0,0-1.334-.292,3.887,3.887,0,0,0-1.008.132,2.966,2.966,0,0,0-.885.395,1.962,1.962,0,0,0-.631.7,2.087,2.087,0,0,0-.238,1.017,2.17,2.17,0,0,0,.137.8,1.715,1.715,0,0,0,.447.631,3.371,3.371,0,0,0,.842.528,11.308,11.308,0,0,0,1.3.489c.5.164.983.339,1.453.528a4.932,4.932,0,0,1,1.244.716,3.165,3.165,0,0,1,.86,1.084,4.21,4.21,0,0,1-.065,3.364,3.6,3.6,0,0,1-1.013,1.215,4.355,4.355,0,0,1-1.455.716,6.165,6.165,0,0,1-1.7.236,6.371,6.371,0,0,1-1.136-.1,5.477,5.477,0,0,1-1.089-.321,4.386,4.386,0,0,1-.977-.566,3.285,3.285,0,0,1-.786-.856l1.316-1.113a2.737,2.737,0,0,0,1.172,1.113,3.5,3.5,0,0,0,1.59.377,3.442,3.442,0,0,0,1-.151,2.938,2.938,0,0,0,.905-.444,2.367,2.367,0,0,0,.658-.725,1.919,1.919,0,0,0,.256-1,2.191,2.191,0,0,0-.2-1.008,1.839,1.839,0,0,0-.622-.669,4.708,4.708,0,0,0-1.062-.508c-.426-.151-.927-.326-1.5-.528a9.47,9.47,0,0,1-1.28-.517,3.938,3.938,0,0,1-1.015-.718,3.073,3.073,0,0,1-.678-1.017,3.742,3.742,0,0,1-.245-1.423,3.62,3.62,0,0,1,.366-1.677,3.484,3.484,0,0,1,.988-1.2,4.385,4.385,0,0,1,1.408-.725,5.766,5.766,0,0,1,3.648.1,3.943,3.943,0,0,1,1.621,1.215Z" transform="translate(-607.385 -320.569)" fill="#464749"/>
            <path id="Path_15022" data-name="Path 15022" d="M626.411,320.758h8.031v1.47h-6.493v4.41h6.035v1.469h-6.035V334.1h-1.538Z" transform="translate(-602.449 -320.417)" fill="#464749"/>
            <path id="Path_15023" data-name="Path 15023" d="M631.6,325.273h4.482v1.356H631.6Z" transform="translate(-598.278 -316.791)" fill="#464749"/>
            <path id="Path_15024" data-name="Path 15024" d="M640.332,334.1H638.8V322.794h-.036l-2.324,2.016-.914-1.15,3.476-2.9h1.334Z" transform="translate(-595.133 -320.417)" fill="#464749"/>
            <path id="Path_15025" data-name="Path 15025" d="M643.607,326.512h.476a7.2,7.2,0,0,0,1-.074,2.668,2.668,0,0,0,.952-.321,1.966,1.966,0,0,0,.712-.707,2.3,2.3,0,0,0,.285-1.215,2.144,2.144,0,0,0-.613-1.612,2.21,2.21,0,0,0-1.6-.593,2.638,2.638,0,0,0-1.426.377,2.548,2.548,0,0,0-.952,1.113l-1.482-.584a3.365,3.365,0,0,1,1.493-1.7,4.557,4.557,0,0,1,2.258-.566,4.769,4.769,0,0,1,1.473.227,3.67,3.67,0,0,1,1.233.66,3.078,3.078,0,0,1,.842,1.084,3.475,3.475,0,0,1,.312,1.516,3.2,3.2,0,0,1-2.212,3.053v.038a3.125,3.125,0,0,1,1.105.415,3.175,3.175,0,0,1,1.363,1.753,3.872,3.872,0,0,1,.182,1.188,3.815,3.815,0,0,1-.346,1.677,3.6,3.6,0,0,1-.934,1.206,3.966,3.966,0,0,1-1.363.736,5.442,5.442,0,0,1-1.637.243,4.923,4.923,0,0,1-2.578-.658,3.769,3.769,0,0,1-1.592-2.149l1.554-.528a2.92,2.92,0,0,0,.934,1.527,3.159,3.159,0,0,0,2.708.263,2.493,2.493,0,0,0,.831-.537,2.6,2.6,0,0,0,.568-.828,2.655,2.655,0,0,0,.209-1.066,2.486,2.486,0,0,0-.283-1.235,2.21,2.21,0,0,0-.75-.792,3.36,3.36,0,0,0-1.051-.424,5.387,5.387,0,0,0-1.19-.132h-.476Z" transform="translate(-591.092 -320.518)" fill="#464749"/>
            <path id="Path_15026" data-name="Path 15026" d="M654.106,322.228h-5.286l-.054,3.6a2.632,2.632,0,0,1,.813-.254,5.947,5.947,0,0,1,.851-.065,4.193,4.193,0,0,1,1.691.33,3.813,3.813,0,0,1,1.309.921,4.14,4.14,0,0,1,.842,1.4,5.055,5.055,0,0,1,.292,1.744,4.738,4.738,0,0,1-.339,1.819,4.054,4.054,0,0,1-.932,1.394,4.257,4.257,0,0,1-1.408.9,4.792,4.792,0,0,1-1.765.319,3.975,3.975,0,0,1-2.387-.658A4.6,4.6,0,0,1,646.3,331.9l1.536-.6a2.926,2.926,0,0,0,.961,1.213,2.4,2.4,0,0,0,1.453.463,2.7,2.7,0,0,0,1.089-.218,2.545,2.545,0,0,0,.878-.622,2.99,2.99,0,0,0,.595-.97,3.466,3.466,0,0,0,.218-1.262,3.229,3.229,0,0,0-.245-1.3,2.747,2.747,0,0,0-.676-.952,2.885,2.885,0,0,0-1.017-.584,3.925,3.925,0,0,0-1.262-.2,4.207,4.207,0,0,0-1.352.236,6.371,6.371,0,0,0-1.282.593l.128-6.935h6.787Z" transform="translate(-586.481 -320.417)" fill="#464749"/>
            <path id="Path_15027" data-name="Path 15027" d="M666.113,334.252h-7.519a6.57,6.57,0,0,1-2.643-.528,6.5,6.5,0,0,1-2.1-1.442,6.691,6.691,0,0,1-1.4-2.167,7.393,7.393,0,0,1,0-5.407,6.71,6.71,0,0,1,1.4-2.167,6.659,6.659,0,0,1,9.495,0,6.706,6.706,0,0,1,1.4,2.167,7.088,7.088,0,0,1,.512,2.7,6.647,6.647,0,0,1-.22,1.686,6.506,6.506,0,0,1-.631,1.565,5.989,5.989,0,0,1-.988,1.3,4.211,4.211,0,0,1-1.307.894v.038h4.006Zm-12.531-6.841a5.723,5.723,0,0,0,.384,2.11,5.347,5.347,0,0,0,1.053,1.706,4.875,4.875,0,0,0,7.151,0,5.346,5.346,0,0,0,1.051-1.706,5.691,5.691,0,0,0,.386-2.11,5.823,5.823,0,0,0-.375-2.092,5.291,5.291,0,0,0-1.044-1.708,4.977,4.977,0,0,0-1.581-1.149,4.99,4.99,0,0,0-4.024,0A4.984,4.984,0,0,0,655,323.613a5.286,5.286,0,0,0-1.042,1.708A5.786,5.786,0,0,0,653.582,327.412Z" transform="translate(-581.951 -320.569)" fill="#464749"/>
          </g>
          <g id="Group_5097" data-name="Group 5097" transform="translate(26.574 30.812)">
            <path id="Path_15028" data-name="Path 15028" d="M613.121,337.847H618.1a6.661,6.661,0,0,1,1.354.15,6.566,6.566,0,0,1,2.771,1.338,5.717,5.717,0,0,1,1.143,1.273,6.462,6.462,0,0,1,.786,1.715,8.4,8.4,0,0,1,0,4.39,6.462,6.462,0,0,1-.786,1.715,5.636,5.636,0,0,1-1.143,1.273,6.617,6.617,0,0,1-1.354.858,6.665,6.665,0,0,1-2.771.631h-4.976Zm1.538,11.871h2.926a6.763,6.763,0,0,0,2.066-.3,4.352,4.352,0,0,0,1.646-.932,4.41,4.41,0,0,0,1.1-1.612,7.1,7.1,0,0,0,0-4.711,4.235,4.235,0,0,0-2.744-2.544,6.819,6.819,0,0,0-2.066-.3h-2.926Z" transform="translate(-613.121 -337.506)" fill="#464749"/>
            <path id="Path_15029" data-name="Path 15029" d="M627.325,340.354a2.283,2.283,0,0,0-1.026-.932,3.174,3.174,0,0,0-1.334-.292,3.886,3.886,0,0,0-1.008.132,2.969,2.969,0,0,0-.885.395,1.963,1.963,0,0,0-.631.7,2.087,2.087,0,0,0-.238,1.017,2.17,2.17,0,0,0,.137.8,1.714,1.714,0,0,0,.447.631,3.371,3.371,0,0,0,.842.528,11.3,11.3,0,0,0,1.3.489c.5.164.983.339,1.453.528a4.932,4.932,0,0,1,1.244.716,3.165,3.165,0,0,1,.86,1.084,4.21,4.21,0,0,1-.065,3.364,3.619,3.619,0,0,1-1.013,1.215,4.355,4.355,0,0,1-1.455.716,6.231,6.231,0,0,1-2.836.132,5.359,5.359,0,0,1-1.089-.319,4.388,4.388,0,0,1-.977-.566,3.314,3.314,0,0,1-.786-.856l1.316-1.112a2.748,2.748,0,0,0,1.172,1.112,3.5,3.5,0,0,0,1.59.377,3.443,3.443,0,0,0,1-.151,2.982,2.982,0,0,0,.905-.444,2.388,2.388,0,0,0,.658-.725,1.919,1.919,0,0,0,.256-1,2.191,2.191,0,0,0-.2-1.008,1.839,1.839,0,0,0-.622-.669,4.631,4.631,0,0,0-1.062-.508c-.426-.152-.927-.328-1.5-.528a9.724,9.724,0,0,1-1.28-.518,3.94,3.94,0,0,1-1.015-.718,3.093,3.093,0,0,1-.678-1.017,3.748,3.748,0,0,1-.245-1.423,3.633,3.633,0,0,1,.366-1.679,3.5,3.5,0,0,1,.988-1.2,4.427,4.427,0,0,1,1.408-.727,5.785,5.785,0,0,1,3.648.1,3.943,3.943,0,0,1,1.621,1.215Z" transform="translate(-607.385 -337.658)" fill="#464749"/>
            <path id="Path_15030" data-name="Path 15030" d="M626.411,337.847h8.031v1.47h-6.493v4.408h6.035V345.2h-6.035v5.993h-1.538Z" transform="translate(-602.449 -337.506)" fill="#464749"/>
            <path id="Path_15031" data-name="Path 15031" d="M631.6,342.362h4.482v1.356H631.6Z" transform="translate(-598.278 -333.88)" fill="#464749"/>
            <path id="Path_15032" data-name="Path 15032" d="M640.332,351.19H638.8V339.883h-.036l-2.324,2.016-.914-1.15,3.476-2.9h1.334Z" transform="translate(-595.133 -337.506)" fill="#464749"/>
            <path id="Path_15033" data-name="Path 15033" d="M643.574,343.406l.038.038a2.749,2.749,0,0,1,.849-.3,4.687,4.687,0,0,1,.887-.1,4.033,4.033,0,0,1,1.565.3,3.6,3.6,0,0,1,1.244.858,3.994,3.994,0,0,1,.813,1.329,4.731,4.731,0,0,1,.292,1.7,4.426,4.426,0,0,1-.328,1.753,3.692,3.692,0,0,1-.914,1.309,4.118,4.118,0,0,1-1.381.829,5.153,5.153,0,0,1-3.42,0,4.124,4.124,0,0,1-1.383-.829,3.74,3.74,0,0,1-.914-1.309,4.425,4.425,0,0,1-.328-1.753,5.422,5.422,0,0,1,.346-2.018,11.773,11.773,0,0,1,.878-1.733l3.44-5.635h1.792Zm1.354,1a3.014,3.014,0,0,0-1.1.2,2.6,2.6,0,0,0-.889.564,2.693,2.693,0,0,0-.595.9,3.26,3.26,0,0,0,0,2.346,2.7,2.7,0,0,0,.595.885,2.578,2.578,0,0,0,.889.566,3.135,3.135,0,0,0,2.194,0,2.586,2.586,0,0,0,.887-.566,2.7,2.7,0,0,0,.6-.885,3.237,3.237,0,0,0,0-2.346,2.694,2.694,0,0,0-.6-.9,2.608,2.608,0,0,0-.887-.564A3.023,3.023,0,0,0,644.928,344.4Z" transform="translate(-591.059 -337.506)" fill="#464749"/>
            <path id="Path_15034" data-name="Path 15034" d="M646.2,344.618a15.613,15.613,0,0,1,.184-2.355,7.526,7.526,0,0,1,.676-2.232,4.568,4.568,0,0,1,1.345-1.659,4,4,0,0,1,4.372,0,4.6,4.6,0,0,1,1.343,1.659,7.7,7.7,0,0,1,.678,2.232,15.331,15.331,0,0,1,0,4.711,7.715,7.715,0,0,1-.678,2.234,4.612,4.612,0,0,1-1.343,1.657,4,4,0,0,1-4.372,0,4.578,4.578,0,0,1-1.345-1.657,7.538,7.538,0,0,1-.676-2.234A15.619,15.619,0,0,1,646.2,344.618Zm1.536,0c0,.328.011.692.036,1.095s.07.808.137,1.215a8.173,8.173,0,0,0,.292,1.2,3.875,3.875,0,0,0,.514,1.035,2.525,2.525,0,0,0,.777.727,2.336,2.336,0,0,0,2.2,0,2.527,2.527,0,0,0,.777-.727,3.877,3.877,0,0,0,.512-1.035,7.945,7.945,0,0,0,.292-1.2q.1-.611.137-1.215t.038-1.095c0-.326-.013-.689-.038-1.093s-.07-.806-.137-1.215a7.872,7.872,0,0,0-.292-1.2,3.89,3.89,0,0,0-.512-1.037,2.549,2.549,0,0,0-.777-.727,2.35,2.35,0,0,0-2.2,0,2.547,2.547,0,0,0-.777.727,3.888,3.888,0,0,0-.514,1.037,8.1,8.1,0,0,0-.292,1.2c-.067.409-.112.813-.137,1.215S647.74,344.291,647.74,344.618Z" transform="translate(-586.554 -337.607)" fill="#464749"/>
            <path id="Path_15035" data-name="Path 15035" d="M666.113,351.341h-7.519a6.571,6.571,0,0,1-2.643-.528,6.5,6.5,0,0,1-2.1-1.442,6.711,6.711,0,0,1-1.4-2.167,7.393,7.393,0,0,1,0-5.407,6.709,6.709,0,0,1,1.4-2.167,6.659,6.659,0,0,1,9.495,0,6.706,6.706,0,0,1,1.4,2.167,7.088,7.088,0,0,1,.512,2.7,6.647,6.647,0,0,1-.22,1.686,6.465,6.465,0,0,1-.631,1.563,5.957,5.957,0,0,1-.988,1.3,4.211,4.211,0,0,1-1.307.894v.038h4.006ZM653.582,344.5a5.723,5.723,0,0,0,.384,2.11,5.367,5.367,0,0,0,1.053,1.706,4.843,4.843,0,0,0,1.581,1.139,4.976,4.976,0,0,0,3.978,0,4.811,4.811,0,0,0,1.592-1.139,5.366,5.366,0,0,0,1.051-1.706,5.691,5.691,0,0,0,.386-2.11,5.823,5.823,0,0,0-.375-2.092,5.291,5.291,0,0,0-1.044-1.707,4.975,4.975,0,0,0-1.581-1.149,4.989,4.989,0,0,0-4.024,0A4.982,4.982,0,0,0,655,340.7a5.286,5.286,0,0,0-1.042,1.707A5.787,5.787,0,0,0,653.582,344.5Z" transform="translate(-581.951 -337.658)" fill="#464749"/>
          </g>
          <g id="Group_5098" data-name="Group 5098" transform="translate(26.574 62.266)">
            <path id="Path_15036" data-name="Path 15036" d="M613.121,355.291H618.1a6.546,6.546,0,0,1,1.354.151,6.511,6.511,0,0,1,2.771,1.338,5.667,5.667,0,0,1,1.143,1.271,6.513,6.513,0,0,1,.786,1.715,8.4,8.4,0,0,1,0,4.392,6.514,6.514,0,0,1-.786,1.715,5.666,5.666,0,0,1-1.143,1.271,6.511,6.511,0,0,1-2.771,1.338,6.546,6.546,0,0,1-1.354.151h-4.976Zm1.538,11.873h2.926a6.819,6.819,0,0,0,2.066-.3,4.244,4.244,0,0,0,2.744-2.546,7.1,7.1,0,0,0,0-4.71,4.243,4.243,0,0,0-2.744-2.546,6.817,6.817,0,0,0-2.066-.3h-2.926Z" transform="translate(-613.121 -354.952)" fill="#464749"/>
            <path id="Path_15037" data-name="Path 15037" d="M627.325,357.8a2.283,2.283,0,0,0-1.026-.932,3.172,3.172,0,0,0-1.334-.292,3.884,3.884,0,0,0-1.008.132,2.927,2.927,0,0,0-.885.4,1.943,1.943,0,0,0-.631.7,2.09,2.09,0,0,0-.238,1.019,2.166,2.166,0,0,0,.137.8,1.7,1.7,0,0,0,.447.631,3.321,3.321,0,0,0,.842.528,11.633,11.633,0,0,0,1.3.49c.5.162.983.339,1.453.527a4.884,4.884,0,0,1,1.244.718,3.148,3.148,0,0,1,.86,1.084,4.205,4.205,0,0,1-.065,3.363,3.6,3.6,0,0,1-1.013,1.215,4.394,4.394,0,0,1-1.455.718,6.164,6.164,0,0,1-1.7.234,6.365,6.365,0,0,1-1.136-.1,5.485,5.485,0,0,1-1.089-.321,4.385,4.385,0,0,1-.977-.564,3.323,3.323,0,0,1-.786-.858l1.316-1.113a2.738,2.738,0,0,0,1.172,1.113,3.5,3.5,0,0,0,1.59.377,3.44,3.44,0,0,0,1-.151,2.941,2.941,0,0,0,.905-.444,2.347,2.347,0,0,0,.658-.725,1.919,1.919,0,0,0,.256-1,2.191,2.191,0,0,0-.2-1.008,1.853,1.853,0,0,0-.622-.669,4.706,4.706,0,0,0-1.062-.508c-.426-.151-.927-.326-1.5-.528a9.249,9.249,0,0,1-1.28-.517,3.942,3.942,0,0,1-1.015-.718,3.057,3.057,0,0,1-.678-1.017,3.736,3.736,0,0,1-.245-1.423,3.62,3.62,0,0,1,.366-1.677,3.484,3.484,0,0,1,.988-1.2,4.383,4.383,0,0,1,1.408-.725,5.469,5.469,0,0,1,1.646-.245,5.559,5.559,0,0,1,2,.348,3.944,3.944,0,0,1,1.621,1.215Z" transform="translate(-607.385 -355.103)" fill="#464749"/>
            <path id="Path_15038" data-name="Path 15038" d="M626.411,355.291h8.031v1.469h-6.493v4.41h6.035v1.47h-6.035v5.993h-1.538Z" transform="translate(-602.449 -354.952)" fill="#464749"/>
            <path id="Path_15039" data-name="Path 15039" d="M631.6,359.806h4.482v1.358H631.6Z" transform="translate(-598.278 -351.326)" fill="#464749"/>
            <path id="Path_15040" data-name="Path 15040" d="M640.332,368.634H638.8V357.327h-.036l-2.324,2.016-.914-1.15,3.476-2.9h1.334Z" transform="translate(-595.133 -354.952)" fill="#464749"/>
            <path id="Path_15041" data-name="Path 15041" d="M646.283,363.173l-.036-.036a2.775,2.775,0,0,1-.851.3,4.676,4.676,0,0,1-.887.094,4.008,4.008,0,0,1-1.565-.3,3.6,3.6,0,0,1-1.244-.856,4.026,4.026,0,0,1-.813-1.32,4.7,4.7,0,0,1-.292-1.706,4.426,4.426,0,0,1,.328-1.753,3.741,3.741,0,0,1,.914-1.309,4.124,4.124,0,0,1,1.383-.829,5.152,5.152,0,0,1,3.42,0,4.118,4.118,0,0,1,1.381.829,3.693,3.693,0,0,1,.914,1.309,4.427,4.427,0,0,1,.328,1.753,5.86,5.86,0,0,1-.09,1.075,5.936,5.936,0,0,1-.256.941,6.608,6.608,0,0,1-.393.876q-.23.425-.485.858l-3.44,5.635h-1.792Zm-1.354-1a3.022,3.022,0,0,0,1.1-.2,2.587,2.587,0,0,0,.887-.566,2.684,2.684,0,0,0,.6-.885,3.237,3.237,0,0,0,0-2.346,2.692,2.692,0,0,0-.6-.9,2.606,2.606,0,0,0-.887-.564,3.134,3.134,0,0,0-2.194,0,2.6,2.6,0,0,0-.889.564,2.692,2.692,0,0,0-.595.9,3.26,3.26,0,0,0,0,2.346,2.684,2.684,0,0,0,.595.885,2.579,2.579,0,0,0,.889.566A3.012,3.012,0,0,0,644.928,362.176Z" transform="translate(-591.059 -355.052)" fill="#464749"/>
            <path id="Path_15042" data-name="Path 15042" d="M646.2,362.063a15.6,15.6,0,0,1,.184-2.355,7.522,7.522,0,0,1,.676-2.234,4.583,4.583,0,0,1,1.345-1.659,4.006,4.006,0,0,1,4.372,0,4.617,4.617,0,0,1,1.343,1.659,7.7,7.7,0,0,1,.678,2.234,15.319,15.319,0,0,1,0,4.71,7.7,7.7,0,0,1-.678,2.234,4.617,4.617,0,0,1-1.343,1.659,4.006,4.006,0,0,1-4.372,0,4.583,4.583,0,0,1-1.345-1.659,7.522,7.522,0,0,1-.676-2.234A15.6,15.6,0,0,1,646.2,362.063Zm1.536,0c0,.326.011.69.036,1.093s.07.808.137,1.217a8.152,8.152,0,0,0,.292,1.2,3.888,3.888,0,0,0,.514,1.037,2.519,2.519,0,0,0,.777.725,2.337,2.337,0,0,0,2.2,0,2.521,2.521,0,0,0,.777-.725,3.889,3.889,0,0,0,.512-1.037,7.925,7.925,0,0,0,.292-1.2q.1-.614.137-1.217t.038-1.093q0-.49-.038-1.093t-.137-1.215a7.893,7.893,0,0,0-.292-1.2,3.889,3.889,0,0,0-.512-1.037,2.571,2.571,0,0,0-.777-.727,2.35,2.35,0,0,0-2.2,0,2.568,2.568,0,0,0-.777.727,3.887,3.887,0,0,0-.514,1.037,8.118,8.118,0,0,0-.292,1.2q-.1.611-.137,1.215C647.751,361.372,647.74,361.736,647.74,362.063Z" transform="translate(-586.554 -355.052)" fill="#464749"/>
            <path id="Path_15043" data-name="Path 15043" d="M666.113,368.784h-7.519a6.571,6.571,0,0,1-2.643-.528,6.494,6.494,0,0,1-2.1-1.441,6.731,6.731,0,0,1-1.4-2.167,7.4,7.4,0,0,1,0-5.409,6.729,6.729,0,0,1,1.4-2.167,6.665,6.665,0,0,1,9.495,0,6.726,6.726,0,0,1,1.4,2.167,7.087,7.087,0,0,1,.512,2.7,6.651,6.651,0,0,1-.22,1.688,6.465,6.465,0,0,1-.631,1.563,5.946,5.946,0,0,1-.988,1.3,4.247,4.247,0,0,1-1.307.9v.038h4.006Zm-12.531-6.841a5.723,5.723,0,0,0,.384,2.11,5.348,5.348,0,0,0,1.053,1.706,4.87,4.87,0,0,0,7.151,0,5.346,5.346,0,0,0,1.051-1.706,5.691,5.691,0,0,0,.386-2.11,5.823,5.823,0,0,0-.375-2.091,5.282,5.282,0,0,0-1.044-1.706,4.982,4.982,0,0,0-1.581-1.15,4.989,4.989,0,0,0-4.024,0,4.989,4.989,0,0,0-1.583,1.15,5.278,5.278,0,0,0-1.042,1.706A5.786,5.786,0,0,0,653.582,361.944Z" transform="translate(-581.951 -355.103)" fill="#464749"/>
          </g>
          <g id="Group_5101" data-name="Group 5101" transform="translate(150.492 1.004)">
            <path id="Path_15083" data-name="Path 15083" d="M682.288,324.611a3.5,3.5,0,0,1,.283-1.432,3.225,3.225,0,0,1,.777-1.093,3.539,3.539,0,0,1,1.17-.707,4.338,4.338,0,0,1,2.926,0,3.564,3.564,0,0,1,1.172.707,3.251,3.251,0,0,1,.777,1.093,3.5,3.5,0,0,1,.283,1.432,3.139,3.139,0,0,1-1.233,2.506,2.531,2.531,0,0,1-.887.435v.038a3.2,3.2,0,0,1,1.06.442,3.055,3.055,0,0,1,.8.763,3.537,3.537,0,0,1,.512,1.028,3.964,3.964,0,0,1,.184,1.2,4.007,4.007,0,0,1-.321,1.63,3.648,3.648,0,0,1-.876,1.235,3.791,3.791,0,0,1-1.318.772,5.111,5.111,0,0,1-3.238,0,3.735,3.735,0,0,1-1.316-.772,3.657,3.657,0,0,1-.88-1.235,4.194,4.194,0,0,1-.137-2.827,3.594,3.594,0,0,1,.512-1.028,3.067,3.067,0,0,1,.806-.763,3.162,3.162,0,0,1,1.062-.442v-.038a2.51,2.51,0,0,1-.889-.435,3.125,3.125,0,0,1-.667-.7,3.2,3.2,0,0,1-.42-.867A3.115,3.115,0,0,1,682.288,324.611Zm1.1,6.294a2.783,2.783,0,0,0,.2,1.075,2.457,2.457,0,0,0,.557.838,2.63,2.63,0,0,0,.824.546,2.7,2.7,0,0,0,2.03,0,2.641,2.641,0,0,0,.822-.546,2.46,2.46,0,0,0,.559-.838,2.985,2.985,0,0,0,0-2.149,2.46,2.46,0,0,0-.559-.838,2.643,2.643,0,0,0-.822-.546,2.7,2.7,0,0,0-2.03,0,2.631,2.631,0,0,0-.824.546,2.457,2.457,0,0,0-.557.838A2.789,2.789,0,0,0,683.384,330.906Zm.438-6.219a2.206,2.206,0,0,0,.595,1.583,2.278,2.278,0,0,0,3.128,0,2.4,2.4,0,0,0,0-3.166,2.278,2.278,0,0,0-3.128,0A2.206,2.206,0,0,0,683.822,324.687Z" transform="translate(-681.848 -321.126)" fill="#464749"/>
            <path id="Path_15084" data-name="Path 15084" d="M688.859,327.46a1.053,1.053,0,0,1,.779.328,1.11,1.11,0,0,1,.317.8,1.1,1.1,0,1,1-2.193,0,1.1,1.1,0,0,1,.319-.8A1.049,1.049,0,0,1,688.859,327.46Z" transform="translate(-677.098 -316.04)" fill="#464749"/>
            <path id="Path_15085" data-name="Path 15085" d="M690.167,328.023a15.61,15.61,0,0,1,.184-2.355,7.532,7.532,0,0,1,.676-2.234,4.585,4.585,0,0,1,1.345-1.659,4,4,0,0,1,4.37,0,4.6,4.6,0,0,1,1.345,1.659,7.692,7.692,0,0,1,.678,2.234,15.319,15.319,0,0,1,0,4.71,7.694,7.694,0,0,1-.678,2.234,4.6,4.6,0,0,1-1.345,1.659,4,4,0,0,1-4.37,0,4.585,4.585,0,0,1-1.345-1.659,7.533,7.533,0,0,1-.676-2.234A15.61,15.61,0,0,1,690.167,328.023Zm1.536,0c0,.326.011.691.036,1.093s.07.808.137,1.215a8.1,8.1,0,0,0,.292,1.2,3.9,3.9,0,0,0,.514,1.037,2.521,2.521,0,0,0,.777.725,2.338,2.338,0,0,0,2.2,0,2.542,2.542,0,0,0,.777-.725,3.948,3.948,0,0,0,.512-1.037,7.892,7.892,0,0,0,.292-1.2q.1-.611.137-1.215t.038-1.093q0-.49-.038-1.093t-.137-1.217a7.922,7.922,0,0,0-.292-1.2,3.948,3.948,0,0,0-.512-1.037,2.592,2.592,0,0,0-.777-.727,2.351,2.351,0,0,0-2.2,0,2.571,2.571,0,0,0-.777.727,3.9,3.9,0,0,0-.514,1.037,8.134,8.134,0,0,0-.292,1.2q-.1.614-.137,1.217C691.714,327.332,691.7,327.7,691.7,328.023Z" transform="translate(-675.168 -321.126)" fill="#464749"/>
          </g>
          <g id="Group_5102" data-name="Group 5102" transform="translate(150.492 31.986)">
            <path id="Path_15086" data-name="Path 15086" d="M682.288,341.794a3.5,3.5,0,0,1,.283-1.432,3.225,3.225,0,0,1,.777-1.093,3.539,3.539,0,0,1,1.17-.707,4.338,4.338,0,0,1,2.926,0,3.564,3.564,0,0,1,1.172.707,3.251,3.251,0,0,1,.777,1.093,3.5,3.5,0,0,1,.283,1.432,3.139,3.139,0,0,1-1.233,2.506,2.53,2.53,0,0,1-.887.435v.038a3.2,3.2,0,0,1,1.06.442,3.062,3.062,0,0,1,.8.764,3.5,3.5,0,0,1,.512,1.026,3.964,3.964,0,0,1,.184,1.2,4.008,4.008,0,0,1-.321,1.63,3.649,3.649,0,0,1-.876,1.235,3.792,3.792,0,0,1-1.318.772,5.078,5.078,0,0,1-3.238,0,3.735,3.735,0,0,1-1.316-.772,3.658,3.658,0,0,1-.88-1.235,4.194,4.194,0,0,1-.137-2.827,3.561,3.561,0,0,1,.512-1.026,3.073,3.073,0,0,1,.806-.764,3.16,3.16,0,0,1,1.062-.442v-.038a2.508,2.508,0,0,1-.889-.435,3.125,3.125,0,0,1-.667-.7,3.2,3.2,0,0,1-.42-.867A3.107,3.107,0,0,1,682.288,341.794Zm1.1,6.294a2.783,2.783,0,0,0,.2,1.075,2.457,2.457,0,0,0,.557.838,2.63,2.63,0,0,0,.824.546,2.7,2.7,0,0,0,2.03,0,2.641,2.641,0,0,0,.822-.546,2.459,2.459,0,0,0,.559-.838,2.985,2.985,0,0,0,0-2.149,2.46,2.46,0,0,0-.559-.838,2.675,2.675,0,0,0-.822-.546,2.7,2.7,0,0,0-2.03,0,2.663,2.663,0,0,0-.824.546,2.457,2.457,0,0,0-.557.838A2.789,2.789,0,0,0,683.384,348.089Zm.438-6.219a2.206,2.206,0,0,0,.595,1.583,2.278,2.278,0,0,0,3.128,0,2.4,2.4,0,0,0,0-3.166,2.278,2.278,0,0,0-3.128,0A2.206,2.206,0,0,0,683.822,341.87Z" transform="translate(-681.848 -338.309)" fill="#464749"/>
            <path id="Path_15087" data-name="Path 15087" d="M688.859,344.643a1.053,1.053,0,0,1,.779.328,1.111,1.111,0,0,1,.317.8,1.076,1.076,0,0,1-.337.8,1.038,1.038,0,0,1-1.518,0,1.076,1.076,0,0,1-.337-.8,1.105,1.105,0,0,1,.319-.8A1.049,1.049,0,0,1,688.859,344.643Z" transform="translate(-677.098 -333.223)" fill="#464749"/>
            <path id="Path_15088" data-name="Path 15088" d="M698.069,339.9h-5.287l-.054,3.6a2.541,2.541,0,0,1,.813-.254,5.708,5.708,0,0,1,.851-.067,4.194,4.194,0,0,1,1.691.33,3.842,3.842,0,0,1,1.309.923,4.107,4.107,0,0,1,.842,1.4,5.047,5.047,0,0,1,.292,1.742,4.725,4.725,0,0,1-.339,1.819,4.082,4.082,0,0,1-.932,1.394,4.244,4.244,0,0,1-1.41.9,4.783,4.783,0,0,1-1.763.321,3.974,3.974,0,0,1-2.387-.66,4.571,4.571,0,0,1-1.437-1.772l1.536-.6a2.929,2.929,0,0,0,.961,1.215,2.4,2.4,0,0,0,1.453.462,2.7,2.7,0,0,0,1.089-.218,2.54,2.54,0,0,0,.878-.62,3.007,3.007,0,0,0,.6-.97,3.477,3.477,0,0,0,.218-1.264,3.2,3.2,0,0,0-.247-1.3,2.7,2.7,0,0,0-.676-.952,2.86,2.86,0,0,0-1.015-.584,3.923,3.923,0,0,0-1.262-.2,4.21,4.21,0,0,0-1.352.236,6.37,6.37,0,0,0-1.282.593l.128-6.935h6.787Z" transform="translate(-675.094 -338.209)" fill="#464749"/>
          </g>
          <g id="Group_5103" data-name="Group 5103" transform="translate(150.29 62.986)">
            <path id="Path_15089" data-name="Path 15089" d="M687.426,363.511l-.038-.038a2.726,2.726,0,0,1-.851.3,4.516,4.516,0,0,1-.887.1,4.04,4.04,0,0,1-1.563-.3,3.564,3.564,0,0,1-1.244-.858,4.032,4.032,0,0,1-.815-1.32,4.734,4.734,0,0,1-.292-1.706,4.427,4.427,0,0,1,.33-1.753,3.756,3.756,0,0,1,.914-1.309,4.117,4.117,0,0,1,1.381-.829,5.158,5.158,0,0,1,3.422,0,4.093,4.093,0,0,1,1.379.829,3.708,3.708,0,0,1,.914,1.309,4.427,4.427,0,0,1,.33,1.753,5.83,5.83,0,0,1-.092,1.075,5.927,5.927,0,0,1-.254.941,6.72,6.72,0,0,1-.393.878q-.23.425-.487.856l-3.438,5.634H683.95Zm-1.354-1a2.99,2.99,0,0,0,1.1-.2,2.573,2.573,0,0,0,.885-.564,2.694,2.694,0,0,0,.595-.885,3.241,3.241,0,0,0,0-2.348,2.659,2.659,0,0,0-.595-.894,2.6,2.6,0,0,0-.885-.566,3.138,3.138,0,0,0-2.2,0,2.613,2.613,0,0,0-.887.566,2.662,2.662,0,0,0-.595.894,3.265,3.265,0,0,0,0,2.348,2.7,2.7,0,0,0,.595.885,2.583,2.583,0,0,0,.887.564A2.99,2.99,0,0,0,686.072,362.512Z" transform="translate(-681.736 -355.502)" fill="#464749"/>
            <path id="Path_15090" data-name="Path 15090" d="M688.859,361.836a1.048,1.048,0,0,1,.779.33,1.107,1.107,0,0,1,.317.8,1.076,1.076,0,0,1-.337.8,1.038,1.038,0,0,1-1.518,0,1.076,1.076,0,0,1-.337-.8,1.1,1.1,0,0,1,.319-.8A1.044,1.044,0,0,1,688.859,361.836Z" transform="translate(-676.896 -350.416)" fill="#464749"/>
            <path id="Path_15091" data-name="Path 15091" d="M690.167,362.4a15.628,15.628,0,0,1,.184-2.355,7.547,7.547,0,0,1,.676-2.234,4.6,4.6,0,0,1,1.345-1.659,4,4,0,0,1,4.37,0,4.617,4.617,0,0,1,1.345,1.659,7.709,7.709,0,0,1,.678,2.234,15.331,15.331,0,0,1,0,4.711,7.709,7.709,0,0,1-.678,2.234,4.6,4.6,0,0,1-1.345,1.657,3.993,3.993,0,0,1-4.37,0,4.579,4.579,0,0,1-1.345-1.657,7.548,7.548,0,0,1-.676-2.234A15.634,15.634,0,0,1,690.167,362.4Zm1.536,0c0,.328.011.692.036,1.094s.07.806.137,1.215a8.158,8.158,0,0,0,.292,1.2,3.913,3.913,0,0,0,.514,1.035,2.525,2.525,0,0,0,.777.727,2.351,2.351,0,0,0,2.2,0,2.546,2.546,0,0,0,.777-.727,3.966,3.966,0,0,0,.512-1.035,7.946,7.946,0,0,0,.292-1.2c.067-.409.112-.813.137-1.215s.038-.766.038-1.094-.013-.691-.038-1.093-.07-.808-.137-1.215a7.946,7.946,0,0,0-.292-1.2,3.964,3.964,0,0,0-.512-1.035,2.547,2.547,0,0,0-.777-.727,2.337,2.337,0,0,0-2.2,0,2.526,2.526,0,0,0-.777.727,3.912,3.912,0,0,0-.514,1.035,8.158,8.158,0,0,0-.292,1.2q-.1.611-.137,1.215C691.714,361.708,691.7,362.072,691.7,362.4Z" transform="translate(-674.966 -355.502)" fill="#464749"/>
          </g>
          <line id="Line_2295" data-name="Line 2295" x1="107.003" transform="translate(45.776 22.139)" fill="#e0e1e3"/>
          <line id="Line_2296" data-name="Line 2296" x1="107.003" transform="translate(45.776 22.139)" fill="none" stroke="#e0e1e3" stroke-miterlimit="10" stroke-width="0.249"/>
          <line id="Line_2297" data-name="Line 2297" x1="107.003" transform="translate(45.776 53.136)" fill="#e0e1e3"/>
          <line id="Line_2298" data-name="Line 2298" x1="107.003" transform="translate(45.776 53.136)" fill="none" stroke="#e0e1e3" stroke-miterlimit="10" stroke-width="0.249"/>
          <line id="Line_2299" data-name="Line 2299" x1="107.003" transform="translate(45.776 84.131)" fill="#e0e1e3"/>
          <line id="Line_2300" data-name="Line 2300" x1="107.003" transform="translate(45.776 84.131)" fill="none" stroke="#e0e1e3" stroke-miterlimit="10" stroke-width="0.249"/>
        </g>
      </g>
    </g>
  </g>
</svg>
